<svg width="1000" height="688" viewBox="0 0 1000 688" fill="none" xmlns="http://www.w3.org/2000/svg">
<g opacity="0.5" clip-path="url(#clip0_288_205)">
<path d="M1000.02 0H0V687.511H1000.02V0Z" fill="white"/>
<path d="M0 62.5019C0 45.9254 6.58501 30.0278 18.3064 18.3064C30.0278 6.58501 45.9254 0 62.5019 0L0 62.5019C16.5765 62.5019 32.4741 55.9169 44.1955 44.1955C55.9169 32.4741 62.5019 16.5765 62.5019 0" fill="#B0E6DD"/>
<path d="M62.502 62.5019C62.502 45.9254 69.087 30.0278 80.8083 18.3064C92.5297 6.58501 108.427 0 125.004 0L62.502 62.5019C79.0785 62.5019 94.9761 55.9169 106.697 44.1955C118.419 32.4741 125.004 16.5765 125.004 0" fill="#E4F7F3"/>
<path d="M125.004 0C141.58 0 157.478 6.58501 169.199 18.3064C180.921 30.0278 187.506 45.9254 187.506 62.5019L125.004 0C125.004 16.5765 131.589 32.4741 143.31 44.1955C155.032 55.9169 170.929 62.5019 187.506 62.5019" fill="#59CBB7"/>
<path d="M250.004 0H187.503V62.501H250.004V0Z" fill="white"/>
<path d="M187.506 0C195.793 0 203.74 3.29194 209.6 9.15164C215.46 15.0113 218.752 22.9588 218.752 31.2457L187.506 0C187.506 8.28686 190.798 16.2343 196.658 22.094C202.517 27.9537 210.465 31.2457 218.752 31.2457" fill="#FF9448"/>
<path d="M218.751 31.2457C218.751 22.9588 222.043 15.0113 227.903 9.15164C233.763 3.29194 241.71 0 249.997 0L218.751 31.2457C227.038 31.2457 234.986 27.9537 240.845 22.094C246.705 16.2343 249.997 8.28686 249.997 0" fill="#FBFEFD"/>
<path d="M187.506 31.2457C195.793 31.2457 203.74 34.5376 209.6 40.3973C215.46 46.257 218.752 54.2045 218.752 62.4913L187.506 31.2457C187.506 39.5325 190.798 47.48 196.658 53.3397C202.517 59.1994 210.465 62.4913 218.752 62.4913" fill="#96DED2"/>
<path d="M218.751 62.4913C218.751 54.2045 222.043 46.257 227.903 40.3973C233.763 34.5376 241.71 31.2457 249.997 31.2457L218.751 62.4913C227.038 62.4913 234.986 59.1994 240.845 53.3397C246.705 47.48 249.997 39.5325 249.997 31.2457" fill="#FF7E22"/>
<path d="M250.008 0C266.584 0 282.482 6.58501 294.203 18.3064C305.925 30.0278 312.51 45.9254 312.51 62.5019L250.008 0C250.008 16.5765 256.593 32.4741 268.314 44.1955C280.036 55.9169 295.933 62.5019 312.51 62.5019" fill="#62CEBB"/>
<path d="M375.006 0H312.505V62.501H375.006V0Z" fill="white"/>
<path d="M312.51 0C320.797 0 328.744 3.29194 334.604 9.15164C340.463 15.0113 343.755 22.9588 343.755 31.2457L312.51 0C312.51 8.28686 315.802 16.2343 321.661 22.094C327.521 27.9537 335.469 31.2457 343.755 31.2457" fill="#FAFEFD"/>
<path d="M343.755 31.2457C343.755 22.9588 347.047 15.0113 352.907 9.15164C358.767 3.29194 366.714 0 375.001 0L343.755 31.2457C352.042 31.2457 359.99 27.9537 365.849 22.094C371.709 16.2343 375.001 8.28686 375.001 0" fill="#FFDC6D"/>
<path d="M312.51 62.4913C312.51 54.2045 315.802 46.257 321.661 40.3973C327.521 34.5376 335.469 31.2457 343.755 31.2457L312.51 62.4913C320.797 62.4913 328.744 59.1994 334.604 53.3397C340.463 47.48 343.755 39.5325 343.755 31.2457" fill="#91DCD0"/>
<path d="M343.755 62.4913C343.755 54.2045 347.047 46.257 352.907 40.3973C358.767 34.5376 366.714 31.2457 375.001 31.2457L343.755 62.4913C352.042 62.4913 359.99 59.1994 365.849 53.3397C371.709 47.48 375.001 39.5325 375.001 31.2457" fill="#FFF6DA"/>
<path d="M437.507 0H375.006V62.501H437.507V0Z" fill="white"/>
<path d="M375.001 31.2457C375.001 22.9588 378.293 15.0113 384.153 9.15164C390.012 3.29194 397.96 0 406.247 0L375.001 31.2457C383.288 31.2457 391.235 27.9537 397.095 22.094C402.955 16.2343 406.247 8.28686 406.247 0" fill="#FF954A"/>
<path d="M406.257 0C414.544 0 422.492 3.29194 428.351 9.15164C434.211 15.0113 437.503 22.9588 437.503 31.2457L406.257 0C406.257 8.28686 409.549 16.2343 415.409 22.094C421.269 27.9537 429.216 31.2457 437.503 31.2457" fill="#FFE9A3"/>
<path d="M375.001 62.4913C375.001 54.2045 378.293 46.257 384.153 40.3973C390.012 34.5376 397.96 31.2457 406.247 31.2457L375.001 62.4913C383.288 62.4913 391.235 59.1994 397.095 53.3397C402.955 47.48 406.247 39.5325 406.247 31.2457" fill="#9ADFD3"/>
<path d="M625.01 0H562.509V62.501H625.01V0Z" fill="white"/>
<path d="M562.507 31.2457C562.507 22.9588 565.799 15.0113 571.659 9.15164C577.518 3.29194 585.466 0 593.753 0L562.507 31.2457C566.61 31.2457 570.673 30.4375 574.464 28.8672C578.255 27.297 581.699 24.9954 584.601 22.094C587.502 19.1926 589.804 15.7481 591.374 11.9572C592.944 8.1663 593.753 4.10324 593.753 0" fill="#FFF0C1"/>
<path d="M687.511 0H625.01V62.501H687.511V0Z" fill="white"/>
<path d="M625.009 31.2457C625.009 22.9588 628.301 15.0113 634.16 9.15164C640.02 3.29194 647.968 0 656.254 0L625.009 31.2457C633.296 31.2457 641.243 27.9537 647.103 22.094C652.962 16.2343 656.254 8.28686 656.254 0" fill="#6FD2C1"/>
<path d="M656.265 31.2457C656.265 27.1424 657.073 23.0794 658.643 19.2885C660.213 15.4976 662.515 12.0531 665.416 9.15164C668.318 6.25021 671.762 3.94868 675.553 2.37843C679.344 0.808193 683.407 0 687.51 0L656.265 31.2457C664.552 31.2457 672.499 27.9537 678.359 22.094C684.218 16.2343 687.51 8.28686 687.51 0" fill="#FFDB67"/>
<path d="M625.009 31.2457C633.296 31.2457 641.243 34.5376 647.103 40.3973C652.962 46.257 656.254 54.2045 656.254 62.4913L625.009 31.2457C625.009 39.5325 628.301 47.48 634.16 53.3397C640.02 59.1994 647.968 62.4913 656.254 62.4913" fill="#FFFBEE"/>
<path d="M656.265 62.4913C656.265 58.3881 657.073 54.325 658.643 50.5341C660.213 46.7432 662.515 43.2987 665.416 40.3973C668.318 37.4959 671.762 35.1943 675.553 33.6241C679.344 32.0539 683.407 31.2457 687.51 31.2457L656.265 62.4913C664.552 62.4913 672.499 59.1994 678.359 53.3397C684.218 47.48 687.51 39.5325 687.51 31.2457" fill="#2DBDA5"/>
<path d="M687.511 62.5019C687.511 45.9254 694.096 30.0278 705.817 18.3064C717.539 6.58501 733.436 0 750.013 0L687.511 62.5019C704.087 62.5019 719.985 55.9169 731.706 44.1955C743.428 32.4741 750.013 16.5765 750.013 0" fill="#93DDD0"/>
<path d="M750.013 0C766.589 0 782.487 6.58501 794.208 18.3064C805.93 30.0278 812.515 45.9254 812.515 62.5019L750.013 0C750.013 16.5765 756.598 32.4741 768.319 44.1955C780.041 55.9169 795.938 62.5019 812.515 62.5019" fill="#65CFBD"/>
<path d="M937.515 0H875.014V62.501H937.515V0Z" fill="white"/>
<path d="M906.262 62.4913C906.262 54.2045 909.554 46.257 915.413 40.3973C921.273 34.5376 929.221 31.2457 937.507 31.2457L906.262 62.4913C914.549 62.4913 922.496 59.1994 928.356 53.3397C934.215 47.48 937.507 39.5325 937.507 31.2457" fill="#37C0A9"/>
<path d="M937.518 0C954.095 0 969.992 6.58501 981.714 18.3064C993.435 30.0278 1000.02 45.9254 1000.02 62.5019L937.518 0C937.518 16.5765 944.103 32.4741 955.824 44.1955C967.546 55.9169 983.443 62.5019 1000.02 62.5019" fill="#FFB988"/>
<path d="M0 125.004C0 108.427 6.58501 92.5297 18.3064 80.8083C30.0278 69.0869 45.9254 62.5019 62.5019 62.5019L0 125.004C16.5765 125.004 32.4741 118.419 44.1955 106.697C55.9169 94.9761 62.5019 79.0785 62.5019 62.5019" fill="#C6EDE6"/>
<path d="M125.002 62.501H62.501V125.002H125.002V62.501Z" fill="white"/>
<path d="M62.502 93.7476C62.502 85.4607 65.7939 77.5133 71.6536 71.6536C77.5133 65.7939 85.4607 62.5019 93.7476 62.5019L62.502 93.7476C70.7888 93.7476 78.7363 90.4556 84.596 84.5959C90.4557 78.7362 93.7476 70.7888 93.7476 62.5019" fill="#F1FBF9"/>
<path d="M93.7476 93.7476C93.7476 85.4607 97.0395 77.5133 102.899 71.6536C108.759 65.7939 116.706 62.5019 124.993 62.5019L93.7476 93.7476C102.034 93.7476 109.982 90.4556 115.842 84.5959C121.701 78.7362 124.993 70.7888 124.993 62.5019" fill="#61CDBB"/>
<path d="M62.502 93.7476C70.7888 93.7476 78.7363 97.0395 84.596 102.899C90.4557 108.759 93.7476 116.706 93.7476 124.993L62.502 93.7476C62.502 102.034 65.7939 109.982 71.6536 115.842C77.5133 121.701 85.4607 124.993 93.7476 124.993" fill="#FFE2CD"/>
<path d="M125.004 125.004C125.004 108.427 131.589 92.5297 143.31 80.8083C155.032 69.0869 170.929 62.5019 187.506 62.5019L125.004 125.004C141.58 125.004 157.478 118.419 169.199 106.697C180.921 94.9761 187.506 79.0785 187.506 62.5019" fill="#FFA15D"/>
<path d="M250.008 62.5019C266.584 62.5019 282.482 69.0869 294.203 80.8083C305.925 92.5297 312.51 108.427 312.51 125.004L250.008 62.5019C250.008 79.0785 256.593 94.9761 268.314 106.697C280.036 118.419 295.933 125.004 312.51 125.004" fill="#FFD44B"/>
<path d="M312.51 62.5019C329.086 62.5019 344.984 69.0869 356.705 80.8083C368.427 92.5297 375.012 108.427 375.012 125.004L312.51 62.5019C312.51 70.7098 314.126 78.8373 317.267 86.4204C320.408 94.0035 325.012 100.894 330.816 106.697C336.62 112.501 343.51 117.105 351.093 120.246C358.676 123.387 366.804 125.004 375.012 125.004" fill="#FFD7BA"/>
<path d="M437.507 62.501H375.006V125.002H437.507V62.501Z" fill="white"/>
<path d="M375.001 93.7476C375.001 85.4607 378.293 77.5133 384.153 71.6536C390.012 65.7939 397.96 62.5019 406.247 62.5019L375.001 93.7476C383.288 93.7476 391.235 90.4556 397.095 84.5959C402.955 78.7362 406.247 70.7888 406.247 62.5019" fill="#6BD1BF"/>
<path d="M406.257 93.7476C406.257 85.4607 409.549 77.5133 415.409 71.6536C421.269 65.7939 429.216 62.5019 437.503 62.5019L406.257 93.7476C414.544 93.7476 422.492 90.4556 428.351 84.5959C434.211 78.7362 437.503 70.7888 437.503 62.5019" fill="#19B79C"/>
<path d="M406.257 124.993C406.257 116.706 409.549 108.759 415.409 102.899C421.269 97.0395 429.216 93.7476 437.503 93.7476L406.257 124.993C414.544 124.993 422.492 121.701 428.351 115.842C434.211 109.982 437.503 102.034 437.503 93.7476" fill="#B3E7DE"/>
<path d="M437.503 62.5019C454.079 62.5019 469.977 69.0869 481.698 80.8083C493.42 92.5297 500.005 108.427 500.005 125.004L437.503 62.5019C437.503 79.0785 444.088 94.9761 455.809 106.697C467.531 118.419 483.428 125.004 500.005 125.004" fill="#62CEBB"/>
<path d="M500.005 62.5019C516.581 62.5019 532.479 69.0869 544.2 80.8083C555.922 92.5297 562.507 108.427 562.507 125.004L500.005 62.5019C500.005 79.0785 506.59 94.9761 518.311 106.697C530.033 118.419 545.93 125.004 562.507 125.004" fill="#40C3AC"/>
<path d="M750.012 62.501H687.511V125.002H750.012V62.501Z" fill="white"/>
<path d="M687.511 62.5019C695.798 62.5019 703.745 65.7939 709.605 71.6536C715.464 77.5133 718.756 85.4607 718.756 93.7476L687.511 62.5019C687.511 70.7888 690.803 78.7362 696.662 84.5959C702.522 90.4556 710.47 93.7476 718.756 93.7476" fill="#FFBF91"/>
<path d="M718.756 62.5019C722.86 62.5019 726.923 63.3101 730.714 64.8804C734.504 66.4506 737.949 68.7521 740.85 71.6536C743.752 74.555 746.053 77.9995 747.624 81.7904C749.194 85.5813 750.002 89.6443 750.002 93.7476L718.756 62.5019C718.756 70.7888 722.048 78.7362 727.908 84.5959C733.768 90.4556 741.715 93.7476 750.002 93.7476" fill="#26BBA1"/>
<path d="M687.511 93.7476C695.798 93.7476 703.745 97.0395 709.605 102.899C715.464 108.759 718.756 116.706 718.756 124.993L687.511 93.7476C687.511 102.034 690.803 109.982 696.662 115.842C702.522 121.701 710.47 124.993 718.756 124.993" fill="#FF8127"/>
<path d="M718.756 93.7476C722.86 93.7476 726.923 94.5557 730.714 96.126C734.504 97.6962 737.949 99.9978 740.85 102.899C743.752 105.801 746.053 109.245 747.624 113.036C749.194 116.827 750.002 120.89 750.002 124.993L718.756 93.7476C718.756 102.034 722.048 109.982 727.908 115.842C733.768 121.701 741.715 124.993 750.002 124.993" fill="#FF6D05"/>
<path d="M875.014 62.501H812.513V125.002H875.014V62.501Z" fill="white"/>
<path d="M812.515 62.5019C820.802 62.5019 828.749 65.7939 834.609 71.6536C840.468 77.5133 843.76 85.4607 843.76 93.7476L812.515 62.5019C812.515 66.6052 813.323 70.6682 814.893 74.4591C816.463 78.25 818.765 81.6945 821.666 84.5959C824.568 87.4974 828.012 89.7989 831.803 91.3691C835.594 92.9394 839.657 93.7476 843.76 93.7476" fill="#FF7E22"/>
<path d="M843.76 93.7476C843.76 85.4607 847.052 77.5133 852.912 71.6536C858.772 65.7939 866.719 62.5019 875.006 62.5019L843.76 93.7476C852.047 93.7476 859.995 90.4556 865.854 84.5959C871.714 78.7362 875.006 70.7888 875.006 62.5019" fill="#FF710C"/>
<path d="M937.515 62.501H875.014V125.002H937.515V62.501Z" fill="white"/>
<path d="M875.016 62.5019C879.119 62.5019 883.182 63.3101 886.973 64.8804C890.764 66.4506 894.209 68.7521 897.11 71.6536C900.012 74.555 902.313 77.9995 903.883 81.7904C905.454 85.5813 906.262 89.6443 906.262 93.7476L875.016 62.5019C875.016 70.7888 878.308 78.7362 884.168 84.5959C890.027 90.4556 897.975 93.7476 906.262 93.7476" fill="#6DD1C0"/>
<path d="M906.262 93.7476C906.262 85.4607 909.554 77.5133 915.413 71.6536C921.273 65.7939 929.221 62.5019 937.507 62.5019L906.262 93.7476C914.549 93.7476 922.496 90.4556 928.356 84.5959C934.215 78.7362 937.507 70.7888 937.507 62.5019" fill="#90DCCF"/>
<path d="M875.016 124.993C875.016 116.706 878.308 108.759 884.168 102.899C890.027 97.0395 897.975 93.7476 906.262 93.7476L875.016 124.993C879.119 124.993 883.182 124.185 886.973 122.615C890.764 121.045 894.209 118.743 897.11 115.842C900.012 112.94 902.313 109.496 903.883 105.705C905.454 101.914 906.262 97.8508 906.262 93.7476" fill="#7BD5C6"/>
<path d="M906.262 93.7476C914.549 93.7476 922.496 97.0395 928.356 102.899C934.215 108.759 937.507 116.706 937.507 124.993L906.262 93.7476C906.262 102.034 909.554 109.982 915.413 115.842C921.273 121.701 929.221 124.993 937.507 124.993" fill="#FFDD70"/>
<path d="M1000.02 62.501H937.514V125.002H1000.02V62.501Z" fill="white"/>
<path d="M937.518 62.5019C945.805 62.5019 953.752 65.7939 959.612 71.6536C965.472 77.5133 968.764 85.4607 968.764 93.7476L937.518 62.5019C937.518 70.7888 940.81 78.7362 946.67 84.5959C952.529 90.4556 960.477 93.7476 968.764 93.7476" fill="#DAF3EF"/>
<path d="M968.764 62.5019C972.867 62.5019 976.93 63.3101 980.721 64.8804C984.512 66.4506 987.956 68.7521 990.858 71.6536C993.759 74.555 996.061 77.9995 997.631 81.7904C999.201 85.5813 1000.01 89.6443 1000.01 93.7476L968.764 62.5019C968.764 70.7888 972.056 78.7362 977.915 84.5959C983.775 90.4556 991.722 93.7476 1000.01 93.7476" fill="#8DDBCE"/>
<path d="M937.518 124.993C937.518 116.706 940.81 108.759 946.67 102.899C952.529 97.0395 960.477 93.7476 968.764 93.7476L937.518 124.993C945.805 124.993 953.752 121.701 959.612 115.842C965.472 109.982 968.764 102.034 968.764 93.7476" fill="#FF7716"/>
<path d="M968.764 124.993C968.764 116.706 972.056 108.759 977.915 102.899C983.775 97.0395 991.722 93.7476 1000.01 93.7476L968.764 124.993C972.867 124.993 976.93 124.185 980.721 122.615C984.512 121.045 987.956 118.743 990.858 115.842C993.759 112.94 996.061 109.496 997.631 105.705C999.201 101.914 1000.01 97.8508 1000.01 93.7476" fill="#28BCA2"/>
<path d="M0 125.004C16.5765 125.004 32.4741 131.589 44.1955 143.31C55.9169 155.032 62.5019 170.929 62.5019 187.506L0 125.004C0 141.58 6.58501 157.478 18.3064 169.199C30.0278 180.921 45.9254 187.506 62.5019 187.506" fill="#53C9B5"/>
<path d="M125.002 125.002H62.501V187.503H125.002V125.002Z" fill="white"/>
<path d="M62.502 125.004C70.7888 125.004 78.7363 128.296 84.596 134.155C90.4557 140.015 93.7476 147.963 93.7476 156.25L62.502 125.004C62.502 133.291 65.7939 141.238 71.6536 147.098C77.5133 152.958 85.4607 156.25 93.7476 156.25" fill="#38C1A9"/>
<path d="M62.502 187.495C62.502 179.208 65.7939 171.261 71.6536 165.401C77.5133 159.541 85.4607 156.25 93.7476 156.25L62.502 187.495C70.7888 187.495 78.7363 184.203 84.596 178.344C90.4557 172.484 93.7476 164.536 93.7476 156.25" fill="#E9F8F5"/>
<path d="M93.7476 187.495C93.7476 179.208 97.0395 171.261 102.899 165.401C108.759 159.541 116.706 156.25 124.993 156.25L93.7476 187.495C102.034 187.495 109.982 184.203 115.842 178.344C121.701 172.484 124.993 164.536 124.993 156.25" fill="#FFEFE4"/>
<path d="M125.004 125.004C141.58 125.004 157.478 131.589 169.199 143.31C180.921 155.032 187.506 170.929 187.506 187.506L125.004 125.004C125.004 141.58 131.589 157.478 143.31 169.199C155.032 180.921 170.929 187.506 187.506 187.506" fill="#FFECB0"/>
<path d="M500.008 125.002H437.507V187.503H500.008V125.002Z" fill="white"/>
<path d="M437.503 156.25C437.503 147.963 440.795 140.015 446.655 134.155C452.514 128.296 460.462 125.004 468.749 125.004L437.503 156.25C445.79 156.25 453.737 152.958 459.597 147.098C465.457 141.238 468.749 133.291 468.749 125.004" fill="#FFE5D3"/>
<path d="M468.759 156.25C468.759 147.963 472.051 140.015 477.911 134.155C483.771 128.296 491.718 125.004 500.005 125.004L468.759 156.25C477.046 156.25 484.994 152.958 490.853 147.098C496.713 141.238 500.005 133.291 500.005 125.004" fill="#9CE0D4"/>
<path d="M468.759 156.25C477.046 156.25 484.994 159.541 490.853 165.401C496.713 171.261 500.005 179.208 500.005 187.495L468.759 156.25C468.759 164.536 472.051 172.484 477.911 178.344C483.771 184.203 491.718 187.495 500.005 187.495" fill="#FFC195"/>
<path d="M500.005 187.506C500.005 170.929 506.59 155.032 518.311 143.31C530.033 131.589 545.93 125.004 562.507 125.004L500.005 187.506C516.581 187.506 532.479 180.921 544.2 169.199C555.922 157.478 562.507 141.58 562.507 125.004" fill="#FFECDF"/>
<path d="M625.01 125.002H562.509V187.503H625.01V125.002Z" fill="white"/>
<path d="M562.507 156.25C562.507 147.963 565.799 140.015 571.659 134.155C577.518 128.296 585.466 125.004 593.753 125.004L562.507 156.25C566.61 156.25 570.673 155.441 574.464 153.871C578.255 152.301 581.699 149.999 584.601 147.098C587.502 144.196 589.804 140.752 591.374 136.961C592.944 133.17 593.753 129.107 593.753 125.004" fill="#FFFEFB"/>
<path d="M593.763 156.25C593.763 147.963 597.055 140.015 602.915 134.155C608.774 128.296 616.722 125.004 625.009 125.004L593.763 156.25C597.866 156.25 601.929 155.441 605.72 153.871C609.511 152.301 612.956 149.999 615.857 147.098C618.759 144.196 621.06 140.752 622.63 136.961C624.201 133.17 625.009 129.107 625.009 125.004" fill="#2EBDA5"/>
<path d="M593.763 156.25C597.866 156.25 601.929 157.058 605.72 158.628C609.511 160.198 612.956 162.5 615.857 165.401C618.759 168.303 621.06 171.747 622.63 175.538C624.201 179.329 625.009 183.392 625.009 187.495L593.763 156.25C593.763 164.536 597.055 172.484 602.915 178.344C608.774 184.203 616.722 187.495 625.009 187.495" fill="#3BC1AA"/>
<path d="M625.009 187.506C625.009 170.929 631.594 155.032 643.315 143.31C655.037 131.589 670.934 125.004 687.511 125.004L625.009 187.506C641.585 187.506 657.483 180.921 669.204 169.199C680.926 157.478 687.511 141.58 687.511 125.004" fill="#FFFCF0"/>
<path d="M687.511 187.506C687.511 170.929 694.096 155.032 705.817 143.31C717.539 131.589 733.436 125.004 750.013 125.004L687.511 187.506C704.087 187.506 719.985 180.921 731.706 169.199C743.428 157.478 750.013 141.58 750.013 125.004" fill="#FFD244"/>
<path d="M1000.02 125.002H937.514V187.503H1000.02V125.002Z" fill="white"/>
<path d="M937.518 156.25C937.518 147.963 940.81 140.015 946.67 134.155C952.529 128.296 960.477 125.004 968.764 125.004L937.518 156.25C945.805 156.25 953.752 152.958 959.612 147.098C965.472 141.238 968.764 133.291 968.764 125.004" fill="#FFB886"/>
<path d="M968.764 156.25C968.764 147.963 972.056 140.015 977.915 134.155C983.775 128.296 991.722 125.004 1000.01 125.004L968.764 156.25C972.867 156.25 976.93 155.441 980.721 153.871C984.512 152.301 987.956 149.999 990.858 147.098C993.759 144.196 996.061 140.752 997.631 136.961C999.201 133.17 1000.01 129.107 1000.01 125.004" fill="#FFB581"/>
<path d="M937.518 156.25C945.805 156.25 953.752 159.541 959.612 165.401C965.472 171.261 968.764 179.208 968.764 187.495L937.518 156.25C937.518 164.536 940.81 172.484 946.67 178.344C952.529 184.203 960.477 187.495 968.764 187.495" fill="#68D0BE"/>
<path d="M62.501 187.503H0V250.004H62.501V187.503Z" fill="white"/>
<path d="M31.2456 187.506C39.5325 187.506 47.4799 190.798 53.3396 196.657C59.1993 202.517 62.4913 210.465 62.4913 218.751L31.2456 187.506C31.2456 195.793 34.5375 203.74 40.3972 209.6C46.2569 215.459 54.2044 218.751 62.4913 218.751" fill="#FF8229"/>
<path d="M31.2456 218.751C39.5325 218.751 47.4799 222.043 53.3396 227.903C59.1993 233.763 62.4913 241.71 62.4913 249.997L31.2456 218.751C31.2456 227.038 34.5375 234.986 40.3972 240.845C46.2569 246.705 54.2044 249.997 62.4913 249.997" fill="#FFDC6C"/>
<path d="M125.002 187.503H62.501V250.004H125.002V187.503Z" fill="white"/>
<path d="M62.502 187.506C70.7888 187.506 78.7363 190.798 84.596 196.657C90.4557 202.517 93.7476 210.465 93.7476 218.751L62.502 187.506C62.502 195.793 65.7939 203.74 71.6536 209.6C77.5133 215.459 85.4607 218.751 93.7476 218.751" fill="#FFE696"/>
<path d="M93.7476 187.506C102.034 187.506 109.982 190.798 115.842 196.657C121.701 202.517 124.993 210.465 124.993 218.751L93.7476 187.506C93.7476 195.793 97.0395 203.74 102.899 209.6C108.759 215.459 116.706 218.751 124.993 218.751" fill="#FFFAF7"/>
<path d="M62.502 249.997C62.502 241.71 65.7939 233.763 71.6536 227.903C77.5133 222.043 85.4607 218.751 93.7476 218.751L62.502 249.997C70.7888 249.997 78.7363 246.705 84.596 240.845C90.4557 234.986 93.7476 227.038 93.7476 218.751" fill="#FFDEC6"/>
<path d="M93.7476 218.751C102.034 218.751 109.982 222.043 115.842 227.903C121.701 233.763 124.993 241.71 124.993 249.997L93.7476 218.751C93.7476 227.038 97.0395 234.986 102.899 240.845C108.759 246.705 116.706 249.997 124.993 249.997" fill="#F8FDFC"/>
<path d="M250.004 187.503H187.503V250.004H250.004V187.503Z" fill="white"/>
<path d="M187.506 187.506C195.793 187.506 203.74 190.798 209.6 196.657C215.46 202.517 218.752 210.465 218.752 218.751L187.506 187.506C187.506 195.793 190.798 203.74 196.658 209.6C202.517 215.459 210.465 218.751 218.752 218.751" fill="#FF8732"/>
<path d="M218.751 187.506C227.038 187.506 234.986 190.798 240.845 196.657C246.705 202.517 249.997 210.465 249.997 218.751L218.751 187.506C218.751 195.793 222.043 203.74 227.903 209.6C233.763 215.459 241.71 218.751 249.997 218.751" fill="#FFF4EC"/>
<path d="M218.751 218.751C227.038 218.751 234.986 222.043 240.845 227.903C246.705 233.763 249.997 241.71 249.997 249.997L218.751 218.751C218.751 227.038 222.043 234.986 227.903 240.845C233.763 246.705 241.71 249.997 249.997 249.997" fill="#F9FDFC"/>
<path d="M250.008 250.008C250.008 233.431 256.593 217.534 268.314 205.812C280.036 194.091 295.933 187.506 312.51 187.506L250.008 250.008C266.584 250.008 282.482 243.423 294.203 231.701C305.925 219.98 312.51 204.082 312.51 187.506" fill="#5CCCB8"/>
<path d="M500.008 187.503H437.507V250.004H500.008V187.503Z" fill="white"/>
<path d="M437.503 218.751C437.503 210.465 440.795 202.517 446.655 196.657C452.514 190.798 460.462 187.506 468.749 187.506L437.503 218.751C445.79 218.751 453.737 215.459 459.597 209.6C465.457 203.74 468.749 195.793 468.749 187.506" fill="#A5E3D8"/>
<path d="M437.503 218.751C445.79 218.751 453.737 222.043 459.597 227.903C465.457 233.763 468.749 241.71 468.749 249.997L437.503 218.751C437.503 227.038 440.795 234.986 446.655 240.845C452.514 246.705 460.462 249.997 468.749 249.997" fill="#FFF3CC"/>
<path d="M468.759 249.997C468.759 241.71 472.051 233.763 477.911 227.903C483.771 222.043 491.718 218.751 500.005 218.751L468.759 249.997C477.046 249.997 484.994 246.705 490.853 240.845C496.713 234.986 500.005 227.038 500.005 218.751" fill="#FFECAF"/>
<path d="M562.509 187.503H500.008V250.004H562.509V187.503Z" fill="white"/>
<path d="M500.005 218.751C500.005 210.465 503.297 202.517 509.157 196.657C515.016 190.798 522.964 187.506 531.251 187.506L500.005 218.751C508.292 218.751 516.239 215.459 522.099 209.6C527.959 203.74 531.251 195.793 531.251 187.506" fill="#F1FBF9"/>
<path d="M531.261 218.751C531.261 210.465 534.553 202.517 540.413 196.657C546.273 190.798 554.22 187.506 562.507 187.506L531.261 218.751C539.548 218.751 547.496 215.459 553.355 209.6C559.215 203.74 562.507 195.793 562.507 187.506" fill="#C8EEE7"/>
<path d="M500.005 218.751C508.292 218.751 516.239 222.043 522.099 227.903C527.959 233.763 531.251 241.71 531.251 249.997L500.005 218.751C500.005 227.038 503.297 234.986 509.157 240.845C515.016 246.705 522.964 249.997 531.251 249.997" fill="#FFA565"/>
<path d="M625.009 187.506C641.585 187.506 657.483 194.091 669.204 205.812C680.926 217.534 687.511 233.431 687.511 250.008L625.009 187.506C625.009 204.082 631.594 219.98 643.315 231.701C655.037 243.423 670.934 250.008 687.511 250.008" fill="#FF8936"/>
<path d="M687.511 187.506C704.087 187.506 719.985 194.091 731.706 205.812C743.428 217.534 750.013 233.431 750.013 250.008L687.511 187.506C687.511 204.082 694.096 219.98 705.817 231.701C717.539 243.423 733.436 250.008 750.013 250.008" fill="#FFF0BE"/>
<path d="M875.014 187.503H812.513V250.004H875.014V187.503Z" fill="white"/>
<path d="M812.515 218.751C812.515 214.648 813.323 210.585 814.893 206.794C816.463 203.003 818.765 199.559 821.666 196.657C824.568 193.756 828.012 191.454 831.803 189.884C835.594 188.314 839.657 187.506 843.76 187.506L812.515 218.751C820.802 218.751 828.749 215.459 834.609 209.6C840.468 203.74 843.76 195.793 843.76 187.506" fill="#FFEBAC"/>
<path d="M843.76 218.751C843.76 210.465 847.052 202.517 852.912 196.657C858.772 190.798 866.719 187.506 875.006 187.506L843.76 218.751C852.047 218.751 859.995 215.459 865.854 209.6C871.714 203.74 875.006 195.793 875.006 187.506" fill="#08B194"/>
<path d="M843.76 249.997C843.76 241.71 847.052 233.763 852.912 227.903C858.772 222.043 866.719 218.751 875.006 218.751L843.76 249.997C852.047 249.997 859.995 246.705 865.854 240.845C871.714 234.986 875.006 227.038 875.006 218.751" fill="#DEF5F1"/>
<path d="M875.016 187.506C891.593 187.506 907.49 194.091 919.212 205.812C930.933 217.534 937.518 233.431 937.518 250.008L875.016 187.506C875.016 204.082 881.601 219.98 893.322 231.701C905.044 243.423 920.942 250.008 937.518 250.008" fill="#FFAD73"/>
<path d="M1000.02 187.503H937.514V250.004H1000.02V187.503Z" fill="white"/>
<path d="M0 312.51C0 295.933 6.58501 280.035 18.3064 268.314C30.0278 256.593 45.9254 250.008 62.5019 250.008L0 312.51C16.5765 312.51 32.4741 305.925 44.1955 294.203C55.9169 282.482 62.5019 266.584 62.5019 250.008" fill="#FFD0AE"/>
<path d="M187.506 250.008C204.082 250.008 219.98 256.593 231.701 268.314C243.423 280.035 250.008 295.933 250.008 312.51L187.506 250.008C187.506 266.584 194.091 282.482 205.812 294.203C217.534 305.925 233.431 312.51 250.008 312.51" fill="#F7FCFB"/>
<path d="M312.505 250.004H250.004V312.505H312.505V250.004Z" fill="white"/>
<path d="M250.008 250.008C258.295 250.008 266.242 253.3 272.102 259.159C277.962 265.019 281.253 272.966 281.253 281.253L250.008 250.008C250.008 258.295 253.3 266.242 259.159 272.102C265.019 277.961 272.967 281.253 281.253 281.253" fill="#FFD449"/>
<path d="M281.253 250.008C289.54 250.008 297.488 253.3 303.347 259.159C309.207 265.019 312.499 272.966 312.499 281.253L281.253 250.008C281.253 258.295 284.545 266.242 290.405 272.102C296.265 277.961 304.212 281.253 312.499 281.253" fill="#FFDF7B"/>
<path d="M250.008 281.253C258.295 281.253 266.242 284.545 272.102 290.405C277.962 296.265 281.253 304.212 281.253 312.499L250.008 281.253C250.008 289.54 253.3 297.488 259.159 303.347C265.019 309.207 272.967 312.499 281.253 312.499" fill="#FFA15F"/>
<path d="M281.253 281.253C289.54 281.253 297.488 284.545 303.347 290.405C309.207 296.265 312.499 304.212 312.499 312.499L281.253 281.253C281.253 289.54 284.545 297.488 290.405 303.347C296.265 309.207 304.212 312.499 312.499 312.499" fill="#D7F2EE"/>
<path d="M375.006 250.004H312.505V312.505H375.006V250.004Z" fill="white"/>
<path d="M312.51 281.253C312.51 272.966 315.802 265.019 321.661 259.159C327.521 253.3 335.469 250.008 343.755 250.008L312.51 281.253C320.797 281.253 328.744 277.961 334.604 272.102C340.463 266.242 343.755 258.295 343.755 250.008" fill="#B0E6DD"/>
<path d="M312.51 312.499C312.51 304.212 315.802 296.265 321.661 290.405C327.521 284.545 335.469 281.253 343.755 281.253L312.51 312.499C320.797 312.499 328.744 309.207 334.604 303.347C340.463 297.488 343.755 289.54 343.755 281.253" fill="#FFDEC6"/>
<path d="M343.755 281.253C352.042 281.253 359.99 284.545 365.849 290.405C371.709 296.265 375.001 304.212 375.001 312.499L343.755 281.253C343.755 289.54 347.047 297.488 352.907 303.347C358.767 309.207 366.714 312.499 375.001 312.499" fill="#64CEBC"/>
<path d="M437.507 250.004H375.006V312.505H437.507V250.004Z" fill="white"/>
<path d="M375.001 281.253C383.288 281.253 391.235 284.545 397.095 290.405C402.955 296.265 406.247 304.212 406.247 312.499L375.001 281.253C375.001 289.54 378.293 297.488 384.153 303.347C390.012 309.207 397.96 312.499 406.247 312.499" fill="#FFC69D"/>
<path d="M406.257 312.499C406.257 304.212 409.549 296.265 415.409 290.405C421.269 284.545 429.216 281.253 437.503 281.253L406.257 312.499C414.544 312.499 422.492 309.207 428.351 303.347C434.211 297.488 437.503 289.54 437.503 281.253" fill="#FFE38B"/>
<path d="M562.509 250.004H500.008V312.505H562.509V250.004Z" fill="white"/>
<path d="M500.005 281.253C500.005 272.966 503.297 265.019 509.157 259.159C515.016 253.3 522.964 250.008 531.251 250.008L500.005 281.253C508.292 281.253 516.239 277.961 522.099 272.102C527.959 266.242 531.251 258.295 531.251 250.008" fill="#FFEEB9"/>
<path d="M531.261 281.253C531.261 272.966 534.553 265.019 540.413 259.159C546.273 253.3 554.22 250.008 562.507 250.008L531.261 281.253C539.548 281.253 547.496 277.961 553.355 272.102C559.215 266.242 562.507 258.295 562.507 250.008" fill="#52C8B4"/>
<path d="M500.005 281.253C508.292 281.253 516.239 284.545 522.099 290.405C527.959 296.265 531.251 304.212 531.251 312.499L500.005 281.253C500.005 289.54 503.297 297.488 509.157 303.347C515.016 309.207 522.964 312.499 531.251 312.499" fill="#FFFEFB"/>
<path d="M625.01 250.004H562.509V312.505H625.01V250.004Z" fill="white"/>
<path d="M562.507 281.253C566.61 281.253 570.673 282.062 574.464 283.632C578.255 285.202 581.699 287.504 584.601 290.405C587.502 293.306 589.804 296.751 591.374 300.542C592.944 304.333 593.753 308.396 593.753 312.499L562.507 281.253C562.507 289.54 565.799 297.488 571.659 303.347C577.518 309.207 585.466 312.499 593.753 312.499" fill="#FF9B55"/>
<path d="M625.009 312.51C625.009 295.933 631.594 280.035 643.315 268.314C655.037 256.593 670.934 250.008 687.511 250.008L625.009 312.51C641.585 312.51 657.483 305.925 669.204 294.203C680.926 282.482 687.511 266.584 687.511 250.008" fill="#FFFFFE"/>
<path d="M687.511 312.51C687.511 295.933 694.096 280.035 705.817 268.314C717.539 256.593 733.436 250.008 750.013 250.008L687.511 312.51C704.087 312.51 719.985 305.925 731.706 294.203C743.428 282.482 750.013 266.584 750.013 250.008" fill="#FFB179"/>
<path d="M812.513 250.004H750.012V312.505H812.513V250.004Z" fill="white"/>
<path d="M781.258 281.253C789.545 281.253 797.493 284.545 803.352 290.405C809.212 296.265 812.504 304.212 812.504 312.499L781.258 281.253C781.258 285.357 782.067 289.42 783.637 293.211C785.207 297.001 787.509 300.446 790.41 303.347C793.311 306.249 796.756 308.55 800.547 310.121C804.338 311.691 808.401 312.499 812.504 312.499" fill="#FFD03B"/>
<path d="M812.515 312.51C812.515 295.933 819.1 280.035 830.821 268.314C842.542 256.593 858.44 250.008 875.017 250.008L812.515 312.51C829.091 312.51 844.989 305.925 856.71 294.203C868.432 282.482 875.017 266.584 875.017 250.008" fill="#7FD7C8"/>
<path d="M62.501 312.505H0V375.006H62.501V312.505Z" fill="white"/>
<path d="M0 343.755C0 335.468 3.29194 327.521 9.15164 321.661C15.0113 315.802 22.9588 312.51 31.2457 312.51L0 343.755C8.28686 343.755 16.2343 340.463 22.094 334.604C27.9537 328.744 31.2457 320.797 31.2457 312.51" fill="#5BCBB8"/>
<path d="M31.2456 312.51C39.5325 312.51 47.4799 315.802 53.3396 321.661C59.1993 327.521 62.4913 335.468 62.4913 343.755L31.2456 312.51C31.2456 320.797 34.5375 328.744 40.3972 334.604C46.2569 340.463 54.2044 343.755 62.4913 343.755" fill="#68D0BE"/>
<path d="M0 343.755C8.28686 343.755 16.2343 347.047 22.094 352.907C27.9537 358.767 31.2457 366.714 31.2457 375.001L0 343.755C0 352.042 3.29194 359.99 9.15164 365.849C15.0113 371.709 22.9588 375.001 31.2457 375.001" fill="#FFE9A4"/>
<path d="M31.2456 343.755C39.5325 343.755 47.4799 347.047 53.3396 352.907C59.1993 358.767 62.4913 366.714 62.4913 375.001L31.2456 343.755C31.2456 352.042 34.5375 359.99 40.3972 365.849C46.2569 371.709 54.2044 375.001 62.4913 375.001" fill="#FFB581"/>
<path d="M125.002 312.505H62.501V375.006H125.002V312.505Z" fill="white"/>
<path d="M62.502 343.755C62.502 335.468 65.7939 327.521 71.6536 321.661C77.5133 315.802 85.4607 312.51 93.7476 312.51L62.502 343.755C70.7888 343.755 78.7363 340.463 84.596 334.604C90.4557 328.744 93.7476 320.797 93.7476 312.51" fill="#FF8F40"/>
<path d="M93.7476 312.51C102.034 312.51 109.982 315.802 115.842 321.661C121.701 327.521 124.993 335.468 124.993 343.755L93.7476 312.51C93.7476 320.797 97.0395 328.744 102.899 334.604C108.759 340.463 116.706 343.755 124.993 343.755" fill="#FFA565"/>
<path d="M125.004 312.51C133.212 312.51 141.339 314.126 148.922 317.267C156.505 320.408 163.396 325.012 169.199 330.816C175.003 336.62 179.607 343.51 182.748 351.093C185.889 358.676 187.506 366.804 187.506 375.012L125.004 312.51C125.004 329.086 131.589 344.984 143.31 356.705C155.032 368.427 170.929 375.012 187.506 375.012" fill="#FFD9BE"/>
<path d="M187.506 375.012C187.506 366.804 189.123 358.676 192.264 351.093C195.405 343.51 200.008 336.62 205.812 330.816C211.616 325.012 218.506 320.408 226.089 317.267C233.672 314.126 241.8 312.51 250.008 312.51L187.506 375.012C204.082 375.012 219.98 368.427 231.701 356.705C243.423 344.984 250.008 329.086 250.008 312.51" fill="#B5E8DF"/>
<path d="M250.008 312.51C258.216 312.51 266.343 314.126 273.926 317.267C281.509 320.408 288.399 325.012 294.203 330.816C300.007 336.62 304.611 343.51 307.752 351.093C310.893 358.676 312.51 366.804 312.51 375.012L250.008 312.51C250.008 329.086 256.593 344.984 268.314 356.705C280.036 368.427 295.933 375.012 312.51 375.012" fill="#FFFCF1"/>
<path d="M312.51 375.012C312.51 366.804 314.126 358.676 317.267 351.093C320.408 343.51 325.012 336.62 330.816 330.816C336.62 325.012 343.51 320.408 351.093 317.267C358.676 314.126 366.804 312.51 375.012 312.51L312.51 375.012C329.086 375.012 344.984 368.427 356.705 356.705C368.427 344.984 375.012 329.086 375.012 312.51" fill="#14B59A"/>
<path d="M437.503 375.012C437.503 366.804 439.12 358.676 442.261 351.093C445.402 343.51 450.006 336.62 455.809 330.816C461.613 325.012 468.503 320.408 476.086 317.267C483.669 314.126 491.797 312.51 500.005 312.51L437.503 375.012C454.079 375.012 469.977 368.427 481.698 356.705C493.42 344.984 500.005 329.086 500.005 312.51" fill="#FF7818"/>
<path d="M500.005 312.51C508.213 312.51 516.34 314.126 523.923 317.267C531.506 320.408 538.397 325.012 544.2 330.816C550.004 336.62 554.608 343.51 557.749 351.093C560.89 358.676 562.507 366.804 562.507 375.012L500.005 312.51C500.005 329.086 506.59 344.984 518.311 356.705C530.033 368.427 545.93 375.012 562.507 375.012" fill="#26BBA1"/>
<path d="M562.507 375.012C562.507 358.435 569.092 342.537 580.813 330.816C592.535 319.095 608.432 312.51 625.009 312.51L562.507 375.012C579.083 375.012 594.981 368.427 606.702 356.705C618.424 344.984 625.009 329.086 625.009 312.51" fill="#7CD6C7"/>
<path d="M687.511 312.505H625.01V375.006H687.511V312.505Z" fill="white"/>
<path d="M656.265 312.51C664.552 312.51 672.499 315.802 678.359 321.661C684.218 327.521 687.51 335.468 687.51 343.755L656.265 312.51C656.265 316.613 657.073 320.676 658.643 324.467C660.213 328.258 662.515 331.702 665.416 334.604C668.318 337.505 671.762 339.807 675.553 341.377C679.344 342.947 683.407 343.755 687.51 343.755" fill="#DBF4EF"/>
<path d="M625.009 375.001C625.009 366.714 628.301 358.767 634.16 352.907C640.02 347.047 647.968 343.755 656.254 343.755L625.009 375.001C633.296 375.001 641.243 371.709 647.103 365.849C652.962 359.99 656.254 352.042 656.254 343.755" fill="#CDEFE9"/>
<path d="M656.265 343.755C664.552 343.755 672.499 347.047 678.359 352.907C684.218 358.767 687.51 366.714 687.51 375.001L656.265 343.755C656.265 347.858 657.073 351.922 658.643 355.712C660.213 359.503 662.515 362.948 665.416 365.849C668.318 368.751 671.762 371.052 675.553 372.622C679.344 374.193 683.407 375.001 687.51 375.001" fill="#2EBDA5"/>
<path d="M750.012 312.505H687.511V375.006H750.012V312.505Z" fill="white"/>
<path d="M687.511 312.51C695.798 312.51 703.745 315.802 709.605 321.661C715.464 327.521 718.756 335.468 718.756 343.755L687.511 312.51C687.511 320.797 690.803 328.744 696.662 334.604C702.522 340.463 710.47 343.755 718.756 343.755" fill="#FF832A"/>
<path d="M718.756 343.755C718.756 335.468 722.048 327.521 727.908 321.661C733.768 315.802 741.715 312.51 750.002 312.51L718.756 343.755C722.86 343.755 726.923 342.947 730.714 341.377C734.504 339.807 737.949 337.505 740.85 334.604C743.752 331.702 746.053 328.258 747.624 324.467C749.194 320.676 750.002 316.613 750.002 312.51" fill="#76D4C4"/>
<path d="M687.511 343.755C695.798 343.755 703.745 347.047 709.605 352.907C715.464 358.767 718.756 366.714 718.756 375.001L687.511 343.755C687.511 352.042 690.803 359.99 696.662 365.849C702.522 371.709 710.47 375.001 718.756 375.001" fill="#FF8731"/>
<path d="M718.756 375.001C718.756 366.714 722.048 358.767 727.908 352.907C733.768 347.047 741.715 343.755 750.002 343.755L718.756 375.001C722.86 375.001 726.923 374.193 730.714 372.622C734.504 371.052 737.949 368.751 740.85 365.849C743.752 362.948 746.053 359.503 747.624 355.712C749.194 351.922 750.002 347.858 750.002 343.755" fill="#FFF3CD"/>
<path d="M750.013 375.012C750.013 366.804 751.629 358.676 754.77 351.093C757.911 343.51 762.515 336.62 768.319 330.816C774.123 325.012 781.013 320.408 788.596 317.267C796.179 314.126 804.307 312.51 812.515 312.51L750.013 375.012C766.589 375.012 782.487 368.427 794.208 356.705C805.93 344.984 812.515 329.086 812.515 312.51" fill="#99DFD3"/>
<path d="M1000.02 312.505H937.514V375.006H1000.02V312.505Z" fill="white"/>
<path d="M937.518 343.755C937.518 335.468 940.81 327.521 946.67 321.661C952.529 315.802 960.477 312.51 968.764 312.51L937.518 343.755C945.805 343.755 953.752 340.463 959.612 334.604C965.472 328.744 968.764 320.797 968.764 312.51" fill="#ABE5DB"/>
<path d="M968.764 343.755C968.764 335.468 972.056 327.521 977.915 321.661C983.775 315.802 991.722 312.51 1000.01 312.51L968.764 343.755C972.867 343.755 976.93 342.947 980.721 341.377C984.512 339.807 987.956 337.505 990.858 334.604C993.759 331.702 996.061 328.258 997.631 324.467C999.201 320.676 1000.01 316.613 1000.01 312.51" fill="#FFFDF8"/>
<path d="M937.518 375.001C937.518 366.714 940.81 358.767 946.67 352.907C952.529 347.047 960.477 343.755 968.764 343.755L937.518 375.001C945.805 375.001 953.752 371.709 959.612 365.849C965.472 359.99 968.764 352.042 968.764 343.755" fill="#C3ECE5"/>
<path d="M968.764 343.755C972.867 343.755 976.93 344.563 980.721 346.134C984.512 347.704 987.956 350.005 990.858 352.907C993.759 355.808 996.061 359.253 997.631 363.044C999.201 366.835 1000.01 370.898 1000.01 375.001L968.764 343.755C968.764 352.042 972.056 359.99 977.915 365.849C983.775 371.709 991.722 375.001 1000.01 375.001" fill="#FFCE31"/>
<path d="M125.002 375.006H62.501V437.507H125.002V375.006Z" fill="white"/>
<path d="M93.7476 406.247C93.7476 397.96 97.0395 390.012 102.899 384.153C108.759 378.293 116.706 375.001 124.993 375.001L93.7476 406.247C102.034 406.247 109.982 402.955 115.842 397.095C121.701 391.235 124.993 383.288 124.993 375.001" fill="#FFD85C"/>
<path d="M62.502 437.503C62.502 429.216 65.7939 421.269 71.6536 415.409C77.5133 409.549 85.4607 406.257 93.7476 406.257L62.502 437.503C70.7888 437.503 78.7363 434.211 84.596 428.351C90.4557 422.492 93.7476 414.544 93.7476 406.257" fill="#D1F1EB"/>
<path d="M93.7476 437.503C93.7476 429.216 97.0395 421.269 102.899 415.409C108.759 409.549 116.706 406.257 124.993 406.257L93.7476 437.503C102.034 437.503 109.982 434.211 115.842 428.351C121.701 422.492 124.993 414.544 124.993 406.257" fill="#FFE79A"/>
<path d="M187.503 375.006H125.002V437.507H187.503V375.006Z" fill="white"/>
<path d="M156.25 406.247C156.25 397.96 159.541 390.012 165.401 384.153C171.261 378.293 179.208 375.001 187.495 375.001L156.25 406.247C164.536 406.247 172.484 402.955 178.344 397.095C184.203 391.235 187.495 383.288 187.495 375.001" fill="#FFF4D2"/>
<path d="M156.25 406.257C164.536 406.257 172.484 409.549 178.344 415.409C184.203 421.269 187.495 429.216 187.495 437.503L156.25 406.257C156.25 414.544 159.541 422.492 165.401 428.351C171.261 434.211 179.208 437.503 187.495 437.503" fill="#FFB682"/>
<path d="M250.004 375.006H187.503V437.507H250.004V375.006Z" fill="white"/>
<path d="M187.506 406.257C195.793 406.257 203.74 409.549 209.6 415.409C215.46 421.269 218.752 429.216 218.752 437.503L187.506 406.257C187.506 414.544 190.798 422.492 196.658 428.351C202.517 434.211 210.465 437.503 218.752 437.503" fill="#6FD2C1"/>
<path d="M218.751 437.503C218.751 429.216 222.043 421.269 227.903 415.409C233.763 409.549 241.71 406.257 249.997 406.257L218.751 437.503C227.038 437.503 234.986 434.211 240.845 428.351C246.705 422.492 249.997 414.544 249.997 406.257" fill="#ADE5DB"/>
<path d="M312.505 375.006H250.004V437.507H312.505V375.006Z" fill="white"/>
<path d="M250.008 406.247C250.008 397.96 253.3 390.012 259.159 384.153C265.019 378.293 272.967 375.001 281.253 375.001L250.008 406.247C258.295 406.247 266.242 402.955 272.102 397.095C277.962 391.235 281.253 383.288 281.253 375.001" fill="#11B498"/>
<path d="M250.008 406.257C258.295 406.257 266.242 409.549 272.102 415.409C277.962 421.269 281.253 429.216 281.253 437.503L250.008 406.257C250.008 414.544 253.3 422.492 259.159 428.351C265.019 434.211 272.967 437.503 281.253 437.503" fill="#66CFBD"/>
<path d="M375.001 437.503C375.001 420.926 381.586 405.029 393.307 393.307C405.029 381.586 420.926 375.001 437.503 375.001L375.001 437.503C391.578 437.503 407.475 430.918 419.196 419.196C430.918 407.475 437.503 391.578 437.503 375.001" fill="#EBF9F6"/>
<path d="M562.509 375.006H500.008V437.507H562.509V375.006Z" fill="white"/>
<path d="M500.005 406.247C500.005 397.96 503.297 390.012 509.157 384.153C515.016 378.293 522.964 375.001 531.251 375.001L500.005 406.247C508.292 406.247 516.239 402.955 522.099 397.095C527.959 391.235 531.251 383.288 531.251 375.001" fill="#AFE6DC"/>
<path d="M500.005 406.257C508.292 406.257 516.239 409.549 522.099 415.409C527.959 421.269 531.251 429.216 531.251 437.503L500.005 406.257C500.005 414.544 503.297 422.492 509.157 428.351C515.016 434.211 522.964 437.503 531.251 437.503" fill="#FF7E23"/>
<path d="M531.261 406.257C539.548 406.257 547.496 409.549 553.355 415.409C559.215 421.269 562.507 429.216 562.507 437.503L531.261 406.257C531.261 414.544 534.553 422.492 540.413 428.351C546.273 434.211 554.22 437.503 562.507 437.503" fill="#92DDD0"/>
<path d="M562.507 375.001C579.083 375.001 594.981 381.586 606.702 393.307C618.424 405.029 625.009 420.926 625.009 437.503L562.507 375.001C562.507 391.578 569.092 407.475 580.813 419.196C592.535 430.918 608.432 437.503 625.009 437.503" fill="#FFE79A"/>
<path d="M687.511 375.006H625.01V437.507H687.511V375.006Z" fill="white"/>
<path d="M625.009 375.001C633.296 375.001 641.243 378.293 647.103 384.153C652.962 390.012 656.254 397.96 656.254 406.247L625.009 375.001C625.009 383.288 628.301 391.235 634.16 397.095C640.02 402.955 647.968 406.247 656.254 406.247" fill="#FFD54D"/>
<path d="M656.265 375.001C664.552 375.001 672.499 378.293 678.359 384.153C684.218 390.012 687.51 397.96 687.51 406.247L656.265 375.001C656.265 379.104 657.073 383.167 658.643 386.958C660.213 390.749 662.515 394.194 665.416 397.095C668.318 399.996 671.762 402.298 675.553 403.868C679.344 405.438 683.407 406.247 687.51 406.247" fill="#FFE592"/>
<path d="M750.012 375.006H687.511V437.507H750.012V375.006Z" fill="white"/>
<path d="M687.511 406.257C695.798 406.257 703.745 409.549 709.605 415.409C715.464 421.269 718.756 429.216 718.756 437.503L687.511 406.257C687.511 414.544 690.803 422.492 696.662 428.351C702.522 434.211 710.47 437.503 718.756 437.503" fill="#B0E6DD"/>
<path d="M718.756 437.503C718.756 429.216 722.048 421.269 727.908 415.409C733.768 409.549 741.715 406.257 750.002 406.257L718.756 437.503C722.86 437.503 726.923 436.695 730.714 435.124C734.504 433.554 737.949 431.253 740.85 428.351C743.752 425.45 746.053 422.005 747.624 418.214C749.194 414.423 750.002 410.36 750.002 406.257" fill="#7ED6C7"/>
<path d="M875.016 437.503C875.016 420.926 881.601 405.029 893.322 393.307C905.044 381.586 920.942 375.001 937.518 375.001L875.016 437.503C891.593 437.503 907.49 430.918 919.212 419.196C930.933 407.475 937.518 391.578 937.518 375.001" fill="#B3E7DE"/>
<path d="M937.518 437.503C937.518 420.926 944.103 405.029 955.824 393.307C967.546 381.586 983.443 375.001 1000.02 375.001L937.518 437.503C954.095 437.503 969.992 430.918 981.714 419.196C993.435 407.475 1000.02 391.578 1000.02 375.001" fill="#89DACC"/>
<path d="M62.501 437.507H0V500.008H62.501V437.507Z" fill="white"/>
<path d="M0 468.748C0 460.462 3.29194 452.514 9.15164 446.654C15.0113 440.795 22.9588 437.503 31.2457 437.503L0 468.748C8.28686 468.748 16.2343 465.457 22.094 459.597C27.9537 453.737 31.2457 445.79 31.2457 437.503" fill="#FFC195"/>
<path d="M0 468.759C8.28686 468.759 16.2343 472.051 22.094 477.911C27.9537 483.77 31.2457 491.718 31.2457 500.005L0 468.759C0 477.046 3.29194 484.993 9.15164 490.853C15.0113 496.713 22.9588 500.005 31.2457 500.005" fill="#FFD039"/>
<path d="M62.502 437.503C79.0785 437.503 94.9761 444.088 106.697 455.809C118.419 467.531 125.004 483.428 125.004 500.005L62.502 437.503C62.502 454.079 69.087 469.977 80.8083 481.698C92.5297 493.42 108.427 500.005 125.004 500.005" fill="#68D0BE"/>
<path d="M187.503 437.507H125.002V500.008H187.503V437.507Z" fill="white"/>
<path d="M156.25 468.748C156.25 460.462 159.541 452.514 165.401 446.654C171.261 440.795 179.208 437.503 187.495 437.503L156.25 468.748C164.536 468.748 172.484 465.457 178.344 459.597C184.203 453.737 187.495 445.79 187.495 437.503" fill="#FFEBDD"/>
<path d="M125.004 500.005C125.004 491.718 128.296 483.77 134.156 477.911C140.015 472.051 147.963 468.759 156.25 468.759L125.004 500.005C133.291 500.005 141.238 496.713 147.098 490.853C152.958 484.993 156.25 477.046 156.25 468.759" fill="#79D5C5"/>
<path d="M156.25 468.759C164.536 468.759 172.484 472.051 178.344 477.911C184.203 483.77 187.495 491.718 187.495 500.005L156.25 468.759C156.25 477.046 159.541 484.993 165.401 490.853C171.261 496.713 179.208 500.005 187.495 500.005" fill="#72D3C2"/>
<path d="M312.51 437.503C329.086 437.503 344.984 444.088 356.705 455.809C368.427 467.531 375.012 483.428 375.012 500.005L312.51 437.503C312.51 445.711 314.126 453.838 317.267 461.421C320.408 469.004 325.012 475.895 330.816 481.698C336.62 487.502 343.51 492.106 351.093 495.247C358.676 498.388 366.804 500.005 375.012 500.005" fill="#F8FDFC"/>
<path d="M375.001 500.005C375.001 483.428 381.586 467.531 393.307 455.809C405.029 444.088 420.926 437.503 437.503 437.503L375.001 500.005C391.578 500.005 407.475 493.42 419.196 481.698C430.918 469.977 437.503 454.079 437.503 437.503" fill="#FFD757"/>
<path d="M625.01 437.507H562.509V500.008H625.01V437.507Z" fill="white"/>
<path d="M562.507 437.503C566.61 437.503 570.673 438.311 574.464 439.881C578.255 441.451 581.699 443.753 584.601 446.654C587.502 449.556 589.804 453 591.374 456.791C592.944 460.582 593.753 464.645 593.753 468.748L562.507 437.503C562.507 445.79 565.799 453.737 571.659 459.597C577.518 465.457 585.466 468.748 593.753 468.748" fill="#FFEEB8"/>
<path d="M593.763 468.759C597.866 468.759 601.929 469.567 605.72 471.138C609.511 472.708 612.956 475.009 615.857 477.911C618.759 480.812 621.06 484.257 622.63 488.048C624.201 491.839 625.009 495.902 625.009 500.005L593.763 468.759C593.763 477.046 597.055 484.993 602.915 490.853C608.774 496.713 616.722 500.005 625.009 500.005" fill="#84D8CA"/>
<path d="M687.511 437.507H625.01V500.008H687.511V437.507Z" fill="white"/>
<path d="M656.265 437.503C664.552 437.503 672.499 440.795 678.359 446.654C684.218 452.514 687.51 460.462 687.51 468.748L656.265 437.503C656.265 441.606 657.073 445.669 658.643 449.46C660.213 453.251 662.515 456.695 665.416 459.597C668.318 462.498 671.762 464.8 675.553 466.37C679.344 467.94 683.407 468.748 687.51 468.748" fill="#FFE286"/>
<path d="M625.009 500.005C625.009 491.718 628.301 483.77 634.16 477.911C640.02 472.051 647.968 468.759 656.254 468.759L625.009 500.005C633.296 500.005 641.243 496.713 647.103 490.853C652.962 484.993 656.254 477.046 656.254 468.759" fill="#B1E7DD"/>
<path d="M656.265 500.005C656.265 495.902 657.073 491.839 658.643 488.048C660.213 484.257 662.515 480.812 665.416 477.911C668.318 475.009 671.762 472.708 675.553 471.138C679.344 469.567 683.407 468.759 687.51 468.759L656.265 500.005C664.552 500.005 672.499 496.713 678.359 490.853C684.218 484.993 687.51 477.046 687.51 468.759" fill="#FFE3CF"/>
<path d="M687.511 500.005C687.511 483.428 694.096 467.531 705.817 455.809C717.539 444.088 733.436 437.503 750.013 437.503L687.511 500.005C704.087 500.005 719.985 493.42 731.706 481.698C743.428 469.977 750.013 454.079 750.013 437.503" fill="#FFBB8A"/>
<path d="M812.513 437.507H750.012V500.008H812.513V437.507Z" fill="white"/>
<path d="M750.013 468.748C750.013 460.462 753.305 452.514 759.164 446.654C765.024 440.795 772.972 437.503 781.258 437.503L750.013 468.748C758.3 468.748 766.247 465.457 772.107 459.597C777.966 453.737 781.258 445.79 781.258 437.503" fill="#FFE490"/>
<path d="M781.258 468.748C781.258 464.645 782.067 460.582 783.637 456.791C785.207 453 787.509 449.556 790.41 446.654C793.311 443.753 796.756 441.451 800.547 439.881C804.338 438.311 808.401 437.503 812.504 437.503L781.258 468.748C789.545 468.748 797.493 465.457 803.352 459.597C809.212 453.737 812.504 445.79 812.504 437.503" fill="#FFAC70"/>
<path d="M781.258 468.759C789.545 468.759 797.493 472.051 803.352 477.911C809.212 483.77 812.504 491.718 812.504 500.005L781.258 468.759C781.258 472.862 782.067 476.925 783.637 480.716C785.207 484.507 787.509 487.952 790.41 490.853C793.311 493.755 796.756 496.056 800.547 497.626C804.338 499.197 808.401 500.005 812.504 500.005" fill="#C3ECE5"/>
<path d="M875.016 500.005C875.016 483.428 881.601 467.531 893.322 455.809C905.044 444.088 920.942 437.503 937.518 437.503L875.016 500.005C891.593 500.005 907.49 493.42 919.212 481.698C930.933 469.977 937.518 454.079 937.518 437.503" fill="#FFA05C"/>
<path d="M1000.02 437.507H937.514V500.008H1000.02V437.507Z" fill="white"/>
<path d="M937.518 468.748C937.518 460.462 940.81 452.514 946.67 446.654C952.529 440.795 960.477 437.503 968.764 437.503L937.518 468.748C945.805 468.748 953.752 465.457 959.612 459.597C965.472 453.737 968.764 445.79 968.764 437.503" fill="#FFC79F"/>
<path d="M968.764 468.748C968.764 460.462 972.056 452.514 977.915 446.654C983.775 440.795 991.722 437.503 1000.01 437.503L968.764 468.748C972.867 468.748 976.93 467.94 980.721 466.37C984.512 464.8 987.956 462.498 990.858 459.597C993.759 456.695 996.061 453.251 997.631 449.46C999.201 445.669 1000.01 441.606 1000.01 437.503" fill="#DAF3EF"/>
<path d="M937.518 468.759C945.805 468.759 953.752 472.051 959.612 477.911C965.472 483.77 968.764 491.718 968.764 500.005L937.518 468.759C937.518 477.046 940.81 484.993 946.67 490.853C952.529 496.713 960.477 500.005 968.764 500.005" fill="#FFF5EE"/>
<path d="M968.764 500.005C968.764 491.718 972.056 483.77 977.915 477.911C983.775 472.051 991.722 468.759 1000.01 468.759L968.764 500.005C972.867 500.005 976.93 499.197 980.721 497.626C984.512 496.056 987.956 493.755 990.858 490.853C993.759 487.952 996.061 484.507 997.631 480.716C999.201 476.925 1000.01 472.862 1000.01 468.759" fill="#FFFCF9"/>
<path d="M375.006 500.008H312.505V562.509H375.006V500.008Z" fill="white"/>
<path d="M312.51 562.507C312.51 554.22 315.802 546.272 321.661 540.413C327.521 534.553 335.469 531.261 343.755 531.261L312.51 562.507C320.797 562.507 328.744 559.215 334.604 553.355C340.463 547.495 343.755 539.548 343.755 531.261" fill="#DCF4F0"/>
<path d="M343.755 562.507C343.755 554.22 347.047 546.272 352.907 540.413C358.767 534.553 366.714 531.261 375.001 531.261L343.755 562.507C352.042 562.507 359.99 559.215 365.849 553.355C371.709 547.495 375.001 539.548 375.001 531.261" fill="#FF9042"/>
<path d="M375.001 562.507C375.001 545.93 381.586 530.033 393.307 518.311C405.029 506.59 420.926 500.005 437.503 500.005L375.001 562.507C391.578 562.507 407.475 555.922 419.196 544.2C430.918 532.479 437.503 516.581 437.503 500.005" fill="#FFE9D9"/>
<path d="M500.005 500.005C516.581 500.005 532.479 506.59 544.2 518.311C555.922 530.033 562.507 545.93 562.507 562.507L500.005 500.005C500.005 516.581 506.59 532.479 518.311 544.2C530.033 555.922 545.93 562.507 562.507 562.507" fill="#FFA666"/>
<path d="M687.511 500.008H625.01V562.509H687.511V500.008Z" fill="white"/>
<path d="M656.265 500.005C664.552 500.005 672.499 503.297 678.359 509.156C684.218 515.016 687.51 522.964 687.51 531.25L656.265 500.005C656.265 504.108 657.073 508.171 658.643 511.962C660.213 515.753 662.515 519.197 665.416 522.099C668.318 525 671.762 527.302 675.553 528.872C679.344 530.442 683.407 531.25 687.51 531.25" fill="#FFEAA7"/>
<path d="M656.265 562.507C656.265 558.403 657.073 554.34 658.643 550.549C660.213 546.759 662.515 543.314 665.416 540.413C668.318 537.511 671.762 535.21 675.553 533.639C679.344 532.069 683.407 531.261 687.51 531.261L656.265 562.507C664.552 562.507 672.499 559.215 678.359 553.355C684.218 547.495 687.51 539.548 687.51 531.261" fill="#FFFEFD"/>
<path d="M750.012 500.008H687.511V562.509H750.012V500.008Z" fill="white"/>
<path d="M687.511 531.261C695.798 531.261 703.745 534.553 709.605 540.413C715.464 546.272 718.756 554.22 718.756 562.507L687.511 531.261C687.511 539.548 690.803 547.495 696.662 553.355C702.522 559.215 710.47 562.507 718.756 562.507" fill="#DDF4F0"/>
<path d="M718.756 562.507C718.756 554.22 722.048 546.272 727.908 540.413C733.768 534.553 741.715 531.261 750.002 531.261L718.756 562.507C722.86 562.507 726.923 561.698 730.714 560.128C734.504 558.558 737.949 556.257 740.85 553.355C743.752 550.454 746.053 547.009 747.624 543.218C749.194 539.427 750.002 535.364 750.002 531.261" fill="#FFE591"/>
<path d="M875.014 500.008H812.513V562.509H875.014V500.008Z" fill="white"/>
<path d="M812.515 500.005C820.802 500.005 828.749 503.297 834.609 509.156C840.468 515.016 843.76 522.964 843.76 531.25L812.515 500.005C812.515 504.108 813.323 508.171 814.893 511.962C816.463 515.753 818.765 519.197 821.666 522.099C824.568 525 828.012 527.302 831.803 528.872C835.594 530.442 839.657 531.25 843.76 531.25" fill="#FF8229"/>
<path d="M812.515 531.261C820.802 531.261 828.749 534.553 834.609 540.413C840.468 546.272 843.76 554.22 843.76 562.507L812.515 531.261C812.515 535.364 813.323 539.427 814.893 543.218C816.463 547.009 818.765 550.454 821.666 553.355C824.568 556.257 828.012 558.558 831.803 560.128C835.594 561.698 839.657 562.507 843.76 562.507" fill="#FFFBF9"/>
<path d="M843.76 562.507C843.76 554.22 847.052 546.272 852.912 540.413C858.772 534.553 866.719 531.261 875.006 531.261L843.76 562.507C852.047 562.507 859.995 559.215 865.854 553.355C871.714 547.495 875.006 539.548 875.006 531.261" fill="#FFCE32"/>
<path d="M1000.02 500.008H937.514V562.509H1000.02V500.008Z" fill="white"/>
<path d="M937.518 500.005C945.805 500.005 953.752 503.297 959.612 509.156C965.472 515.016 968.764 522.964 968.764 531.25L937.518 500.005C937.518 508.292 940.81 516.239 946.67 522.099C952.529 527.958 960.477 531.25 968.764 531.25" fill="#FFECDE"/>
<path d="M937.518 562.507C937.518 554.22 940.81 546.272 946.67 540.413C952.529 534.553 960.477 531.261 968.764 531.261L937.518 562.507C945.805 562.507 953.752 559.215 959.612 553.355C965.472 547.495 968.764 539.548 968.764 531.261" fill="#FFEDE1"/>
<path d="M968.764 531.261C972.867 531.261 976.93 532.069 980.721 533.639C984.512 535.21 987.956 537.511 990.858 540.413C993.759 543.314 996.061 546.759 997.631 550.549C999.201 554.34 1000.01 558.403 1000.01 562.507L968.764 531.261C968.764 539.548 972.056 547.495 977.915 553.355C983.775 559.215 991.722 562.507 1000.01 562.507" fill="#F1FBF9"/>
<path d="M62.501 562.509H0V625.01H62.501V562.509Z" fill="white"/>
<path d="M31.2456 562.507C39.5325 562.507 47.4799 565.799 53.3396 571.658C59.1993 577.518 62.4913 585.466 62.4913 593.752L31.2456 562.507C31.2456 566.61 32.0538 570.673 33.624 574.464C35.1943 578.255 37.4958 581.699 40.3972 584.601C43.2987 587.502 46.7432 589.804 50.5341 591.374C54.325 592.944 58.388 593.752 62.4913 593.752" fill="#CCEFE9"/>
<path d="M0 593.763C8.28686 593.763 16.2343 597.055 22.094 602.915C27.9537 608.774 31.2457 616.722 31.2457 625.009L0 593.763C0 597.866 0.808193 601.929 2.37843 605.72C3.94868 609.511 6.25021 612.956 9.15164 615.857C12.0531 618.758 15.4976 621.06 19.2885 622.63C23.0794 624.2 27.1424 625.009 31.2457 625.009" fill="#C2ECE5"/>
<path d="M31.2456 625.009C31.2456 616.722 34.5375 608.774 40.3972 602.915C46.2569 597.055 54.2044 593.763 62.4913 593.763L31.2456 625.009C35.3488 625.009 39.4119 624.2 43.2028 622.63C46.9937 621.06 50.4382 618.758 53.3396 615.857C56.241 612.956 58.5426 609.511 60.1128 605.72C61.6831 601.929 62.4913 597.866 62.4913 593.763" fill="#9ADFD4"/>
<path d="M125.002 562.509H62.501V625.01H125.002V562.509Z" fill="white"/>
<path d="M62.502 562.507C70.7888 562.507 78.7363 565.799 84.596 571.658C90.4557 577.518 93.7476 585.466 93.7476 593.752L62.502 562.507C62.502 566.61 63.3101 570.673 64.8804 574.464C66.4506 578.255 68.7522 581.699 71.6536 584.601C74.555 587.502 77.9995 589.804 81.7904 591.374C85.5813 592.944 89.6444 593.752 93.7476 593.752" fill="#FFD5B7"/>
<path d="M93.7476 593.752C93.7476 585.466 97.0395 577.518 102.899 571.658C108.759 565.799 116.706 562.507 124.993 562.507L93.7476 593.752C97.8508 593.752 101.914 592.944 105.705 591.374C109.496 589.804 112.94 587.502 115.842 584.601C118.743 581.699 121.045 578.255 122.615 574.464C124.185 570.673 124.993 566.61 124.993 562.507" fill="#FFDD72"/>
<path d="M62.502 625.009C62.502 616.722 65.7939 608.774 71.6536 602.915C77.5133 597.055 85.4607 593.763 93.7476 593.763L62.502 625.009C66.6052 625.009 70.6683 624.2 74.4592 622.63C78.25 621.06 81.6945 618.758 84.596 615.857C87.4974 612.956 89.7989 609.511 91.3692 605.72C92.9394 601.929 93.7476 597.866 93.7476 593.763" fill="#FFFCF4"/>
<path d="M125.004 562.507C141.58 562.507 157.478 569.092 169.199 580.813C180.921 592.534 187.506 608.432 187.506 625.009L125.004 562.507C125.004 579.083 131.589 594.981 143.31 606.702C155.032 618.424 170.929 625.009 187.506 625.009" fill="#E9F8F6"/>
<path d="M250.008 625.009C250.008 608.432 256.593 592.534 268.314 580.813C280.036 569.092 295.933 562.507 312.51 562.507L250.008 625.009C266.584 625.009 282.482 618.424 294.203 606.702C305.925 594.981 312.51 579.083 312.51 562.507" fill="#77D4C4"/>
<path d="M437.507 562.509H375.006V625.01H437.507V562.509Z" fill="white"/>
<path d="M375.001 593.752C375.001 585.466 378.293 577.518 384.153 571.658C390.012 565.799 397.96 562.507 406.247 562.507L375.001 593.752C379.104 593.752 383.167 592.944 386.958 591.374C390.749 589.804 394.194 587.502 397.095 584.601C399.996 581.699 402.298 578.255 403.868 574.464C405.438 570.673 406.247 566.61 406.247 562.507" fill="#FFC49A"/>
<path d="M375.001 593.763C383.288 593.763 391.235 597.055 397.095 602.915C402.955 608.774 406.247 616.722 406.247 625.009L375.001 593.763C375.001 597.866 375.809 601.929 377.379 605.72C378.95 609.511 381.251 612.956 384.153 615.857C387.054 618.758 390.499 621.06 394.289 622.63C398.08 624.2 402.143 625.009 406.247 625.009" fill="#EAF9F6"/>
<path d="M406.257 593.763C414.544 593.763 422.492 597.055 428.351 602.915C434.211 608.774 437.503 616.722 437.503 625.009L406.257 593.763C406.257 597.866 407.065 601.929 408.636 605.72C410.206 609.511 412.508 612.956 415.409 615.857C418.31 618.758 421.755 621.06 425.546 622.63C429.337 624.2 433.4 625.009 437.503 625.009" fill="#FF6C04"/>
<path d="M500.008 562.509H437.507V625.01H500.008V562.509Z" fill="white"/>
<path d="M437.503 593.752C437.503 585.466 440.795 577.518 446.655 571.658C452.514 565.799 460.462 562.507 468.749 562.507L437.503 593.752C441.606 593.752 445.669 592.944 449.46 591.374C453.251 589.804 456.696 587.502 459.597 584.601C462.498 581.699 464.8 578.255 466.37 574.464C467.94 570.673 468.749 566.61 468.749 562.507" fill="#03B092"/>
<path d="M625.009 625.009C625.009 608.432 631.594 592.534 643.315 580.813C655.037 569.092 670.934 562.507 687.511 562.507L625.009 625.009C641.585 625.009 657.483 618.424 669.204 606.702C680.926 594.981 687.511 579.083 687.511 562.507" fill="#FFCD2C"/>
<path d="M687.511 625.009C687.511 608.432 694.096 592.534 705.817 580.813C717.539 569.092 733.436 562.507 750.013 562.507L687.511 625.009C704.087 625.009 719.985 618.424 731.706 606.702C743.428 594.981 750.013 579.083 750.013 562.507" fill="#E1F6F2"/>
<path d="M812.515 562.507C829.091 562.507 844.989 569.092 856.71 580.813C868.432 592.534 875.017 608.432 875.017 625.009L812.515 562.507C812.515 579.083 819.1 594.981 830.821 606.702C842.542 618.424 858.44 625.009 875.017 625.009" fill="#8EDBCE"/>
<path d="M875.016 562.507C891.593 562.507 907.49 569.092 919.212 580.813C930.933 592.534 937.518 608.432 937.518 625.009L875.016 562.507C875.016 579.083 881.601 594.981 893.322 606.702C905.044 618.424 920.942 625.009 937.518 625.009" fill="#84D8CA"/>
<path d="M1000.02 562.509H937.514V625.01H1000.02V562.509Z" fill="white"/>
<path d="M937.518 593.763C945.805 593.763 953.752 597.055 959.612 602.915C965.472 608.774 968.764 616.722 968.764 625.009L937.518 593.763C937.518 597.866 938.326 601.929 939.897 605.72C941.467 609.511 943.768 612.956 946.67 615.857C949.571 618.758 953.016 621.06 956.806 622.63C960.597 624.2 964.66 625.009 968.764 625.009" fill="#B4E7DE"/>
<path d="M968.764 593.763C972.867 593.763 976.93 594.571 980.721 596.141C984.512 597.712 987.956 600.013 990.858 602.915C993.759 605.816 996.061 609.26 997.631 613.051C999.201 616.842 1000.01 620.905 1000.01 625.009L968.764 593.763C968.764 597.866 969.572 601.929 971.142 605.72C972.712 609.511 975.014 612.956 977.915 615.857C980.817 618.758 984.261 621.06 988.052 622.63C991.843 624.2 995.906 625.009 1000.01 625.009" fill="#FFDC6B"/>
<path d="M62.501 625.01H0V687.511H62.501V625.01Z" fill="white"/>
<path d="M0 625.009C8.28686 625.009 16.2343 628.301 22.094 634.16C27.9537 640.02 31.2457 647.967 31.2457 656.254L0 625.009C0 633.296 3.29194 641.243 9.15164 647.103C15.0113 652.962 22.9588 656.254 31.2457 656.254" fill="#E1F6F2"/>
<path d="M31.2456 656.254C31.2456 647.967 34.5375 640.02 40.3972 634.16C46.2569 628.301 54.2044 625.009 62.4913 625.009L31.2456 656.254C39.5325 656.254 47.4799 652.962 53.3396 647.103C59.1993 641.243 62.4913 633.296 62.4913 625.009" fill="#C3ECE5"/>
<path d="M0 687.511C0 683.407 0.808193 679.344 2.37843 675.553C3.94868 671.762 6.25021 668.318 9.15164 665.417C12.0531 662.515 15.4976 660.214 19.2885 658.643C23.0794 657.073 27.1424 656.265 31.2457 656.265L0 687.511C8.28686 687.511 16.2343 684.219 22.094 678.359C27.9537 672.499 31.2457 664.552 31.2457 656.265" fill="#FFE287"/>
<path d="M31.2456 656.265C35.3488 656.265 39.4119 657.073 43.2028 658.643C46.9937 660.214 50.4382 662.515 53.3396 665.417C56.241 668.318 58.5426 671.762 60.1128 675.553C61.6831 679.344 62.4913 683.407 62.4913 687.511L31.2456 656.265C31.2456 664.552 34.5375 672.499 40.3972 678.359C46.2569 684.219 54.2044 687.511 62.4913 687.511" fill="#5BCBB8"/>
<path d="M62.502 625.009C79.0785 625.009 94.9761 631.594 106.697 643.315C118.419 655.036 125.004 670.934 125.004 687.511L62.502 625.009C62.502 641.585 69.087 657.483 80.8083 669.204C92.5297 680.926 108.427 687.511 125.004 687.511" fill="#FFBA8A"/>
<path d="M250.004 625.01H187.503V687.511H250.004V625.01Z" fill="white"/>
<path d="M218.751 656.254C218.751 647.967 222.043 640.02 227.903 634.16C233.763 628.301 241.71 625.009 249.997 625.009L218.751 656.254C227.038 656.254 234.986 652.962 240.845 647.103C246.705 641.243 249.997 633.296 249.997 625.009" fill="#FFF6F0"/>
<path d="M187.506 656.265C191.609 656.265 195.672 657.073 199.463 658.643C203.254 660.214 206.698 662.515 209.6 665.417C212.501 668.318 214.803 671.762 216.373 675.553C217.943 679.344 218.752 683.407 218.752 687.511L187.506 656.265C187.506 664.552 190.798 672.499 196.658 678.359C202.517 684.219 210.465 687.511 218.752 687.511" fill="#FFCEAB"/>
<path d="M218.751 687.511C218.751 683.407 219.56 679.344 221.13 675.553C222.7 671.762 225.002 668.318 227.903 665.417C230.805 662.515 234.249 660.214 238.04 658.643C241.831 657.073 245.894 656.265 249.997 656.265L218.751 687.511C227.038 687.511 234.986 684.219 240.845 678.359C246.705 672.499 249.997 664.552 249.997 656.265" fill="#FFE4D0"/>
<path d="M312.51 687.511C312.51 679.303 314.126 671.175 317.267 663.592C320.408 656.009 325.012 649.119 330.816 643.315C336.62 637.511 343.51 632.907 351.093 629.766C358.676 626.625 366.804 625.009 375.012 625.009L312.51 687.511C329.086 687.511 344.984 680.926 356.705 669.204C368.427 657.483 375.012 641.585 375.012 625.009" fill="#50C8B4"/>
<path d="M437.503 687.511C437.503 670.934 444.088 655.036 455.809 643.315C467.531 631.594 483.428 625.009 500.005 625.009L437.503 687.511C454.079 687.511 469.977 680.926 481.698 669.204C493.42 657.483 500.005 641.585 500.005 625.009" fill="#44C4AF"/>
<path d="M562.509 625.01H500.008V687.511H562.509V625.01Z" fill="white"/>
<path d="M500.005 656.254C500.005 647.967 503.297 640.02 509.157 634.16C515.016 628.301 522.964 625.009 531.251 625.009L500.005 656.254C508.292 656.254 516.239 652.962 522.099 647.103C527.959 641.243 531.251 633.296 531.251 625.009" fill="#FF7818"/>
<path d="M531.261 625.009C539.548 625.009 547.496 628.301 553.355 634.16C559.215 640.02 562.507 647.967 562.507 656.254L531.261 625.009C531.261 633.296 534.553 641.243 540.413 647.103C546.273 652.962 554.22 656.254 562.507 656.254" fill="#FFEBAB"/>
<path d="M500.005 656.265C504.108 656.265 508.171 657.073 511.962 658.643C515.753 660.214 519.197 662.515 522.099 665.417C525 668.318 527.302 671.762 528.872 675.553C530.442 679.344 531.251 683.407 531.251 687.511L500.005 656.265C500.005 664.552 503.297 672.499 509.157 678.359C515.016 684.219 522.964 687.511 531.251 687.511" fill="#FFF1E7"/>
<path d="M562.507 687.511C562.507 670.934 569.092 655.036 580.813 643.315C592.535 631.594 608.432 625.009 625.009 625.009L562.507 687.511C579.083 687.511 594.981 680.926 606.702 669.204C618.424 657.483 625.009 641.585 625.009 625.009" fill="#FFCD2D"/>
<path d="M625.009 625.009C641.585 625.009 657.483 631.594 669.204 643.315C680.926 655.036 687.511 670.934 687.511 687.511L625.009 625.009C625.009 641.585 631.594 657.483 643.315 669.204C655.037 680.926 670.934 687.511 687.511 687.511" fill="#D5F2ED"/>
<path d="M812.513 625.01H750.012V687.511H812.513V625.01Z" fill="white"/>
<path d="M781.258 656.254C781.258 652.151 782.067 648.088 783.637 644.297C785.207 640.506 787.509 637.062 790.41 634.16C793.311 631.259 796.756 628.957 800.547 627.387C804.338 625.817 808.401 625.009 812.504 625.009L781.258 656.254C789.545 656.254 797.493 652.962 803.352 647.103C809.212 641.243 812.504 633.296 812.504 625.009" fill="#FF9142"/>
<path d="M875.016 687.511C875.016 670.934 881.601 655.036 893.322 643.315C905.044 631.594 920.942 625.009 937.518 625.009L875.016 687.511C891.593 687.511 907.49 680.926 919.212 669.204C930.933 657.483 937.518 641.585 937.518 625.009" fill="#FFA362"/>
</g>
<defs>
<clipPath id="clip0_288_205">
<rect width="1000" height="687.511" fill="white"/>
</clipPath>
</defs>
</svg>
