<svg width="1920" height="148" viewBox="0 0 1920 148" fill="none" xmlns="http://www.w3.org/2000/svg">
<g opacity="0.5">
<g clip-path="url(#clip0_260_451)">
<path d="M593 -2H482V98H593V-2Z" fill="#FFBB8A"/>
<path d="M482 98C482 71.4783 493.695 46.043 514.511 27.2893C535.328 8.53569 563.561 -2 593 -2L482 98C511.439 98 539.672 87.4643 560.489 68.7107C581.305 49.957 593 24.5216 593 -2" fill="#FFAE75"/>
<path d="M704 -2H593V98H704V-2Z" fill="white"/>
<path d="M704 -2H648.5V48H704V-2Z" fill="#C1EBE4"/>
<path d="M648.5 -2C663.22 -2 677.336 3.26783 687.744 12.6447C698.153 22.0215 704 34.7392 704 48H648.5" fill="#8FDCCF"/>
<path d="M648.5 48H593V98H648.5V48Z" fill="#FF9143"/>
<path d="M593 48C593 61.2608 598.847 73.9785 609.256 83.3553C619.664 92.7322 633.78 98 648.5 98V48" fill="#FFE5D3"/>
<path d="M704 48H648.5V98H704V48Z" fill="#FFE2CD"/>
<path d="M648.5 98C663.22 98 677.336 92.7322 687.744 83.3553C698.153 73.9785 704 61.2608 704 48H648.5" fill="#FF9041"/>
<path d="M815 -2H704V98H815V-2Z" fill="white"/>
<path d="M759.5 -2H704V48H759.5V-2Z" fill="#FFB580"/>
<path d="M704 48C704 34.7392 709.847 22.0215 720.256 12.6447C730.664 3.26783 744.78 -2 759.5 -2V48" fill="#B5E8DF"/>
<path d="M815 -2H759.5V48H815V-2Z" fill="#FFA769"/>
<path d="M759.5 -2C774.22 -2 788.336 3.26783 798.744 12.6447C809.153 22.0215 815 34.7392 815 48H759.5" fill="#DFF5F1"/>
<path d="M759.5 48H704V98H759.5V48Z" fill="#8CDBCD"/>
<path d="M704 48C704 61.2608 709.847 73.9785 720.256 83.3553C730.664 92.7322 744.78 98 759.5 98V48" fill="#FF9F5B"/>
<path d="M815 48H759.5V98H815V48Z" fill="#FFBD8F"/>
<path d="M759.5 98C774.22 98 788.336 92.7322 798.744 83.3553C809.153 73.9785 815 61.2608 815 48H759.5" fill="#FF7716"/>
<path d="M926 -2H815V98H926V-2Z" fill="white"/>
<path d="M926 -2H870.5V48H926V-2Z" fill="#54C9B5"/>
<path d="M870.5 -2C885.22 -2 899.336 3.26783 909.744 12.6447C920.153 22.0215 926 34.7392 926 48H870.5" fill="#80D7C8"/>
<path d="M1037 -2H926V98H1037V-2Z" fill="#FFC093"/>
<path d="M926 -2H1037V98L926 -2Z" fill="#D2F1EC"/>
<path d="M1148 -2H1037V98H1148V-2Z" fill="white"/>
<path d="M1092.5 -2H1037V48H1092.5V-2Z" fill="#FFD4B5"/>
<path d="M1092.5 -2V48H1037L1092.5 -2Z" fill="#FFAE75"/>
<path d="M1148 48H1092.5V98H1148V48Z" fill="#FF8F3F"/>
<path d="M1092.5 48H1148L1092.5 98V48Z" fill="#E0F5F2"/>
<path d="M1259 -2H1148V98H1259V-2Z" fill="white"/>
<path d="M1203.5 -2H1148V48H1203.5V-2Z" fill="#FFC296"/>
<path d="M1203.5 -2V48H1148L1203.5 -2Z" fill="#FF8731"/>
<path d="M1259 -2H1203.5V48H1259V-2Z" fill="#AAE4DA"/>
<path d="M1203.5 -2L1259 48H1203.5V-2Z" fill="#F8FDFC"/>
<path d="M1203.5 48H1148V98H1203.5V48Z" fill="#C4ECE5"/>
<path d="M1148 48H1203.5L1148 98V48Z" fill="#D1F1EB"/>
<path d="M1370 -2H1259V98H1370V-2Z" fill="white"/>
<path d="M1314.5 -2H1259V48H1314.5V-2Z" fill="#FF954A"/>
<path d="M1259 -2C1273.72 -2 1287.84 3.26783 1298.24 12.6447C1308.65 22.0215 1314.5 34.7392 1314.5 48H1259" fill="#A5E3D8"/>
<path d="M1370 -2H1314.5V48H1370V-2Z" fill="#FF7512"/>
<path d="M1314.5 48C1314.5 34.7392 1320.35 22.0215 1330.76 12.6447C1341.16 3.26783 1355.28 -2 1370 -2V48" fill="#57CAB7"/>
<path d="M1314.5 48H1259V98H1314.5V48Z" fill="#FF6E07"/>
<path d="M1259 98C1273.72 98 1287.84 92.7322 1298.24 83.3553C1308.65 73.9785 1314.5 61.2608 1314.5 48H1259" fill="#6BD0BF"/>
<path d="M1481 -2H1370V98H1481V-2Z" fill="white"/>
<path d="M1425.5 -2H1370V48H1425.5V-2Z" fill="#FFDAC0"/>
<path d="M1370 -2C1384.72 -2 1398.84 3.26783 1409.24 12.6447C1419.65 22.0215 1425.5 34.7392 1425.5 48H1370" fill="#FF832A"/>
<path d="M1481 -2H1425.5V48H1481V-2Z" fill="#FFA667"/>
<path d="M1425.5 48C1425.5 34.7392 1431.35 22.0215 1441.76 12.6447C1452.16 3.26783 1466.28 -2 1481 -2V48" fill="#4FC8B3"/>
<path d="M1425.5 48H1370V98H1425.5V48Z" fill="#FF9B54"/>
<path d="M1370 98C1384.72 98 1398.84 92.7322 1409.24 83.3553C1419.65 73.9785 1425.5 61.2608 1425.5 48H1370" fill="#FF7513"/>
<path d="M1481 48H1425.5V98H1481V48Z" fill="#9FE1D6"/>
<path d="M1425.5 48C1425.5 61.2608 1431.35 73.9785 1441.76 83.3553C1452.16 92.7322 1466.28 98 1481 98V48" fill="#BDEAE3"/>
<path d="M593 98H482V198H593V98Z" fill="white"/>
<path d="M537.5 98H482V148H537.5V98Z" fill="#FFA361"/>
<path d="M482 148C482 134.739 487.847 122.021 498.256 112.645C508.664 103.268 522.78 98 537.5 98V148" fill="#FF7A1B"/>
<path d="M593 98H537.5V148H593V98Z" fill="#DAF3EF"/>
<path d="M537.5 98C552.22 98 566.336 103.268 576.744 112.645C587.153 122.021 593 134.739 593 148H537.5" fill="#FF700B"/>
<path d="M704 98H593V198H704V98Z" fill="#92DDD0"/>
<path d="M593 98L704 198H593V98Z" fill="#9ADFD3"/>
<path d="M815 98H704V198H815V98Z" fill="#FF6C04"/>
<path d="M704 198C704 171.478 715.695 146.043 736.511 127.289C757.328 108.536 785.561 98 815 98V198" fill="#ACE5DB"/>
<path d="M926 98H815V198H926V98Z" fill="white"/>
<path d="M870.5 98H815V148H870.5V98Z" fill="#E1F5F2"/>
<path d="M815 148C815 134.739 820.847 122.021 831.256 112.645C841.664 103.268 855.78 98 870.5 98V148" fill="#DCF4F0"/>
<path d="M926 98H870.5V148H926V98Z" fill="#FF832B"/>
<path d="M870.5 98C885.22 98 899.336 103.268 909.744 112.645C920.153 122.021 926 134.739 926 148H870.5" fill="#64CEBC"/>
<path d="M1037 98H926V198H1037V98Z" fill="white"/>
<path d="M981.5 98H926V148H981.5V98Z" fill="#7DD6C7"/>
<path d="M953.75 148C969.076 148 981.5 136.807 981.5 123C981.5 109.193 969.076 98 953.75 98C938.424 98 926 109.193 926 123C926 136.807 938.424 148 953.75 148Z" fill="#FEFFFF"/>
<path d="M1037 98H981.5V148H1037V98Z" fill="#F8FDFC"/>
<path d="M1037 98H981.5V148H1037V98Z" fill="#C6EDE6"/>
<path d="M1148 98H1037V198H1148V98Z" fill="#66CFBD"/>
<path d="M1148 98H1037V198H1148V98Z" fill="#FFB47F"/>
<path d="M1259 98H1148V198H1259V98Z" fill="#FFF6F0"/>
<path d="M1148 198C1177.44 198 1205.67 187.464 1226.49 168.711C1247.31 149.957 1259 124.522 1259 98H1148" fill="#FFECDF"/>
<path d="M1370 98H1259V198H1370V98Z" fill="#FFD5B7"/>
<path d="M1259 198C1259 171.478 1270.69 146.043 1291.51 127.289C1312.33 108.536 1340.56 98 1370 98L1259 198C1288.44 198 1316.67 187.464 1337.49 168.711C1358.31 149.957 1370 124.522 1370 98" fill="#6AD0BF"/>
<path d="M1481 98H1370V198H1481V98Z" fill="#FFA260"/>
<path d="M1370 98H1481V198L1370 98Z" fill="#FFEDE0"/>
</g>
</g>
<g opacity="0.5">
<g clip-path="url(#clip1_260_451)">
<path d="M435 -5H546V95H435V-5Z" fill="#FFC093"/>
<path d="M546 -5H435V95L546 -5Z" fill="#C7EDE7"/>
<path d="M324 -5H435V95H324V-5Z" fill="white"/>
<path d="M379.5 -5H435V45H379.5V-5Z" fill="#FFD4B5"/>
<path d="M379.5 -5V45H435L379.5 -5Z" fill="#FFAE75"/>
<path d="M434.5 45V95H379L434.5 45Z" fill="#FFC79F"/>
<path d="M324 45H379.5V95H324V45Z" fill="#FF8F3F"/>
<path d="M379.5 45H324L379.5 95V45Z" fill="#E0F5F2"/>
<path d="M213 -5H324V95H213V-5Z" fill="white"/>
<path d="M268.5 -5H324V45H268.5V-5Z" fill="#FFC296"/>
<path d="M268.5 -5V45H324L268.5 -5Z" fill="#FF8731"/>
<path d="M213 -5H268.5V45H213V-5Z" fill="#AAE4DA"/>
<path d="M268.5 -5L213 45H268.5V-5Z" fill="#F8FDFC"/>
<path d="M268.5 45H324V95H268.5V45Z" fill="#FFE0CA"/>
<path d="M324 45H268.5L324 95V45Z" fill="#D1F1EB"/>
<path d="M268.5 45H213L268.5 95V45Z" fill="#B5E7DF"/>
<path d="M102 -5H213V95H102V-5Z" fill="white"/>
<path d="M157.5 -5H213V45H157.5V-5Z" fill="#FF954A"/>
<path d="M213 -5C198.28 -5 184.164 0.267832 173.756 9.64465C163.347 19.0215 157.5 31.7392 157.5 45H213" fill="#A5E3D8"/>
<path d="M102 -5H157.5V45H102V-5Z" fill="#FF7512"/>
<path d="M157.5 45C157.5 31.7392 151.653 19.0215 141.244 9.64465C130.836 0.267832 116.72 -5 102 -5V45" fill="#57CAB7"/>
<path d="M157.5 45H213V95H157.5V45Z" fill="#FF6E07"/>
<path d="M213 95C198.28 95 184.164 89.7322 173.756 80.3553C163.347 70.9785 157.5 58.2608 157.5 45H213" fill="#6BD0BF"/>
<path d="M157.5 95C142.78 95 128.664 89.7322 118.256 80.3553C107.847 70.9785 102 58.2608 102 45H157.5" fill="#FFC398"/>
<path d="M-9 -5H102V95H-9V-5Z" fill="white"/>
<path d="M46.5 -5H102V45H46.5V-5Z" fill="#FFDAC0"/>
<path d="M102 -5C87.2805 -5 73.1638 0.267832 62.7556 9.64465C52.3473 19.0215 46.5 31.7392 46.5 45H102" fill="#FF832A"/>
<path d="M-9 -5H46.5V45H-9V-5Z" fill="#FFA667"/>
<path d="M46.5 45C46.5 31.7392 40.6527 19.0215 30.2444 9.64465C19.8362 0.267832 5.71951 -5 -9 -5V45" fill="#4FC8B3"/>
<path d="M46.5 45H102V95H46.5V45Z" fill="#FF9B54"/>
<path d="M102 95C87.2805 95 73.1638 89.7322 62.7556 80.3553C52.3473 70.9785 46.5 58.2608 46.5 45H102" fill="#FF7513"/>
<path d="M-9 45H46.5V95H-9V45Z" fill="#9FE1D6"/>
<path d="M46.5 45C46.5 58.2608 40.6527 70.9785 30.2444 80.3553C19.8362 89.7322 5.71951 95 -9 95V45" fill="#BDEAE3"/>
<path d="M435 95H546V195H435V95Z" fill="white"/>
<path d="M435 95H490.5V145H435V95Z" fill="#F8FDFC"/>
<path d="M435 95H490.5V145H435V95Z" fill="#C6EDE6"/>
<path d="M435 145H490.5V195H435V145Z" fill="#FF9C56"/>
<path d="M435 145H490.5V195H435V145Z" fill="#58CAB7"/>
<path d="M324 95H435V195H324V95Z" fill="#66CFBD"/>
<path d="M324 95H435V195H324V95Z" fill="#FFB47F"/>
<path d="M213 95H324V195H213V95Z" fill="#FFF6F0"/>
<path d="M324 195C294.561 195 266.328 184.464 245.511 165.711C224.695 146.957 213 121.522 213 95H324" fill="#FFECDF"/>
<path d="M102 95H213V195H102V95Z" fill="#FFD5B7"/>
<path d="M213 195C213 168.478 201.305 143.043 180.489 124.289C159.672 105.536 131.439 95 102 95L213 195C183.561 195 155.328 184.464 134.511 165.711C113.695 146.957 102 121.522 102 95" fill="#6AD0BF"/>
<path d="M-9 95H102V195H-9V95Z" fill="#FFA260"/>
<path d="M102 95H-9V195L102 95Z" fill="#FFEDE0"/>
</g>
</g>
<g opacity="0.5">
<g clip-path="url(#clip2_260_451)">
<path d="M1597.33 88H1471.91V188H1597.33V88Z" fill="#FFBB8A"/>
<path d="M1471.91 188C1471.91 161.478 1485.13 136.043 1508.65 117.289C1532.17 98.5357 1564.07 88 1597.33 88L1471.91 188C1505.18 188 1537.08 177.464 1560.6 158.711C1584.12 139.957 1597.33 114.522 1597.33 88" fill="#FFAE75"/>
<path d="M1721.57 88H1597.33V188H1721.57V88Z" fill="white"/>
<path d="M1721.57 88H1658.86V138H1721.57V88Z" fill="#C1EBE4"/>
<path d="M1658.86 88C1675.49 88 1691.45 93.2678 1703.21 102.645C1714.97 112.021 1721.57 124.739 1721.57 138H1658.86" fill="#8FDCCF"/>
<path d="M1660.05 138H1597.33V188H1660.05V138Z" fill="#FF9143"/>
<path d="M1597.33 138C1597.33 151.261 1603.94 163.979 1615.7 173.355C1627.46 182.732 1643.41 188 1660.05 188V138" fill="#FFE5D3"/>
<path d="M1721.57 138H1658.86V188H1721.57V138Z" fill="#FFE2CD"/>
<path d="M1658.86 188C1675.49 188 1691.45 182.732 1703.21 173.355C1714.97 163.979 1721.57 151.261 1721.57 138H1658.86" fill="#FF9041"/>
<path d="M1847 88H1721.57V188H1847V88Z" fill="white"/>
<path d="M1784.29 88H1721.57V138H1784.29V88Z" fill="#FFB580"/>
<path d="M1705.91 38C1705.91 24.7392 1712.52 12.0215 1724.28 2.64465C1736.04 -6.73217 1751.99 -12 1768.62 -12V38" fill="#FBE3D4"/>
<path d="M1847 88H1784.29V138H1847V88Z" fill="#FFA769"/>
<path d="M1846.91 -4C1863.54 -4 1879.49 1.26783 1891.25 10.6447C1903.02 20.0215 1909.62 32.7392 1909.62 46H1846.91" fill="#FBDECD"/>
<path d="M1784.29 138H1721.57V188H1784.29V138Z" fill="#8CDBCD"/>
<path d="M1721.57 138C1721.57 151.261 1728.18 163.979 1739.94 173.355C1751.7 182.732 1767.65 188 1784.29 188V138" fill="#FF9F5B"/>
<path d="M1847 138H1784.29V188H1847V138Z" fill="#FFBD8F"/>
<path d="M1784.29 188C1800.92 188 1816.87 182.732 1828.63 173.355C1840.39 163.979 1847 151.261 1847 138H1784.29" fill="#FF7716"/>
<path d="M1597.33 -12H1471.91V88H1597.33V-12Z" fill="white"/>
<path d="M1534.62 38H1471.91V88H1534.62V38Z" fill="#FFDCC4"/>
<path d="M1471.91 38C1471.91 51.2608 1478.52 63.9785 1490.28 73.3553C1502.04 82.7322 1517.99 88 1534.62 88V38" fill="#53C9B5"/>
<path d="M1597.33 38H1534.62V88H1597.33V38Z" fill="#CEF0EA"/>
<path d="M1534.62 88C1551.25 88 1567.21 82.7322 1578.97 73.3553C1590.73 63.9785 1597.33 51.2608 1597.33 38H1534.62" fill="#E5F7F4"/>
<path d="M1721.57 -12H1597.33V88H1721.57V-12Z" fill="#DFF5F1"/>
<path d="M1721.57 -12H1597.33V88H1721.57V-12Z" fill="#FBCBAB"/>
<path d="M1847 -12H1721.57V88H1847V-12Z" fill="white"/>
<path d="M1847 38H1784.29V88H1847V38Z" fill="#FF852E"/>
<path d="M1909.62 103H1846.91V153H1909.62V103Z" fill="#86D9CB"/>
</g>
</g>
<defs>
<clipPath id="clip0_260_451">
<rect x="482" y="-5" width="990" height="153" fill="white"/>
</clipPath>
<clipPath id="clip1_260_451">
<rect width="482" height="153" transform="matrix(-1 0 0 1 482 -5)" fill="white"/>
</clipPath>
<clipPath id="clip2_260_451">
<rect x="1463" y="-5" width="457" height="153" fill="white"/>
</clipPath>
</defs>
</svg>
