<svg width="1920" height="1080" viewBox="0 0 1920 1080" fill="none" xmlns="http://www.w3.org/2000/svg">
<g clip-path="url(#clip0_246_310)">
<rect width="1920" height="1080" fill="white"/>
<path opacity="0.7" d="M59.8 841H0V900.8H59.8V841Z" fill="white"/>
<path opacity="0.7" d="M119.6 841H59.8V900.8H119.6V841Z" fill="#FFCDA9"/>
<path opacity="0.7" d="M59.8 841L119.6 900.8H59.8V841Z" fill="#FFCCA7"/>
<path opacity="0.7" d="M59.8 900.8H0V960.6H59.8V900.8Z" fill="#FFFCFA"/>
<path opacity="0.7" d="M0 900.8C15.8599 900.8 31.0703 907.1 42.285 918.315C53.4997 929.53 59.8 944.74 59.8 960.6H0" fill="#FFE7D7"/>
<path opacity="0.7" d="M119.6 900.8H59.8V960.6H119.6V900.8Z" fill="#ADE5DC"/>
<path opacity="0.7" d="M59.8 900.8C75.66 900.8 90.8704 907.1 102.085 918.315C113.3 929.53 119.6 944.74 119.6 960.6L59.8 900.8C59.8 916.66 66.1004 931.87 77.3151 943.085C88.5297 954.299 103.74 960.6 119.6 960.6" fill="#6BD1BF"/>
<path opacity="0.7" d="M59.8 960.6H0V1020.4H59.8V960.6Z" fill="#FFC093"/>
<path opacity="0.7" d="M59.8 960.6H0V1020.4H59.8V960.6Z" fill="#84D8CA"/>
<path opacity="0.7" d="M119.6 960.6H59.8V1020.4H119.6V960.6Z" fill="#D5F2ED"/>
<path opacity="0.7" d="M59.8 960.6C59.8 976.46 66.1004 991.67 77.3151 1002.88C88.5297 1014.1 103.74 1020.4 119.6 1020.4V960.6" fill="#FF9245"/>
<path opacity="0.7" d="M179.4 960.6H119.6V1020.4H179.4V960.6Z" fill="#FF832B"/>
<path opacity="0.7" d="M179.4 960.6H119.6V1020.4H179.4V960.6Z" fill="#52C9B4"/>
<path opacity="0.7" d="M59.8 1020.4H0V1080.2H59.8V1020.4Z" fill="white"/>
<path opacity="0.7" d="M29.9 1020.4H0V1050.3H29.9V1020.4Z" fill="#FFD3B5"/>
<path opacity="0.7" d="M29.9 1020.4V1050.3H0L29.9 1020.4Z" fill="#FF7919"/>
<path opacity="0.7" d="M59.7999 1020.4H29.8999V1050.3H59.7999V1020.4Z" fill="#FEFFFE"/>
<path opacity="0.7" d="M29.8999 1020.4L59.7999 1050.3H29.8999V1020.4Z" fill="#7FD7C8"/>
<path opacity="0.7" d="M29.9 1050.3H0V1080.2H29.9V1050.3Z" fill="#CAEEE8"/>
<path opacity="0.7" d="M0 1050.3H29.9L0 1080.2V1050.3Z" fill="#FFA25F"/>
<path opacity="0.7" d="M59.7999 1050.3H29.8999V1080.2H59.7999V1050.3Z" fill="#FF9041"/>
<path opacity="0.7" d="M29.8999 1050.3H59.7999V1080.2L29.8999 1050.3Z" fill="#64CEBC"/>
<path opacity="0.7" d="M119.6 1020.4H59.8V1080.2H119.6V1020.4Z" fill="white"/>
<path opacity="0.7" d="M89.7001 1020.4H59.8V1050.3H89.7001V1020.4Z" fill="#FFB17A"/>
<path opacity="0.7" d="M59.8 1020.4C59.8 1028.33 62.9502 1035.94 68.5576 1041.54C74.1649 1047.15 81.7701 1050.3 89.7001 1050.3V1020.4" fill="#BEEBE3"/>
<path opacity="0.7" d="M119.6 1020.4H89.7V1050.3H119.6V1020.4Z" fill="#E6F7F4"/>
<path opacity="0.7" d="M89.7 1050.3C97.6299 1050.3 105.235 1047.15 110.842 1041.54C116.45 1035.94 119.6 1028.33 119.6 1020.4H89.7" fill="#81D7C9"/>
<path opacity="0.7" d="M89.7001 1050.3H59.8V1080.2H89.7001V1050.3Z" fill="#D7F2EE"/>
<path opacity="0.7" d="M59.8 1080.2C59.8 1072.27 62.9502 1064.66 68.5576 1059.06C74.1649 1053.45 81.7701 1050.3 89.7001 1050.3V1080.2" fill="#A9E4DA"/>
<path opacity="0.7" d="M119.6 1050.3H89.7V1080.2H119.6V1050.3Z" fill="#FF7F24"/>
<path opacity="0.7" d="M89.7 1050.3C97.6299 1050.3 105.235 1053.45 110.842 1059.06C116.45 1064.66 119.6 1072.27 119.6 1080.2H89.7" fill="#B3E7DE"/>
<path opacity="0.7" d="M179.4 1020.4H119.6V1080.2H179.4V1020.4Z" fill="#FFFCFA"/>
<path opacity="0.7" d="M119.6 1020.4H179.4V1080.2L119.6 1020.4Z" fill="#FFE2CE"/>
<path opacity="0.7" d="M239.2 1020.4H179.4V1080.2H239.2V1020.4Z" fill="white"/>
<path opacity="0.7" d="M237.9 1050.2H208V1080.1H237.9V1050.2Z" fill="#63CEBB"/>
<path opacity="0.7" d="M237.9 1050.2V1080.1H208L237.9 1050.2Z" fill="#CFF0EA"/>
<path opacity="0.7" d="M208.9 1020.2H179V1050.1H208.9V1020.2Z" fill="#FF7919"/>
<path opacity="0.7" d="M179 1020.2L208.9 1050.1H179V1020.2Z" fill="#56CAB6"/>
<path opacity="0.7" d="M208.9 1050.2H179V1080.1H208.9V1050.2Z" fill="#FFC8A1"/>
<path opacity="0.7" d="M179 1050.2H208.9L179 1080.1V1050.2Z" fill="#55C9B5"/>
</g>
<defs>
<clipPath id="clip0_246_310">
<rect width="1920" height="1080" fill="white"/>
</clipPath>
</defs>
</svg>
