<svg width="2151" height="1076" viewBox="0 0 2151 1076" fill="none" xmlns="http://www.w3.org/2000/svg">
<g clip-path="url(#clip0_304_339)">
<rect width="2151" height="1076" fill="#F8F9FD"/>
<path opacity="0.5" d="M84.3735 68.0469H0V143.068H84.3735V68.0469Z" fill="white"/>
<path opacity="0.5" d="M163.181 0H120.994V37.5106H163.181V0Z" fill="#64CEBC"/>
<path opacity="0.5" d="M201.656 72.3812C201.656 62.4327 206.101 52.8918 214.012 45.8572C221.924 38.8226 232.654 34.8706 243.843 34.8706V72.3812" fill="#68CFBD"/>
<path opacity="0.5" d="M84.3735 105.558H42.1868V143.068H84.3735V105.558Z" fill="#ECF9F7"/>
<path opacity="0.5" d="M16.8047 67.748C16.8047 77.6965 21.2494 87.2374 29.1609 94.272C37.0725 101.307 47.8028 105.259 58.9915 105.259V67.748" fill="#FF720D"/>
<path opacity="0.5" d="M506.241 68.0469H421.868V143.068H506.241V68.0469Z" fill="white"/>
<path opacity="0.5" d="M464.054 68.0469H421.868V105.557H464.054V68.0469Z" fill="#FFF3EB"/>
<path opacity="0.5" d="M341.31 34.8706V72.3812H299.123L341.31 34.8706Z" fill="#EAF8F6"/>
<path opacity="0.5" d="M652.757 70.7368H610.57V108.247H652.757V70.7368Z" fill="#7FD7C8"/>
<path opacity="0.5" d="M547.833 43.8369H590.02L547.833 81.3475V43.8369Z" fill="#4DC7B2"/>
<path opacity="0.5" d="M843.735 68.0469H759.362V143.068H843.735V68.0469Z" fill="white"/>
<path opacity="0.5" d="M843.735 68.0469H801.549V105.557H843.735V68.0469Z" fill="#FFAD73"/>
<path opacity="0.5" d="M843.735 68.0469H801.549V105.557H843.735V68.0469Z" fill="#FFF9F4"/>
<path opacity="0.5" d="M84.3735 143.068H0V218.089H84.3735V143.068Z" fill="white"/>
<path opacity="0.5" d="M168.747 143.068H84.3735V218.089H168.747V143.068Z" fill="#FFEEE1"/>
<path opacity="0.5" d="M84.3735 143.068H168.747V218.089L84.3735 143.068Z" fill="#6DD1C0"/>
<path opacity="0.5" d="M337.494 143.068H253.121V218.089H337.494V143.068Z" fill="#DAF3EF"/>
<path opacity="0.5" d="M253.121 143.068C275.498 143.068 296.959 150.972 312.782 165.042C328.605 179.111 337.494 198.193 337.494 218.089L253.121 143.068C253.121 162.965 262.01 182.047 277.833 196.116C293.656 210.185 315.117 218.089 337.494 218.089" fill="#D7F3EE"/>
<path opacity="0.5" d="M506.241 143.068H421.868V218.089H506.241V143.068Z" fill="white"/>
<path opacity="0.5" d="M506.241 143.068H464.054V180.579H506.241V143.068Z" fill="#CAEEE8"/>
<path opacity="0.5" d="M464.054 180.579C475.243 180.579 485.973 176.627 493.885 169.592C501.797 162.558 506.241 153.017 506.241 143.068H464.054" fill="#FF852F"/>
<path opacity="0.5" d="M928.109 143.068H843.735V218.089H928.109V143.068Z" fill="white"/>
<path opacity="0.5" d="M885.922 143.068H843.735V180.579H885.922V143.068Z" fill="#FFD1B0"/>
<path opacity="0.5" d="M885.922 143.068V180.579H843.735L885.922 143.068Z" fill="#70D2C1"/>
<path opacity="0.5" d="M84.3735 218.089H0V293.11H84.3735V218.089Z" fill="#FFB988"/>
<path opacity="0.5" d="M0 218.089H84.3735V293.11L0 218.089Z" fill="#D6F2ED"/>
<path opacity="0.5" d="M928.109 218.089H843.735V293.11H928.109V218.089Z" fill="#F6FCFB"/>
<path opacity="0.5" d="M1144.96 62.7666H1093.43V108.596H1144.96V62.7666Z" fill="#FF8F3F"/>
<path opacity="0.5" d="M1016.12 204.241H964.589V250.07H1016.12V204.241Z" fill="#FF8F3F"/>
<path opacity="0.5" d="M1012.48 218.089H928.109V293.11H1012.48V218.089Z" fill="white"/>
<path opacity="0.5" d="M1349.98 218.089H1265.6V293.11H1349.98V218.089Z" fill="#FFBD8E"/>
<path opacity="0.5" d="M1316.37 48.8184H1270.43V92.6554H1316.37V48.8184Z" fill="#FFBD8E"/>
<path opacity="0.5" d="M1120.31 235.425C1120.31 215.528 1129.2 196.446 1145.02 182.377C1160.85 168.308 1182.31 160.404 1204.69 160.404V235.425" fill="#FFE1CB"/>
<path opacity="0.5" d="M168.747 293.11H84.3735V368.131H168.747V293.11Z" fill="#50C8B3"/>
<path opacity="0.5" d="M168.747 293.11V368.131H84.3735L168.747 293.11Z" fill="#FF852E"/>
<path opacity="0.5" d="M253.121 293.11H168.747V368.131H253.121V293.11Z" fill="#FFE3CE"/>
<path opacity="0.5" d="M253.121 293.11H168.747V368.131H253.121V293.11Z" fill="#DAF3EF"/>
<path opacity="0.5" d="M337.494 293.11H253.121V368.131H337.494V293.11Z" fill="white"/>
<path opacity="0.5" d="M295.307 293.11H253.121V330.621H295.307V293.11Z" fill="#FF8936"/>
<path opacity="0.5" d="M274.214 330.621C285.864 330.621 295.307 322.224 295.307 311.866C295.307 301.507 285.864 293.11 274.214 293.11C262.564 293.11 253.121 301.507 253.121 311.866C253.121 322.224 262.564 330.621 274.214 330.621Z" fill="#FF9950"/>
<path opacity="0.5" d="M295.307 330.621H253.121V368.132H295.307V330.621Z" fill="#E3F6F3"/>
<path opacity="0.5" d="M274.214 368.132C285.864 368.132 295.307 359.735 295.307 349.376C295.307 339.018 285.864 330.621 274.214 330.621C262.564 330.621 253.121 339.018 253.121 349.376C253.121 359.735 262.564 368.132 274.214 368.132Z" fill="#6CD1BF"/>
<path opacity="0.5" d="M506.241 293.11H421.868V368.131H506.241V293.11Z" fill="white"/>
<path opacity="0.5" d="M464.054 293.11H421.868V330.621H464.054V293.11Z" fill="#C9EEE8"/>
<path opacity="0.5" d="M421.868 293.11C433.056 293.11 443.787 297.062 451.698 304.097C459.61 311.132 464.054 320.672 464.054 330.621H421.868" fill="#5CCCB8"/>
<path opacity="0.5" d="M506.241 293.11H464.054V330.621H506.241V293.11Z" fill="#FFE0CA"/>
<path opacity="0.5" d="M464.054 330.621C464.054 320.672 468.499 311.132 476.411 304.097C484.322 297.062 495.053 293.11 506.241 293.11V330.621" fill="#FFCBA6"/>
<path opacity="0.5" d="M674.988 293.11H590.615V368.131H674.988V293.11Z" fill="#FF974C"/>
<path opacity="0.5" d="M590.615 293.11L674.988 368.131H590.615V293.11Z" fill="#52C9B4"/>
<path opacity="0.5" d="M1265.6 293.11H1181.23V368.131H1265.6V293.11Z" fill="#FFD8BC"/>
<path opacity="0.5" d="M785.339 289.922C785.339 278.824 790.296 268.181 799.121 260.334C807.945 252.486 819.913 248.078 832.392 248.078V289.922" fill="#54C9B5"/>
<path opacity="0.5" d="M84.3735 368.131H0V443.152H84.3735V368.131Z" fill="#A6E3D8"/>
<path opacity="0.5" d="M84.3735 368.131V443.152H0L84.3735 368.131Z" fill="#FF8935"/>
<path opacity="0.5" d="M168.747 368.131H84.3735V443.152H168.747V368.131Z" fill="#FFE9DA"/>
<path opacity="0.5" d="M168.747 368.131H84.3735V443.152H168.747V368.131Z" fill="#FF8B38"/>
<path opacity="0.5" d="M674.988 368.131H590.615V443.152H674.988V368.131Z" fill="white"/>
<path opacity="0.5" d="M632.802 405.642H590.615V443.153H632.802V405.642Z" fill="#FF852F"/>
<path opacity="0.5" d="M590.615 405.642H632.802V443.153L590.615 405.642Z" fill="#FFEADB"/>
<path opacity="0.5" d="M948.134 289.922H863.761V364.943H948.134V289.922Z" fill="#FFF0E5"/>
<path opacity="0.5" d="M674.428 100.626C674.428 120.523 683.317 139.605 699.141 153.674C714.964 167.743 736.424 175.647 758.802 175.647V100.626" fill="#FFF6F0"/>
<path opacity="0.5" d="M928.109 368.131H843.735V443.152H928.109V368.131Z" fill="#66CFBD"/>
<path opacity="0.5" d="M989.586 296.896H905.213V371.918H989.586V296.896Z" fill="#EDF9F7"/>
<path opacity="0.5" d="M1096.86 368.131H1012.48V443.152H1096.86V368.131Z" fill="white"/>
<path opacity="0.5" d="M1054.67 405.642H1012.48V443.153H1054.67V405.642Z" fill="#FFAC71"/>
<path opacity="0.5" d="M1033.58 443.153C1045.23 443.153 1054.67 434.756 1054.67 424.397C1054.67 414.039 1045.23 405.642 1033.58 405.642C1021.93 405.642 1012.48 414.039 1012.48 424.397C1012.48 434.756 1021.93 443.153 1033.58 443.153Z" fill="#84D8CA"/>
<path opacity="0.5" d="M1096.86 405.642H1054.67V443.153H1096.86V405.642Z" fill="#FFAC71"/>
<path opacity="0.5" d="M1096.86 405.642H1054.67V443.153H1096.86V405.642Z" fill="#FFFEFD"/>
<path opacity="0.5" d="M1181.23 368.131H1096.86V443.152H1181.23V368.131Z" fill="#A3E2D7"/>
<path opacity="0.5" d="M1096.86 368.131H1181.23L1096.86 443.152V368.131Z" fill="#53C9B4"/>
<path opacity="0.5" d="M1349.98 368.131H1265.6V443.152H1349.98V368.131Z" fill="#B1E6DD"/>
<path opacity="0.5" d="M1349.98 368.131H1265.6V443.152H1349.98V368.131Z" fill="#78D5C5"/>
<path opacity="0.5" d="M337.494 443.152H253.121V518.173H337.494V443.152Z" fill="white"/>
<path opacity="0.5" d="M506.241 443.152H421.868V518.173H506.241V443.152Z" fill="white"/>
<path opacity="0.5" d="M506.241 443.152H464.054V480.663H506.241V443.152Z" fill="#96DED2"/>
<path opacity="0.5" d="M464.054 443.152H506.241L464.054 480.663V443.152Z" fill="#FFF4ED"/>
<path opacity="0.5" d="M506.241 480.663H464.054V518.174H506.241V480.663Z" fill="#C6EDE6"/>
<path opacity="0.5" d="M464.054 480.663L506.241 518.174H464.054V480.663Z" fill="#7CD6C6"/>
<path opacity="0.5" d="M843.735 443.152H759.362V518.173H843.735V443.152Z" fill="#FFBB8B"/>
<path opacity="0.5" d="M759.362 443.152C781.739 443.152 803.2 451.056 819.023 465.126C834.846 479.195 843.735 498.277 843.735 518.173H759.362" fill="#9FE1D5"/>
<path opacity="0.5" d="M590.615 518.174H506.241V593.195H590.615V518.174Z" fill="white"/>
<path opacity="0.5" d="M548.428 518.174H506.241V555.684H548.428V518.174Z" fill="#B9E9E1"/>
<path opacity="0.5" d="M548.428 518.174V555.684H506.241L548.428 518.174Z" fill="#FF9549"/>
<path opacity="0.5" d="M548.428 555.684H506.241V593.195H548.428V555.684Z" fill="#FFCDA9"/>
<path opacity="0.5" d="M506.241 555.684H548.428V593.195L506.241 555.684Z" fill="#FFAA6E"/>
<path opacity="0.5" d="M590.615 555.684H548.428V593.195H590.615V555.684Z" fill="#72D3C2"/>
<path opacity="0.5" d="M548.428 555.684L590.615 593.195H548.428V555.684Z" fill="#FFBC8D"/>
<path opacity="0.5" d="M1349.98 518.174H1265.6V593.195H1349.98V518.174Z" fill="white"/>
<path opacity="0.5" d="M1349.98 518.174H1307.79V555.684H1349.98V518.174Z" fill="#DBF4EF"/>
<path opacity="0.5" d="M1307.79 518.174L1349.98 555.684H1307.79V518.174Z" fill="#FFBB8A"/>
<path opacity="0.5" d="M253.121 593.195H168.747V668.216H253.121V593.195Z" fill="#F5FCFB"/>
<path opacity="0.5" d="M334.973 588.811H284.559V633.644H334.973V588.811Z" fill="#FF6B02"/>
<path opacity="0.5" d="M632.206 795.044H547.833V870.066H632.206V795.044Z" fill="#FF7B1C"/>
<path opacity="0.5" d="M209.498 733.274L293.872 808.295H209.498V733.274Z" fill="#96DED2"/>
<path opacity="0.5" d="M674.988 593.195H590.615V668.216H674.988V593.195Z" fill="white"/>
<path opacity="0.5" d="M759.362 593.195H674.988V668.216H759.362V593.195Z" fill="#8BDBCD"/>
<path opacity="0.5" d="M674.988 593.195C697.366 593.195 718.826 601.099 734.649 615.168C750.472 629.237 759.362 648.319 759.362 668.216L674.988 593.195C674.988 613.092 683.878 632.174 699.701 646.243C715.524 660.312 736.985 668.216 759.362 668.216" fill="#FFA565"/>
<path opacity="0.5" d="M1012.48 593.195H928.109V668.216H1012.48V593.195Z" fill="#9CE0D4"/>
<path opacity="0.5" d="M1012.48 593.195H928.109V668.216H1012.48V593.195Z" fill="#FFC7A0"/>
<path opacity="0.5" d="M1181.23 593.195H1096.86V668.216H1181.23V593.195Z" fill="white"/>
<path opacity="0.5" d="M1181.23 593.195H1139.04V630.705H1181.23V593.195Z" fill="#FF8D3B"/>
<path opacity="0.5" d="M1139.04 630.705C1139.04 620.757 1143.49 611.216 1151.4 604.181C1159.31 597.147 1170.04 593.195 1181.23 593.195V630.705" fill="#FFA05C"/>
<path opacity="0.5" d="M1139.04 630.705H1096.86V668.216H1139.04V630.705Z" fill="#E6F7F4"/>
<path opacity="0.5" d="M1096.86 668.216C1108.04 668.216 1118.77 664.264 1126.69 657.229C1134.6 650.194 1139.04 640.653 1139.04 630.705H1096.86" fill="#FFB47F"/>
<path opacity="0.5" d="M1181.23 630.705H1139.04V668.216H1181.23V630.705Z" fill="#52C8B4"/>
<path opacity="0.5" d="M1139.04 630.705C1139.04 640.653 1143.49 650.194 1151.4 657.229C1159.31 664.264 1170.04 668.216 1181.23 668.216V630.705" fill="#E0F5F2"/>
<path opacity="0.5" d="M168.747 668.216H84.3735V743.237H168.747V668.216Z" fill="white"/>
<path opacity="0.5" d="M126.56 668.216H84.3735V705.727H126.56V668.216Z" fill="#FFD6B9"/>
<path opacity="0.5" d="M105.467 705.727C117.116 705.727 126.56 697.33 126.56 686.972C126.56 676.613 117.116 668.216 105.467 668.216C93.8174 668.216 84.3735 676.613 84.3735 686.972C84.3735 697.33 93.8174 705.727 105.467 705.727Z" fill="#D2F1EC"/>
<path opacity="0.5" d="M79.1571 756.189H36.9703V793.7H79.1571V756.189Z" fill="#91DCCF"/>
<path opacity="0.5" d="M54.7028 604.403C66.3523 604.403 75.7961 596.006 75.7961 585.648C75.7961 575.29 66.3523 566.893 54.7028 566.893C43.0532 566.893 33.6094 575.29 33.6094 585.648C33.6094 596.006 43.0532 604.403 54.7028 604.403Z" fill="#7BD5C6"/>
<path opacity="0.5" d="M205.752 700.396H163.566V737.907H205.752V700.396Z" fill="#FFBD8F"/>
<path opacity="0.5" d="M150.857 781.096H108.67V818.607H150.857V781.096Z" fill="#FFA86B"/>
<path opacity="0.5" d="M421.868 668.216H337.494V743.237H421.868V668.216Z" fill="white"/>
<path opacity="0.5" d="M421.868 668.216H379.681V705.727H421.868V668.216Z" fill="#97DED2"/>
<path opacity="0.5" d="M485.831 644.604H443.644V682.114H485.831V644.604Z" fill="#FFF4EC"/>
<path opacity="0.5" d="M421.868 705.727H379.681V743.237H421.868V705.727Z" fill="#BFEBE3"/>
<path opacity="0.5" d="M418.612 793.052H376.425V830.562H418.612V793.052Z" fill="#FFB27B"/>
<path opacity="0.5" d="M590.615 668.216H506.241V743.237H590.615V668.216Z" fill="white"/>
<path opacity="0.5" d="M548.428 668.216H506.241V705.727H548.428V668.216Z" fill="#F8FDFC"/>
<path opacity="0.5" d="M506.241 705.727C517.43 705.727 528.16 701.775 536.072 694.74C543.983 687.706 548.428 678.165 548.428 668.216H506.241" fill="#6DD1C0"/>
<path opacity="0.5" d="M759.362 668.216H674.988V743.237H759.362V668.216Z" fill="white"/>
<path opacity="0.5" d="M759.362 705.727H717.175V743.237H759.362V705.727Z" fill="#FFA361"/>
<path opacity="0.5" d="M717.175 705.727C728.364 705.727 739.094 709.679 747.006 716.713C754.917 723.748 759.362 733.289 759.362 743.237H717.175" fill="#DFF5F1"/>
<path opacity="0.5" d="M928.109 668.216H843.735V743.237H928.109V668.216Z" fill="#FF8128"/>
<path opacity="0.5" d="M843.735 668.216H928.109V743.237L843.735 668.216Z" fill="#FFA361"/>
<path opacity="0.5" d="M1012.48 668.216H928.109V743.237H1012.48V668.216Z" fill="white"/>
<path opacity="0.5" d="M970.296 668.216H928.109V705.727H970.296V668.216Z" fill="#5DCCB9"/>
<path opacity="0.5" d="M949.202 705.727C960.852 705.727 970.296 697.33 970.296 686.972C970.296 676.613 960.852 668.216 949.202 668.216C937.553 668.216 928.109 676.613 928.109 686.972C928.109 697.33 937.553 705.727 949.202 705.727Z" fill="#74D3C3"/>
<path opacity="0.5" d="M1012.48 705.727H970.296V743.237H1012.48V705.727Z" fill="#E0F5F2"/>
<path opacity="0.5" d="M1012.48 705.727H970.296V743.237H1012.48V705.727Z" fill="#6BD1BF"/>
<path opacity="0.5" d="M1265.6 668.216H1181.23V743.237H1265.6V668.216Z" fill="white"/>
<path opacity="0.5" d="M1223.42 705.727H1181.23V743.237H1223.42V705.727Z" fill="#91DCCF"/>
<path opacity="0.5" d="M1181.23 705.727H1223.42L1181.23 743.237V705.727Z" fill="#E4F6F3"/>
<path d="M844.386 797.619C844.127 797.02 843.664 796.471 843.04 796.147C842.373 795.921 841.7 796.103 840.922 796.883C836.271 801.249 829.502 823.077 824.024 850.699H842.886C846.455 824.456 847.178 803.457 844.386 797.619Z" fill="white"/>
<path opacity="0.3" d="M845.832 821.1C845.368 829.558 844.386 839.621 842.886 850.65H831.107C836.839 839.989 841.804 829.97 845.832 821.1Z" fill="#C7C7C7"/>
<path d="M766.41 785.304C766.564 784.387 766.824 783.744 767.337 783.465C768.01 783.145 768.887 783.42 770.128 784.338C777.466 789.764 794.574 816.601 812.658 850.606H790.591C775.348 818.392 765.632 792.521 766.41 785.304Z" fill="white"/>
<path opacity="0.3" d="M807.699 850.65H790.591C783.822 836.358 778.139 823.308 774.007 812.602C774.007 812.602 793.123 835.946 807.699 850.65Z" fill="#C7C7C7"/>
<path d="M765.323 822.665C764.082 822.204 763.254 822.16 762.686 822.528C762.272 822.802 762.118 823.352 762.118 824.088C762.327 827.993 768.424 837.786 778.294 850.699H799.12C783.822 835.534 771.061 824.78 765.323 822.665Z" fill="white"/>
<path opacity="0.3" d="M785.786 850.65H778.294C774.884 846.195 771.938 842.103 769.51 838.517C774.057 842.148 779.535 846.239 785.786 850.65Z" fill="#C7C7C7"/>
<path d="M799.12 850.65C793.691 845.273 788.627 840.494 784.031 836.407" stroke="#C7C7C7" stroke-width="4" stroke-linecap="round" stroke-linejoin="round"/>
<path d="M1272.57 846.604C1281.07 808.329 1285.53 774.608 1283.19 766.407C1283.07 765.764 1282.7 765.121 1282.16 764.691C1281.61 764.368 1281.01 764.585 1280.23 765.387C1275.1 770.64 1265.52 801.037 1257.38 837.653C1256.42 842.153 1255.51 846.174 1254.79 849.875H1271.85C1272.09 848.696 1272.33 847.623 1272.57 846.604Z" fill="white"/>
<path opacity="0.2" d="M1272.57 846.604C1276.43 829.129 1279.51 812.563 1281.44 798.945C1281.44 798.945 1273.72 821.3 1259.86 826.983C1259.01 830.414 1258.23 833.952 1257.44 837.543C1256.48 842.046 1255.57 846.067 1254.85 849.769H1271.91C1272.09 848.696 1272.33 847.623 1272.57 846.604Z" fill="#EFEFEF"/>
<path d="M1308.74 782.703C1309.89 782.007 1310.67 781.954 1311.21 782.49C1311.58 782.92 1311.76 783.722 1311.76 784.795C1311.51 792.943 1300.24 818.565 1283.6 849.769H1261.6C1282.28 814.438 1301.51 786.883 1308.74 782.703Z" fill="white"/>
<path opacity="0.2" d="M1301.09 814.708C1296.44 824.838 1290.48 836.793 1283.6 849.716H1261.6C1264.32 845.158 1266.97 840.708 1269.56 836.417C1286.68 832.024 1301.09 814.708 1301.09 814.708Z" fill="#EFEFEF"/>
<path d="M1325.8 820.604C1327.07 820.121 1327.97 820.068 1328.52 820.445C1329 820.87 1329.24 821.46 1329.12 822.054C1328.94 826.07 1322.55 836.31 1312.3 849.716H1290.66C1306.57 834.005 1319.89 822.803 1325.8 820.604Z" fill="white"/>
<path opacity="0.2" d="M1320.08 839.152C1317.84 842.37 1315.25 845.908 1312.3 849.716H1290.66C1291.98 848.372 1293.31 847.087 1294.64 845.801C1308.86 847.676 1320.08 839.152 1320.08 839.152Z" fill="#EFEFEF"/>
<path d="M1051.51 850.319C1051.51 850.319 1040.27 830.322 1015.42 829.785C994.418 829.346 991.731 850.319 991.731 850.319H1051.51Z" fill="white"/>
<path opacity="0.3" d="M1032.48 838.518C1033.85 837.64 1035.11 836.665 1036.26 835.592C1042.57 839.347 1047.83 844.37 1051.51 850.319H991.731C992.06 848.368 992.553 846.515 993.321 844.662C1002.59 846.661 1018.11 847.832 1032.48 838.518Z" fill="#7D7D7D"/>
<path d="M1275.54 585.326C1287.92 584.439 1298.95 586.536 1309.92 590.118" stroke="white" stroke-width="4" stroke-linecap="round" stroke-linejoin="round"/>
<path d="M1306.36 557.779C1299.82 561.995 1284.91 572.018 1284.91 572.018" stroke="white" stroke-width="4" stroke-linecap="round" stroke-linejoin="round"/>
<path d="M1275.93 544.374C1275.6 550.624 1272.37 562.775 1269.93 567.572" stroke="white" stroke-width="4" stroke-linecap="round" stroke-linejoin="round"/>
<path d="M742.767 570.262C748.031 571.437 753.739 572.505 766.759 568.932C789.484 562.695 800.002 563.076 800.411 567.926C800.76 572.199 788.458 576.557 782.989 579.793C771.415 586.642 772.496 592.919 783.887 593.291C795.122 593.664 802.968 589.213 810.246 598.939" stroke="white" stroke-width="4" stroke-linecap="round" stroke-linejoin="round"/>
<path opacity="0.5" d="M1483.64 68.0469H1399.27V143.068H1483.64V68.0469Z" fill="white"/>
<path opacity="0.5" d="M1562.45 0H1520.26V37.5106H1562.45V0Z" fill="#64CEBC"/>
<path opacity="0.5" d="M1600.93 72.3812C1600.93 62.4327 1605.37 52.8918 1613.28 45.8572C1621.19 38.8226 1631.92 34.8706 1643.11 34.8706V72.3812" fill="#68CFBD"/>
<path opacity="0.5" d="M1483.64 105.558H1441.46V143.068H1483.64V105.558Z" fill="#ECF9F7"/>
<path opacity="0.5" d="M1416.07 67.748C1416.07 77.6965 1420.52 87.2374 1428.43 94.272C1436.34 101.307 1447.07 105.259 1458.26 105.259V67.748" fill="#FF720D"/>
<path opacity="0.5" d="M1905.51 68.0469H1821.14V143.068H1905.51V68.0469Z" fill="white"/>
<path opacity="0.5" d="M1863.32 68.0469H1821.14V105.557H1863.32V68.0469Z" fill="#FFF3EB"/>
<path opacity="0.5" d="M1740.58 34.8706V72.3812H1698.39L1740.58 34.8706Z" fill="#EAF8F6"/>
<path opacity="0.5" d="M2052.03 70.7368H2009.84V108.247H2052.03V70.7368Z" fill="#7FD7C8"/>
<path opacity="0.5" d="M1947.1 43.8369H1989.29L1947.1 81.3475V43.8369Z" fill="#4DC7B2"/>
<path opacity="0.5" d="M1483.64 143.068H1399.27V218.089H1483.64V143.068Z" fill="white"/>
<path opacity="0.5" d="M1568.02 143.068H1483.64V218.089H1568.02V143.068Z" fill="#FFEEE1"/>
<path opacity="0.5" d="M1483.64 143.068H1568.02V218.089L1483.64 143.068Z" fill="#6DD1C0"/>
<path opacity="0.5" d="M1736.76 143.068H1652.39V218.089H1736.76V143.068Z" fill="#DAF3EF"/>
<path opacity="0.5" d="M1652.39 143.068C1674.77 143.068 1696.23 150.972 1712.05 165.042C1727.88 179.111 1736.76 198.193 1736.76 218.089L1652.39 143.068C1652.39 162.965 1661.28 182.047 1677.1 196.116C1692.93 210.185 1714.39 218.089 1736.76 218.089" fill="#D7F3EE"/>
<path opacity="0.5" d="M1905.51 143.068H1821.14V218.089H1905.51V143.068Z" fill="white"/>
<path opacity="0.5" d="M1905.51 143.068H1863.32V180.579H1905.51V143.068Z" fill="#CAEEE8"/>
<path opacity="0.5" d="M1863.32 180.579C1874.51 180.579 1885.24 176.627 1893.16 169.592C1901.07 162.558 1905.51 153.017 1905.51 143.068H1863.32" fill="#FF852F"/>
<path opacity="0.5" d="M1483.64 218.089H1399.27V293.11H1483.64V218.089Z" fill="#FFB988"/>
<path opacity="0.5" d="M1399.27 218.089H1483.64V293.11L1399.27 218.089Z" fill="#D6F2ED"/>
<path opacity="0.5" d="M1568.02 293.11H1483.64V368.131H1568.02V293.11Z" fill="#50C8B3"/>
<path opacity="0.5" d="M1568.02 293.11V368.131H1483.64L1568.02 293.11Z" fill="#FF852E"/>
<path opacity="0.5" d="M1652.39 293.11H1568.02V368.131H1652.39V293.11Z" fill="#FFE3CE"/>
<path opacity="0.5" d="M1652.39 293.11H1568.02V368.131H1652.39V293.11Z" fill="#DAF3EF"/>
<path opacity="0.5" d="M1736.76 293.11H1652.39V368.131H1736.76V293.11Z" fill="white"/>
<path opacity="0.5" d="M1694.58 293.11H1652.39V330.621H1694.58V293.11Z" fill="#FF8936"/>
<path opacity="0.5" d="M1673.48 330.621C1685.13 330.621 1694.58 322.224 1694.58 311.866C1694.58 301.507 1685.13 293.11 1673.48 293.11C1661.83 293.11 1652.39 301.507 1652.39 311.866C1652.39 322.224 1661.83 330.621 1673.48 330.621Z" fill="#FF9950"/>
<path opacity="0.5" d="M1694.58 330.621H1652.39V368.132H1694.58V330.621Z" fill="#E3F6F3"/>
<path opacity="0.5" d="M1673.48 368.132C1685.13 368.132 1694.58 359.735 1694.58 349.376C1694.58 339.018 1685.13 330.621 1673.48 330.621C1661.83 330.621 1652.39 339.018 1652.39 349.376C1652.39 359.735 1661.83 368.132 1673.48 368.132Z" fill="#6CD1BF"/>
<path opacity="0.5" d="M1905.51 293.11H1821.14V368.131H1905.51V293.11Z" fill="white"/>
<path opacity="0.5" d="M1863.32 293.11H1821.14V330.621H1863.32V293.11Z" fill="#C9EEE8"/>
<path opacity="0.5" d="M1821.14 293.11C1832.33 293.11 1843.06 297.062 1850.97 304.097C1858.88 311.132 1863.32 320.672 1863.32 330.621H1821.14" fill="#5CCCB8"/>
<path opacity="0.5" d="M1905.51 293.11H1863.32V330.621H1905.51V293.11Z" fill="#FFE0CA"/>
<path opacity="0.5" d="M1863.32 330.621C1863.32 320.672 1867.77 311.132 1875.68 304.097C1883.59 297.062 1894.32 293.11 1905.51 293.11V330.621" fill="#FFCBA6"/>
<path opacity="0.5" d="M2074.26 293.11H1989.89V368.131H2074.26V293.11Z" fill="#FF974C"/>
<path opacity="0.5" d="M1989.89 293.11L2074.26 368.131H1989.89V293.11Z" fill="#52C9B4"/>
<path opacity="0.5" d="M1483.64 368.131H1399.27V443.152H1483.64V368.131Z" fill="#A6E3D8"/>
<path opacity="0.5" d="M1483.64 368.131V443.152H1399.27L1483.64 368.131Z" fill="#FF8935"/>
<path opacity="0.5" d="M1568.02 368.131H1483.64V443.152H1568.02V368.131Z" fill="#FFE9DA"/>
<path opacity="0.5" d="M1568.02 368.131H1483.64V443.152H1568.02V368.131Z" fill="#FF8B38"/>
<path opacity="0.5" d="M2074.26 368.131H1989.89V443.152H2074.26V368.131Z" fill="white"/>
<path opacity="0.5" d="M2032.07 405.642H1989.89V443.153H2032.07V405.642Z" fill="#FF852F"/>
<path opacity="0.5" d="M1989.89 405.642H2032.07V443.153L1989.89 405.642Z" fill="#FFEADB"/>
<path opacity="0.5" d="M2073.7 100.626C2073.7 120.523 2082.59 139.605 2098.41 153.674C2114.23 167.743 2135.69 175.647 2158.07 175.647V100.626" fill="#FFF6F0"/>
<path opacity="0.5" d="M1736.76 443.152H1652.39V518.173H1736.76V443.152Z" fill="white"/>
<path opacity="0.5" d="M1905.51 443.152H1821.14V518.173H1905.51V443.152Z" fill="white"/>
<path opacity="0.5" d="M1905.51 443.152H1863.32V480.663H1905.51V443.152Z" fill="#96DED2"/>
<path opacity="0.5" d="M1863.32 443.152H1905.51L1863.32 480.663V443.152Z" fill="#FFF4ED"/>
<path opacity="0.5" d="M1905.51 480.663H1863.32V518.174H1905.51V480.663Z" fill="#C6EDE6"/>
<path opacity="0.5" d="M1863.32 480.663L1905.51 518.174H1863.32V480.663Z" fill="#7CD6C6"/>
<path opacity="0.5" d="M1989.89 518.174H1905.51V593.195H1989.89V518.174Z" fill="white"/>
<path opacity="0.5" d="M1947.7 518.174H1905.51V555.684H1947.7V518.174Z" fill="#B9E9E1"/>
<path opacity="0.5" d="M1947.7 518.174V555.684H1905.51L1947.7 518.174Z" fill="#FF9549"/>
<path opacity="0.5" d="M1947.7 555.684H1905.51V593.195H1947.7V555.684Z" fill="#FFCDA9"/>
<path opacity="0.5" d="M1905.51 555.684H1947.7V593.195L1905.51 555.684Z" fill="#FFAA6E"/>
<path opacity="0.5" d="M1728.5 832.904H1770.69V870.414L1728.5 832.904Z" fill="#FFAA6E"/>
<path opacity="0.5" d="M1989.89 555.684H1947.7V593.195H1989.89V555.684Z" fill="#72D3C2"/>
<path opacity="0.5" d="M1947.7 555.684L1989.89 593.195H1947.7V555.684Z" fill="#FFBC8D"/>
<path opacity="0.5" d="M1652.39 593.195H1568.02V668.216H1652.39V593.195Z" fill="#F5FCFB"/>
<path opacity="0.5" d="M1734.24 588.811H1683.83V633.644H1734.24V588.811Z" fill="#FF6B02"/>
<path opacity="0.5" d="M1733.12 897.663H1682.71V942.496H1733.12V897.663Z" fill="#FF6B02"/>
<path opacity="0.5" d="M1557.23 866.031H1506.82V910.864H1557.23V866.031Z" fill="#FF6B02"/>
<path opacity="0.5" d="M2031.48 757.185H1947.1V832.206H2031.48V757.185Z" fill="#FF7B1C"/>
<path opacity="0.5" d="M2030.36 1066.04H1945.98V1141.06H2030.36V1066.04Z" fill="#FF7B1C"/>
<path opacity="0.5" d="M1608.77 733.274L1693.14 808.295H1608.77V733.274Z" fill="#96DED2"/>
<path opacity="0.5" d="M1431.76 1010.49L1516.13 1085.51H1431.76V1010.49Z" fill="#96DED2"/>
<path opacity="0.5" d="M1152.8 960.43L1237.18 1035.45H1152.8V960.43Z" fill="#96DED2"/>
<path opacity="0.5" d="M150.122 941.5L234.495 1016.52H150.122V941.5Z" fill="#96DED2"/>
<path opacity="0.5" d="M2074.26 593.195H1989.89V668.216H2074.26V593.195Z" fill="white"/>
<path opacity="0.5" d="M2158.63 593.195H2074.26V668.216H2158.63V593.195Z" fill="#8BDBCD"/>
<path opacity="0.5" d="M2074.26 593.195C2096.64 593.195 2118.1 601.099 2133.92 615.168C2149.74 629.237 2158.63 648.319 2158.63 668.216L2074.26 593.195C2074.26 613.092 2083.15 632.174 2098.97 646.243C2114.79 660.312 2136.25 668.216 2158.63 668.216" fill="#FFA565"/>
<path opacity="0.5" d="M1568.02 668.216H1483.64V743.237H1568.02V668.216Z" fill="white"/>
<path opacity="0.5" d="M1525.83 668.216H1483.64V705.727H1525.83V668.216Z" fill="#FFD6B9"/>
<path opacity="0.5" d="M1504.74 705.727C1516.39 705.727 1525.83 697.33 1525.83 686.972C1525.83 676.613 1516.39 668.216 1504.74 668.216C1493.09 668.216 1483.64 676.613 1483.64 686.972C1483.64 697.33 1493.09 705.727 1504.74 705.727Z" fill="#D2F1EC"/>
<path opacity="0.5" d="M1478.43 756.189H1436.24V793.7H1478.43V756.189Z" fill="#91DCCF"/>
<path opacity="0.5" d="M1453.97 604.403C1465.62 604.403 1475.07 596.006 1475.07 585.648C1475.07 575.29 1465.62 566.893 1453.97 566.893C1442.32 566.893 1432.88 575.29 1432.88 585.648C1432.88 596.006 1442.32 604.403 1453.97 604.403Z" fill="#7BD5C6"/>
<path opacity="0.5" d="M1605.02 700.396H1562.84V737.907H1605.02V700.396Z" fill="#FFBD8F"/>
<path opacity="0.5" d="M1149.06 927.552H1106.87V965.062H1149.06V927.552Z" fill="#FFBD8F"/>
<path opacity="0.5" d="M146.376 908.622H104.189V946.133H146.376V908.622Z" fill="#FFBD8F"/>
<path opacity="0.5" d="M1550.13 781.096H1507.94V818.607H1550.13V781.096Z" fill="#FFA86B"/>
<path opacity="0.5" d="M1373.12 1058.32H1330.93V1095.83H1373.12V1058.32Z" fill="#FFA86B"/>
<path opacity="0.5" d="M1094.16 1008.25H1051.97V1045.76H1094.16V1008.25Z" fill="#FFA86B"/>
<path opacity="0.5" d="M91.4805 989.322H49.2938V1026.83H91.4805V989.322Z" fill="#FFA86B"/>
<path opacity="0.5" d="M1821.14 668.216H1736.76V743.237H1821.14V668.216Z" fill="white"/>
<path opacity="0.5" d="M1821.14 668.216H1778.95V705.727H1821.14V668.216Z" fill="#97DED2"/>
<path opacity="0.5" d="M1885.1 644.604H1842.91V682.114H1885.1V644.604Z" fill="#FFF4EC"/>
<path opacity="0.5" d="M1821.14 705.727H1778.95V743.237H1821.14V705.727Z" fill="#BFEBE3"/>
<path opacity="0.5" d="M1644.13 982.946H1601.94V1020.46H1644.13V982.946Z" fill="#BFEBE3"/>
<path opacity="0.5" d="M1817.88 793.052H1775.7V830.562H1817.88V793.052Z" fill="#FFB27B"/>
<path opacity="0.5" d="M1640.87 1070.27H1598.69V1107.78H1640.87V1070.27Z" fill="#FFB27B"/>
<path opacity="0.5" d="M1989.89 668.216H1905.51V743.237H1989.89V668.216Z" fill="white"/>
<path opacity="0.5" d="M1947.7 668.216H1905.51V705.727H1947.7V668.216Z" fill="#F8FDFC"/>
<path opacity="0.5" d="M1905.51 705.727C1916.7 705.727 1927.43 701.775 1935.34 694.74C1943.25 687.706 1947.7 678.165 1947.7 668.216H1905.51" fill="#6DD1C0"/>
<path opacity="0.5" d="M1904.39 1014.58C1915.58 1014.58 1926.31 1010.63 1934.22 1003.59C1942.13 996.557 1946.58 987.016 1946.58 977.068H1904.39" fill="#6DD1C0"/>
<path opacity="0.5" d="M2158.63 668.216H2074.26V743.237H2158.63V668.216Z" fill="white"/>
<path opacity="0.5" d="M2158.63 705.727H2116.45V743.237H2158.63V705.727Z" fill="#FFA361"/>
<path opacity="0.5" d="M2116.45 705.727C2127.63 705.727 2138.36 709.679 2146.28 716.713C2154.19 723.748 2158.63 733.289 2158.63 743.237H2116.45" fill="#DFF5F1"/>
<path opacity="0.5" d="M2115.32 1014.58C2126.51 1014.58 2137.24 1018.53 2145.16 1025.57C2153.07 1032.6 2157.51 1042.14 2157.51 1052.09H2115.32" fill="#DFF5F1"/>
<path d="M2142.04 570.262C2147.3 571.437 2153.01 572.505 2166.03 568.932C2188.75 562.695 2199.27 563.076 2199.68 567.926C2200.03 572.199 2187.73 576.557 2182.26 579.793C2170.69 586.642 2171.77 592.919 2183.16 593.291C2194.39 593.664 2202.24 589.213 2209.52 598.939" stroke="white" stroke-width="4" stroke-linecap="round" stroke-linejoin="round"/>
<path opacity="0.5" d="M399.333 1034.09C388.503 1031.6 379.232 1025.38 373.557 1016.81C367.883 1008.23 366.271 998.003 369.076 988.371L409.909 997.775" fill="#FFCBA6"/>
<path opacity="0.5" d="M512.726 943.944L523.302 907.626L564.135 917.029L512.726 943.944Z" fill="#FFEADB"/>
<path opacity="0.5" d="M665.481 1017.88L654.905 1054.2L695.738 1063.6L706.314 1027.28L665.481 1017.88Z" fill="#FFCDA9"/>
<path opacity="0.5" d="M665.481 1017.88L716.89 990.963L706.314 1027.28L665.481 1017.88Z" fill="#FFBC8D"/>
<path opacity="0.5" d="M2008.93 490.151H1895.1V603.977H2008.93V490.151Z" fill="white"/>
<path opacity="0.5" d="M2008.93 490.151H1952.02V547.064H2008.93V490.151Z" fill="#DBF4EF"/>
<path opacity="0.5" d="M1781.28 603.977H1667.45V717.802H1781.28V603.977Z" fill="white"/>
<path opacity="0.5" d="M1724.36 660.89H1667.45V717.802H1724.36V660.89Z" fill="#E6F7F4"/>
<path opacity="0.5" d="M1553.62 717.802H1439.79V831.628H1553.62V717.802Z" fill="white"/>
<path opacity="0.5" d="M1496.71 717.802H1439.79V774.715H1496.71V717.802Z" fill="#5DCCB9"/>
<path opacity="0.5" d="M1468.25 774.715C1483.97 774.715 1496.71 761.975 1496.71 746.259C1496.71 730.542 1483.97 717.802 1468.25 717.802C1452.53 717.802 1439.79 730.542 1439.79 746.259C1439.79 761.975 1452.53 774.715 1468.25 774.715Z" fill="#74D3C3"/>
<path opacity="0.5" d="M1553.62 774.715H1496.71V831.628H1553.62V774.715Z" fill="#E0F5F2"/>
<path opacity="0.5" d="M1553.62 774.715H1496.71V831.628H1553.62V774.715Z" fill="#6BD1BF"/>
<path opacity="0.5" d="M1895.1 717.802H1781.28V831.628H1895.1V717.802Z" fill="white"/>
<path opacity="0.5" d="M1838.19 774.715H1781.28V831.628H1838.19V774.715Z" fill="#91DCCF"/>
<path opacity="0.5" d="M1781.28 774.715H1838.19L1781.28 831.628V774.715Z" fill="#E4F6F3"/>
<path d="M1340.88 1006.54H1357.43L1545.82 931.984C1554.86 931.984 1589.07 996.492 1588.13 984.177L1572.57 781.202C1571.64 768.82 1525.35 812.027 1516.36 812.027L1338.4 758.846H1321.85C1312.8 758.846 1306.29 768.894 1307.23 781.202L1322.79 984.177C1323.72 996.492 1331.83 1006.54 1340.88 1006.54Z" fill="white"/>
<path d="M1357.43 1006.54H1590.06C1599.11 1006.54 1605.62 996.492 1604.68 984.177L1589.12 781.202C1588.18 768.82 1580.08 758.846 1571.08 758.846H1338.4C1329.35 758.846 1322.84 768.894 1323.78 781.202L1339.34 984.177C1340.27 996.492 1348.38 1006.54 1357.43 1006.54Z" fill="#4DC7B2"/>
<path d="M1934.49 757.762H1671.02V1005.76H1934.49V757.762Z" fill="#FF6A00"/>
<path d="M1736.91 757.762V1005.76" stroke="white" stroke-width="4" stroke-linecap="round" stroke-linejoin="round"/>
<path d="M1802.75 757.762V1005.76" stroke="white" stroke-width="4" stroke-linecap="round" stroke-linejoin="round"/>
<path d="M1868.65 757.762V1005.76" stroke="white" stroke-width="4" stroke-linecap="round" stroke-linejoin="round"/>
<path d="M1933.23 820.212H1672.34" stroke="white" stroke-width="4" stroke-linecap="round" stroke-linejoin="round"/>
<path d="M1933.23 882.232H1672.34" stroke="white" stroke-width="4" stroke-linecap="round" stroke-linejoin="round"/>
<path d="M1933.23 944.306H1672.34" stroke="white" stroke-width="4" stroke-linecap="round" stroke-linejoin="round"/>
<path d="M1363.12 926.232C1362.77 925.323 1362.14 924.49 1361.3 923.999C1360.4 923.656 1359.49 923.931 1358.44 925.115C1352.17 931.74 1343.04 964.858 1335.65 1006.77H1361.09C1365.91 966.95 1366.88 935.09 1363.12 926.232Z" fill="white"/>
<path opacity="0.3" d="M1365.07 961.859C1364.44 974.692 1363.12 989.96 1361.09 1006.69H1345.2C1352.93 990.518 1359.63 975.317 1365.07 961.859Z" fill="#C7C7C7"/>
<path d="M1257.92 907.548C1258.13 906.156 1258.48 905.181 1259.17 904.756C1260.08 904.272 1261.26 904.689 1262.94 906.082C1272.83 914.314 1295.91 955.033 1320.31 1006.63H1290.54C1269.98 957.749 1256.87 918.497 1257.92 907.548Z" fill="white"/>
<path opacity="0.3" d="M1313.62 1006.69H1290.54C1281.41 985.01 1273.74 965.207 1268.17 948.965C1268.17 948.965 1293.96 984.384 1313.62 1006.69Z" fill="#C7C7C7"/>
<path d="M1256.45 964.232C1254.78 963.533 1253.66 963.466 1252.9 964.024C1252.34 964.441 1252.13 965.275 1252.13 966.391C1252.41 972.317 1260.64 987.174 1273.95 1006.77H1302.05C1281.41 983.758 1264.19 967.44 1256.45 964.232Z" fill="white"/>
<path opacity="0.3" d="M1284.06 1006.69H1273.95C1269.35 999.934 1265.38 993.726 1262.1 988.284C1268.23 993.793 1275.63 1000 1284.06 1006.69Z" fill="#C7C7C7"/>
<path d="M1302.05 1006.69C1294.72 998.534 1287.89 991.285 1281.69 985.084" stroke="#C7C7C7" stroke-width="4" stroke-linecap="round" stroke-linejoin="round"/>
<path d="M1940.78 1000.55C1952.25 942.483 1958.26 891.319 1955.1 878.875C1954.94 877.9 1954.45 876.925 1953.71 876.272C1952.98 875.781 1952.16 876.111 1951.11 877.329C1944.2 885.298 1931.26 931.418 1920.29 986.975C1918.98 993.802 1917.77 999.901 1916.79 1005.52H1939.8C1940.13 1003.73 1940.46 1002.1 1940.78 1000.55Z" fill="white"/>
<path opacity="0.2" d="M1940.78 1000.55C1945.98 974.04 1950.13 948.906 1952.74 928.244C1952.74 928.244 1942.33 962.163 1923.62 970.785C1922.48 975.991 1921.43 981.358 1920.37 986.806C1919.06 993.64 1917.85 999.741 1916.87 1005.36H1939.89C1940.13 1003.73 1940.46 1002.1 1940.78 1000.55Z" fill="#EFEFEF"/>
<path d="M1989.58 903.601C1991.12 902.545 1992.18 902.464 1992.91 903.278C1993.4 903.931 1993.64 905.148 1993.64 906.776C1993.31 919.138 1978.11 958.014 1955.66 1005.36H1925.98C1953.87 951.751 1979.82 909.944 1989.58 903.601Z" fill="white"/>
<path opacity="0.2" d="M1979.25 952.161C1972.99 967.529 1964.94 985.669 1955.66 1005.28H1925.98C1929.64 998.361 1933.22 991.608 1936.72 985.098C1959.81 978.433 1979.25 952.161 1979.25 952.161Z" fill="#EFEFEF"/>
<path d="M2012.6 961.106C2014.3 960.373 2015.52 960.293 2016.25 960.864C2016.9 961.51 2017.23 962.405 2017.07 963.306C2016.82 969.399 2008.2 984.937 1994.38 1005.28H1965.18C1986.65 981.439 2004.62 964.443 2012.6 961.106Z" fill="white"/>
<path opacity="0.2" d="M2004.87 989.247C2001.86 994.131 1998.36 999.497 1994.38 1005.28H1965.18C1966.97 1003.24 1968.76 1001.29 1970.54 999.337C1989.74 1002.18 2004.87 989.247 2004.87 989.247Z" fill="#EFEFEF"/>
<path d="M1642.54 1006.19C1642.54 1006.19 1627.38 975.849 1593.86 975.036C1565.52 974.37 1561.9 1006.19 1561.9 1006.19H1642.54Z" fill="white"/>
<path opacity="0.3" d="M1616.87 988.285C1618.72 986.954 1620.42 985.474 1621.98 983.846C1630.48 989.543 1637.59 997.163 1642.54 1006.19H1561.9C1562.34 1003.23 1563.01 1000.42 1564.04 997.608C1576.54 1000.64 1597.49 1002.42 1616.87 988.285Z" fill="#7D7D7D"/>
<path d="M1944.79 604.13C1961.48 602.785 1976.37 605.966 1991.17 611.401" stroke="white" stroke-width="4" stroke-linecap="round" stroke-linejoin="round"/>
<path d="M1986.36 562.335C1977.54 568.731 1957.43 583.939 1957.43 583.939" stroke="white" stroke-width="4" stroke-linecap="round" stroke-linejoin="round"/>
<path d="M1945.31 541.996C1944.86 551.48 1940.5 569.915 1937.21 577.193" stroke="white" stroke-width="4" stroke-linecap="round" stroke-linejoin="round"/>
<path d="M1226.02 581.275C1233.12 583.057 1240.82 584.678 1258.39 579.257C1289.05 569.794 1303.24 570.372 1303.79 577.73C1304.26 584.214 1287.66 590.826 1280.29 595.736C1264.67 606.127 1266.13 615.651 1281.5 616.216C1296.65 616.781 1307.24 610.028 1317.06 624.785" stroke="white" stroke-width="4" stroke-linecap="round" stroke-linejoin="round"/>
<path d="M1668.68 832.736C1669.38 832.083 1670.2 831.472 1670.95 830.987H1670.99L1700 842.737L1731.79 861.307C1731.79 861.307 1731.83 861.348 1731.79 861.348C1730.44 864.099 1728.95 866.944 1727.42 869.822C1727.42 869.822 1727.38 869.869 1727.38 869.822L1664.57 838.5C1664.57 838.5 1664.53 838.459 1664.57 838.459C1665.75 835.971 1667.15 834.136 1668.68 832.736Z" fill="#1E1209"/>
<path d="M1747.43 815.834L1704.06 793.423C1704.02 793.423 1704.02 793.423 1704.02 793.464C1703.62 794.823 1703.14 796.699 1702.71 798.75C1701.66 803.511 1700.57 809.148 1700.04 810.238C1700.08 810.763 1702.62 837.848 1702.71 838.985C1702.71 839.024 1702.71 839.024 1702.75 839.024H1737.65L1742.23 836.973C1742.23 836.973 1742.23 836.973 1742.27 836.932C1744.29 831.424 1746.03 825.788 1747.52 820.461L1747.43 815.834C1747.47 815.834 1747.47 815.834 1747.43 815.834Z" fill="#FAA378"/>
<path d="M1814.34 836.018L1815.65 833.134C1815.65 833.134 1815.65 833.134 1815.65 833.093C1814.99 827.456 1814.16 821.994 1813.16 816.755L1810.75 809.545L1810.71 809.505L1762.45 810.245C1762.41 810.245 1762.41 810.285 1762.41 810.285L1763.55 816.755C1764.81 820.945 1765.64 824.792 1765.99 827.719L1778.74 852.705C1778.74 852.705 1778.78 852.745 1778.78 852.705L1814.34 836.018Z" fill="#FAA378"/>
<path d="M1849.85 708.764L1846.53 693.39L1846.49 693.343L1791.19 696.315L1787.88 698.064C1787.3 698.104 1743.15 701.776 1726.38 718.9C1710.3 733.966 1708.69 772.236 1702.66 798.709V798.75C1703.88 799.362 1745.86 819.674 1747.43 820.462C1747.47 820.462 1747.47 820.462 1747.47 820.421C1748.66 815.962 1749.66 811.859 1750.53 808.012C1755.42 786.523 1755.95 773.548 1755.91 757.474C1755.91 757.427 1755.91 757.427 1755.95 757.427L1810.28 757.601C1836.05 757.688 1855.27 733.925 1849.85 708.764Z" fill="#3C2C5B"/>
<path opacity="0.2" d="M1755.9 757.427L1746.46 733.623C1746.46 733.576 1746.42 733.576 1746.38 733.623C1731.14 745.899 1734.15 772.325 1750.52 807.924C1750.52 807.972 1750.61 807.972 1750.61 807.924C1755.46 786.476 1755.99 773.414 1755.9 757.427Z" fill="black"/>
<path d="M1872.21 717.811C1868.89 703.31 1863.61 694.048 1863.3 693.524H1863.25L1832.55 695.488C1832.55 695.488 1768.78 702.61 1749.17 725.849C1733.23 744.761 1755.64 790.806 1763.5 816.667L1763.54 816.708H1813.11C1813.16 816.708 1813.16 816.667 1813.16 816.667C1808.88 794.345 1801.71 774.732 1793.2 757.823C1793.2 757.783 1793.2 757.783 1793.24 757.783H1825.52H1833.64C1862.78 757.823 1875.22 740.874 1872.91 721.92C1872.78 720.522 1872.51 719.163 1872.21 717.811Z" fill="#3C2C5B"/>
<path opacity="0.2" d="M1785.08 742.575L1793.24 757.735C1793.24 757.735 1812.94 757.735 1821.72 757.735C1823.55 757.735 1824.91 757.735 1825.52 757.735C1807.92 757.735 1791.45 740.699 1785.12 742.528C1785.08 742.528 1785.03 742.575 1785.08 742.575Z" fill="black"/>
<path d="M1763.55 816.749H1812.72" stroke="black" stroke-width="4" stroke-linecap="round" stroke-linejoin="round"/>
<path d="M1702.83 798.797L1747.04 820.294" stroke="black" stroke-width="4" stroke-linecap="round" stroke-linejoin="round"/>
<path d="M1749.56 860.124C1749.52 860.124 1749.52 860.084 1749.52 860.036C1754.67 851.474 1766.07 849.249 1766.16 831.909C1766.21 830.509 1766.12 828.983 1765.95 827.537C1765.95 827.497 1765.95 827.497 1765.99 827.497H1777.43C1781.49 827.497 1784.64 831.121 1783.98 835.185L1782.19 846.322C1782.19 846.369 1782.23 846.41 1782.28 846.369C1783.46 845.273 1795.82 833.96 1815.65 833.087C1815.69 833.087 1815.69 833.087 1815.69 833.133C1816.3 838.238 1816.7 843.659 1817 848.898C1817.18 852.523 1817.31 856.284 1817.35 860.084C1817.35 860.124 1817.35 860.124 1817.31 860.124C1816.09 860.258 1783.63 863.358 1783.42 863.399C1783.2 863.399 1751.31 860.258 1749.56 860.124Z" fill="white"/>
<path d="M1749.52 860.124L1817.35 860.17C1817.4 860.17 1817.4 860.17 1817.4 860.211C1817.44 863.312 1817.4 866.593 1817.35 869.822C1817.35 869.869 1817.35 869.869 1817.31 869.869H1747.08C1747.04 869.869 1747.04 869.869 1747.04 869.822C1747.12 865.983 1747.69 863.097 1749.52 860.124C1749.48 860.124 1749.48 860.124 1749.52 860.124Z" fill="#1E1209"/>
<path d="M1765.12 841.432L1772.37 844.446" stroke="#1E1209" stroke-width="4" stroke-linecap="round" stroke-linejoin="round"/>
<path d="M1761.53 848.071L1767.61 852.133" stroke="#1E1209" stroke-width="4" stroke-linecap="round" stroke-linejoin="round"/>
<path d="M1782.15 846.451L1779.4 860.172" stroke="#1E1209" stroke-width="4" stroke-linecap="round" stroke-linejoin="round"/>
<path d="M1671.04 830.987C1670.99 830.987 1670.99 830.948 1671.04 830.901C1679.51 825.574 1690.86 828.587 1698.64 813.077C1699.07 812.21 1699.51 811.247 1700 810.239C1700 810.198 1700.03 810.198 1700.03 810.198L1708.16 814.126C1712.36 816.137 1713.75 821.464 1711.08 825.311L1705.32 833.658C1705.28 833.699 1705.32 833.746 1705.37 833.746C1706.94 833.261 1723.53 828.458 1742.19 836.934L1742.23 836.973C1740.48 841.696 1738.65 846.323 1736.59 851.037C1735.15 854.36 1733.49 857.858 1731.83 861.261C1731.83 861.261 1731.79 861.309 1731.79 861.261C1729.65 860.299 1673.09 832.299 1671.04 830.987Z" fill="white"/>
<path d="M1692.52 821.955L1697.68 827.584" stroke="#1E1209" stroke-width="4" stroke-linecap="round" stroke-linejoin="round"/>
<path d="M1686.67 825.58L1689.6 831.734" stroke="#1E1209" stroke-width="4" stroke-linecap="round" stroke-linejoin="round"/>
<path d="M1705.19 833.746L1696.85 844.01" stroke="#1E1209" stroke-width="4" stroke-linecap="round" stroke-linejoin="round"/>
<path d="M1793.2 757.783C1793.2 757.783 1787.04 746.248 1785.08 742.583" stroke="black" stroke-width="4" stroke-linecap="round" stroke-linejoin="round"/>
<path d="M1765.64 636.777C1762.8 640.356 1760.84 642.756 1760.53 643.154C1760.53 643.194 1760.48 643.154 1760.45 643.154C1759.83 641.492 1748.48 610.607 1742.8 599.166C1736.94 587.369 1734.15 580.596 1730.7 582.52C1727.9 584.093 1729.74 595.803 1729.95 597.243C1729.95 597.283 1729.91 597.33 1729.87 597.283C1729.17 596.543 1725.11 592.259 1721.66 590.517C1717.33 588.156 1712.88 590.47 1713.23 594.532C1713.23 594.579 1713.23 594.579 1713.18 594.579C1712.92 594.492 1711.7 594.142 1710.34 594.357C1708.91 594.492 1707.24 595.803 1706.85 598.292C1706.85 598.292 1706.85 598.332 1706.81 598.332C1706.41 598.332 1702.18 599.778 1702.96 603.928C1703.01 604.103 1702.87 604.231 1702.75 604.278C1696.11 605.455 1702.66 619.169 1706.33 618.819C1706.94 618.819 1707.51 618.691 1708.03 618.382C1708.29 618.342 1708.68 617.595 1708.86 617.905C1711.57 622.929 1717.42 626.944 1721.39 627.603C1721.39 627.603 1721.44 627.603 1721.44 627.644C1721.62 629.433 1727.25 688.93 1757.78 688.406C1765.95 688.406 1773.02 685.392 1778.35 681.989C1781.84 679.669 1784.59 677.315 1786.38 675.391V675.344C1786.03 674.429 1778.78 651.366 1778.66 650.928L1765.73 636.777C1765.68 636.73 1765.68 636.73 1765.64 636.777Z" fill="#FAA378"/>
<path d="M1794.07 593.308C1799 597.895 1808.14 595.716 1808.92 595.541C1808.96 595.541 1808.96 595.541 1808.96 595.581V600.296V601.305L1809.01 623.803C1809.01 623.844 1809.05 623.844 1809.05 623.844L1841.16 618.867C1841.16 618.867 1841.2 618.867 1841.2 618.82L1842.29 603.357L1842.33 588.331L1839.76 569.855C1839.76 559.282 1842.03 548.581 1830.63 543.685C1817.87 538.136 1804.16 541.243 1799.09 547.834C1796.21 551.682 1791.93 554.17 1791.58 559.282C1791.37 562.994 1791.45 567.185 1791.23 570.03C1790.67 576.709 1787.34 587.241 1794.07 593.308Z" fill="#FAA378"/>
<path opacity="0.2" d="M1808.96 595.54V600.174C1808.96 600.215 1809.01 600.215 1809.05 600.215L1818.4 591.74C1818.45 591.7 1818.4 591.653 1818.36 591.653C1813.69 594.276 1809.4 595.413 1808.96 595.54Z" fill="#171717"/>
<path d="M1791.58 559.235C1791.58 559.235 1794.55 559.847 1798.14 556.921C1798.22 556.881 1798.31 556.881 1798.35 556.968C1798.83 558.105 1801.8 563.956 1810.1 560.721C1810.15 560.721 1810.15 560.721 1810.15 560.768C1810.01 567.534 1817.26 570.245 1817.75 570.42H1817.79C1818.18 569.855 1826.26 558.367 1832.77 563.781C1840.15 569.895 1831.07 582.042 1830.59 582.607V582.654C1833.56 585.883 1837.79 587.934 1842.21 588.243C1842.25 588.243 1842.25 588.243 1842.25 588.196L1842.29 569.808C1842.29 559.235 1841.9 544.781 1830.5 539.884C1817.75 534.335 1800.58 538.795 1795.56 545.433C1792.89 549.193 1791.93 553.908 1791.58 559.235Z" fill="black"/>
<path d="M1823.99 575.007L1827.84 571.16" stroke="black" stroke-width="4" stroke-linecap="round"/>
<path d="M1818.31 591.653C1818.31 591.653 1811.8 594.928 1808.96 595.54" stroke="black" stroke-width="4" stroke-linecap="round"/>
<path d="M1800.23 584.093C1802.07 584.443 1803.46 583.441 1803.9 581.995" stroke="black" stroke-width="4" stroke-linecap="round"/>
<path d="M1799.44 578.376C1798.97 578.201 1798.62 577.851 1798.39 577.414C1798.18 576.715 1798.62 575.491 1798.92 574.704" stroke="black" stroke-width="4" stroke-linecap="round"/>
<path d="M1794.9 569.814C1796.74 569.855 1796.74 572.565 1794.9 572.606C1793.07 572.565 1793.07 569.855 1794.9 569.814Z" fill="black"/>
<path d="M1806.39 570.379C1808.23 570.419 1808.23 573.13 1806.39 573.17C1804.55 573.13 1804.55 570.419 1806.39 570.379Z" fill="black"/>
<path d="M1890.86 645.864C1881.25 628.955 1869.07 615.894 1862.69 611.266C1856.58 606.719 1849.76 603.229 1842.33 601.258H1842.29C1841.9 601.917 1834.52 614.32 1822.25 614.32C1809.58 614.32 1809.01 602.092 1808.96 601.258C1808.96 601.218 1808.92 601.218 1808.92 601.218C1791.45 603.491 1777.91 621.57 1765.68 636.643V636.69L1774.94 653.942L1786.38 675.215C1786.38 675.264 1786.43 675.264 1786.47 675.215C1788.09 673.554 1789.49 671.893 1790.75 670.064C1790.79 670.017 1790.84 670.064 1790.84 670.105L1787.78 698.239C1787.78 698.28 1787.78 698.28 1787.83 698.28H1865.66C1865.7 698.28 1865.7 698.28 1865.7 698.239L1864.35 659.182L1890.86 645.864C1890.86 645.905 1890.86 645.905 1890.86 645.864Z" fill="#4DC7B2"/>
<path d="M1703.1 604.19C1703.84 608.125 1706.33 615.987 1711.09 614.716C1711.09 614.716 1713.45 614.016 1713.98 611.05" stroke="black" stroke-width="4" stroke-linecap="round" stroke-linejoin="round"/>
<path d="M1706.81 598.292C1707.64 602.704 1710.79 610.614 1713.98 611.004C1717.16 611.401 1717.82 606.504 1717.82 606.504" stroke="black" stroke-width="4" stroke-linecap="round" stroke-linejoin="round"/>
<path d="M1713.23 594.579C1713.54 597.855 1716.07 607.163 1719.39 607.029C1722.71 606.901 1722.58 602.092 1721.57 597.767" stroke="black" stroke-width="4" stroke-linecap="round" stroke-linejoin="round"/>
<path d="M1708.68 617.777C1709.47 616.162 1708.68 614.588 1708.68 614.588" stroke="black" stroke-width="4" stroke-linecap="round" stroke-linejoin="round"/>
<path opacity="0.2" d="M1872.21 717.811C1868.89 703.31 1863.61 694.048 1863.3 693.524H1863.26L1832.55 695.488C1832.46 695.488 1791.32 700.559 1816.04 704.137L1872.82 721.873C1872.87 721.873 1872.87 721.873 1872.87 721.832C1872.78 720.475 1872.52 719.209 1872.21 717.811Z" fill="black"/>
<path opacity="0.2" d="M1763.85 639.003C1761.92 641.404 1760.66 642.978 1760.48 643.193V643.24L1763.15 650.054C1763.15 650.101 1763.24 650.101 1763.24 650.054L1763.94 639.09C1763.94 639.003 1763.89 639.003 1763.85 639.003Z" fill="#171717"/>
<path opacity="0.2" d="M1778.48 681.86C1783.77 678.276 1787.69 674.523 1790.84 670.023C1790.88 669.452 1792.54 653.989 1792.89 650.013C1792.89 649.927 1792.76 649.886 1792.72 649.974C1791.02 653.774 1779.31 679.723 1778.35 681.814C1778.39 681.86 1778.43 681.901 1778.48 681.86Z" fill="black"/>
<path d="M1763.28 649.793L1760.48 643.241" stroke="black" stroke-width="4" stroke-linecap="round"/>
<path d="M1790.89 670.017L1792.99 649.489" stroke="black" stroke-width="4" stroke-linecap="round"/>
<path opacity="0.2" d="M1854.57 664.124C1853.09 660.936 1851.38 657.265 1849.8 653.511C1849.77 653.377 1849.54 653.424 1849.54 653.551L1848.54 698.325L1848.59 698.372H1865.71L1865.75 698.325L1859.99 661.461L1854.61 664.165C1854.57 664.124 1854.57 664.124 1854.57 664.124Z" fill="black"/>
<path d="M1811.41 690.591C1811.45 690.591 1811.5 690.638 1811.45 690.678C1808.79 691.814 1797.04 696.402 1794.64 698.366C1790.06 702.039 1798.18 703.478 1798.79 703.613C1798.83 703.613 1798.83 703.652 1798.83 703.652C1798.39 708.111 1805.04 707.85 1805.65 707.803C1805.69 707.803 1805.69 707.803 1805.69 707.85C1805.65 708.24 1805.69 710.95 1811.98 710.95C1818.8 710.95 1841.51 704.225 1841.86 704.09C1886.89 707.364 1928.94 713.216 1890.9 645.951C1890.9 645.951 1890.86 645.905 1890.86 645.951C1890.25 646.254 1881.3 650.532 1872.39 654.769C1863.61 658.965 1855.22 663.855 1854.61 664.204C1854.61 664.204 1854.57 664.253 1854.61 664.253C1857.32 670.017 1859.37 673.729 1859.63 674.213C1859.63 674.254 1859.63 674.254 1859.59 674.254C1858.14 674.429 1832.6 677.838 1818.75 681.113C1786.61 687.624 1783.85 697.626 1811.41 690.591Z" fill="#FAA378"/>
<path d="M1859.59 674.213L1849.11 675.7" stroke="black" stroke-width="4" stroke-linecap="round"/>
<path d="M1849.58 652.94L1854.57 664.117" stroke="black" stroke-width="4" stroke-linecap="round"/>
<path d="M1822.33 702.038L1805.69 707.85" stroke="black" stroke-width="4" stroke-linecap="round"/>
<path d="M1819.5 695.926L1798.84 703.66" stroke="black" stroke-width="4" stroke-linecap="round"/>
<path d="M1816.74 688.755L1811.45 690.678" stroke="black" stroke-width="4" stroke-linecap="round"/>
<path d="M1729.91 597.283L1730.7 600.296C1730.7 600.296 1725.72 606.416 1724.8 613.795" stroke="black" stroke-width="4" stroke-linecap="round" stroke-linejoin="round"/>
<path d="M1871.51 715.712H1858.98C1858.02 715.712 1857.27 716.587 1857.44 717.549L1859.46 729.345C1860.38 734.76 1863.74 738.782 1869.28 738.782H1870.2" stroke="black" stroke-width="4" stroke-linecap="round"/>
<path d="M1520.37 829.103C1519.85 825.693 1522.65 823.131 1526.16 823.131C1526.02 823.037 1531.04 823.603 1537.25 822.183L1537.3 822.136C1536.73 816.203 1536.78 809.847 1536.78 804.251C1537.06 803.97 1491.68 804.017 1491.96 804.251C1492.72 814.212 1493.95 824.127 1495.8 833.469C1495.8 833.469 1495.8 833.516 1495.85 833.516C1496.51 833.516 1497.32 833.469 1497.99 833.469C1513.45 833.469 1521.79 839.018 1521.93 839.065L1522.17 839.26L1520.37 829.103Z" fill="#CF5934"/>
<path opacity="0.2" d="M1524.17 804.441C1510.65 799.653 1493.67 804.393 1491.96 804.441C1491.91 804.441 1491.91 804.441 1491.91 804.488C1492.2 808.759 1492.72 812.842 1493.2 817.293C1493.2 817.348 1493.25 817.348 1493.25 817.348C1494.81 816.87 1522.32 808.187 1524.17 804.488C1524.21 804.441 1524.21 804.441 1524.17 804.441Z" fill="#030202"/>
<path d="M1456.02 828.821C1455.49 825.404 1458.19 822.136 1461.71 822.183C1461.71 822.183 1474.65 822.183 1475.46 822.183C1475.5 822.183 1475.5 822.183 1475.5 822.136C1475.65 816.203 1476.41 809.519 1477.03 804.252C1477.31 803.827 1431.35 804.252 1431.35 804.11C1431.45 813.695 1431.97 823.798 1433.82 833.233L1433.86 833.28C1449.18 833.28 1457.43 838.829 1457.58 838.876L1457.82 839.065L1456.02 828.821Z" fill="#CF5934"/>
<path opacity="0.2" d="M1463.79 804.299C1461.04 803.781 1434.58 803.398 1431.35 804.393L1431.31 804.44C1431.4 809.088 1431.45 813.076 1431.78 817.347C1431.78 817.394 1431.83 817.394 1431.83 817.394C1433.39 817.057 1461.23 805.537 1463.79 804.393C1463.88 804.346 1463.84 804.299 1463.79 804.299Z" fill="#030202"/>
<path d="M1536.73 804.44C1536.73 781.767 1539.34 746.906 1531.13 733.151C1515.15 705.212 1464.69 693.355 1464.55 692.931L1403.61 691.6L1402.28 693.072C1402.28 693.072 1391.04 704.311 1388.1 724.476C1385.44 742.924 1399.96 759.383 1418.55 759.383H1432.96C1431.54 767.016 1430.83 782.385 1431.35 804.393L1536.73 804.44Z" fill="#3C2C5B"/>
<path opacity="0.2" d="M1432.87 759.337C1432.87 759.291 1432.87 759.291 1432.87 759.337H1445.58C1445.82 759.337 1445.96 759.62 1445.82 759.808C1438.89 769.251 1433.25 781.533 1431.5 785.616C1431.36 785.897 1430.92 785.803 1430.92 785.473C1431.31 773.421 1431.16 764.509 1432.87 759.337Z" fill="black"/>
<path d="M1497.7 862.074C1497.94 862.027 1498.03 861.785 1497.94 861.598C1495.85 857.521 1493 855.241 1489.4 852.16C1478.64 842.959 1474.93 838.923 1475.5 821C1475.5 820.945 1475.5 820.945 1475.46 820.945C1474.56 821 1461.75 821.846 1461.75 821.846C1458.1 821.994 1455.11 825.122 1455.68 828.821C1455.68 828.821 1456.78 835.561 1457.1 837.835C1457.15 838.117 1456.82 838.359 1456.58 838.164C1454.17 836.698 1446.34 832.662 1433.86 832.521C1433.63 832.521 1433.49 832.709 1433.53 832.904C1434.44 838.359 1435.15 844.002 1436.61 849.598C1436.66 849.692 1436.76 849.786 1436.86 849.833L1456.78 856.001C1456.92 856.048 1457.06 856.001 1457.15 855.906L1457.29 855.766C1457.39 855.624 1457.58 855.571 1457.77 855.719C1460.43 857.474 1464.69 861.455 1465.22 861.927C1465.26 861.98 1465.31 861.98 1465.36 861.98C1466.54 862.309 1481.1 865.531 1482.29 865.774C1482.34 865.774 1482.38 865.774 1482.43 865.774C1483.43 865.579 1495.28 862.639 1497.7 862.074Z" fill="white"/>
<path d="M1562.01 861.88C1562.05 861.88 1562.05 861.832 1562.05 861.832C1559.97 857.325 1557.31 855.335 1553.28 852.02C1542.14 843.571 1538.62 839.402 1537.3 822.277C1537.3 822.23 1537.3 822.23 1537.25 822.23C1536.45 822.183 1524.5 822.183 1524.78 822.23C1521.6 822.801 1519.42 825.835 1519.9 829.01L1521.46 838.642C1521.46 838.689 1521.42 838.735 1521.36 838.689C1520.04 837.646 1509.08 832.662 1496.37 833.233C1496.32 833.281 1495.85 833.469 1495.75 833.563C1495.75 833.563 1495.71 833.611 1495.75 833.611C1496.8 839.159 1497.75 844.52 1499.22 849.974C1499.22 849.974 1499.22 850.021 1499.26 850.021L1520.41 855.719L1520.61 855.524C1523.59 857.427 1526.11 859.56 1528.1 861.927C1528.48 862.075 1547.45 865.39 1547.83 865.437L1562.01 861.88Z" fill="white"/>
<path d="M1457.87 869.089L1457.48 855.624V855.571C1448.9 850.17 1438.13 849.975 1436.76 849.833C1436.71 849.833 1436.71 849.881 1436.71 849.881C1437 850.876 1440.51 862.976 1442.55 868.902L1442.59 868.949L1457.87 869.089Z" fill="black"/>
<path d="M1520.89 868.902L1520.56 855.477C1520.56 855.477 1520.56 855.43 1520.51 855.43C1511.69 850.688 1500.69 849.834 1499.26 849.692C1499.17 849.692 1499.12 849.786 1499.12 849.834C1499.55 851.306 1504.62 866.911 1505.29 868.806C1505.34 868.902 1505.43 868.995 1505.57 868.995C1505.57 868.995 1519.85 868.949 1520.84 868.949C1520.89 868.949 1520.89 868.949 1520.89 868.902Z" fill="black"/>
<path d="M1478.35 840.445L1469.86 844.144" stroke="black" stroke-width="4" stroke-linecap="round" stroke-linejoin="round"/>
<path d="M1541.57 840.256L1533.03 844.143" stroke="black" stroke-width="4" stroke-linecap="round" stroke-linejoin="round"/>
<path d="M1432.59 759.384L1445.58 759.337" stroke="black" stroke-width="4" stroke-linecap="round" stroke-linejoin="round"/>
<path d="M1563.62 868.995C1563.67 866.48 1563.14 864.019 1562.1 861.88L1562.06 861.832H1528.2C1528.15 861.832 1528.15 861.88 1528.15 861.927C1530.23 864.206 1531.75 866.244 1533.37 868.995C1533.37 868.995 1533.37 868.995 1533.41 868.995C1534.55 868.995 1562.29 869.042 1563.62 869.042C1563.62 869.042 1563.62 869.042 1563.62 868.995Z" fill="black"/>
<path d="M1499.79 868.808C1499.69 866.534 1499.5 863.877 1498.13 861.981C1498.13 861.981 1498.13 861.981 1498.08 861.981C1495.71 861.981 1467.87 861.927 1465.22 861.927C1465.17 861.927 1465.17 861.981 1465.17 862.028C1466.88 864.206 1468.91 866.534 1470.43 869.09C1470.43 869.09 1470.43 869.09 1470.48 869.09C1472.14 869.09 1497.84 868.855 1499.74 868.855C1499.79 868.855 1499.79 868.855 1499.79 868.808Z" fill="black"/>
<path d="M1458.15 608.838L1458.05 601.863C1458.05 601.816 1458.1 601.816 1458.1 601.816C1462.75 602.717 1469.29 602.435 1472.9 597.928C1476.17 593.799 1475.6 587.395 1474.09 578.477C1472.8 571.509 1472.99 560.882 1468.82 555.239C1464.13 548.547 1455.4 547.222 1445.63 547.598C1434.34 548.217 1425.85 558.084 1426.14 568.899C1426.33 573.923 1426.56 583.367 1427.27 595.224C1427.51 598.682 1428.08 610.21 1428.13 611.017C1428.13 611.064 1428.17 611.064 1428.17 611.064L1458.05 608.885C1458.05 608.885 1458.15 608.885 1458.15 608.838Z" fill="#CF5934"/>
<path opacity="0.2" d="M1458.05 601.816L1458.15 608.791C1458.15 608.838 1458.1 608.838 1458.05 608.838L1449.23 598.971C1449.18 598.924 1449.23 598.877 1449.28 598.877C1453.78 600.962 1457.62 601.675 1458.05 601.816C1458.05 601.769 1458.05 601.769 1458.05 601.816Z" fill="#030202"/>
<path d="M1442.36 587.49L1438.32 585.875" stroke="#030202" stroke-width="4" stroke-linecap="round" stroke-linejoin="round"/>
<path d="M1457.77 601.769C1455.59 601.244 1451.65 600.013 1449.09 598.735" stroke="#030202" stroke-width="4" stroke-linecap="round" stroke-linejoin="round"/>
<path d="M1463.27 580.993L1463.6 582.129C1463.84 582.795 1463.6 583.461 1463.13 583.885L1462.98 584.026" stroke="#030202" stroke-width="4" stroke-linecap="round" stroke-linejoin="round"/>
<path d="M1464.6 589.104C1463.84 589.676 1461.18 589.676 1459.81 587.967" stroke="black" stroke-width="4" stroke-linecap="round" stroke-linejoin="round"/>
<path d="M1455.45 577.912C1453.69 577.959 1453.69 580.522 1455.45 580.569C1457.2 580.522 1457.2 577.959 1455.45 577.912Z" fill="#010005"/>
<path d="M1468.15 575.82C1466.4 575.867 1466.4 578.43 1468.15 578.477C1469.91 578.43 1469.91 575.867 1468.15 575.82Z" fill="#010005"/>
<path d="M1544.93 660.015C1546.08 660.392 1547.21 660.58 1548.4 660.58C1554.42 660.58 1560.39 655.933 1560.87 655.555C1561.91 655.415 1576.75 653.276 1578.51 650.766C1579.5 648.629 1575.05 648.299 1573.15 648.157C1573.1 648.157 1573.1 648.064 1573.15 648.064C1580.65 645.925 1583.25 643.314 1584.06 641.518C1584.72 640.187 1584.39 639.145 1584.3 638.862V638.815C1587.24 635.445 1585.29 633.26 1582.35 632.93C1582.3 632.93 1582.3 632.883 1582.3 632.883C1582.64 630.939 1580.65 629.655 1577.28 629.655C1572.59 629.708 1565.28 630.845 1559.87 631.793C1559.83 631.793 1559.83 631.746 1559.83 631.699C1564.57 626.48 1565.56 622.922 1559.21 624.63C1553.18 626.197 1538.25 632.553 1526.49 637.719C1526.44 637.719 1526.44 637.766 1526.49 637.766L1540.57 663.902C1540.53 663.949 1543.28 661.582 1544.93 660.015Z" fill="#CF5934"/>
<path d="M1405.84 701.419C1414.95 701.419 1425.61 698.528 1436.72 693.072H1464.46C1464.46 693.072 1464.5 693.072 1464.5 693.025L1468.2 672.25C1468.2 672.203 1468.25 672.203 1468.3 672.25C1487.46 698.056 1518.24 685.15 1540.53 663.949V663.902C1540.05 662.955 1527.58 638.62 1527.06 637.53C1527.06 637.53 1527.01 637.483 1527.01 637.53C1511.97 644.505 1498.55 650.29 1497.51 650.719C1497.51 650.719 1497.46 650.719 1497.46 650.673C1483.29 623.87 1473.42 613.956 1458.24 611.541H1416.13C1397.4 607.936 1380.04 645.501 1380.66 679.13C1380.85 693.786 1391.38 701.513 1405.84 701.419Z" fill="#FF6A00"/>
<path opacity="0.2" d="M1482.95 684.06C1482.9 684.013 1480.34 679.891 1478.59 673.245C1477.83 670.401 1477.21 667.696 1476.64 665.282C1475.08 658.401 1474.04 653.423 1470.81 653.088C1470.81 653.088 1470.81 653.088 1470.76 653.088C1470.43 653.517 1468.11 671.873 1468.01 671.873L1467.97 672.109C1468.01 672.202 1473.37 679.984 1482.81 684.202L1483.09 684.35L1482.95 684.06Z" fill="black"/>
<path d="M1425.71 604.709C1425.71 604.662 1425.71 604.662 1425.71 604.709L1458.05 604.803C1458.1 604.803 1458.1 604.803 1458.1 604.85L1458.19 611.495C1458.19 611.542 1458.19 611.542 1458.15 611.542C1457.77 611.542 1455.21 611.683 1451.84 611.683C1451.79 611.683 1451.79 611.73 1451.79 611.778C1458.86 616.472 1461.66 624.442 1459.05 633.025C1459.05 633.072 1459 633.072 1459 633.072C1458.43 632.931 1451.84 631.363 1449.04 623.111C1449.04 623.064 1448.95 623.064 1448.95 623.111C1447.38 629.608 1442.92 635.063 1436 638.385C1435.96 638.385 1435.96 638.385 1435.96 638.338C1435.71 637.201 1432.49 620.124 1445.39 611.73C1445.44 611.683 1445.44 611.636 1445.39 611.636C1436.66 611.589 1426.47 611.589 1425.75 611.441C1425.75 611.441 1425.75 611.394 1425.71 611.394C1425.75 610.022 1425.75 607.083 1425.71 604.709Z" fill="#4DC7B2"/>
<path d="M1431.83 678.464C1426.33 678.606 1426.33 686.67 1431.83 686.811C1437.33 686.67 1437.33 678.606 1431.83 678.464Z" fill="#C4C4C4"/>
<path d="M1526.53 657.877C1521.03 658.025 1521.03 666.082 1526.53 666.23C1532.03 666.082 1532.03 658.025 1526.53 657.877Z" fill="#C4C4C4"/>
<path d="M1413.28 666.606L1419.02 649.771" stroke="black" stroke-width="4" stroke-linecap="round" stroke-linejoin="round"/>
<path opacity="0.2" d="M1464.22 692.978L1467.06 677.233C1467.06 677.187 1467.02 677.187 1467.02 677.187L1445.91 687.571L1436.38 692.838L1436.43 693.025L1464.22 692.978C1464.22 693.025 1464.22 693.025 1464.22 692.978Z" fill="black"/>
<path d="M1497.13 650.673L1502.77 648.393" stroke="black" stroke-width="4" stroke-linecap="round" stroke-linejoin="round"/>
<path d="M1469.1 664.138L1470.72 653.088" stroke="black" stroke-width="4" stroke-linecap="round" stroke-linejoin="round"/>
<path d="M1559.49 632.029L1554.7 637.437C1554.7 637.437 1551.38 647.97 1543.47 651.716" stroke="#030202" stroke-width="4" stroke-linecap="round" stroke-linejoin="round"/>
<path d="M1582.21 633.118L1560.87 638.62" stroke="#030202" stroke-width="4" stroke-linecap="round" stroke-linejoin="round"/>
<path d="M1584.2 638.909L1562.44 644.216" stroke="#030202" stroke-width="4" stroke-linecap="round" stroke-linejoin="round"/>
<path d="M1572.87 648.157L1562.86 650.054" stroke="#030202" stroke-width="4" stroke-linecap="round" stroke-linejoin="round"/>
<path opacity="0.2" d="M1431.64 663.237C1424.34 659.255 1425.61 649.294 1419.07 649.771C1419.07 649.771 1419.02 649.771 1419.02 649.818C1418.79 650.573 1413.33 666.466 1412.95 667.507C1412.95 667.554 1412.95 667.554 1413 667.554C1414.14 667.461 1430.02 663.668 1431.64 663.385C1431.69 663.331 1431.69 663.284 1431.64 663.237Z" fill="black"/>
<path d="M1476.69 692.03C1477.83 692.03 1478.87 691.6 1478.87 690.463C1478.78 688.096 1472.99 684.155 1469.77 682.117C1469.72 682.069 1469.77 682.022 1469.82 682.022C1473.42 683.636 1480.68 686.481 1485.51 686.481C1488.12 686.481 1489.78 685.627 1490.25 683.919C1490.3 683.919 1490.39 683.919 1490.49 683.919C1493.81 684.013 1495.57 681.739 1493.1 678.087V678.04C1493.25 677.752 1493.72 676.662 1493.39 675.189C1490.96 668.174 1466.07 660.963 1452.22 660.963C1448.67 660.963 1444.21 661.246 1439.94 661.96C1439.89 661.96 1439.89 662.006 1439.89 662.006L1445.96 687.665C1445.96 687.665 1445.96 687.713 1446.01 687.713C1446.25 687.76 1447.43 687.947 1449.33 687.947C1452.27 688.049 1457.25 687.195 1460.85 684.962H1460.9C1462.28 685.722 1472.14 692.03 1476.69 692.03Z" fill="#CF5934"/>
<path d="M1440.84 661.865C1428.7 663.237 1407.64 668.981 1407.64 668.981" stroke="black" stroke-width="4" stroke-linecap="round" stroke-linejoin="round"/>
<path d="M1492.81 678.087C1484.85 673.581 1476.31 670.165 1467.44 668.032" stroke="#030202" stroke-width="4" stroke-linecap="round" stroke-linejoin="round"/>
<path d="M1489.92 683.872C1483.24 680.503 1469.81 675.291 1465.98 674.289" stroke="#030202" stroke-width="4" stroke-linecap="round" stroke-linejoin="round"/>
<path d="M1445.91 687.665C1443.07 689.515 1440.17 691.27 1437.09 692.791" stroke="black" stroke-width="4" stroke-linecap="round" stroke-linejoin="round"/>
<path d="M1449.04 622.875C1450.04 618.133 1449.37 613.768 1448.9 611.683" stroke="#626262" stroke-width="4" stroke-linecap="round" stroke-linejoin="round"/>
<path d="M1383.93 651.474C1389.67 634.403 1393.99 628.471 1395.36 626.15C1395.36 626.15 1395.4 626.103 1395.4 626.15C1408.5 631.174 1423.48 631.746 1432.49 621.597C1441.36 611.541 1439.65 595.742 1439.56 594.794C1439.56 594.794 1439.56 594.794 1439.56 594.747C1439.04 594.417 1428.75 588.155 1430.59 582.176C1431.4 579.667 1433.44 578.477 1436.76 578.477C1439.84 578.477 1443.12 579.519 1443.59 579.715C1443.64 579.715 1443.64 579.715 1443.64 579.667C1444.4 575.82 1443.78 573.116 1442.5 570.177C1442.5 570.13 1442.5 570.13 1442.55 570.13C1446.96 570.89 1451.89 569.848 1452.84 567.191C1453.74 565.483 1453.41 563.061 1451.93 561.023C1451.89 560.976 1451.93 560.929 1451.98 560.976C1458.29 564.157 1468.39 564.958 1471.48 561.36V561.306C1468.91 550.733 1458.01 545.702 1446.24 545.608C1434.25 545.043 1423.57 554.714 1424.01 566.431C1424.05 569.37 1424.19 577.293 1424.62 583.367C1424.62 583.414 1424.57 583.414 1424.57 583.414C1407.83 574.684 1389.19 580.992 1388.53 602.145C1388.53 602.145 1388.53 602.192 1388.48 602.192C1357.52 608.69 1363.16 642.75 1383.83 651.52C1383.93 651.52 1383.93 651.52 1383.93 651.474Z" fill="#010005"/>
<path d="M1422.49 527.3C1403.23 527.919 1403.23 555.851 1422.49 556.423C1441.74 555.804 1441.74 527.872 1422.49 527.3Z" fill="#010005"/>
</g>
<defs>
<clipPath id="clip0_304_339">
<rect width="2151" height="1076" fill="white"/>
</clipPath>
</defs>
</svg>
