<svg width="1920" height="1080" viewBox="0 0 1920 1080" fill="none" xmlns="http://www.w3.org/2000/svg">
<g clip-path="url(#clip0_299_722)">
<rect width="1920" height="1080" fill="#F8F9FD"/>
<path opacity="0.5" d="M75.3125 68.2998H0V143.6H75.3125V68.2998Z" fill="white"/>
<path opacity="0.5" d="M145.656 0H108V37.65H145.656V0Z" fill="#64CEBC"/>
<path opacity="0.5" d="M180 72.65C180 62.6646 183.967 53.0882 191.029 46.0274C198.091 38.9667 207.669 35 217.656 35V72.65" fill="#68CFBD"/>
<path opacity="0.5" d="M75.3125 105.95H37.6562V143.6H75.3125V105.95Z" fill="#ECF9F7"/>
<path opacity="0.5" d="M15 68C15 77.9854 18.9673 87.5618 26.0293 94.6226C33.0912 101.683 42.6692 105.65 52.6563 105.65V68" fill="#FF720D"/>
<path opacity="0.5" d="M451.875 68.2998H376.562V143.6H451.875V68.2998Z" fill="white"/>
<path opacity="0.5" d="M414.219 68.2998H376.562V105.95H414.219V68.2998Z" fill="#FFF3EB"/>
<path opacity="0.5" d="M304.656 35V72.65H267L304.656 35Z" fill="#EAF8F6"/>
<path opacity="0.5" d="M582.656 71H545V108.65H582.656V71Z" fill="#7FD7C8"/>
<path opacity="0.5" d="M489 44H526.656L489 81.65V44Z" fill="#4DC7B2"/>
<path opacity="0.5" d="M753.125 68.2998H677.812V143.6H753.125V68.2998Z" fill="white"/>
<path opacity="0.5" d="M753.125 68.2998H715.469V105.95H753.125V68.2998Z" fill="#FFAD73"/>
<path opacity="0.5" d="M753.125 68.2998H715.469V105.95H753.125V68.2998Z" fill="#FFF9F4"/>
<path opacity="0.5" d="M75.3125 143.6H0V218.9H75.3125V143.6Z" fill="white"/>
<path opacity="0.5" d="M150.625 143.6H75.3125V218.9H150.625V143.6Z" fill="#FFEEE1"/>
<path opacity="0.5" d="M75.3125 143.6H150.625V218.9L75.3125 143.6Z" fill="#6DD1C0"/>
<path opacity="0.5" d="M301.25 143.6H225.938V218.9H301.25V143.6Z" fill="#DAF3EF"/>
<path opacity="0.5" d="M225.938 143.6C245.912 143.6 265.068 151.533 279.191 165.655C293.315 179.776 301.25 198.929 301.25 218.9L225.938 143.6C225.938 163.571 233.872 182.724 247.996 196.845C262.12 210.967 281.276 218.9 301.25 218.9" fill="#D7F3EE"/>
<path opacity="0.5" d="M451.875 143.6H376.562V218.9H451.875V143.6Z" fill="white"/>
<path opacity="0.5" d="M451.875 143.6H414.219V181.25H451.875V143.6Z" fill="#CAEEE8"/>
<path opacity="0.5" d="M414.219 181.25C424.206 181.25 433.784 177.283 440.846 170.223C447.908 163.162 451.875 153.585 451.875 143.6H414.219" fill="#FF852F"/>
<path opacity="0.5" d="M828.438 143.6H753.125V218.9H828.438V143.6Z" fill="white"/>
<path opacity="0.5" d="M790.781 143.6H753.125V181.25H790.781V143.6Z" fill="#FFD1B0"/>
<path opacity="0.5" d="M790.781 143.6V181.25H753.125L790.781 143.6Z" fill="#70D2C1"/>
<path opacity="0.5" d="M75.3125 218.9H0V294.2H75.3125V218.9Z" fill="#FFB988"/>
<path opacity="0.5" d="M0 218.9H75.3125V294.2L0 218.9Z" fill="#D6F2ED"/>
<path opacity="0.5" d="M828.438 218.9H753.125V294.2H828.438V218.9Z" fill="#F6FCFB"/>
<path opacity="0.5" d="M1022 63H976V109H1022V63Z" fill="#FF8F3F"/>
<path opacity="0.5" d="M907 205H861V251H907V205Z" fill="#FF8F3F"/>
<path opacity="0.5" d="M903.75 218.9H828.438V294.2H903.75V218.9Z" fill="white"/>
<path opacity="0.5" d="M1205 218.9H1129.69V294.2H1205V218.9Z" fill="#FFBD8E"/>
<path opacity="0.5" d="M1175 49H1134V93H1175V49Z" fill="#FFBD8E"/>
<path opacity="0.5" d="M1000 236.3C1000 216.329 1007.93 197.176 1022.06 183.055C1036.18 168.933 1055.34 161 1075.31 161V236.3" fill="#FFE1CB"/>
<path opacity="0.5" d="M150.625 294.2H75.3125V369.5H150.625V294.2Z" fill="#50C8B3"/>
<path opacity="0.5" d="M150.625 294.2V369.5H75.3125L150.625 294.2Z" fill="#FF852E"/>
<path opacity="0.5" d="M225.938 294.2H150.625V369.5H225.938V294.2Z" fill="#FFE3CE"/>
<path opacity="0.5" d="M225.938 294.2H150.625V369.5H225.938V294.2Z" fill="#DAF3EF"/>
<path opacity="0.5" d="M301.25 294.2H225.938V369.5H301.25V294.2Z" fill="white"/>
<path opacity="0.5" d="M263.594 294.2H225.938V331.85H263.594V294.2Z" fill="#FF8936"/>
<path opacity="0.5" d="M244.766 331.85C255.164 331.85 263.594 323.422 263.594 313.025C263.594 302.628 255.164 294.2 244.766 294.2C234.367 294.2 225.938 302.628 225.938 313.025C225.938 323.422 234.367 331.85 244.766 331.85Z" fill="#FF9950"/>
<path opacity="0.5" d="M263.594 331.85H225.938V369.5H263.594V331.85Z" fill="#E3F6F3"/>
<path opacity="0.5" d="M244.766 369.5C255.164 369.5 263.594 361.072 263.594 350.675C263.594 340.278 255.164 331.85 244.766 331.85C234.367 331.85 225.938 340.278 225.938 350.675C225.938 361.072 234.367 369.5 244.766 369.5Z" fill="#6CD1BF"/>
<path opacity="0.5" d="M451.875 294.2H376.562V369.5H451.875V294.2Z" fill="white"/>
<path opacity="0.5" d="M414.219 294.2H376.562V331.85H414.219V294.2Z" fill="#C9EEE8"/>
<path opacity="0.5" d="M376.562 294.2C386.55 294.2 396.128 298.167 403.189 305.228C410.251 312.288 414.219 321.865 414.219 331.85H376.562" fill="#5CCCB8"/>
<path opacity="0.5" d="M451.875 294.2H414.219V331.85H451.875V294.2Z" fill="#FFE0CA"/>
<path opacity="0.5" d="M414.219 331.85C414.219 321.865 418.186 312.288 425.248 305.228C432.31 298.167 441.888 294.2 451.875 294.2V331.85" fill="#FFCBA6"/>
<path opacity="0.5" d="M602.5 294.2H527.188V369.5H602.5V294.2Z" fill="#FF974C"/>
<path opacity="0.5" d="M527.188 294.2L602.5 369.5H527.188V294.2Z" fill="#52C9B4"/>
<path opacity="0.5" d="M1129.69 294.2H1054.38V369.5H1129.69V294.2Z" fill="#FFD8BC"/>
<path opacity="0.5" d="M701 291C701 279.861 705.425 269.178 713.302 261.302C721.178 253.425 731.861 249 743 249V291" fill="#54C9B5"/>
<path opacity="0.5" d="M75.3125 369.5H0V444.8H75.3125V369.5Z" fill="#A6E3D8"/>
<path opacity="0.5" d="M75.3125 369.5V444.8H0L75.3125 369.5Z" fill="#FF8935"/>
<path opacity="0.5" d="M150.625 369.5H75.3125V444.8H150.625V369.5Z" fill="#FFE9DA"/>
<path opacity="0.5" d="M150.625 369.5H75.3125V444.8H150.625V369.5Z" fill="#FF8B38"/>
<path opacity="0.5" d="M602.5 369.5H527.188V444.8H602.5V369.5Z" fill="white"/>
<path opacity="0.5" d="M564.844 407.15H527.188V444.8H564.844V407.15Z" fill="#FF852F"/>
<path opacity="0.5" d="M527.188 407.15H564.844V444.8L527.188 407.15Z" fill="#FFEADB"/>
<path opacity="0.5" d="M846.312 291H771V366.3H846.312V291Z" fill="#FFF0E5"/>
<path opacity="0.5" d="M602 101C602 120.971 609.935 140.124 624.059 154.245C638.182 168.367 657.338 176.3 677.313 176.3V101" fill="#FFF6F0"/>
<path opacity="0.5" d="M828.438 369.5H753.125V444.8H828.438V369.5Z" fill="#66CFBD"/>
<path opacity="0.5" d="M883.312 298H808V373.3H883.312V298Z" fill="#EDF9F7"/>
<path opacity="0.5" d="M979.062 369.5H903.75V444.8H979.062V369.5Z" fill="white"/>
<path opacity="0.5" d="M941.406 407.15H903.75V444.8H941.406V407.15Z" fill="#FFAC71"/>
<path opacity="0.5" d="M922.578 444.8C932.977 444.8 941.406 436.372 941.406 425.975C941.406 415.578 932.977 407.15 922.578 407.15C912.18 407.15 903.75 415.578 903.75 425.975C903.75 436.372 912.18 444.8 922.578 444.8Z" fill="#84D8CA"/>
<path opacity="0.5" d="M979.062 407.15H941.406V444.8H979.062V407.15Z" fill="#FFAC71"/>
<path opacity="0.5" d="M979.062 407.15H941.406V444.8H979.062V407.15Z" fill="#FFFEFD"/>
<path opacity="0.5" d="M1054.38 369.5H979.062V444.8H1054.38V369.5Z" fill="#A3E2D7"/>
<path opacity="0.5" d="M979.062 369.5H1054.38L979.062 444.8V369.5Z" fill="#53C9B4"/>
<path opacity="0.5" d="M1205 369.5H1129.69V444.8H1205V369.5Z" fill="#B1E6DD"/>
<path opacity="0.5" d="M1205 369.5H1129.69V444.8H1205V369.5Z" fill="#78D5C5"/>
<path opacity="0.5" d="M301.25 444.8H225.938V520.1H301.25V444.8Z" fill="white"/>
<path opacity="0.5" d="M451.875 444.8H376.562V520.1H451.875V444.8Z" fill="white"/>
<path opacity="0.5" d="M451.875 444.8H414.219V482.45H451.875V444.8Z" fill="#96DED2"/>
<path opacity="0.5" d="M414.219 444.8H451.875L414.219 482.45V444.8Z" fill="#FFF4ED"/>
<path opacity="0.5" d="M451.875 482.45H414.219V520.1H451.875V482.45Z" fill="#C6EDE6"/>
<path opacity="0.5" d="M414.219 482.45L451.875 520.1H414.219V482.45Z" fill="#7CD6C6"/>
<path opacity="0.5" d="M753.125 444.8H677.812V520.1H753.125V444.8Z" fill="#FFBB8B"/>
<path opacity="0.5" d="M677.812 444.8C697.787 444.8 716.943 452.733 731.066 466.855C745.19 480.976 753.125 500.129 753.125 520.1H677.812" fill="#9FE1D5"/>
<path opacity="0.5" d="M527.188 520.1H451.875V595.4H527.188V520.1Z" fill="white"/>
<path opacity="0.5" d="M489.531 520.1H451.875V557.75H489.531V520.1Z" fill="#B9E9E1"/>
<path opacity="0.5" d="M489.531 520.1V557.75H451.875L489.531 520.1Z" fill="#FF9549"/>
<path opacity="0.5" d="M489.531 557.75H451.875V595.4H489.531V557.75Z" fill="#FFCDA9"/>
<path opacity="0.5" d="M451.875 557.75H489.531V595.4L451.875 557.75Z" fill="#FFAA6E"/>
<path opacity="0.5" d="M527.188 557.75H489.531V595.4H527.188V557.75Z" fill="#72D3C2"/>
<path opacity="0.5" d="M489.531 557.75L527.188 595.4H489.531V557.75Z" fill="#FFBC8D"/>
<path opacity="0.5" d="M1205 520.1H1129.69V595.4H1205V520.1Z" fill="white"/>
<path opacity="0.5" d="M1205 520.1H1167.34V557.75H1205V520.1Z" fill="#DBF4EF"/>
<path opacity="0.5" d="M1167.34 520.1L1205 557.75H1167.34V520.1Z" fill="#FFBB8A"/>
<path opacity="0.5" d="M225.938 595.4H150.625V670.7H225.938V595.4Z" fill="#F5FCFB"/>
<path opacity="0.5" d="M299 591H254V636H299V591Z" fill="#FF6B02"/>
<path opacity="0.5" d="M564.312 798H489V873.3H564.312V798Z" fill="#FF7B1C"/>
<path opacity="0.5" d="M187 736L262.313 811.3H187V736Z" fill="#96DED2"/>
<path opacity="0.5" d="M602.5 595.4H527.188V670.7H602.5V595.4Z" fill="white"/>
<path opacity="0.5" d="M677.812 595.4H602.5V670.7H677.812V595.4Z" fill="#8BDBCD"/>
<path opacity="0.5" d="M602.5 595.4C622.474 595.4 641.63 603.333 655.754 617.455C669.878 631.576 677.813 650.729 677.813 670.7L602.5 595.4C602.5 615.371 610.435 634.524 624.559 648.645C638.682 662.767 657.838 670.7 677.813 670.7" fill="#FFA565"/>
<path opacity="0.5" d="M903.75 595.4H828.438V670.7H903.75V595.4Z" fill="#9CE0D4"/>
<path opacity="0.5" d="M903.75 595.4H828.438V670.7H903.75V595.4Z" fill="#FFC7A0"/>
<path opacity="0.5" d="M1054.38 595.4H979.062V670.7H1054.38V595.4Z" fill="white"/>
<path opacity="0.5" d="M1054.38 595.4H1016.72V633.05H1054.38V595.4Z" fill="#FF8D3B"/>
<path opacity="0.5" d="M1016.72 633.05C1016.72 623.065 1020.69 613.488 1027.75 606.427C1034.81 599.367 1044.39 595.4 1054.38 595.4V633.05" fill="#FFA05C"/>
<path opacity="0.5" d="M1016.72 633.05H979.062V670.7H1016.72V633.05Z" fill="#E6F7F4"/>
<path opacity="0.5" d="M979.062 670.7C989.05 670.7 998.628 666.733 1005.69 659.672C1012.75 652.612 1016.72 643.035 1016.72 633.05H979.062" fill="#FFB47F"/>
<path opacity="0.5" d="M1054.38 633.05H1016.72V670.7H1054.38V633.05Z" fill="#52C8B4"/>
<path opacity="0.5" d="M1016.72 633.05C1016.72 643.035 1020.69 652.612 1027.75 659.672C1034.81 666.733 1044.39 670.7 1054.38 670.7V633.05" fill="#E0F5F2"/>
<path opacity="0.5" d="M150.625 670.7H75.3125V746H150.625V670.7Z" fill="white"/>
<path opacity="0.5" d="M112.969 670.7H75.3125V708.35H112.969V670.7Z" fill="#FFD6B9"/>
<path opacity="0.5" d="M94.1406 708.35C104.539 708.35 112.969 699.922 112.969 689.525C112.969 679.128 104.539 670.7 94.1406 670.7C83.7421 670.7 75.3125 679.128 75.3125 689.525C75.3125 699.922 83.7421 708.35 94.1406 708.35Z" fill="#D2F1EC"/>
<path opacity="0.5" d="M70.6562 759H33V796.65H70.6562V759Z" fill="#91DCCF"/>
<path opacity="0.5" d="M48.8281 606.65C59.2266 606.65 67.6562 598.222 67.6562 587.825C67.6562 577.428 59.2266 569 48.8281 569C38.4296 569 30 577.428 30 587.825C30 598.222 38.4296 606.65 48.8281 606.65Z" fill="#7BD5C6"/>
<path opacity="0.5" d="M183.656 703H146V740.65H183.656V703Z" fill="#FFBD8F"/>
<path opacity="0.5" d="M134.656 784H97V821.65H134.656V784Z" fill="#FFA86B"/>
<path opacity="0.5" d="M376.562 670.7H301.25V746H376.562V670.7Z" fill="white"/>
<path opacity="0.5" d="M376.562 670.7H338.906V708.35H376.562V670.7Z" fill="#97DED2"/>
<path opacity="0.5" d="M433.656 647H396V684.65H433.656V647Z" fill="#FFF4EC"/>
<path opacity="0.5" d="M376.562 708.35H338.906V746H376.562V708.35Z" fill="#BFEBE3"/>
<path opacity="0.5" d="M373.656 796H336V833.65H373.656V796Z" fill="#FFB27B"/>
<path opacity="0.5" d="M527.188 670.7H451.875V746H527.188V670.7Z" fill="white"/>
<path opacity="0.5" d="M489.531 670.7H451.875V708.35H489.531V670.7Z" fill="#F8FDFC"/>
<path opacity="0.5" d="M451.875 708.35C461.862 708.35 471.44 704.384 478.502 697.323C485.564 690.262 489.531 680.686 489.531 670.7H451.875" fill="#6DD1C0"/>
<path opacity="0.5" d="M677.812 670.7H602.5V746H677.812V670.7Z" fill="white"/>
<path opacity="0.5" d="M677.812 708.35H640.156V746H677.812V708.35Z" fill="#FFA361"/>
<path opacity="0.5" d="M640.156 708.35C650.143 708.35 659.721 712.317 666.783 719.378C673.845 726.438 677.813 736.015 677.813 746H640.156" fill="#DFF5F1"/>
<path opacity="0.5" d="M828.438 670.7H753.125V746H828.438V670.7Z" fill="#FF8128"/>
<path opacity="0.5" d="M753.125 670.7H828.438V746L753.125 670.7Z" fill="#FFA361"/>
<path opacity="0.5" d="M903.75 670.7H828.438V746H903.75V670.7Z" fill="white"/>
<path opacity="0.5" d="M866.094 670.7H828.438V708.35H866.094V670.7Z" fill="#5DCCB9"/>
<path opacity="0.5" d="M847.266 708.35C857.664 708.35 866.094 699.922 866.094 689.525C866.094 679.128 857.664 670.7 847.266 670.7C836.867 670.7 828.438 679.128 828.438 689.525C828.438 699.922 836.867 708.35 847.266 708.35Z" fill="#74D3C3"/>
<path opacity="0.5" d="M903.75 708.35H866.094V746H903.75V708.35Z" fill="#E0F5F2"/>
<path opacity="0.5" d="M903.75 708.35H866.094V746H903.75V708.35Z" fill="#6BD1BF"/>
<path opacity="0.5" d="M1129.69 670.7H1054.38V746H1129.69V670.7Z" fill="white"/>
<path opacity="0.5" d="M1092.03 708.35H1054.38V746H1092.03V708.35Z" fill="#91DCCF"/>
<path opacity="0.5" d="M1054.38 708.35H1092.03L1054.38 746V708.35Z" fill="#E4F6F3"/>
<path d="M753.706 800.584C753.475 799.983 753.061 799.432 752.505 799.107C751.909 798.88 751.308 799.062 750.614 799.845C746.462 804.228 740.42 826.137 735.53 853.862H752.367C755.553 827.521 756.198 806.444 753.706 800.584Z" fill="white"/>
<path opacity="0.3" d="M754.996 824.153C754.583 832.642 753.706 842.743 752.367 853.813H741.853C746.97 843.112 751.401 833.056 754.996 824.153Z" fill="#C7C7C7"/>
<path d="M684.104 788.224C684.242 787.303 684.473 786.658 684.931 786.377C685.532 786.057 686.315 786.333 687.423 787.254C693.972 792.7 709.243 819.637 725.386 853.768H705.688C692.081 821.434 683.41 795.467 684.104 788.224Z" fill="white"/>
<path opacity="0.3" d="M720.958 853.813H705.688C699.646 839.468 694.573 826.368 690.885 815.623C690.885 815.623 707.948 839.054 720.958 853.813Z" fill="#C7C7C7"/>
<path d="M683.134 825.723C682.026 825.26 681.287 825.216 680.78 825.585C680.411 825.861 680.273 826.413 680.273 827.151C680.46 831.071 685.901 840.9 694.711 853.861H713.301C699.645 838.64 688.255 827.845 683.134 825.723Z" fill="white"/>
<path opacity="0.3" d="M701.399 853.812H694.711C691.668 849.341 689.038 845.234 686.871 841.634C690.929 845.278 695.819 849.385 701.399 853.812Z" fill="#C7C7C7"/>
<path d="M713.301 853.813C708.455 848.415 703.935 843.619 699.832 839.517" stroke="#C7C7C7" stroke-width="4" stroke-linecap="round" stroke-linejoin="round"/>
<path d="M1135.91 849.751C1143.49 811.335 1147.48 777.488 1145.38 769.256C1145.27 768.611 1144.95 767.966 1144.46 767.534C1143.98 767.209 1143.44 767.427 1142.74 768.233C1138.17 773.505 1129.61 804.015 1122.35 840.768C1121.49 845.284 1120.68 849.319 1120.04 853.035H1135.26C1135.48 851.851 1135.69 850.774 1135.91 849.751Z" fill="white"/>
<path opacity="0.2" d="M1135.91 849.751C1139.35 832.211 1142.1 815.584 1143.82 801.915C1143.82 801.915 1136.93 824.354 1124.56 830.058C1123.8 833.502 1123.1 837.052 1122.4 840.656C1121.54 845.177 1120.74 849.213 1120.09 852.928H1135.32C1135.48 851.851 1135.7 850.774 1135.91 849.751Z" fill="#EFEFEF"/>
<path d="M1168.19 785.613C1169.22 784.914 1169.92 784.861 1170.4 785.399C1170.73 785.831 1170.89 786.636 1170.89 787.713C1170.67 795.891 1160.61 821.609 1145.76 852.928H1126.12C1144.57 817.466 1161.74 789.809 1168.19 785.613Z" fill="white"/>
<path opacity="0.2" d="M1161.36 817.737C1157.22 827.904 1151.89 839.904 1145.76 852.875H1126.12C1128.54 848.3 1130.91 843.833 1133.22 839.526C1148.5 835.117 1161.36 817.737 1161.36 817.737Z" fill="#EFEFEF"/>
<path d="M1183.42 823.655C1184.55 823.17 1185.36 823.117 1185.84 823.495C1186.27 823.922 1186.49 824.514 1186.38 825.11C1186.22 829.141 1180.52 839.42 1171.37 852.875H1152.05C1166.26 837.106 1178.15 825.862 1183.42 823.655Z" fill="white"/>
<path opacity="0.2" d="M1178.31 842.271C1176.32 845.502 1174 849.052 1171.37 852.875H1152.05C1153.23 851.526 1154.42 850.236 1155.6 848.946C1168.3 850.828 1178.31 842.271 1178.31 842.271Z" fill="#EFEFEF"/>
<path d="M938.585 853.479C938.585 853.479 928.551 833.408 906.375 832.87C887.625 832.429 885.227 853.479 885.227 853.479H938.585Z" fill="white"/>
<path opacity="0.3" d="M921.601 841.635C922.825 840.754 923.95 839.775 924.978 838.698C930.607 842.467 935.305 847.508 938.585 853.479H885.227C885.521 851.522 885.961 849.662 886.646 847.802C894.918 849.808 908.773 850.983 921.601 841.635Z" fill="#7D7D7D"/>
<path d="M1138.56 587.501C1149.6 586.612 1159.46 588.716 1169.25 592.311" stroke="white" stroke-width="4" stroke-linecap="round" stroke-linejoin="round"/>
<path d="M1166.07 559.853C1160.23 564.084 1146.93 574.144 1146.93 574.144" stroke="white" stroke-width="4" stroke-linecap="round" stroke-linejoin="round"/>
<path d="M1138.91 546.397C1138.61 552.671 1135.73 564.867 1133.55 569.681" stroke="white" stroke-width="4" stroke-linecap="round" stroke-linejoin="round"/>
<path d="M663 572.382C667.699 573.561 672.793 574.633 684.415 571.047C704.7 564.787 714.088 565.169 714.453 570.037C714.765 574.326 703.784 578.7 698.903 581.948C688.571 588.823 689.536 595.123 699.703 595.497C709.732 595.87 716.736 591.403 723.232 601.165" stroke="white" stroke-width="4" stroke-linecap="round" stroke-linejoin="round"/>
<path opacity="0.5" d="M1324.31 68.2998H1249V143.6H1324.31V68.2998Z" fill="white"/>
<path opacity="0.5" d="M1394.66 0H1357V37.65H1394.66V0Z" fill="#64CEBC"/>
<path opacity="0.5" d="M1429 72.65C1429 62.6646 1432.97 53.0882 1440.03 46.0274C1447.09 38.9667 1456.67 35 1466.66 35V72.65" fill="#68CFBD"/>
<path opacity="0.5" d="M1324.31 105.95H1286.66V143.6H1324.31V105.95Z" fill="#ECF9F7"/>
<path opacity="0.5" d="M1264 68C1264 77.9854 1267.97 87.5618 1275.03 94.6226C1282.09 101.683 1291.67 105.65 1301.66 105.65V68" fill="#FF720D"/>
<path opacity="0.5" d="M1700.88 68.2998H1625.56V143.6H1700.88V68.2998Z" fill="white"/>
<path opacity="0.5" d="M1663.22 68.2998H1625.56V105.95H1663.22V68.2998Z" fill="#FFF3EB"/>
<path opacity="0.5" d="M1553.66 35V72.65H1516L1553.66 35Z" fill="#EAF8F6"/>
<path opacity="0.5" d="M1831.66 71H1794V108.65H1831.66V71Z" fill="#7FD7C8"/>
<path opacity="0.5" d="M1738 44H1775.66L1738 81.65V44Z" fill="#4DC7B2"/>
<path opacity="0.5" d="M1324.31 143.6H1249V218.9H1324.31V143.6Z" fill="white"/>
<path opacity="0.5" d="M1399.62 143.6H1324.31V218.9H1399.62V143.6Z" fill="#FFEEE1"/>
<path opacity="0.5" d="M1324.31 143.6H1399.63V218.9L1324.31 143.6Z" fill="#6DD1C0"/>
<path opacity="0.5" d="M1550.25 143.6H1474.94V218.9H1550.25V143.6Z" fill="#DAF3EF"/>
<path opacity="0.5" d="M1474.94 143.6C1494.91 143.6 1514.07 151.533 1528.19 165.655C1542.32 179.776 1550.25 198.929 1550.25 218.9L1474.94 143.6C1474.94 163.571 1482.87 182.724 1497 196.845C1511.12 210.967 1530.28 218.9 1550.25 218.9" fill="#D7F3EE"/>
<path opacity="0.5" d="M1700.88 143.6H1625.56V218.9H1700.88V143.6Z" fill="white"/>
<path opacity="0.5" d="M1700.88 143.6H1663.22V181.25H1700.88V143.6Z" fill="#CAEEE8"/>
<path opacity="0.5" d="M1663.22 181.25C1673.21 181.25 1682.78 177.283 1689.85 170.223C1696.91 163.162 1700.88 153.585 1700.88 143.6H1663.22" fill="#FF852F"/>
<path opacity="0.5" d="M1324.31 218.9H1249V294.2H1324.31V218.9Z" fill="#FFB988"/>
<path opacity="0.5" d="M1249 218.9H1324.31V294.2L1249 218.9Z" fill="#D6F2ED"/>
<path opacity="0.5" d="M1399.62 294.2H1324.31V369.5H1399.62V294.2Z" fill="#50C8B3"/>
<path opacity="0.5" d="M1399.63 294.2V369.5H1324.31L1399.63 294.2Z" fill="#FF852E"/>
<path opacity="0.5" d="M1474.94 294.2H1399.62V369.5H1474.94V294.2Z" fill="#FFE3CE"/>
<path opacity="0.5" d="M1474.94 294.2H1399.62V369.5H1474.94V294.2Z" fill="#DAF3EF"/>
<path opacity="0.5" d="M1550.25 294.2H1474.94V369.5H1550.25V294.2Z" fill="white"/>
<path opacity="0.5" d="M1512.59 294.2H1474.94V331.85H1512.59V294.2Z" fill="#FF8936"/>
<path opacity="0.5" d="M1493.77 331.85C1504.16 331.85 1512.59 323.422 1512.59 313.025C1512.59 302.628 1504.16 294.2 1493.77 294.2C1483.37 294.2 1474.94 302.628 1474.94 313.025C1474.94 323.422 1483.37 331.85 1493.77 331.85Z" fill="#FF9950"/>
<path opacity="0.5" d="M1512.59 331.85H1474.94V369.5H1512.59V331.85Z" fill="#E3F6F3"/>
<path opacity="0.5" d="M1493.77 369.5C1504.16 369.5 1512.59 361.072 1512.59 350.675C1512.59 340.278 1504.16 331.85 1493.77 331.85C1483.37 331.85 1474.94 340.278 1474.94 350.675C1474.94 361.072 1483.37 369.5 1493.77 369.5Z" fill="#6CD1BF"/>
<path opacity="0.5" d="M1700.88 294.2H1625.56V369.5H1700.88V294.2Z" fill="white"/>
<path opacity="0.5" d="M1663.22 294.2H1625.56V331.85H1663.22V294.2Z" fill="#C9EEE8"/>
<path opacity="0.5" d="M1625.56 294.2C1635.55 294.2 1645.13 298.167 1652.19 305.228C1659.25 312.288 1663.22 321.865 1663.22 331.85H1625.56" fill="#5CCCB8"/>
<path opacity="0.5" d="M1700.88 294.2H1663.22V331.85H1700.88V294.2Z" fill="#FFE0CA"/>
<path opacity="0.5" d="M1663.22 331.85C1663.22 321.865 1667.19 312.288 1674.25 305.228C1681.31 298.167 1690.89 294.2 1700.88 294.2V331.85" fill="#FFCBA6"/>
<path opacity="0.5" d="M1851.5 294.2H1776.19V369.5H1851.5V294.2Z" fill="#FF974C"/>
<path opacity="0.5" d="M1776.19 294.2L1851.5 369.5H1776.19V294.2Z" fill="#52C9B4"/>
<path opacity="0.5" d="M1324.31 369.5H1249V444.8H1324.31V369.5Z" fill="#A6E3D8"/>
<path opacity="0.5" d="M1324.31 369.5V444.8H1249L1324.31 369.5Z" fill="#FF8935"/>
<path opacity="0.5" d="M1399.62 369.5H1324.31V444.8H1399.62V369.5Z" fill="#FFE9DA"/>
<path opacity="0.5" d="M1399.62 369.5H1324.31V444.8H1399.62V369.5Z" fill="#FF8B38"/>
<path opacity="0.5" d="M1851.5 369.5H1776.19V444.8H1851.5V369.5Z" fill="white"/>
<path opacity="0.5" d="M1813.84 407.15H1776.19V444.8H1813.84V407.15Z" fill="#FF852F"/>
<path opacity="0.5" d="M1776.19 407.15H1813.84V444.8L1776.19 407.15Z" fill="#FFEADB"/>
<path opacity="0.5" d="M1851 101C1851 120.971 1858.93 140.124 1873.06 154.245C1887.18 168.367 1906.34 176.3 1926.31 176.3V101" fill="#FFF6F0"/>
<path opacity="0.5" d="M1550.25 444.8H1474.94V520.1H1550.25V444.8Z" fill="white"/>
<path opacity="0.5" d="M1700.88 444.8H1625.56V520.1H1700.88V444.8Z" fill="white"/>
<path opacity="0.5" d="M1700.88 444.8H1663.22V482.45H1700.88V444.8Z" fill="#96DED2"/>
<path opacity="0.5" d="M1663.22 444.8H1700.88L1663.22 482.45V444.8Z" fill="#FFF4ED"/>
<path opacity="0.5" d="M1700.88 482.45H1663.22V520.1H1700.88V482.45Z" fill="#C6EDE6"/>
<path opacity="0.5" d="M1663.22 482.45L1700.88 520.1H1663.22V482.45Z" fill="#7CD6C6"/>
<path opacity="0.5" d="M1776.19 520.1H1700.88V595.4H1776.19V520.1Z" fill="white"/>
<path opacity="0.5" d="M1738.53 520.1H1700.88V557.75H1738.53V520.1Z" fill="#B9E9E1"/>
<path opacity="0.5" d="M1738.53 520.1V557.75H1700.88L1738.53 520.1Z" fill="#FF9549"/>
<path opacity="0.5" d="M1738.53 557.75H1700.88V595.4H1738.53V557.75Z" fill="#FFCDA9"/>
<path opacity="0.5" d="M1700.88 557.75H1738.53V595.4L1700.88 557.75Z" fill="#FFAA6E"/>
<path opacity="0.5" d="M1542.88 836H1580.53V873.65L1542.88 836Z" fill="#FFAA6E"/>
<path opacity="0.5" d="M1776.19 557.75H1738.53V595.4H1776.19V557.75Z" fill="#72D3C2"/>
<path opacity="0.5" d="M1738.53 557.75L1776.19 595.4H1738.53V557.75Z" fill="#FFBC8D"/>
<path opacity="0.5" d="M1474.94 595.4H1399.62V670.7H1474.94V595.4Z" fill="#F5FCFB"/>
<path opacity="0.5" d="M1548 591H1503V636H1548V591Z" fill="#FF6B02"/>
<path opacity="0.5" d="M1547 901H1502V946H1547V901Z" fill="#FF6B02"/>
<path opacity="0.5" d="M1390 869.25H1345V914.25H1390V869.25Z" fill="#FF6B02"/>
<path opacity="0.5" d="M1813.31 760H1738V835.3H1813.31V760Z" fill="#FF7B1C"/>
<path opacity="0.5" d="M1812.31 1070H1737V1145.3H1812.31V1070Z" fill="#FF7B1C"/>
<path opacity="0.5" d="M1436 736L1511.31 811.3H1436V736Z" fill="#96DED2"/>
<path opacity="0.5" d="M1278 1014.25L1353.31 1089.55H1278V1014.25Z" fill="#96DED2"/>
<path opacity="0.5" d="M1029 964L1104.31 1039.3H1029V964Z" fill="#96DED2"/>
<path opacity="0.5" d="M134 945L209.313 1020.3H134V945Z" fill="#96DED2"/>
<path opacity="0.5" d="M1851.5 595.4H1776.19V670.7H1851.5V595.4Z" fill="white"/>
<path opacity="0.5" d="M1926.81 595.4H1851.5V670.7H1926.81V595.4Z" fill="#8BDBCD"/>
<path opacity="0.5" d="M1851.5 595.4C1871.47 595.4 1890.63 603.333 1904.75 617.455C1918.88 631.576 1926.81 650.729 1926.81 670.7L1851.5 595.4C1851.5 615.371 1859.43 634.524 1873.56 648.645C1887.68 662.767 1906.84 670.7 1926.81 670.7" fill="#FFA565"/>
<path opacity="0.5" d="M1399.62 670.7H1324.31V746H1399.62V670.7Z" fill="white"/>
<path opacity="0.5" d="M1361.97 670.7H1324.31V708.35H1361.97V670.7Z" fill="#FFD6B9"/>
<path opacity="0.5" d="M1343.14 708.35C1353.54 708.35 1361.97 699.922 1361.97 689.525C1361.97 679.128 1353.54 670.7 1343.14 670.7C1332.74 670.7 1324.31 679.128 1324.31 689.525C1324.31 699.922 1332.74 708.35 1343.14 708.35Z" fill="#D2F1EC"/>
<path opacity="0.5" d="M1319.66 759H1282V796.65H1319.66V759Z" fill="#91DCCF"/>
<path opacity="0.5" d="M1297.83 606.65C1308.23 606.65 1316.66 598.222 1316.66 587.825C1316.66 577.428 1308.23 569 1297.83 569C1287.43 569 1279 577.428 1279 587.825C1279 598.222 1287.43 606.65 1297.83 606.65Z" fill="#7BD5C6"/>
<path opacity="0.5" d="M1432.66 703H1395V740.65H1432.66V703Z" fill="#FFBD8F"/>
<path opacity="0.5" d="M1025.66 931H988V968.65H1025.66V931Z" fill="#FFBD8F"/>
<path opacity="0.5" d="M130.656 912H93V949.65H130.656V912Z" fill="#FFBD8F"/>
<path opacity="0.5" d="M1383.66 784H1346V821.65H1383.66V784Z" fill="#FFA86B"/>
<path opacity="0.5" d="M1225.66 1062.25H1188V1099.9H1225.66V1062.25Z" fill="#FFA86B"/>
<path opacity="0.5" d="M976.656 1012H939V1049.65H976.656V1012Z" fill="#FFA86B"/>
<path opacity="0.5" d="M81.6562 993H44V1030.65H81.6562V993Z" fill="#FFA86B"/>
<path opacity="0.5" d="M1625.56 670.7H1550.25V746H1625.56V670.7Z" fill="white"/>
<path opacity="0.5" d="M1625.56 670.7H1587.91V708.35H1625.56V670.7Z" fill="#97DED2"/>
<path opacity="0.5" d="M1682.66 647H1645V684.65H1682.66V647Z" fill="#FFF4EC"/>
<path opacity="0.5" d="M1625.56 708.35H1587.91V746H1625.56V708.35Z" fill="#BFEBE3"/>
<path opacity="0.5" d="M1467.56 986.6H1429.91V1024.25H1467.56V986.6Z" fill="#BFEBE3"/>
<path opacity="0.5" d="M1622.66 796H1585V833.65H1622.66V796Z" fill="#FFB27B"/>
<path opacity="0.5" d="M1464.66 1074.25H1427V1111.9H1464.66V1074.25Z" fill="#FFB27B"/>
<path opacity="0.5" d="M1776.19 670.7H1700.88V746H1776.19V670.7Z" fill="white"/>
<path opacity="0.5" d="M1738.53 670.7H1700.88V708.35H1738.53V670.7Z" fill="#F8FDFC"/>
<path opacity="0.5" d="M1700.88 708.35C1710.86 708.35 1720.44 704.384 1727.5 697.323C1734.56 690.262 1738.53 680.686 1738.53 670.7H1700.88" fill="#6DD1C0"/>
<path opacity="0.5" d="M1699.88 1018.35C1709.86 1018.35 1719.44 1014.38 1726.5 1007.32C1733.56 1000.26 1737.53 990.686 1737.53 980.7H1699.88" fill="#6DD1C0"/>
<path opacity="0.5" d="M1926.81 670.7H1851.5V746H1926.81V670.7Z" fill="white"/>
<path opacity="0.5" d="M1926.81 708.35H1889.16V746H1926.81V708.35Z" fill="#FFA361"/>
<path opacity="0.5" d="M1889.16 708.35C1899.14 708.35 1908.72 712.317 1915.78 719.378C1922.85 726.438 1926.81 736.015 1926.81 746H1889.16" fill="#DFF5F1"/>
<path opacity="0.5" d="M1888.16 1018.35C1898.14 1018.35 1907.72 1022.32 1914.78 1029.38C1921.85 1036.44 1925.81 1046.01 1925.81 1056H1888.16" fill="#DFF5F1"/>
<path d="M1912 572.382C1916.7 573.561 1921.79 574.633 1933.42 571.047C1953.7 564.787 1963.09 565.169 1963.45 570.037C1963.76 574.326 1952.78 578.7 1947.9 581.948C1937.57 588.823 1938.54 595.123 1948.7 595.497C1958.73 595.87 1965.74 591.403 1972.23 601.165" stroke="white" stroke-width="4" stroke-linecap="round" stroke-linejoin="round"/>
<path opacity="0.5" d="M356.448 1037.94C346.781 1035.43 338.505 1029.19 333.44 1020.59C328.375 1011.98 326.937 1001.71 329.44 992.045L365.888 1001.48" fill="#FFCBA6"/>
<path opacity="0.5" d="M457.664 947.454L467.104 911L503.552 920.439L457.664 947.454Z" fill="#FFEADB"/>
<path opacity="0.5" d="M594.014 1021.66L584.574 1058.12L621.021 1067.55L630.462 1031.1L594.014 1021.66Z" fill="#FFCDA9"/>
<path opacity="0.5" d="M594.014 1021.66L639.902 994.647L630.462 1031.1L594.014 1021.66Z" fill="#FFBC8D"/>
</g>
<defs>
<clipPath id="clip0_299_722">
<rect width="1920" height="1080" fill="white"/>
</clipPath>
</defs>
</svg>
