<svg width="167" height="26" viewBox="0 0 167 26" fill="none" xmlns="http://www.w3.org/2000/svg">
<path d="M7.703 3.362C9.97633 3.362 11.9707 3.80633 13.686 4.695C15.422 5.58367 16.755 6.85467 17.685 8.508C18.6357 10.1407 19.111 12.042 19.111 14.212C19.111 16.382 18.6357 18.2833 17.685 19.916C16.755 21.528 15.422 22.7783 13.686 23.667C11.9707 24.5557 9.97633 25 7.703 25H0.139V3.362H7.703ZM7.548 21.311C9.82133 21.311 11.578 20.691 12.818 19.451C14.058 18.211 14.678 16.4647 14.678 14.212C14.678 11.9593 14.058 10.2027 12.818 8.942C11.578 7.66067 9.82133 7.02 7.548 7.02H4.479V21.311H7.548ZM22.0807 5.78C21.316 5.78 20.6754 5.54233 20.1587 5.067C19.6627 4.571 19.4147 3.96133 19.4147 3.238C19.4147 2.51467 19.6627 1.91533 20.1587 1.44C20.6754 0.943999 21.316 0.695999 22.0807 0.695999C22.8454 0.695999 23.4757 0.943999 23.9717 1.44C24.4884 1.91533 24.7467 2.51467 24.7467 3.238C24.7467 3.96133 24.4884 4.571 23.9717 5.067C23.4757 5.54233 22.8454 5.78 22.0807 5.78ZM24.2197 7.826V25H19.8797V7.826H24.2197ZM30.3676 10.492C30.9256 9.58267 31.649 8.86967 32.5376 8.353C33.447 7.83633 34.4803 7.578 35.6376 7.578V12.135H34.4906C33.1266 12.135 32.0933 12.4553 31.3906 13.096C30.7086 13.7367 30.3676 14.8527 30.3676 16.444V25H26.0276V7.826H30.3676V10.492ZM52.0458 16.041C52.0458 16.661 52.0045 17.219 51.9218 17.715H39.3668C39.4702 18.955 39.9042 19.9263 40.6688 20.629C41.4335 21.3317 42.3738 21.683 43.4898 21.683C45.1018 21.683 46.2488 20.9907 46.9308 19.606H51.6118C51.1158 21.2593 50.1652 22.6233 48.7598 23.698C47.3545 24.752 45.6288 25.279 43.5828 25.279C41.9295 25.279 40.4415 24.9173 39.1188 24.194C37.8168 23.45 36.7938 22.4063 36.0498 21.063C35.3265 19.7197 34.9648 18.1697 34.9648 16.413C34.9648 14.6357 35.3265 13.0753 36.0498 11.732C36.7732 10.3887 37.7858 9.35533 39.0878 8.632C40.3898 7.90867 41.8882 7.547 43.5828 7.547C45.2155 7.547 46.6725 7.89833 47.9538 8.601C49.2558 9.30367 50.2582 10.306 50.9608 11.608C51.6842 12.8893 52.0458 14.367 52.0458 16.041ZM47.5508 14.801C47.5302 13.685 47.1272 12.7963 46.3418 12.135C45.5565 11.453 44.5955 11.112 43.4588 11.112C42.3842 11.112 41.4748 11.4427 40.7308 12.104C40.0075 12.7447 39.5632 13.6437 39.3978 14.801H47.5508ZM51.6177 16.413C51.6177 14.6357 51.9793 13.0857 52.7027 11.763C53.426 10.4197 54.4283 9.38633 55.7097 8.663C56.991 7.919 58.4583 7.547 60.1117 7.547C62.2403 7.547 63.997 8.08433 65.3817 9.159C66.787 10.213 67.7273 11.701 68.2027 13.623H63.5217C63.2737 12.879 62.85 12.3003 62.2507 11.887C61.672 11.453 60.9487 11.236 60.0807 11.236C58.8407 11.236 57.859 11.6907 57.1357 12.6C56.4123 13.4887 56.0507 14.7597 56.0507 16.413C56.0507 18.0457 56.4123 19.3167 57.1357 20.226C57.859 21.1147 58.8407 21.559 60.0807 21.559C61.8373 21.559 62.9843 20.7737 63.5217 19.203H68.2027C67.7273 21.063 66.787 22.5407 65.3817 23.636C63.9763 24.7313 62.2197 25.279 60.1117 25.279C58.4583 25.279 56.991 24.9173 55.7097 24.194C54.4283 23.45 53.426 22.4167 52.7027 21.094C51.9793 19.7507 51.6177 18.1903 51.6177 16.413ZM73.9551 11.391V19.699C73.9551 20.2777 74.0894 20.7013 74.3581 20.97C74.6474 21.218 75.1228 21.342 75.7841 21.342H77.7991V25H75.0711C71.4131 25 69.5841 23.2227 69.5841 19.668V11.391H67.5381V7.826H69.5841V3.579H73.9551V7.826H77.7991V11.391H73.9551ZM77.3246 16.413C77.3246 14.6357 77.6863 13.0857 78.4096 11.763C79.133 10.4197 80.1353 9.38633 81.4166 8.663C82.698 7.919 84.1653 7.547 85.8186 7.547C87.9473 7.547 89.704 8.08433 91.0886 9.159C92.494 10.213 93.4343 11.701 93.9096 13.623H89.2286C88.9806 12.879 88.557 12.3003 87.9576 11.887C87.379 11.453 86.6556 11.236 85.7876 11.236C84.5476 11.236 83.566 11.6907 82.8426 12.6C82.1193 13.4887 81.7576 14.7597 81.7576 16.413C81.7576 18.0457 82.1193 19.3167 82.8426 20.226C83.566 21.1147 84.5476 21.559 85.7876 21.559C87.5443 21.559 88.6913 20.7737 89.2286 19.203H93.9096C93.4343 21.063 92.494 22.5407 91.0886 23.636C89.6833 24.7313 87.9266 25.279 85.8186 25.279C84.1653 25.279 82.698 24.9173 81.4166 24.194C80.1353 23.45 79.133 22.4167 78.4096 21.094C77.6863 19.7507 77.3246 18.1903 77.3246 16.413ZM102.235 25.279C100.582 25.279 99.0937 24.9173 97.7711 24.194C96.4484 23.45 95.4047 22.4063 94.6401 21.063C93.8961 19.7197 93.5241 18.1697 93.5241 16.413C93.5241 14.6563 93.9064 13.1063 94.6711 11.763C95.4564 10.4197 96.5207 9.38633 97.8641 8.663C99.2074 7.919 100.706 7.547 102.359 7.547C104.012 7.547 105.511 7.919 106.854 8.663C108.197 9.38633 109.251 10.4197 110.016 11.763C110.801 13.1063 111.194 14.6563 111.194 16.413C111.194 18.1697 110.791 19.7197 109.985 21.063C109.2 22.4063 108.125 23.45 106.761 24.194C105.418 24.9173 103.909 25.279 102.235 25.279ZM102.235 21.497C103.02 21.497 103.754 21.311 104.436 20.939C105.139 20.5463 105.697 19.9677 106.11 19.203C106.523 18.4383 106.73 17.5083 106.73 16.413C106.73 14.7803 106.296 13.53 105.428 12.662C104.581 11.7733 103.537 11.329 102.297 11.329C101.057 11.329 100.013 11.7733 99.1661 12.662C98.3394 13.53 97.9261 14.7803 97.9261 16.413C97.9261 18.0457 98.3291 19.3063 99.1351 20.195C99.9617 21.063 100.995 21.497 102.235 21.497ZM110.782 16.351C110.782 14.615 111.123 13.0753 111.805 11.732C112.507 10.3887 113.458 9.35533 114.657 8.632C115.855 7.90867 117.188 7.547 118.656 7.547C119.772 7.547 120.836 7.795 121.849 8.291C122.861 8.76633 123.667 9.407 124.267 10.213V2.06H128.669V25H124.267V22.458C123.729 23.3053 122.975 23.9873 122.004 24.504C121.032 25.0207 119.906 25.279 118.625 25.279C117.178 25.279 115.855 24.907 114.657 24.163C113.458 23.419 112.507 22.3753 111.805 21.032C111.123 19.668 110.782 18.1077 110.782 16.351ZM124.298 16.413C124.298 15.359 124.091 14.46 123.678 13.716C123.264 12.9513 122.706 12.3727 122.004 11.98C121.301 11.5667 120.547 11.36 119.741 11.36C118.935 11.36 118.191 11.5563 117.509 11.949C116.827 12.3417 116.269 12.9203 115.835 13.685C115.421 14.429 115.215 15.3177 115.215 16.351C115.215 17.3843 115.421 18.2937 115.835 19.079C116.269 19.8437 116.827 20.4327 117.509 20.846C118.211 21.2593 118.955 21.466 119.741 21.466C120.547 21.466 121.301 21.2697 122.004 20.877C122.706 20.4637 123.264 19.885 123.678 19.141C124.091 18.3763 124.298 17.467 124.298 16.413ZM146.392 16.041C146.392 16.661 146.351 17.219 146.268 17.715H133.713C133.817 18.955 134.251 19.9263 135.015 20.629C135.78 21.3317 136.72 21.683 137.836 21.683C139.448 21.683 140.595 20.9907 141.277 19.606H145.958C145.462 21.2593 144.512 22.6233 143.106 23.698C141.701 24.752 139.975 25.279 137.929 25.279C136.276 25.279 134.788 24.9173 133.465 24.194C132.163 23.45 131.14 22.4063 130.396 21.063C129.673 19.7197 129.311 18.1697 129.311 16.413C129.311 14.6357 129.673 13.0753 130.396 11.732C131.12 10.3887 132.132 9.35533 133.434 8.632C134.736 7.90867 136.235 7.547 137.929 7.547C139.562 7.547 141.019 7.89833 142.3 8.601C143.602 9.30367 144.605 10.306 145.307 11.608C146.031 12.8893 146.392 14.367 146.392 16.041ZM141.897 14.801C141.877 13.685 141.474 12.7963 140.688 12.135C139.903 11.453 138.942 11.112 137.805 11.112C136.731 11.112 135.821 11.4427 135.077 12.104C134.354 12.7447 133.91 13.6437 133.744 14.801H141.897ZM153.652 25.279C152.247 25.279 150.986 25.031 149.87 24.535C148.754 24.0183 147.866 23.326 147.204 22.458C146.564 21.59 146.212 20.629 146.15 19.575H150.521C150.604 20.2363 150.924 20.784 151.482 21.218C152.061 21.652 152.774 21.869 153.621 21.869C154.448 21.869 155.089 21.7037 155.543 21.373C156.019 21.0423 156.256 20.6187 156.256 20.102C156.256 19.544 155.967 19.1307 155.388 18.862C154.83 18.5727 153.931 18.2627 152.691 17.932C151.41 17.622 150.356 17.3017 149.529 16.971C148.723 16.6403 148.021 16.134 147.421 15.452C146.843 14.77 146.553 13.8503 146.553 12.693C146.553 11.7423 146.822 10.8743 147.359 10.089C147.917 9.30367 148.703 8.68367 149.715 8.229C150.749 7.77433 151.958 7.547 153.342 7.547C155.388 7.547 157.021 8.06367 158.24 9.097C159.46 10.1097 160.131 11.484 160.255 13.22H156.101C156.039 12.538 155.75 12.0007 155.233 11.608C154.737 11.1947 154.066 10.988 153.218 10.988C152.433 10.988 151.823 11.1327 151.389 11.422C150.976 11.7113 150.769 12.1143 150.769 12.631C150.769 13.2097 151.059 13.654 151.637 13.964C152.216 14.2533 153.115 14.553 154.334 14.863C155.574 15.173 156.597 15.4933 157.403 15.824C158.209 16.1547 158.902 16.6713 159.48 17.374C160.08 18.056 160.39 18.9653 160.41 20.102C160.41 21.094 160.131 21.9827 159.573 22.768C159.036 23.5533 158.251 24.1733 157.217 24.628C156.205 25.062 155.016 25.279 153.652 25.279ZM163.415 25.217C162.629 25.217 161.978 24.9793 161.462 24.504C160.966 24.008 160.718 23.3983 160.718 22.675C160.718 21.9517 160.966 21.3523 161.462 20.877C161.978 20.381 162.629 20.133 163.415 20.133C164.179 20.133 164.81 20.381 165.306 20.877C165.802 21.3523 166.05 21.9517 166.05 22.675C166.05 23.3983 165.802 24.008 165.306 24.504C164.81 24.9793 164.179 25.217 163.415 25.217Z" fill="url(#paint0_linear_21_484)"/>
<defs>
<linearGradient id="paint0_linear_21_484" x1="30.5" y1="14" x2="149.967" y2="15.9788" gradientUnits="userSpaceOnUse">
<stop stop-color="#007965"/>
<stop offset="0.958333" stop-color="#F6C34C"/>
</linearGradient>
</defs>
</svg>
