<svg width="848" height="507" viewBox="0 0 848 507" fill="none" xmlns="http://www.w3.org/2000/svg">
<path d="M666.732 31.9722H416.686C403.295 31.9722 392.398 42.8105 392.398 56.26V216.845C392.398 230.243 403.243 241.139 416.686 241.139H666.783C680.181 241.139 691.078 230.295 691.078 216.845V56.26C691.026 42.8105 680.129 31.9722 666.732 31.9722Z" fill="#F1F9F4"/>
<path d="M421.792 70.1357C426.633 70.1357 430.562 66.2062 430.562 61.3654C430.562 56.5247 426.633 52.5952 421.792 52.5952C416.945 52.5952 413.022 56.5247 413.022 61.3654C413.022 66.2062 416.945 70.1357 421.792 70.1357Z" fill="#4DC7B2"/>
<path d="M447.999 70.1357C452.84 70.1357 456.769 66.2062 456.769 61.3654C456.769 56.5247 452.84 52.5952 447.999 52.5952C443.152 52.5952 439.229 56.5247 439.229 61.3654C439.229 66.2062 443.152 70.1357 447.999 70.1357Z" fill="#FF6A00"/>
<path d="M474.2 70.1357C479.047 70.1357 482.977 66.2062 482.977 61.3654C482.977 56.5247 479.047 52.5952 474.2 52.5952C469.359 52.5952 465.43 56.5247 465.43 61.3654C465.43 66.2062 469.359 70.1357 474.2 70.1357Z" fill="#FECC2A"/>
<path d="M504.052 142.211H471.712V211.345H504.052V142.211Z" fill="#FF6A00"/>
<path d="M556.234 84.1221H523.894V211.345H556.234V84.1221Z" fill="#4DC7B2"/>
<path d="M608.416 108.1H576.076V211.345H608.416V108.1Z" fill="#CECECE"/>
<path d="M117.955 239.653H78.2534V339.357H117.955V239.653Z" fill="white"/>
<path opacity="0.3" d="M78.2534 239.653H86.1059L100.576 339.357H78.2534V239.653Z" fill="#222222"/>
<path d="M290.885 259.068H262.655V339.357H290.885V259.068Z" fill="#CECECE"/>
<path opacity="0.3" d="M262.655 259.068H265.828L276.77 339.357H262.655V259.068Z" fill="#222222"/>
<path d="M240.596 239.653H214.131V339.357H240.596V239.653Z" fill="#CECECE"/>
<path d="M333.237 239.653H290.885V339.357H333.237V239.653Z" fill="white"/>
<path d="M355.734 239.653H333.237V339.357H355.734V239.653Z" fill="#CECECE"/>
<path opacity="0.3" d="M333.237 239.653H336.856L346.298 339.357H333.237V239.653Z" fill="#020202"/>
<path d="M378.238 239.653H355.734V339.357H378.238V239.653Z" fill="#FF6A00"/>
<path d="M189.778 239.427L139.923 325.765L164.372 339.887L214.227 253.542L189.778 239.427Z" fill="#CECECE"/>
<path opacity="0.3" d="M209.716 250.77L214.215 253.419L164.366 339.706L139.923 325.591L145.222 316.504L209.716 250.77Z" fill="#222222"/>
<path d="M140.013 224.659H117.955V339.357H140.013V224.659Z" fill="#CECECE"/>
<path d="M262.655 224.659H240.596V339.357H262.655V224.659Z" fill="#FF6A00"/>
<path d="M106.484 400.942H78.2534V500.64H106.484V400.942Z" fill="white"/>
<path opacity="0.3" d="M78.2534 400.942H87.7798L103.401 500.64H78.2534V400.942Z" fill="#222222"/>
<path d="M134.72 400.942H106.484V500.64H134.72V400.942Z" fill="#CECECE"/>
<path d="M156.779 382.413H134.72V500.64H156.779V382.413Z" fill="white"/>
<path d="M209.716 382.413H156.778V500.64H209.716V382.413Z" fill="#CECECE"/>
<path opacity="0.3" d="M156.778 382.413H161.632L174.603 500.64H156.778V382.413Z" fill="#020202"/>
<path d="M236.182 417.701H209.716V500.64H236.182V417.701Z" fill="#FF6A00"/>
<path opacity="0.3" d="M209.716 417.701H216.244L228.246 500.64H209.716V417.701Z" fill="black"/>
<path d="M307.65 400.942H281.184V500.64H307.65V400.942Z" fill="#FF6A00"/>
<path d="M334.122 400.942H307.65V500.64H334.122V400.942Z" fill="#CECECE"/>
<path d="M281.184 400.942H236.183V500.64H281.184V400.942Z" fill="white"/>
<path d="M378.238 400.942H334.122V500.64H378.238V400.942Z" fill="#CECECE"/>
<path d="M78.2534 339.357H378.238" stroke="#222222" stroke-width="4" stroke-linecap="round" stroke-linejoin="round"/>
<path d="M78.2534 207.009V499.315H378.238V207.009" stroke="#222222" stroke-width="4" stroke-linecap="round" stroke-linejoin="round"/>
<path opacity="0.3" d="M334.122 400.942H337.916L353.621 500.64H334.122V400.942Z" fill="#020202"/>
<path d="M414.373 343.719L413.862 336.642C436.211 313.576 451.38 299.636 458.967 295.124C481.213 281.901 511.046 272.058 522.937 272.058C526.421 272.058 528.373 272.879 528.573 274.624C529.497 281.901 505.61 293.076 502.127 294.614C509.1 298.304 507.459 306.913 507.148 308.147C514.839 315.011 510.535 321.881 509.818 322.909C510.735 323.93 516.584 331.214 508.583 339.208C503.665 344.127 498.947 345.154 495.974 345.154C494.132 345.154 492.898 344.741 492.49 344.644C484.696 357.763 470.142 361.861 468.81 362.171C468.5 362.889 466.348 367.807 462.864 374.884L455.787 376.525L414.373 343.719Z" fill="#E59763"/>
<path d="M214.156 301.484V301.277C211.08 287.847 206.465 266.83 201.954 243.253C198.167 223.056 200.726 206.446 209.542 195.168C217.44 185.022 229.945 179.386 246.652 178.255C248.294 178.151 249.832 178.151 251.37 178.151C283.866 178.151 295.557 200.197 302.221 219.469C303.242 222.545 304.373 225.622 305.297 228.692C306.525 228.795 314.52 229.616 315.547 233.616C316.568 237.514 311.243 243.149 310.422 243.97C314.216 256.579 315.34 263.96 315.651 268.058C315.851 271.134 315.748 278.825 310.112 284.978C305.09 290.407 297.095 293.076 286.328 293.076C283.355 293.076 280.175 292.869 276.899 292.462L278.534 301.995L214.156 301.484Z" fill="#E59763"/>
<path opacity="0.2" d="M262.751 288.668C262.751 288.668 270.746 291.434 275.257 292.152L276.899 292.462L278.437 301.581L273.409 307.734L262.751 288.668Z" fill="#030202"/>
<path d="M131.017 465.507C127.527 444.903 139.936 387.079 163.616 352.328C186.269 319.115 214.053 312.859 216.819 312.348C216.619 311.424 215.591 307.43 214.157 301.277L214.053 301.07L278.334 300.863L279.872 309.375C293.916 310.092 307.546 313.065 320.673 318.19C340.869 326.185 376.235 370.476 378.904 373.753C380.642 371.807 396.431 354.48 413.862 336.539L413.959 336.442L462.968 374.677L462.864 374.884C450.662 399.591 418.884 456.995 388.023 458.126C387.306 458.126 386.485 458.126 385.768 458.126C365.674 458.126 347.429 448.077 335.641 439.675C324.156 431.473 316.465 423.168 314.934 421.527L299.552 484.78L196.629 485.394C196.629 485.394 188.221 501.183 170.687 501.183C147.42 501.183 134.811 488.166 131.017 465.507Z" fill="#FF6A00"/>
<path opacity="0.2" d="M153.159 498.003C158.181 500.058 163.926 501.183 170.687 501.183C188.221 501.183 196.629 485.394 196.629 485.394L185.455 433.012L185.248 433.212C179.198 437.109 177.66 445.414 175.818 455.154C173.149 468.894 169.872 485.808 153.159 498.003Z" fill="#383838"/>
<path opacity="0.2" d="M303.042 408.51L314.933 421.527L299.552 484.78L272.181 484.986L303.042 408.51Z" fill="#383838"/>
<path d="M122.505 342.285C119.636 303.739 140.136 289.792 159.926 276.162C175.198 265.705 189.655 255.862 193.242 235.562C200.623 194.354 213.129 180.717 246.756 176.923C249.011 176.716 251.267 176.516 253.522 176.516C279.355 176.516 291.247 193.733 295.965 204.191C295.965 204.191 294.123 216.496 275.871 216.496C274.54 216.496 273.105 216.393 271.67 216.289C274.54 225.311 273.002 235.155 267.463 242.839L267.359 242.942L267.263 242.839C267.159 242.839 256.288 238.845 246.549 238.845C238.451 238.845 233.429 241.508 231.587 246.84C226.255 262.732 250.756 279.232 250.963 279.439H251.06V279.542C251.163 279.852 259.164 313.783 246.962 342.181L246.859 342.285H122.505Z" fill="#231F20"/>
<path d="M182.682 203.066C206.291 203.066 225.434 183.923 225.434 160.313C225.434 136.704 206.291 117.567 182.682 117.567C159.073 117.567 139.936 136.704 139.936 160.313C139.936 183.923 159.073 203.066 182.682 203.066Z" fill="#231F20"/>
<path d="M248.804 290.206C255.151 290.206 260.289 285.068 260.289 278.721C260.289 272.375 255.151 267.243 248.804 267.243C242.471 267.243 237.326 272.375 237.326 278.721C237.326 285.068 242.471 290.206 248.804 290.206Z" fill="#FF6A00"/>
<path d="M304.373 255.248C302.731 256.373 297.606 256.58 294.427 252.993" stroke="#030202" stroke-width="4" stroke-linecap="round" stroke-linejoin="round"/>
<path d="M294.426 238.638C292.681 238.638 291.35 237.203 291.35 235.562C291.35 233.92 292.785 232.485 294.426 232.485C296.171 232.485 297.503 233.92 297.503 235.562C297.503 237.203 296.068 238.638 294.426 238.638Z" fill="#231F20"/>
<path d="M277.409 292.662C270.539 291.744 265.11 290.206 265.11 290.206" stroke="#030202" stroke-width="4" stroke-linecap="round" stroke-linejoin="round"/>
<path d="M261.11 262.318L251.881 258.221" stroke="#030202" stroke-width="4" stroke-linecap="round" stroke-linejoin="round"/>
<path d="M173.97 459.154L189.552 454.022" stroke="#383838" stroke-width="4" stroke-linecap="round" stroke-linejoin="round"/>
<path d="M314.83 421.32C307.242 414.043 300.069 405.841 300.069 405.841" stroke="#383838" stroke-width="4" stroke-linecap="round" stroke-linejoin="round"/>
<path d="M378.904 374.166V392.004" stroke="#383838" stroke-width="4" stroke-linecap="round" stroke-linejoin="round"/>
<path d="M413.959 336.746L462.554 374.781" stroke="#383838" stroke-width="4" stroke-linecap="round" stroke-linejoin="round"/>
<path d="M501.513 294.614C495.05 294.304 488.697 295.124 482.544 297.173" stroke="#030202" stroke-width="4" stroke-linecap="round" stroke-linejoin="round"/>
<path d="M506.845 308.147C498.947 306.402 487.669 310.5 487.669 310.5" stroke="#030202" stroke-width="4" stroke-linecap="round" stroke-linejoin="round"/>
<path d="M509.507 322.908C500.995 321.777 491.773 324.854 491.773 324.854" stroke="#030202" stroke-width="4" stroke-linecap="round" stroke-linejoin="round"/>
<path d="M182.682 423.272L196.526 484.78" stroke="#383838" stroke-width="4" stroke-linecap="round" stroke-linejoin="round"/>
<path d="M703.596 442.39C714.81 442.39 725.39 433.258 727.186 422.038L749.852 279.252C750.324 276.712 750.233 274.095 749.587 271.593C748.941 269.086 747.745 266.759 746.097 264.769C744.436 262.868 742.381 261.356 740.073 260.341C737.76 259.327 735.258 258.836 732.738 258.894H516.261C505.054 258.894 494.475 268.019 492.678 279.239L470.012 422.032C469.476 424.539 469.515 427.137 470.135 429.626C470.749 432.12 471.932 434.434 473.586 436.399C475.234 438.364 477.315 439.928 479.661 440.962C482.007 442.002 484.56 442.487 487.126 442.39H703.596Z" fill="#FFCC29"/>
<path opacity="0.15" d="M633.376 442.273L643.232 380.733L574.764 380.694L564.901 442.273H633.376Z" fill="#18160F"/>
<path d="M669.33 477.665L643.342 380.61L574.88 380.584L600.868 477.665H669.33Z" fill="#FFCC29"/>
<path d="M617.226 343.804C624.425 343.804 631.502 338.246 634.831 329.974C636.841 325.191 637.203 319.885 635.858 314.876C635.328 312.724 634.301 310.721 632.866 309.027C631.438 307.34 629.628 305.996 627.592 305.117C626.054 304.503 624.412 304.187 622.758 304.193C615.558 304.193 608.488 309.751 605.153 318.024C600.965 328.429 604.209 339.578 612.391 342.874C613.93 343.488 615.571 343.804 617.226 343.804Z" fill="#E9E5DA"/>
<path d="M659.39 441.685L643.31 381.735H574.874L590.954 441.685" stroke="#18160F" stroke-width="4" stroke-linecap="round" stroke-linejoin="round"/>
<path d="M584.814 477.665L584.846 475.403C584.84 471.867 583.437 468.481 580.942 465.986C578.441 463.491 575.061 462.089 571.526 462.083H352.49C348.955 462.089 345.574 463.491 343.073 465.986C340.579 468.481 339.176 471.867 339.17 475.403V477.665H584.814Z" fill="#FFCC29"/>
<path d="M430.75 477.665L430.782 475.403C430.776 471.867 429.373 468.481 426.872 465.986C424.377 463.491 420.991 462.089 417.462 462.083H352.49C348.955 462.089 345.574 463.491 343.073 465.986C340.579 468.481 339.176 471.867 339.17 475.403V477.665H430.75Z" fill="#18160F"/>
<path d="M187.846 83.3334L266.106 0L344.411 83.4562H196.642L187.846 83.3334Z" fill="#575757"/>
<path d="M266.125 104.913V116.87" stroke="#4DC7B2" stroke-width="4" stroke-linecap="round" stroke-linejoin="round"/>
<path d="M249.839 100.803L241.405 109.237" stroke="#4DC7B2" stroke-width="4" stroke-linecap="round" stroke-linejoin="round"/>
<path d="M282.483 100.803L290.917 109.237" stroke="#4DC7B2" stroke-width="4" stroke-linecap="round" stroke-linejoin="round"/>
<path d="M266.125 75.2999C254.259 75.2999 244.61 65.6443 244.61 53.7847C244.61 41.9252 254.259 32.2695 266.125 32.2695C277.985 32.2695 287.634 41.9252 287.634 53.7847C287.634 65.6443 277.985 75.2999 266.125 75.2999Z" fill="#D7D7D7"/>
<path d="M343.862 82.9198C343.422 82.6612 299.403 57.2554 266.125 57.2554C232.841 57.2554 196.48 80.5349 190.593 80.4251L266.106 0L343.894 82.8939L343.862 82.9198Z" fill="#4DC7B2"/>
<path opacity="0.25" d="M343.862 82.9198C343.648 82.797 321.648 70.0779 297.218 62.6067L266.106 0L343.894 82.8939L343.862 82.9198Z" fill="#0B0B0B"/>
<path d="M710.725 369.403L706.647 373.061C706.576 373.061 706.576 373.132 706.576 373.203L703.137 383.951C703.137 384.022 703.138 384.093 703.273 384.093L714.028 384.022C714.028 384.022 723.018 380.157 723.722 379.802V379.737L716.135 371.161C716.135 371.161 716.063 371.09 715.992 371.09L710.725 369.403Z" fill="#313131"/>
<path d="M730.327 388.727L736.512 379.524L741.431 378.891L746.342 380.157L751.261 390.13C751.261 390.201 751.261 390.201 751.196 390.201L740.797 391.681L730.398 388.798C730.256 388.798 730.256 388.798 730.327 388.727Z" fill="#939393"/>
<path d="M746.278 429.406L714.235 429.968L699.622 412.97C699.551 412.899 699.622 412.828 699.693 412.828H759.837C759.908 412.828 759.908 412.899 759.908 412.97L746.278 429.406Z" fill="black"/>
<path d="M739.252 454.63L723.722 379.738C723.722 379.666 723.651 379.667 723.651 379.667L703.209 383.88C703.138 383.88 703.137 383.951 703.137 383.951L718.59 458.915L739.252 454.63Z" fill="#4DC7B2"/>
<path d="M709.529 363.994L706.511 373.061C706.511 373.132 706.511 373.132 706.576 373.132L715.921 371.161C715.992 371.161 715.992 371.09 715.992 371.026L709.672 363.929C709.672 363.929 709.6 363.929 709.529 363.994Z" fill="#4DC7B2"/>
<path d="M751.196 390.201L730.327 388.798C730.256 388.798 730.256 388.798 730.256 388.869L725.267 465.242L746.278 466.574L751.261 390.201C751.261 390.201 751.261 390.201 751.196 390.201Z" fill="#3C2C5B"/>
<path d="M742.057 371.445L746.278 380.157L736.512 379.524L741.922 371.374C741.922 371.374 741.986 371.374 742.057 371.445Z" fill="#3C2C5B"/>
<path d="M729.694 423.298C718.804 423.369 708.192 419.711 699.622 412.899C699.551 412.828 699.479 412.899 699.479 412.97L703.629 450.766L710.37 473.463L748.734 473.108L755.83 450.203L759.908 412.97C759.908 412.899 759.837 412.899 759.766 412.899C751.196 419.711 740.584 423.369 729.694 423.298Z" fill="#FF6A00"/>
<path d="M755.83 450.203C740.655 437.419 718.59 437.768 703.7 450.765V450.837L706.576 477.328H752.947L755.83 450.203Z" fill="#170A02"/>
<path d="M847.85 476.928H0V507H847.85V476.928Z" fill="#CECECE"/>
</svg>
