<svg width="770" height="554" viewBox="0 0 770 554" fill="none" xmlns="http://www.w3.org/2000/svg">
<path d="M638.54 42.856C711.219 87.4218 767.762 179.104 769.943 272.737C771.978 366.521 719.504 462.405 646.826 499.918C574.147 537.431 481.264 516.574 403.644 500.818C326.023 485.063 263.665 474.409 218.605 436.896C173.544 399.382 145.781 335.01 134.298 258.783C122.815 182.556 127.612 94.4743 172.672 50.0585C217.733 5.49272 303.057 4.44235 390.126 2.79177C477.049 0.991129 565.862 -1.55978 638.54 42.856Z" fill="#4DC7B2"/>
<path d="M481.2 120.84H694.455C704.182 120.84 712.053 128.758 712.053 138.541V455.458C712.053 465.242 704.182 473.159 694.455 473.159H481.2C471.473 473.159 463.602 465.242 463.602 455.458V138.541C463.602 128.758 471.473 120.84 481.2 120.84Z" fill="#00AF91"/>
<path d="M563.005 120.84V473.159" stroke="black" stroke-width="4" stroke-linecap="round" stroke-linejoin="round"/>
<path d="M513.303 120.84V473.159" stroke="black" stroke-width="4" stroke-linecap="round" stroke-linejoin="round"/>
<path d="M612.65 120.84V473.159" stroke="black" stroke-width="4" stroke-linecap="round" stroke-linejoin="round"/>
<path d="M662.352 120.84V473.159" stroke="black" stroke-width="4" stroke-linecap="round" stroke-linejoin="round"/>
<path d="M463.602 372.61H712.053" stroke="black" stroke-width="4" stroke-linecap="round" stroke-linejoin="round"/>
<path d="M463.602 422.941L712.053 423.168" stroke="black" stroke-width="4" stroke-linecap="round" stroke-linejoin="round"/>
<path d="M463.602 271.777L712.053 271.891" stroke="black" stroke-width="4" stroke-linecap="round" stroke-linejoin="round"/>
<path d="M463.771 322.278H712.053" stroke="black" stroke-width="4" stroke-linecap="round" stroke-linejoin="round"/>
<path d="M463.602 221.503L712.053 221.56" stroke="black" stroke-width="4" stroke-linecap="round" stroke-linejoin="round"/>
<path d="M463.602 171.172H712.053" stroke="black" stroke-width="4" stroke-linecap="round" stroke-linejoin="round"/>
<path d="M532.256 32.8059C524.374 32.8059 516.643 33.5694 509.137 35.0454L509.284 35.1415L478.001 301.343L409.397 387.528H655.121V159.019C655.121 89.3466 600.157 32.8851 532.256 32.8059Z" fill="#FFCC29"/>
<path d="M546.605 113.268C546.605 77.7477 532.211 50.2578 509.16 35.0341C456.394 45.4227 416.453 89.8272 410.263 144.603L410.184 145.005C410.105 145.808 410.027 146.532 409.948 147.341C409.948 147.584 409.869 147.821 409.869 148.064C409.791 148.788 409.791 149.433 409.712 150.157C409.712 150.479 409.633 150.802 409.633 151.203C409.554 151.848 409.554 152.492 409.554 153.137C409.554 153.624 409.476 154.025 409.476 154.506C409.476 154.992 409.397 155.558 409.397 156.117C409.397 156.926 409.397 157.729 409.397 158.617C409.397 158.775 409.397 159.019 409.397 159.177V387.528L546.526 341.778V113.268H546.605Z" fill="white"/>
<path d="M186.786 498.013H267.41L280.904 482.631H412.916L362.765 498.013L398.411 527.59L363.046 554H186.786V498.013Z" fill="#DCDCDC"/>
<path d="M362.708 488.173L426.41 490.492V554H363.046L362.708 488.173Z" fill="#ABABAB"/>
<path d="M267.41 442.027H348.034L364.62 422.912L486.681 421.499L443.67 442.027L475.38 474.94L443.67 498.013H267.41V442.027Z" fill="#DCDCDC"/>
<path d="M443.67 434.619L507.09 433.488L507.034 498.013H443.67V434.619Z" fill="#ABABAB"/>
<path d="M348.034 386.041H524.295L568.936 413.185L524.295 442.027H498.039H490.392H356.131H348.034V386.041Z" fill="#DCDCDC"/>
<path d="M587.659 386.041H524.295V442.027H587.659V386.041Z" fill="#ABABAB"/>
<path d="M426.297 498.013H267.41" stroke="#2B211A" stroke-width="4" stroke-linecap="round" stroke-linejoin="round"/>
<path d="M507.259 442.027H347.809" stroke="#2B211A" stroke-width="4" stroke-linecap="round" stroke-linejoin="round"/>
<path d="M587.659 386.041H399.31" stroke="#2B211A" stroke-width="4" stroke-linecap="round" stroke-linejoin="round"/>
<path d="M738 447.343L732.715 452.659C724.057 461.368 712.194 457.353 703.535 454.469C696.676 452.15 691.672 450.68 689.704 452.659C687.736 454.638 689.198 459.671 691.503 466.571C694.371 475.28 698.363 487.212 689.704 495.921C681.046 504.63 669.183 500.615 660.524 497.731C653.665 495.412 648.661 493.942 646.693 495.921C644.725 497.9 646.187 502.934 648.492 509.833C651.36 518.542 655.352 530.474 646.693 539.183C638.035 547.892 626.172 543.877 617.513 540.993C610.654 538.674 605.65 537.204 603.682 539.183L598.397 544.499L587.827 533.867L593.112 528.552C601.771 519.843 613.634 523.858 622.292 526.742C629.152 529.061 634.155 530.531 636.123 528.552C638.091 526.572 636.629 521.539 634.324 514.64C631.457 505.931 627.465 493.998 636.123 485.289C644.782 476.58 656.645 480.596 665.303 483.48C672.162 485.798 677.166 487.269 679.134 485.289C681.102 483.31 679.64 478.277 677.335 471.378C674.468 462.669 670.476 450.736 679.134 442.027C687.793 433.318 699.656 437.333 708.314 440.217C715.173 442.536 720.177 444.006 722.145 442.027L727.43 436.711L738 447.343Z" fill="#F8AA71"/>
<path d="M87.3259 27.0884L149.003 72.1603C149.228 71.9341 149.34 71.3686 149.228 70.9162L128.2 0L88.4504 19.1146C88.0006 19.2842 86.9886 26.7491 87.3259 27.0884Z" fill="#FFBD7A"/>
<path d="M148.835 72.2169L83.8965 39.6995C83.7278 39.5864 83.6154 39.4168 83.6716 39.1905L88.1133 19.3974C88.1695 19.0581 88.563 18.9449 88.8442 19.1712L149.059 71.9341C149.172 72.1038 149.003 72.33 148.835 72.2169Z" fill="#FF6A00"/>
<path d="M34.729 108.45H182.653C201.774 108.45 204.861 119.918 204.861 139.242L217.382 271.291V292.164C217.382 311.398 201.859 327.097 182.653 327.097H34.729C15.6074 327.097 -0.000244141 311.488 -0.000244141 292.164V271.291L21.2691 143.987C21.2691 124.663 15.523 108.45 34.729 108.45Z" fill="#FF6A00"/>
<path d="M34.729 87.5763H182.653C201.774 87.5763 217.382 103.185 217.382 122.508V271.291C217.382 290.524 201.859 306.223 182.653 306.223H34.729C15.6074 306.223 -0.000244141 290.615 -0.000244141 271.291V122.424C-0.000244141 103.185 15.523 87.5763 34.729 87.5763Z" fill="#00AF91"/>
<path d="M162.902 183.913C161.288 183.913 159.674 184.003 158.151 184.275C151.342 156.7 123.658 139.938 96.2432 146.786C77.875 151.378 63.538 165.799 58.9727 184.275C41.5884 181.662 25.2836 193.645 22.6861 211.131C20.0885 228.611 32.0023 245.011 49.3809 247.63C50.9946 247.896 52.5182 247.986 54.1318 247.986H162.902C180.55 247.986 194.797 233.571 194.797 215.904C194.707 198.333 180.46 184.003 162.902 183.913Z" fill="white"/>
<path d="M145.934 192.882H283.136C294.397 192.882 303.556 202.088 303.556 213.421V351.425C303.556 362.752 294.397 371.965 283.136 371.965H145.934C134.666 371.965 125.513 362.752 125.513 351.425V213.421C125.513 202.088 134.666 192.882 145.934 192.882Z" fill="#FF6A00"/>
<path d="M145.652 193.866H286.396C297.281 193.866 306.114 202.756 306.114 213.699V351.753C306.114 362.696 297.281 371.586 286.396 371.586H145.652C134.767 371.586 125.935 362.696 125.935 351.753V213.699C125.935 202.756 134.767 193.866 145.652 193.866Z" fill="#FF6A00"/>
<path d="M153.838 193.866L186.678 231.518L195.46 193.866" stroke="white" stroke-width="4" stroke-linecap="round" stroke-linejoin="round"/>
<path d="M142.256 259.63L186.678 231.518L211.136 272.184L142.256 259.63Z" stroke="white" stroke-width="4" stroke-linecap="round" stroke-linejoin="round"/>
<path d="M216.027 193.866L226.608 217.465L211.136 272.185L288.494 300.8L306.114 272.185" stroke="white" stroke-width="4" stroke-linecap="round" stroke-linejoin="round"/>
<path d="M255.058 193.866L226.609 217.465L306.114 213.699" stroke="white" stroke-width="4" stroke-linecap="round" stroke-linejoin="round"/>
<path d="M211.136 272.185L171.706 345.979L239.585 328.409L211.136 272.185Z" stroke="white" stroke-width="4" stroke-linecap="round" stroke-linejoin="round"/>
<path d="M125.789 228.006L142.256 259.63L125.935 272.184" stroke="white" stroke-width="4" stroke-linecap="round" stroke-linejoin="round"/>
<path d="M125.789 307.122L171.706 345.979L150.741 371.586" stroke="white" stroke-width="4" stroke-linecap="round" stroke-linejoin="round"/>
<path d="M176.693 371.586L171.706 345.979" stroke="white" stroke-width="4" stroke-linecap="round" stroke-linejoin="round"/>
<path d="M231.449 371.586L239.585 328.409L288.494 300.8L306.114 321.882" stroke="white" stroke-width="4" stroke-linecap="round" stroke-linejoin="round"/>
<path d="M239.585 328.409L306.114 339.453" stroke="white" stroke-width="4" stroke-linecap="round" stroke-linejoin="round"/>
<path d="M211.136 278.711C214.717 278.711 217.624 275.787 217.624 272.185C217.624 268.577 214.717 265.658 211.136 265.658C207.549 265.658 204.647 268.577 204.647 272.185C204.647 275.787 207.549 278.711 211.136 278.711Z" fill="white"/>
<path d="M171.706 352.505C175.288 352.505 178.195 349.587 178.195 345.979C178.195 342.377 175.288 339.453 171.706 339.453C168.119 339.453 165.218 342.377 165.218 345.979C165.218 349.587 168.119 352.505 171.706 352.505Z" fill="white"/>
<path d="M288.494 307.326C292.081 307.326 294.982 304.402 294.982 300.8C294.982 297.192 292.081 294.274 288.494 294.274C284.912 294.274 282.005 297.192 282.005 300.8C282.005 304.402 284.912 307.326 288.494 307.326Z" fill="white"/>
<path d="M233.494 226.052C237.075 226.052 239.982 223.128 239.982 219.526C239.982 215.918 237.075 213 233.494 213C229.907 213 227 215.918 227 219.526C227 223.128 229.907 226.052 233.494 226.052Z" fill="white"/>
<path d="M186.678 238.044C190.26 238.044 193.167 235.126 193.167 231.518C193.167 227.916 190.26 224.992 186.678 224.992C183.091 224.992 180.19 227.916 180.19 231.518C180.19 235.126 183.091 238.044 186.678 238.044Z" fill="white"/>
<path d="M142.256 266.162C145.838 266.162 148.744 263.238 148.744 259.63C148.744 256.028 145.838 253.104 142.256 253.104C138.675 253.104 135.768 256.028 135.768 259.63C135.768 263.238 138.675 266.162 142.256 266.162Z" fill="white"/>
<path d="M239.585 334.935C243.166 334.935 246.073 332.017 246.073 328.409C246.073 324.806 243.166 321.882 239.585 321.882C235.998 321.882 233.097 324.806 233.097 328.409C233.097 332.017 235.998 334.935 239.585 334.935Z" fill="white"/>
<path d="M408.632 177.749C433.775 169.362 470.309 155.473 454.51 173.083C454.392 173.202 454.51 173.377 454.628 173.377C456.798 173.321 467.02 173.615 462.966 183.008C465.26 184.959 466.727 189.33 463.028 192.463C463.438 193.114 465.609 197.366 461.853 200.143C462.438 204.164 458.912 206.878 454.1 208.06C451.868 208.829 449.045 208.473 449.045 205.64C441.877 209.186 435.591 209.836 430.598 208.473C430.132 208.773 425.96 211.25 419.848 214.264C419.146 213.914 407.693 196.835 407.693 196.835L408.632 177.749Z" fill="#FFC8B8"/>
<path d="M454.51 173.077L440.409 178.512" stroke="#923F27" stroke-width="4" stroke-linecap="round" stroke-linejoin="round"/>
<path d="M367.51 442.745C367.161 435.298 368.157 424.96 367.802 416.155C365.57 415.979 340.551 413.553 339.842 413.497L314.643 416.33C314.587 416.33 314.469 416.392 314.469 416.511V417.161C314.289 426.436 314.171 434.591 315.115 443.039C316.701 443.746 339.314 453.733 343.013 453.733C356.468 453.733 366.745 443.746 367.51 442.745Z" fill="#FFC8B8"/>
<path d="M289.854 442.87C291.029 435.778 294.791 425.91 296.55 416.16C294.2 415.747 269.765 411.495 268.765 411.376C268.647 411.495 244.386 416.16 244.448 416.454C242.508 425.022 241.451 433.414 240.923 442.808C241.626 443.577 250.852 452.263 260.955 452.263C274.05 452.144 288.561 443.577 289.854 442.87Z" fill="#FFC8B8"/>
<path d="M254.726 378.7C259.78 361.978 261.304 356.9 260.191 337.163C257.66 292.08 258.369 263.6 269.001 232.463C274.466 232.525 339.376 232.406 345.015 232.463C345.189 233.175 364.985 288.121 367.864 353.71C368.921 377.4 368.038 413.384 367.982 416.042C367.982 416.517 314.469 416.454 314.469 416.223C316.403 385.023 319.343 360.621 313.412 340.058C308.768 367.831 302.189 398.137 296.612 416.16C293.379 416.16 248.85 416.279 244.678 416.279C246.854 403.34 252.612 386.499 254.726 378.7Z" fill="#00AF91"/>
<path opacity="0.2" d="M317.758 279.966C336.435 275.476 325.511 399.913 325.039 416.398C323.807 416.398 315.874 416.398 314.643 416.454C314.525 416.454 314.469 416.398 314.469 416.279C314.761 408.718 315.526 399.557 315.874 393.059C319.754 360.796 313.412 340.115 313.412 340.115C317.522 312.823 318.224 307.145 317.758 279.966Z" fill="black"/>
<path opacity="0.2" d="M305.068 232.457H269.119C266.707 238.542 265.301 244.452 263.89 250.418C263.89 250.418 263.772 251.012 263.716 251.13C263.418 251.012 298.136 244.333 305.068 232.457Z" fill="black"/>
<path d="M317.758 279.961C318.753 299.403 316.583 321.204 313.35 340.053" stroke="black" stroke-width="4" stroke-linecap="round" stroke-linejoin="round"/>
<path d="M291.439 468.267C287.504 463.421 287.031 456.391 289.798 443.158C286.621 442.564 244.037 442.921 240.979 442.745C240.102 450.894 240.394 459.762 240.923 468.742C252.083 467.379 261.658 476.422 261.894 487.472C263.243 488.004 277.755 492.257 278.457 492.432C279.632 492.138 307.418 489.242 312.585 487.291C312.647 487.235 312.703 487.178 312.703 487.059C312.293 485.697 309.414 480.087 291.439 468.267Z" fill="white"/>
<path d="M262.068 487.354C262.479 476.365 251.493 466.26 240.979 468.68C240.979 475.828 241.451 481.506 242.862 487.41C242.862 487.472 242.919 487.529 243.037 487.529C245.387 487.529 262.068 487.354 262.068 487.354Z" fill="#E3E3E3"/>
<path d="M394.002 487.178C394.12 487.178 394.182 486.997 394.12 486.878C391.832 483.983 388.774 481.857 385.428 479.317C369.332 468.386 367.802 460.231 367.51 442.977C364.283 442.683 318.286 442.802 315.053 443.158C315.7 451.251 316.521 459.762 318.224 468.623C319.81 469.155 340.725 476.303 341.079 487.291C340.843 487.648 361.696 492.432 362.579 492.732C362.635 492.788 393.946 487.116 394.002 487.178Z" fill="white"/>
<path d="M341.428 487.529C341.428 475.184 329.272 465.785 318.168 468.742C319.343 474.827 320.226 481.325 321.986 487.178C321.986 487.235 322.104 487.291 322.16 487.291C324.336 487.235 339.724 488.004 341.428 487.529Z" fill="#E3E3E3"/>
<path d="M326.276 136.505V133.728C326.276 133.61 326.394 133.547 326.512 133.547C341.838 138.569 351.239 131.896 348.186 113.341C351.885 109.326 353.589 106.544 346.657 104.536C346.308 104.005 346.538 102.766 346.42 102.054C346.308 99.4579 346.19 96.9753 346.01 94.6114C345.774 91.6594 344.543 89.4708 343.66 87.2257C342.136 82.973 339.021 83.4424 328.271 81.8476C326.096 81.5536 323.571 81.2595 321.339 81.2595C316.521 81.2595 315.346 79.4272 308.593 83.2105C290.439 92.7791 297.843 93.0167 292.378 113.816C292.378 116.474 292.615 133.785 292.558 136.974C295.021 137.269 324.043 137.093 326.276 136.505Z" fill="#FFC8B8"/>
<path d="M338.318 102.766C336.261 102.704 336.143 105.899 338.257 105.956C340.314 106.012 340.432 102.823 338.318 102.766Z" fill="#231F20"/>
<path d="M340.607 117.125C338.847 117.063 337.2 116.118 336.317 114.58" stroke="#923F27" stroke-width="4" stroke-linecap="round" stroke-linejoin="round"/>
<path d="M326.276 133.491C323.633 132.484 321.401 131.659 319.225 130.533" stroke="#923F27" stroke-width="4" stroke-linecap="round" stroke-linejoin="round"/>
<path d="M295.083 128.882C298.079 128.882 307.89 124.035 309.414 123.266C309.532 123.21 309.532 123.091 309.476 122.972C307.947 121.496 296.724 110.208 303.19 102.054C307.772 96.325 319.343 103.767 319.461 103.829C319.697 104.067 326.922 100.934 326.686 91.3032C326.686 91.1844 326.804 91.0656 326.922 91.1278C333.736 94.7868 341.428 95.143 345.661 93.1354C345.425 90.8281 343.486 88.8827 342.721 86.6942C341.197 82.4415 338.965 83.5046 328.215 81.9099C322.868 81.1408 314.935 80.1963 305.36 85.631C295.319 91.3597 292.378 97.0319 292.378 113.46L292.44 128.407C292.44 128.526 292.44 128.763 292.671 128.763L293.317 128.82C293.846 128.882 293.497 128.882 295.083 128.882Z" fill="#231F20"/>
<path d="M301.661 110.74C299.311 98.5701 312 98.6889 319.225 104.242C320.811 103.829 344.014 95.3184 345.836 94.7302C345.543 82.0852 337.61 71.8041 321.221 72.3356C295.083 73.2801 291.558 85.5123 292.322 113.873L301.543 110.921C301.605 110.859 301.661 110.802 301.661 110.74Z" fill="#00AF91"/>
<path d="M311.354 110.859L315.407 113.754" stroke="#923F27" stroke-width="4" stroke-linecap="round" stroke-linejoin="round"/>
<path d="M254.49 241.85C264.537 241.737 276.872 239.843 287.858 235.414C287.914 235.414 287.976 235.296 287.976 235.234C287.914 234.702 287.796 233.401 287.74 232.87C287.74 232.751 287.796 232.694 287.914 232.694C287.976 232.694 343.368 232.694 344.953 232.694H345.015C348.653 230.981 352.24 226.666 352.06 220.049C352.06 219.931 352.24 219.812 352.296 219.931C371.564 234.939 397.82 225.784 419.618 214.496C419.674 214.439 419.736 214.377 419.736 214.321C419.202 211.244 409.689 181.701 408.75 178.156C408.75 178.043 408.57 177.862 408.514 177.862C394.182 182.295 380.79 188.324 378.496 188.618C378.44 188.618 378.378 188.618 378.322 188.556C376.208 184.778 353.707 148.556 326.332 142.059C326.276 142.059 326.214 141.996 326.214 141.878C326.214 141.114 326.276 136.856 326.276 136.856C326.276 136.737 326.214 136.68 326.096 136.68C325.921 136.856 294.909 136.505 292.615 136.918C292.558 136.918 292.497 136.974 292.497 137.093C292.497 137.8 292.497 142.059 292.497 142.059C292.497 142.115 292.44 142.234 292.322 142.234C283.861 142.828 275.641 144.773 270.232 147.493C245.387 157.95 189.872 240.73 254.49 241.85Z" fill="#FF6A00"/>
<path opacity="0.2" d="M364.929 225.959C355 216.153 355.765 189.149 347.95 189.562C347.832 189.562 347.775 189.681 347.775 189.738C348.304 193.227 350.885 212.013 352.296 219.931C356.293 223.301 362.163 225.546 364.749 226.253C364.929 226.253 365.042 226.078 364.929 225.959Z" fill="#383838"/>
<path d="M274.876 185.428L264.475 205.397" stroke="#383838" stroke-width="4" stroke-linecap="round" stroke-linejoin="round"/>
<path d="M326.214 142.059C326.214 142.059 329.036 142.528 331.268 143.535" stroke="#383838" stroke-width="4" stroke-linecap="round" stroke-linejoin="round"/>
<path d="M351.885 218.992L347.775 189.511" stroke="#383838" stroke-width="4" stroke-linecap="round" stroke-linejoin="round"/>
<path d="M378.378 188.556L383.078 187.023" stroke="#383838" stroke-width="4" stroke-linecap="round" stroke-linejoin="round"/>
<path d="M372.384 467.148L364.221 471.282" stroke="#838383" stroke-width="4" stroke-linecap="round" stroke-linejoin="round"/>
<path d="M290.911 467.56L282.922 471.282" stroke="#838383" stroke-width="4" stroke-linecap="round" stroke-linejoin="round"/>
<path d="M367.51 442.802L315.464 442.921" stroke="#838383" stroke-width="4" stroke-linecap="round" stroke-linejoin="round"/>
<path d="M289.618 442.921H240.861" stroke="#838383" stroke-width="4" stroke-linecap="round" stroke-linejoin="round"/>
<path d="M319.051 104.191L355.821 91.1334" stroke="black" stroke-width="4" stroke-linecap="round" stroke-linejoin="round"/>
<path opacity="0.2" d="M280.515 203.74C277.046 198.543 281.454 186.904 274.876 185.428C273.937 187.08 265.886 202.62 264.593 205.159C264.536 205.278 264.654 205.397 264.772 205.397C266.825 205.222 278.519 204.215 280.453 204.04C280.515 203.977 280.571 203.859 280.515 203.74Z" fill="#383838"/>
<path opacity="0.2" d="M326.276 133.497C323.571 132.49 321.514 131.783 319.225 130.539C319.051 130.482 318.933 130.658 318.989 130.777L325.219 140.113C325.511 140.526 326.158 140.47 326.158 139.938L326.276 133.497Z" fill="#923F27"/>
<path d="M397.646 497.872C397.764 497.872 397.82 497.81 397.82 497.691C397.82 490.956 395.059 487.823 394.413 487.235C394.357 487.178 394.3 487.178 394.239 487.116C391.006 486.997 322.222 487.116 322.16 487.06C322.042 487.06 321.986 487.178 321.986 487.291C322.458 488.711 323.807 494.326 324.921 497.754C324.921 497.81 324.983 497.872 325.101 497.872C328.328 497.872 397.646 497.872 397.646 497.872Z" fill="#838383"/>
<path d="M315.582 497.754C315.644 494.089 315.233 489.955 312.821 487.235C312.765 487.178 312.765 487.178 312.703 487.178C310.179 487.178 243.037 487.354 243.037 487.354C242.919 487.354 242.863 487.473 242.863 487.591C244.33 493.614 245.033 496.51 245.797 498.048C245.797 498.104 245.854 498.104 245.915 498.104C250.498 498.104 309.594 497.929 315.408 497.929C315.526 497.929 315.582 497.872 315.582 497.754Z" fill="#838383"/>
<path d="M302.19 233.526C307.008 233.526 311.826 232.344 316.229 230.336C321.575 230.512 337.026 230.399 336.789 227.266C336.789 224.664 329.329 223.658 324.572 223.245C324.392 223.245 324.392 222.951 324.572 222.894C330.858 222.182 343.486 220.649 341.546 214.208C343.84 212.613 345.071 209.242 341.608 206.641C340.843 200.205 329.683 201.976 324.044 201.619C319.754 201.619 315.936 201.681 314.407 201.738C314.233 201.738 314.171 201.563 314.289 201.444C315.7 200.143 318.989 196.897 318.522 194.827C316.993 188.918 290.265 203.808 291.204 202.982C291.204 202.982 285.744 203.514 284.743 203.632C284.271 203.632 287.268 232.287 287.678 235.183C287.678 235.302 287.796 235.358 287.914 235.302C288.915 234.945 293.436 233.175 302.19 233.526Z" fill="#FFC8B8"/>
<path d="M341.49 206.635C330.74 206.579 311.354 208.349 311.354 208.349" stroke="#923F27" stroke-width="4" stroke-linecap="round" stroke-linejoin="round"/>
<path d="M341.31 214.259L311.938 216.622" stroke="#923F27" stroke-width="4" stroke-linecap="round" stroke-linejoin="round"/>
<path d="M313.997 201.795L307.475 202.326" stroke="#923F27" stroke-width="4" stroke-linecap="round" stroke-linejoin="round"/>
<path d="M448.28 180.995C446.048 182.946 445.464 185.247 449.399 187.673C446.048 190.15 446.284 193.696 448.573 195.591C447.403 197.598 447.105 199.193 447.696 200.375C448.342 201.676 449.81 202.026 450.276 202.145C448.224 205.397 448.753 208.055 451.749 208.468C452.57 208.349 453.335 208.23 454.099 208.055" stroke="#923F27" stroke-width="4" stroke-linecap="round" stroke-linejoin="round"/>
<path d="M462.91 182.946C459.969 185.898 451.749 188.261 449.399 187.673" stroke="#923F27" stroke-width="4" stroke-linecap="round" stroke-linejoin="round"/>
<path d="M462.91 192.396C458.21 194.759 451.159 195.941 448.809 195.353" stroke="#923F27" stroke-width="4" stroke-linecap="round" stroke-linejoin="round"/>
<path d="M461.735 200.081C458.794 201.263 453.217 202.739 450.276 202.145" stroke="#923F27" stroke-width="4" stroke-linecap="round" stroke-linejoin="round"/>
<path d="M291.266 203.033L264.475 205.397" stroke="#383838" stroke-width="4" stroke-linecap="round" stroke-linejoin="round"/>
<path d="M440.409 178.512L432.071 192.045" stroke="#923F27" stroke-width="4" stroke-linecap="round" stroke-linejoin="round"/>
<path d="M23.512 384.118L32.2828 429.416C32.7326 429.529 33.0137 429.529 33.3511 429.529L127.076 419.18C127.75 419.124 127.863 418.106 127.188 417.879L25.2549 383.722C24.5802 383.496 23.6806 383.326 23.512 384.118Z" fill="#FFCC29"/>
<path d="M23.5685 384.005L14.1792 423.365L32.2831 429.416C32.508 429.473 32.6767 429.303 32.6767 429.077L23.9059 384.005C23.8496 383.835 23.5685 383.835 23.5685 384.005Z" fill="#FF6A00"/>
<path d="M83.2782 453.903L115.382 514.979C115.888 515.375 117.125 515.375 117.406 514.922L183.131 414.938C183.3 414.656 183.019 414.316 182.737 414.43L84.0653 451.754C83.6155 451.867 82.6597 452.885 83.2782 453.903Z" fill="#FFBD7A"/>
<path d="M83.2782 453.903L115.382 514.979C115.888 515.375 117.125 515.375 117.406 514.922L183.131 414.938C183.3 414.656 183.019 414.316 182.737 414.43L84.0653 451.754C83.6155 451.867 82.6597 452.885 83.2782 453.903Z" fill="#FFBD7A"/>
<path d="M83.7282 452.998L116 514.414C116.225 514.809 115.776 515.262 115.382 514.979L76.8689 490.266L83.0535 453.111C83.1097 452.772 83.5595 452.659 83.7282 452.998Z" fill="#FF6A00"/>
</svg>
