<svg width="635" height="461" viewBox="0 0 635 461" fill="none" xmlns="http://www.w3.org/2000/svg">
<path d="M524.218 49.2599C584.582 79.4435 608.317 157.326 585.405 216.812C562.357 276.188 492.801 317.277 432.436 344.817C372.071 372.356 320.899 386.347 259.162 394.939C197.426 403.531 124.988 406.616 80.4005 379.076C35.813 351.536 19.0755 293.372 10.5696 228.379C1.92649 163.275 1.5149 91.3407 46.1024 61.2673C90.6899 31.1938 180.277 42.8707 273.567 39.8964C366.858 36.9221 463.853 19.1865 524.218 49.2599Z" fill="#F58634"/>
<g clip-path="url(#clip0_67_205)">
<path d="M46.7347 -151.61C41.8349 -139.181 36.7601 -126.752 34.6601 -112.185C32.5602 -97.6177 33.2602 -80.7786 19.2607 -73.4282C5.43614 -66.0778 -22.9129 -68.3498 -35.8625 -58.3265C-48.812 -48.4369 -46.3621 -26.2521 -56.8617 -17.6989C-67.1864 -9.27939 -90.4606 -14.4915 -109.36 -13.0214C-128.434 -11.5513 -143.134 -3.39908 -158.008 4.75317V-151.61H46.7347Z" fill="white"/>
<path d="M225.298 137.085C225.298 143.488 222.813 149.692 218.265 154.641C213.718 159.59 207.39 162.978 200.36 164.227C193.33 165.476 186.033 164.509 179.711 161.491C173.39 158.473 168.436 153.59 165.693 147.675C162.95 141.76 162.588 135.178 164.669 129.051C166.75 122.925 171.144 117.632 177.104 114.075C183.064 110.518 190.22 108.917 197.353 109.544C204.487 110.172 211.156 112.989 216.224 117.517C219.106 120.083 221.391 123.133 222.949 126.492C224.506 129.85 225.304 133.45 225.298 137.085Z" fill="#ECE7E1" stroke="black" stroke-width="3" stroke-miterlimit="10" stroke-linecap="round"/>
<path d="M212.515 114.709C207.863 113.4 202.929 113.099 198.12 113.83C193.301 114.498 188.786 116.354 185.083 119.19C181.584 122.03 179.222 125.815 178.359 129.967C177.42 134.115 177.794 138.414 179.438 142.383C180.293 144.437 181.587 146.323 183.248 147.936C184.903 149.554 186.961 150.801 189.255 151.577C192.834 152.658 196.716 152.626 200.272 151.486C203.827 150.346 206.847 148.165 208.839 145.298C209.701 143.86 210.227 142.28 210.383 140.654C210.539 139.029 210.323 137.392 209.747 135.843C208.61 132.758 206.057 130.222 202.127 129.661C200.6 129.401 199.021 129.562 197.599 130.123C196.177 130.683 194.979 131.615 194.164 132.797C193.347 133.98 192.877 135.328 192.798 136.716C192.719 138.104 193.034 139.488 193.713 140.738" stroke="#070707" stroke-width="3" stroke-miterlimit="10" stroke-linecap="round"/>
<path d="M159.804 149.025C162.147 148.072 165.106 146.955 168.618 145.832C172.585 144.567 176.628 143.501 180.727 142.638C186.998 141.353 193.383 140.567 199.809 140.29C212.352 139.692 224.925 140.714 237.141 143.325C241.326 144.217 245.459 145.296 249.523 146.558C254.842 148.21 260.038 150.161 265.081 152.4C261.173 157.513 257.643 162.848 254.514 168.372C245.269 184.689 239.683 202.461 238.068 220.691C237.394 228.356 237.413 236.057 238.125 243.72C238.125 243.72 229.534 245.852 218.389 252.228C203.674 260.626 191.616 272.256 183.369 286.005C183.369 286.005 188.303 267.922 187.814 241.763C187.325 215.603 181.439 181.327 159.804 149.025Z" fill="#F6C34C" stroke="#070707" stroke-width="3" stroke-miterlimit="10" stroke-linecap="round"/>
<path d="M521.481 233.425C521.119 219.256 518.653 205.194 514.147 191.605C507.498 171.543 494.773 148.203 470.395 130.131C462.314 124.14 453.424 119.075 443.935 115.055C436.49 111.902 428.733 109.375 420.764 107.506C390.131 100.569 359.207 101.941 331.705 110.398C304.203 118.855 280.143 134.408 263.246 155.831C245.834 177.896 239.636 201.61 238.049 220.986C236.957 234.072 237.785 247.229 240.513 260.123L381 246.777L521.481 233.425Z" fill="#ECE7E1" stroke="black" stroke-width="3" stroke-miterlimit="10" stroke-linecap="round"/>
<path d="M390.938 245.835L456.209 239.63L521.481 233.425C521.119 219.256 518.653 205.194 514.147 191.605C507.498 171.543 494.773 148.203 470.395 130.132C462.314 124.14 453.424 119.075 443.935 115.055C436.49 111.902 428.733 109.375 420.764 107.506C415.654 106.349 410.54 105.42 405.422 104.721C400.304 104.021 395.207 103.547 390.131 103.297C379.731 119.97 373.144 138.323 370.751 157.289C367.665 181.957 371.132 212.387 390.938 245.835Z" fill="#F58634" stroke="#070707" stroke-width="3" stroke-miterlimit="10" stroke-linecap="round"/>
<path d="M415.531 106.405C417.618 113.911 418.411 121.658 417.881 129.377C417.049 142.423 412.166 158.667 396.113 171.293C398.898 176.382 400.312 181.982 400.241 187.646C400.177 197.237 395.853 209.636 378.822 220.907" stroke="#070707" stroke-width="3" stroke-miterlimit="10" stroke-linecap="round"/>
<path d="M314.585 116.785C304.431 121.268 294.923 126.835 286.271 133.365C277.559 139.95 269.822 147.5 263.246 155.831C245.834 177.896 239.636 201.61 238.049 220.986C236.957 234.072 237.785 247.229 240.513 260.123L282.924 256.096L325.33 252.063C336.125 224.883 335.216 195.133 330.721 170.136C327.392 151.908 321.986 134.031 314.585 116.785Z" fill="#F6991A" stroke="#070707" stroke-width="3" stroke-miterlimit="10" stroke-linecap="round"/>
<path d="M291.148 129.842C290.086 136.404 289.977 143.062 290.824 149.649C292.132 159.433 296.12 170.579 306.521 177.64C307.955 178.611 309.471 179.481 311.055 180.244C312.932 181.149 314.893 181.909 316.916 182.513C314.791 186.06 313.255 189.864 312.357 193.806C310.902 200.124 310.775 208.258 315.754 216.023C317.944 219.411 320.856 222.383 324.326 224.769C326.641 226.369 329.155 227.725 331.819 228.808" stroke="#070707" stroke-width="3" stroke-miterlimit="10" stroke-linecap="round"/>
<path d="M234.41 346.531L250.285 369.956L266.16 393.382C257.588 399.076 249.024 404.79 240.468 410.523C231.913 416.255 223.317 421.927 214.681 427.539C207.461 432.235 200.165 436.818 192.31 440.017C184.455 443.216 176.047 444.98 166.599 444.067C162.334 443.618 158.142 442.728 154.108 441.412C150.348 440.243 146.757 438.68 143.408 436.756C143.002 436.512 142.583 436.251 142.272 436.052L141.738 435.718C132.793 430.527 126.216 422.654 123.19 413.517C120.371 405.208 120.358 396.445 121.501 388.612C122.363 382.743 123.947 376.978 126.225 371.42C128.5 365.858 131.415 360.522 134.925 355.498L160.617 318.63L186.303 281.762C188.335 278.843 190.511 276.007 192.83 273.254C195.153 270.516 197.628 267.885 200.247 265.37C209.64 256.309 221.493 249.568 234.658 245.801C247.25 242.086 260.896 240.696 275.342 240.095C296.139 239.256 320.027 241.264 341.014 248.291C362.001 255.319 380.066 267.372 389.255 286.611C390.423 289.069 391.621 291.514 392.849 293.945C394.077 296.377 395.319 298.802 396.577 301.223L424.18 354.387L451.783 407.55C453.92 411.656 455.188 416.079 455.524 420.596C456.065 427.827 454.034 435.026 449.72 441.163C448.212 443.276 446.463 445.244 444.5 447.033C437.567 453.436 428.259 457.363 418.319 458.077C408.355 458.822 398.415 456.413 390.239 451.27C374.256 441.208 355.149 425.179 340.042 411.646C324.936 398.112 313.817 387.12 313.817 387.12L333.077 366.133L352.336 345.147C352.367 345.115 352.386 345.076 352.392 345.035C352.397 344.993 352.389 344.951 352.368 344.914C352.348 344.878 352.318 344.847 352.279 344.826C352.241 344.805 352.197 344.794 352.152 344.795L293.268 345.674L234.41 346.531Z" fill="#007965" stroke="#070707" stroke-width="3" stroke-miterlimit="10" stroke-linecap="round"/>
<path d="M419.227 377.097C419.227 381.384 417.563 385.539 414.519 388.853C411.474 392.167 407.237 394.436 402.53 395.273C397.823 396.109 392.936 395.462 388.703 393.442C384.47 391.421 381.153 388.152 379.316 384.191C377.479 380.23 377.236 375.823 378.629 371.72C380.022 367.618 382.964 364.074 386.955 361.692C390.946 359.31 395.737 358.237 400.514 358.657C405.29 359.077 409.756 360.964 413.15 363.995C415.079 365.714 416.609 367.756 417.652 370.004C418.695 372.253 419.23 374.663 419.227 377.097Z" fill="#DBCAF4" stroke="black" stroke-width="3" stroke-miterlimit="10" stroke-linecap="round"/>
<path d="M340.239 312.107C340.238 316.394 338.573 320.548 335.528 323.861C332.482 327.175 328.245 329.442 323.538 330.278C318.831 331.114 313.945 330.466 309.712 328.444C305.48 326.423 302.163 323.153 300.327 319.193C298.491 315.232 298.249 310.825 299.642 306.723C301.036 302.621 303.978 299.077 307.969 296.695C311.959 294.314 316.751 293.241 321.527 293.662C326.303 294.082 330.769 295.968 334.162 298.999C336.092 300.719 337.622 302.762 338.665 305.012C339.708 307.261 340.243 309.673 340.239 312.107Z" fill="#DBCAF4" stroke="black" stroke-width="3" stroke-miterlimit="10" stroke-linecap="round"/>
<path d="M179.921 395.628C179.921 399.915 178.257 404.07 175.213 407.384C172.168 410.698 167.931 412.967 163.224 413.804C158.517 414.64 153.63 413.993 149.397 411.972C145.164 409.952 141.847 406.682 140.01 402.722C138.173 398.761 137.93 394.354 139.323 390.251C140.716 386.149 143.658 382.604 147.649 380.222C151.639 377.84 156.431 376.768 161.208 377.188C165.984 377.608 170.45 379.494 173.844 382.526C175.772 384.245 177.302 386.287 178.345 388.536C179.387 390.784 179.923 393.194 179.921 395.628Z" fill="#DBCAF4" stroke="black" stroke-width="3" stroke-miterlimit="10" stroke-linecap="round"/>
<path d="M402.59 440.346C402.594 436.206 401.045 432.184 398.191 428.922C395.336 425.66 391.341 423.347 386.842 422.35C382.343 421.354 377.6 421.733 373.37 423.426C369.141 425.119 365.668 428.028 363.506 431.691C368.046 435.36 372.631 438.934 377.127 442.246C381.622 445.559 386.017 448.61 390.233 451.253C391.109 451.806 392.003 452.322 392.913 452.802C393.823 453.282 394.746 453.734 395.681 454.158C397.86 452.422 399.602 450.294 400.793 447.913C401.983 445.533 402.596 442.954 402.59 440.346Z" fill="#DBCAF4" stroke="black" stroke-width="3" stroke-miterlimit="10" stroke-linecap="round"/>
<path d="M225.298 276.209C229.419 276.21 233.447 275.114 236.868 273.06C240.289 271.007 242.947 268.09 244.502 264.681C246.058 261.272 246.441 257.526 245.603 253.922C244.764 250.318 242.742 247.019 239.795 244.446C233.468 245.952 227.346 248.074 221.539 250.776C215.523 253.612 209.942 257.129 204.934 261.24C205.856 265.46 208.391 269.263 212.106 271.996C215.821 274.73 220.485 276.225 225.298 276.226V276.209Z" fill="#DBCAF4" stroke="black" stroke-width="3" stroke-miterlimit="10" stroke-linecap="round"/>
<path d="M356.768 276.209C360.371 276.213 363.913 275.379 367.044 273.787C370.176 272.196 372.788 269.902 374.624 267.134C369.763 262.733 364.294 258.904 358.349 255.739C352.301 252.518 345.909 249.843 339.268 247.752C338.234 249.207 337.428 250.781 336.874 252.432C335.951 255.198 335.764 258.119 336.329 260.962C336.894 263.804 338.194 266.49 340.127 268.804C342.059 271.118 344.57 272.996 347.459 274.29C350.349 275.583 353.536 276.256 356.768 276.254V276.209Z" fill="#DBCAF4" stroke="black" stroke-width="3" stroke-miterlimit="10" stroke-linecap="round"/>
<path d="M228.6 393.382C224.261 393.379 220.031 394.592 216.504 396.85C212.978 399.108 210.333 402.297 208.942 405.968C207.551 409.639 207.484 413.607 208.75 417.314C210.017 421.021 212.553 424.28 216.002 426.631C221.374 423.13 226.725 419.607 232.054 416.064C237.384 412.521 242.71 408.972 248.031 405.418C246.551 401.882 243.897 398.835 240.424 396.684C236.951 394.533 232.826 393.381 228.6 393.382Z" fill="#DBCAF4" stroke="black" stroke-width="3" stroke-miterlimit="10" stroke-linecap="round"/>
<path d="M181.934 291.671C177.133 309.821 162.122 312.436 148.311 310.536C134.499 308.636 121.92 302.204 121.92 302.204C111.563 314.484 99.8665 318.505 90.7606 319.458C81.6547 320.411 75.1396 318.29 75.1396 318.29C47.3583 254.882 67.6974 211.423 94.977 183.817C122.257 156.211 156.451 144.459 156.451 144.459C156.451 144.459 168.65 159.246 177.933 185.042C187.217 210.839 193.586 247.633 181.934 291.671Z" fill="#FFCC29" stroke="black" stroke-width="3" stroke-miterlimit="10" stroke-linecap="round"/>
<path d="M156.553 268.177C156.674 270.098 156.171 272.008 155.105 273.679C154.096 275.233 152.647 276.523 150.904 277.419C149.161 278.315 147.185 278.786 145.174 278.784C143.021 278.772 140.918 278.207 139.116 277.156H139.065C137.265 278.207 135.164 278.772 133.013 278.784C131.002 278.785 129.025 278.314 127.281 277.418C125.537 276.522 124.087 275.233 123.076 273.679C122.012 272.007 121.511 270.097 121.634 268.177C119.712 267.312 118.111 265.968 117.024 264.309C116.018 262.751 115.488 260.983 115.488 259.184C115.488 257.385 116.018 255.618 117.024 254.06C118.112 252.402 119.713 251.06 121.634 250.197C121.512 248.279 122.013 246.371 123.076 244.701C124.089 243.149 125.539 241.861 127.283 240.965C129.026 240.069 131.002 239.597 133.013 239.596C135.164 239.61 137.265 240.177 139.065 241.229H139.103C140.905 240.177 143.008 239.61 145.161 239.596C147.172 239.597 149.147 240.068 150.89 240.964C152.632 241.86 154.081 243.148 155.092 244.701C156.157 246.37 156.66 248.279 156.54 250.197C158.459 251.064 160.059 252.404 161.15 254.06C162.153 255.619 162.681 257.386 162.681 259.184C162.681 260.983 162.153 262.75 161.15 264.309C160.063 265.964 158.468 267.307 156.553 268.177Z" fill="#FF6406" stroke="#070707" stroke-width="3" stroke-miterlimit="10" stroke-linecap="round"/>
<path d="M145.631 259.187C145.628 260.536 145.101 261.842 144.141 262.883C143.18 263.924 141.846 264.635 140.364 264.896C138.882 265.156 137.346 264.95 136.015 264.312C134.685 263.674 133.643 262.644 133.068 261.396C132.492 260.149 132.419 258.763 132.86 257.473C133.301 256.182 134.229 255.069 135.486 254.321C136.743 253.574 138.251 253.239 139.753 253.373C141.256 253.507 142.66 254.103 143.726 255.058C144.333 255.6 144.813 256.244 145.14 256.953C145.467 257.661 145.634 258.421 145.631 259.187Z" fill="#ECE7E1" stroke="black" stroke-width="3" stroke-miterlimit="10" stroke-linecap="round"/>
<path d="M172.441 182.184C170.777 182.151 169.189 181.551 168.004 180.508C166.818 179.465 166.123 178.056 166.062 176.57C166 175.084 166.576 173.634 167.672 172.515C168.768 171.396 170.301 170.693 171.958 170.55C170.688 167.873 169.463 165.383 168.25 163.097C167.037 160.811 165.868 158.713 164.751 156.858C164.025 156.949 163.31 157.103 162.617 157.318C161.939 157.515 161.282 157.768 160.655 158.072C158.909 158.968 157.461 160.262 156.458 161.821C155.393 163.492 154.89 165.403 155.01 167.323C153.092 168.193 151.492 169.536 150.4 171.191C149.393 172.75 148.864 174.517 148.864 176.316C148.864 178.115 149.393 179.882 150.4 181.441C151.492 183.096 153.092 184.439 155.01 185.309C154.89 187.229 155.393 189.14 156.458 190.811C157.467 192.365 158.915 193.655 160.659 194.551C162.402 195.447 164.378 195.917 166.389 195.916C168.541 195.904 170.644 195.339 172.447 194.288H172.485C173.784 195.044 175.246 195.551 176.776 195.776C178.307 196 179.873 195.938 181.375 195.592C180.613 192.945 179.815 190.406 178.981 187.975C178.149 185.525 177.286 183.171 176.409 180.908C175.275 181.696 173.878 182.121 172.441 182.116V182.184Z" fill="#FF6406" stroke="#070707" stroke-width="3" stroke-miterlimit="10" stroke-linecap="round"/>
<path d="M165.906 176.353C165.906 177.119 166.076 177.878 166.404 178.586C166.732 179.293 167.214 179.936 167.821 180.478C168.428 181.019 169.148 181.449 169.941 181.741C170.733 182.034 171.583 182.184 172.441 182.184C173.878 182.189 175.275 181.764 176.409 180.976C175.686 179.104 174.943 177.294 174.2 175.559C173.457 173.823 172.707 172.156 171.958 170.539C170.313 170.645 168.775 171.304 167.652 172.383C166.529 173.461 165.905 174.88 165.906 176.353Z" fill="#ECE7E1" stroke="black" stroke-width="3" stroke-miterlimit="10" stroke-linecap="round"/>
<path d="M75.565 210.941C75.4489 212.849 75.9493 214.747 77.0065 216.409C78.0076 217.958 79.4466 219.244 81.1796 220.14C82.9125 221.036 84.8785 221.51 86.8807 221.513C89.0186 221.503 91.1073 220.94 92.8941 219.891H92.9386C94.7255 220.94 96.8142 221.503 98.9521 221.513C100.486 221.527 102.006 221.26 103.42 220.728C104.833 220.196 106.109 219.411 107.17 218.421C108.23 217.431 109.052 216.258 109.585 214.973C110.118 213.689 110.35 212.32 110.268 210.952C112.175 210.089 113.765 208.754 114.846 207.107C115.853 205.556 116.383 203.795 116.383 202.002C116.383 200.209 115.853 198.448 114.846 196.897C113.765 195.249 112.175 193.914 110.268 193.051C110.382 191.144 109.884 189.247 108.833 187.583C107.955 186.229 106.74 185.073 105.282 184.204C103.824 183.336 102.163 182.778 100.425 182.575C98.8878 182.393 97.3246 182.507 95.8405 182.91C91.7649 186.95 87.9811 191.219 84.5122 195.689C80.8473 200.41 77.5767 205.365 74.7268 210.515C74.8602 210.595 74.9999 210.669 75.1396 210.737L75.565 210.946V210.941ZM92.9196 196.194C94.4188 196.195 95.8712 196.66 97.0295 197.511C98.1877 198.361 98.9802 199.544 99.272 200.858C99.5638 202.171 99.3369 203.535 98.6299 204.715C97.9229 205.896 96.7796 206.822 95.3945 207.335C94.0094 207.847 92.4682 207.915 91.0333 207.527C89.5984 207.139 88.3584 206.319 87.5246 205.206C86.6907 204.093 86.3144 202.756 86.4599 201.423C86.6053 200.09 87.2634 198.843 88.3222 197.895C88.9283 197.355 89.6485 196.927 90.4409 196.637C91.2333 196.347 92.0822 196.2 92.9386 196.205L92.9196 196.194Z" fill="#FF6406" stroke="#070707" stroke-width="3" stroke-miterlimit="10" stroke-linecap="round"/>
<path d="M92.9386 207.804C94.4413 207.804 95.8974 207.338 97.0588 206.487C98.2203 205.635 99.0152 204.45 99.3083 203.133C99.6013 201.817 99.3744 200.45 98.6661 199.267C97.9578 198.083 96.8119 197.155 95.4237 196.641C94.0355 196.127 92.4907 196.059 91.0527 196.449C89.6146 196.838 88.3721 197.661 87.5369 198.777C86.7016 199.892 86.3253 201.232 86.4719 202.568C86.6186 203.904 87.2792 205.153 88.3412 206.103C88.9441 206.643 89.6607 207.072 90.4497 207.364C91.2387 207.656 92.0846 207.805 92.9386 207.804Z" fill="#ECE7E1" stroke="black" stroke-width="3" stroke-miterlimit="10" stroke-linecap="round"/>
<path d="M463.55 345.43L454.66 378.561L445.77 411.697L485.883 424.884L525.989 438.066C530.219 439.645 534.648 440.759 539.178 441.384C545.615 442.296 552.195 441.984 558.489 440.471C566.312 438.487 573.438 434.75 579.19 429.615C585.347 424.129 590.13 417.539 593.223 410.279C594.908 406.399 596.125 402.37 596.855 398.26C597.58 394.145 597.865 389.978 597.706 385.815C597.148 370.745 595.865 357.013 594.258 344.806C592.652 332.6 590.709 321.931 588.842 312.986C582.86 284.433 576.027 266.254 569.97 254.564C563.912 242.874 558.635 237.633 555.765 234.985C534.111 214.951 505.225 206.165 480.65 202.484C464.375 200.042 447.824 199.406 431.374 200.589C421.324 201.446 411.377 203.082 401.644 205.479C387.686 208.9 374.267 213.877 361.702 220.294C349.299 226.651 337.829 234.361 327.558 243.249C333.337 244.843 338.992 246.774 344.487 249.029C348.62 250.725 352.647 252.618 356.552 254.701C359.978 256.514 363.283 258.503 366.452 260.656C368.89 262.358 370.516 263.628 371.443 264.377C372.777 265.455 374.402 266.844 376.168 268.557C378.154 270.488 380.006 272.526 381.711 274.66C384.911 278.674 387.587 283.002 389.687 287.559C390.871 290.15 391.883 292.801 392.716 295.499C398.774 314.217 408.076 331.886 418.186 349.259C428.295 366.632 439.223 383.728 448.513 401.379C451.019 392.062 453.523 382.741 456.025 373.416C458.527 364.091 461.035 354.763 463.55 345.43Z" fill="#00AF91" stroke="black" stroke-width="3" stroke-miterlimit="10" stroke-linecap="round"/>
<path d="M251.644 306.169C251.644 306.169 254.476 304.586 260.947 305.539C267.417 306.492 277.527 309.975 292.062 320.099" stroke="black" stroke-width="3" stroke-miterlimit="10" stroke-linecap="round"/>
<path d="M298.812 313.9C298.812 313.9 293.357 310.434 286.061 306.758C278.765 303.083 269.627 299.198 262.268 298.364" stroke="black" stroke-width="3" stroke-miterlimit="10" stroke-linecap="round"/>
<path d="M303.53 308.5C301.676 307.337 299.72 306.152 297.574 304.96C295.427 303.769 293.198 302.578 290.804 301.404C288.569 300.304 286.389 299.298 284.264 298.387C282.149 297.479 280.092 296.651 278.124 295.908" stroke="black" stroke-width="3" stroke-miterlimit="10" stroke-linecap="round"/>
<path d="M256.54 241.502C252.247 242.069 250.253 245.347 249.752 249.216C249.308 253.054 250.048 256.928 251.892 260.418C253.51 263.138 256.111 265.288 259.27 266.521C261.243 267.322 263.338 267.857 265.487 268.109C269.354 268.535 273.275 267.943 276.771 266.408C280.468 264.772 283.647 262.334 286.017 259.318C287.116 261.134 288.514 262.794 290.163 264.241C293.333 267.13 297.483 269 301.968 269.561C304.354 269.799 306.767 269.711 309.124 269.3C313.545 268.639 317.525 266.517 320.275 263.356C322.646 260.513 323.922 257.06 323.913 253.515C323.915 249.801 322.68 246.17 320.364 243.084C320.364 243.084 312.109 241.706 300.044 240.815C287.979 239.925 271.964 239.517 256.54 241.502Z" fill="#ECE7E1" stroke="black" stroke-width="3" stroke-miterlimit="10" stroke-linecap="round"/>
<path d="M198.374 318.386L191.897 315.459L185.42 312.527L169.418 329.997L153.41 347.461L157.131 349.628L160.852 351.8L180.899 351.017L200.939 350.24L202.375 341.522L203.835 332.804L201.124 325.595L198.374 318.386Z" fill="#F2B3C1" stroke="black" stroke-width="3" stroke-miterlimit="10" stroke-linecap="round"/>
<path d="M172.206 306.554C171.761 306.844 171.171 307.212 170.453 307.615C169.631 308.072 168.783 308.49 167.913 308.868C162.198 311.336 156.153 311.653 150.609 311.081C145.066 310.508 140.011 309.039 136.227 307.944C134.468 307.433 132.321 306.747 129.877 305.811C127.129 304.757 124.457 303.552 121.876 302.204C120.828 303.401 119.59 304.717 118.142 306.078C113.29 310.634 107.543 314.356 101.187 317.059L127.292 332.26L153.397 347.461L169.405 329.997L185.407 312.527L178.803 309.543L172.206 306.554Z" fill="#F6C34C" stroke="#070707" stroke-width="3" stroke-miterlimit="10" stroke-linecap="round"/>
<path d="M372.904 215.246C381.057 234.228 389.208 253.198 397.358 272.153C405.507 291.109 413.658 310.08 421.812 329.067C422.182 329.897 422.853 330.593 423.716 331.045C424.58 331.497 425.588 331.678 426.58 331.56C427.573 331.442 428.492 331.032 429.194 330.394C429.896 329.757 430.339 328.928 430.454 328.04L438.81 263.946L447.173 199.852C439.719 199.875 432.274 200.328 424.885 201.208C415.831 202.279 406.888 204.004 398.145 206.364C393.338 207.668 388.83 209.103 384.626 210.606C380.422 212.109 376.498 213.658 372.904 215.246Z" fill="#ECE7E1" stroke="black" stroke-width="3" stroke-miterlimit="10" stroke-linecap="round"/>
<path d="M319.958 236.142L338.43 241.581L356.902 247.015L342.398 258.592L327.889 270.162L323.926 253.152L319.958 236.142Z" fill="#040400" stroke="#040400" stroke-width="3" stroke-miterlimit="10"/>
<path d="M352.685 344.772L339.433 332.51L326.18 320.252C323.014 317.322 319.693 314.533 316.217 311.886C312.745 309.255 309.116 306.793 305.346 304.512C300.736 301.716 295.612 298.982 290.792 297.247C285.972 295.511 281.464 294.762 278.092 295.936C276.998 295.573 275.863 295.316 274.707 295.171C271.314 294.733 267.854 295.303 264.859 296.793C263.938 297.248 263.07 297.784 262.268 298.392C259.925 298.437 257.657 299.133 255.778 300.383C254.445 301.289 253.36 302.452 252.603 303.786C252.17 304.551 251.846 305.361 251.638 306.197C248.989 307.539 246.512 309.137 244.253 310.961C243.275 311.75 242.392 312.533 241.599 313.298C240.805 314.064 240.1 314.807 239.478 315.51C238.576 316.285 237.93 317.266 237.611 318.346C237.327 319.231 237.441 320.179 237.928 320.99C238.293 321.526 238.821 321.957 239.452 322.232C239.84 322.384 240.248 322.494 240.665 322.561C241.439 322.726 242.246 322.726 243.021 322.561C244.208 322.266 245.318 321.763 246.285 321.08C248.277 319.727 250.38 318.509 252.578 317.439C254.138 316.709 255.86 316.297 257.62 316.231H257.988H258.35C260.254 316.255 262.133 316.621 263.874 317.308C265.646 317.987 267.357 318.785 268.992 319.696C274.778 322.802 280.284 326.306 285.458 330.178C291.236 334.659 295.751 339.6 294.38 343.428C294.228 343.843 294.015 344.238 293.745 344.602C293.42 345.021 293.038 345.402 292.608 345.737C292.608 345.737 291.529 347.019 288.906 347.013C286.283 347.007 282.118 345.708 275.946 340.547C275.488 340.167 275.05 339.781 274.612 339.412C274.174 339.044 273.742 338.624 273.342 338.221C271.986 336.919 270.401 335.823 268.65 334.977C266.554 334.035 264.147 333.695 262.122 335.363C261.451 335.68 260.891 336.157 260.503 336.74C260.116 337.324 259.915 337.991 259.925 338.669C259.855 341.12 261.861 345.181 270.135 351.596C271.99 353.037 273.84 354.483 275.685 355.935C277.527 357.387 279.362 358.85 281.172 360.336L297.517 373.717L313.855 387.091L333.28 365.929L352.685 344.772Z" fill="#F2B3C1" stroke="black" stroke-width="3" stroke-miterlimit="10" stroke-linecap="round"/>
<path d="M428.625 330.831C428.36 331.017 428.07 331.174 427.761 331.296C427.256 331.504 426.711 331.621 426.155 331.642C425.295 331.674 424.444 331.476 423.71 331.075C421.107 315.193 418.507 299.296 415.912 283.384C413.317 267.472 410.716 251.573 408.108 235.688L410.305 235.387L412.496 235.081C415.205 251.05 417.902 267.009 420.586 282.959C423.27 298.908 425.95 314.866 428.625 330.831Z" fill="#F6991A" stroke="#070707" stroke-width="3" stroke-miterlimit="10" stroke-linecap="round"/>
<path d="M437.452 274.105C437.147 276.105 436.844 278.105 436.543 280.106L435.61 286.107C433.874 276.842 432.139 267.578 430.403 258.314C428.667 249.049 426.93 239.785 425.19 230.521L427.26 229.296L429.336 228.076C430.682 235.745 432.033 243.415 433.388 251.087C434.742 258.76 436.097 266.432 437.452 274.105Z" fill="#F6991A" stroke="#070707" stroke-width="3" stroke-miterlimit="10" stroke-linecap="round"/>
<path d="M407.086 296.192C405.714 292.788 404.345 289.372 402.977 285.942L398.869 275.687C397.282 268.359 395.696 261.029 394.113 253.697C392.53 246.365 390.946 239.033 389.363 231.701C389.744 231.876 390.15 232.058 390.57 232.234C390.989 232.41 391.42 232.58 391.84 232.756C392.195 232.892 392.551 233.016 392.894 233.136L393.916 233.476C396.1 243.931 398.289 254.383 400.482 264.831L407.086 296.192Z" fill="#F6991A" stroke="#070707" stroke-width="3" stroke-miterlimit="10" stroke-linecap="round"/>
<path d="M198.374 366.043C199.28 360.503 200.186 354.963 201.092 349.423C201.998 343.884 202.901 338.344 203.803 332.804C202.901 330.4 201.998 327.996 201.092 325.595L198.374 318.386L160.128 304.263L121.92 290.134L162.046 281.558L202.178 272.976C207.194 271.904 212.192 270.775 217.189 269.624C222.186 268.472 227.165 267.287 232.156 266.118C237.427 264.858 242.974 264.833 248.26 266.045C254.749 267.57 261.893 271.348 268.319 279.436L283.559 296.668L298.799 313.9L248.583 339.991L198.374 366.043Z" fill="#ECE7E1" stroke="black" stroke-width="3" stroke-miterlimit="10" stroke-linecap="round"/>
<path d="M175.774 309.833C177.602 309.475 179.312 308.741 180.766 307.689C183.401 305.874 186.303 302.584 187.376 296.589" stroke="black" stroke-width="3" stroke-miterlimit="10" stroke-linecap="round"/>
<path d="M268.287 279.453C261.861 271.359 254.711 267.587 248.228 266.056C242.941 264.848 237.396 264.875 232.124 266.135C227.133 267.304 222.148 268.484 217.151 269.641C212.153 270.798 207.162 271.909 202.146 272.993L198.437 273.781L194.729 274.575C195.539 281.8 198.262 288.748 202.673 294.847C206.857 300.638 212.753 305.281 219.71 308.261C224.67 310.336 230.048 311.494 235.521 311.665C239.187 311.783 242.855 311.515 246.45 310.865C247.914 313.712 249.379 316.562 250.844 319.413L255.244 327.966C255.725 329.041 256.265 330.094 256.864 331.12C257.546 332.3 258.319 333.437 259.175 334.523C262.568 339.038 267.795 342.197 273.748 343.332C279.586 344.49 285.7 343.549 290.766 340.711C292.369 339.802 293.835 338.713 295.129 337.472C296.394 336.251 297.488 334.897 298.386 333.44C300.563 329.896 301.487 325.846 301.034 321.823C300.586 317.79 298.849 313.956 296.031 310.78L282.162 295.131L268.287 279.453Z" fill="#040400" stroke="#040400" stroke-width="3" stroke-miterlimit="10"/>
<path d="M187.376 296.589C190.346 296.349 193.337 296.761 196.088 297.791C198.38 298.721 199.955 300.117 200.495 301.761C200.622 302.184 200.693 302.618 200.704 303.055C200.747 303.85 200.526 304.639 200.069 305.324C199.066 306.736 196.863 307.519 193.897 307.592C190.217 307.557 186.581 306.873 183.198 305.579C183.623 305.093 184.019 304.587 184.385 304.064C184.818 303.448 185.21 302.81 185.56 302.153C186.493 300.396 187.108 298.518 187.382 296.589H187.376Z" fill="#FC762B" stroke="#070707" stroke-width="3" stroke-miterlimit="10" stroke-linecap="round"/>
<path d="M214.128 286.923C214.128 287.569 213.877 288.195 213.418 288.693C212.96 289.192 212.321 289.534 211.612 289.659C210.903 289.785 210.168 289.687 209.53 289.383C208.893 289.078 208.394 288.586 208.117 287.989C207.841 287.393 207.805 286.729 208.015 286.111C208.225 285.493 208.668 284.96 209.269 284.601C209.87 284.243 210.592 284.082 211.311 284.145C212.031 284.209 212.703 284.493 213.214 284.949C213.505 285.208 213.735 285.516 213.892 285.855C214.049 286.194 214.129 286.557 214.128 286.923Z" fill="#ECE7E1" stroke="black" stroke-width="3" stroke-miterlimit="10" stroke-linecap="round"/>
<path d="M200.355 323.65C203.6 323.928 207.124 324.126 210.903 324.217C214.681 324.308 218.713 324.217 222.968 323.939C228.079 323.623 233.167 323.055 238.208 322.237C242.881 321.466 247.098 320.536 250.908 319.589L253.067 323.797L255.232 328C249.998 329.787 244.61 331.191 239.122 332.197C232.228 333.458 225.203 334.055 218.167 333.978C215.551 333.944 213.036 333.82 210.636 333.627C208.236 333.434 205.956 333.167 203.791 332.855L202.082 328.233L200.355 323.65Z" fill="#DBCAF4" stroke="black" stroke-width="3" stroke-miterlimit="10" stroke-linecap="round"/>
<path d="M320.11 239.21C320.51 238.535 320.904 237.832 321.285 237.089C321.666 236.346 322.04 235.569 322.396 234.752C323.406 232.431 324.19 230.036 324.739 227.594C325.194 225.56 325.487 223.5 325.615 221.428C326.633 221.487 327.638 221.662 328.606 221.95C329.862 222.312 330.991 222.959 331.883 223.828C333.826 225.779 334.296 228.842 333.566 231.769C332.835 234.695 330.905 237.441 328.054 238.774C326.611 239.429 325.004 239.745 323.386 239.692C322.276 239.657 321.175 239.495 320.11 239.21Z" fill="#F2B3C1" stroke="black" stroke-width="3" stroke-miterlimit="10" stroke-linecap="round"/>
<path d="M255.289 223.192L235.845 223.652L216.402 224.111L226.574 238.921L236.741 253.731L246.012 238.461L255.289 223.192Z" fill="#040400" stroke="#040400" stroke-width="3" stroke-miterlimit="10"/>
<path d="M234.74 347.234L249.644 336.457L264.554 325.68C268.161 323.181 271.892 320.844 275.749 318.67C279.608 316.499 283.596 314.515 287.693 312.726C292.697 310.542 298.209 308.494 303.257 307.388C308.305 306.282 312.89 306.118 316.04 307.711C318.276 307.268 320.594 307.265 322.832 307.702C325.069 308.139 327.174 309.005 329 310.241C329.838 310.809 330.613 311.45 331.311 312.153C332.183 312.283 333.035 312.502 333.851 312.805C335.294 313.34 336.591 314.146 337.654 315.167C338.718 316.189 339.524 317.403 340.017 318.727C340.326 319.537 340.518 320.38 340.589 321.234L345.567 326.117L350.545 331.006C351.683 331.915 352.427 333.152 352.647 334.5C352.755 335.042 352.735 335.597 352.59 336.131C352.444 336.665 352.176 337.166 351.803 337.603C351.313 338.051 350.715 338.393 350.055 338.604C349.395 338.814 348.689 338.887 347.993 338.817C347.124 338.758 346.278 338.541 345.507 338.179C344.736 337.817 344.057 337.318 343.51 336.713C342.392 335.657 341.141 334.72 339.782 333.922C337.617 332.638 335.193 331.744 332.645 331.29L332.283 331.228L331.927 331.177C330.13 330.922 328.301 330.904 326.498 331.126C324.693 331.351 322.929 331.789 321.253 332.43C315.032 334.767 309.026 337.536 303.289 340.711C296.837 344.364 291.573 348.652 292.322 352.623C292.405 353.053 292.555 353.471 292.767 353.865C293.017 354.328 293.333 354.761 293.707 355.152C293.707 355.152 294.57 356.559 297.167 356.854C299.764 357.149 304.089 356.429 311.029 352.106C311.537 351.789 312.039 351.466 312.534 351.131C313.03 350.796 313.519 350.462 314.001 350.116C315.555 349.004 317.298 348.121 319.164 347.501C321.393 346.837 323.825 346.809 325.571 348.72C326.184 349.12 326.662 349.663 326.952 350.289C327.242 350.916 327.333 351.601 327.216 352.271C326.885 354.704 324.256 358.47 315.043 363.768C312.972 364.952 310.911 366.147 308.858 367.353C306.8 368.555 304.756 369.769 302.724 371.011L284.417 382.219L266.103 393.382C260.875 385.691 255.647 377.999 250.419 370.308L234.74 347.234Z" fill="#F2B3C1" stroke="black" stroke-width="3" stroke-miterlimit="10" stroke-linecap="round"/>
<path d="M325.031 226.136C323.126 236.301 317.494 244.916 309.886 250.628C302.279 256.34 292.741 259.136 282.994 257.718C273.247 256.3 265.214 250.855 260.102 243.254C254.991 235.654 252.73 225.853 254.635 215.688C256.54 205.524 262.173 196.908 269.78 191.191C277.387 185.473 286.925 182.683 296.672 184.101C306.419 185.519 314.452 190.97 319.564 198.57C324.676 206.171 326.924 215.961 325.031 226.136Z" fill="#F2B3C1" stroke="black" stroke-width="3" stroke-miterlimit="10" stroke-linecap="round"/>
<path d="M299.625 218.763C299.528 219.267 299.213 219.717 298.749 220.016C298.459 220.201 298.123 220.319 297.77 220.36C297.417 220.401 297.058 220.364 296.725 220.252C296.393 220.14 296.096 219.956 295.861 219.717C295.627 219.478 295.462 219.191 295.381 218.881C295.3 218.571 295.306 218.249 295.398 217.942C295.491 217.635 295.666 217.353 295.909 217.121C296.152 216.889 296.456 216.714 296.793 216.611C297.129 216.509 297.489 216.482 297.84 216.534C298.122 216.575 298.391 216.665 298.633 216.8C298.875 216.934 299.085 217.11 299.251 217.317C299.417 217.524 299.535 217.759 299.599 218.007C299.663 218.255 299.672 218.512 299.625 218.763Z" fill="#040400"/>
<path d="M273.761 215.552C273.702 215.865 273.557 216.161 273.339 216.412C273.122 216.663 272.839 216.863 272.514 216.993C272.19 217.124 271.834 217.181 271.48 217.159C271.125 217.137 270.781 217.038 270.48 216.87C270.178 216.702 269.927 216.47 269.75 216.194C269.572 215.919 269.473 215.609 269.462 215.291C269.451 214.974 269.527 214.659 269.684 214.374C269.842 214.089 270.075 213.843 270.364 213.658C270.713 213.434 271.128 213.308 271.557 213.296C271.986 213.284 272.409 213.386 272.773 213.589C273.137 213.792 273.425 214.087 273.601 214.436C273.777 214.786 273.833 215.174 273.761 215.552Z" fill="#040400"/>
<path d="M279.737 224.435L278.041 222.495L276.352 220.555C276.329 220.531 276.314 220.502 276.308 220.471C276.303 220.44 276.307 220.408 276.32 220.379C276.333 220.349 276.355 220.323 276.383 220.303C276.411 220.284 276.444 220.27 276.479 220.266L279.019 220.096L281.559 219.92L282.607 214.276L283.661 208.604" stroke="black" stroke-width="3" stroke-miterlimit="10" stroke-linecap="round"/>
<path d="M288.925 230.402C288.276 231.407 287.329 232.234 286.188 232.789C284.988 233.374 283.644 233.682 282.277 233.686C280.781 233.693 279.31 233.345 278.016 232.676C276.771 232.042 275.76 231.098 275.107 229.959" stroke="black" stroke-width="3" stroke-miterlimit="10" stroke-linecap="round"/>
<path d="M294.716 207.175L300.812 209.551L306.908 211.933" stroke="black" stroke-width="3" stroke-miterlimit="10" stroke-linecap="round"/>
<path d="M340.576 321.188C340.576 321.188 338.036 319.26 331.47 319.379C324.904 319.498 314.325 321.648 298.342 329.827" stroke="black" stroke-width="3" stroke-miterlimit="10" stroke-linecap="round"/>
<path d="M278.181 206.137L271.621 207.555L265.068 208.967" stroke="black" stroke-width="3" stroke-miterlimit="10" stroke-linecap="round"/>
<path d="M292.652 322.833C292.652 322.833 298.609 320.099 306.413 317.388C314.217 314.677 323.888 311.999 331.311 312.107" stroke="black" stroke-width="3" stroke-miterlimit="10" stroke-linecap="round"/>
<path d="M308.267 229.125C308.052 230.291 307.391 231.354 306.397 232.133C305.402 232.912 304.137 233.359 302.815 233.397C301.493 233.436 300.197 233.064 299.148 232.344C298.099 231.625 297.362 230.603 297.062 229.453C296.762 228.302 296.918 227.094 297.504 226.035C298.089 224.976 299.068 224.131 300.273 223.644C301.477 223.157 302.834 223.059 304.111 223.365C305.388 223.672 306.507 224.364 307.276 225.325C308.157 226.425 308.513 227.791 308.267 229.125Z" fill="#FF6406" stroke="#070707" stroke-width="3" stroke-miterlimit="10" stroke-linecap="round"/>
<path d="M273.564 224.537C273.348 225.702 272.686 226.764 271.692 227.542C270.697 228.32 269.431 228.766 268.11 228.804C266.788 228.842 265.493 228.469 264.444 227.75C263.396 227.03 262.659 226.008 262.36 224.858C262.06 223.707 262.217 222.5 262.802 221.441C263.388 220.382 264.366 219.537 265.571 219.051C266.776 218.564 268.132 218.465 269.409 218.772C270.686 219.078 271.804 219.77 272.574 220.731C273.011 221.276 273.323 221.893 273.493 222.546C273.663 223.199 273.687 223.875 273.564 224.537Z" fill="#FF6406" stroke="#070707" stroke-width="3" stroke-miterlimit="10" stroke-linecap="round"/>
<path d="M259.169 203.261C264.025 204.07 268.99 204.216 273.894 203.692C282.257 202.841 292.621 199.846 300.628 191.293C302.174 195.84 304.209 200.244 306.705 204.441C310.807 211.338 317.055 218.87 325.634 221.428C326.654 221.493 327.658 221.684 328.619 221.996C329.579 222.264 330.468 222.705 331.232 223.29C331.996 223.875 332.62 224.592 333.064 225.399C333.064 225.399 337.896 216 336.74 204.98C335.585 193.959 328.441 181.265 304.489 174.708C296.998 172.96 289.134 172.933 281.629 174.629C269.418 177.465 255.664 186.143 249.485 209.341C250.154 209.073 250.858 208.883 251.581 208.774C253.162 208.494 254.801 208.636 256.292 209.183L257.753 206.239L259.169 203.261Z" fill="#040400" stroke="#040400" stroke-width="3" stroke-miterlimit="10"/>
<path d="M288.881 316.889C290.9 315.976 293.053 315.057 295.345 314.149C297.637 313.242 300.057 312.345 302.609 311.489C304.997 310.684 307.321 309.969 309.563 309.339C311.804 308.71 313.969 308.148 316.04 307.638" stroke="black" stroke-width="3" stroke-miterlimit="10" stroke-linecap="round"/>
<path d="M352.685 344.772L377.45 363.365L402.215 381.958" stroke="black" stroke-width="3" stroke-miterlimit="10" stroke-linecap="round"/>
<path d="M447.751 189.546C448.386 201.684 444.43 212.886 437.471 221.179C430.511 229.471 420.573 234.854 409.302 235.359C398.031 235.864 387.56 231.428 379.73 223.811C371.901 216.193 366.751 205.411 366.097 193.272C365.443 181.134 369.424 169.938 376.377 161.645C383.331 153.353 393.275 147.964 404.546 147.465C415.817 146.966 426.288 151.402 434.105 159.019C441.922 166.637 447.097 177.408 447.751 189.546Z" fill="#F2B3C1" stroke="black" stroke-width="3" stroke-miterlimit="10" stroke-linecap="round"/>
<path d="M410.21 187.442C410.245 187.895 410.128 188.347 409.872 188.74C409.616 189.132 409.235 189.447 408.776 189.644C408.318 189.841 407.804 189.91 407.301 189.843C406.798 189.776 406.33 189.576 405.956 189.268C405.455 188.859 405.154 188.291 405.117 187.686C405.084 187.231 405.204 186.778 405.462 186.385C405.721 185.993 406.106 185.679 406.567 185.484C407.028 185.289 407.544 185.223 408.047 185.294C408.551 185.365 409.019 185.57 409.391 185.882C409.883 186.285 410.177 186.846 410.21 187.442Z" fill="#040400"/>
<path d="M383.14 192.615C383.178 193.218 382.95 193.81 382.505 194.265C382.279 194.489 382.007 194.67 381.703 194.799C381.399 194.929 381.069 195.003 380.732 195.019C380.396 195.034 380.06 194.991 379.742 194.89C379.425 194.789 379.132 194.634 378.882 194.432C378.632 194.231 378.429 193.987 378.284 193.716C378.139 193.444 378.056 193.15 378.038 192.849C378.021 192.549 378.07 192.248 378.183 191.964C378.295 191.681 378.469 191.42 378.695 191.197C379.153 190.749 379.789 190.481 380.467 190.448C380.802 190.431 381.138 190.474 381.455 190.574C381.772 190.674 382.064 190.829 382.313 191.031C382.563 191.233 382.765 191.476 382.908 191.748C383.051 192.02 383.132 192.314 383.146 192.615H383.14Z" fill="#040400"/>
<path d="M393.814 200.612L390.963 199.217L388.112 197.776C388.076 197.758 388.046 197.731 388.025 197.699C388.004 197.668 387.992 197.632 387.991 197.595C387.989 197.557 387.999 197.52 388.019 197.487C388.039 197.454 388.069 197.426 388.106 197.407L390.779 196.154L393.452 194.9L391.636 188.343L389.82 181.792" stroke="black" stroke-width="3" stroke-miterlimit="10" stroke-linecap="round"/>
<path d="M406.495 204.634C406.192 205.976 405.477 207.217 404.432 208.218C403.335 209.274 401.959 210.067 400.431 210.527C398.759 211.033 396.966 211.133 395.237 210.816C393.577 210.524 392.051 209.802 390.849 208.74" stroke="black" stroke-width="3" stroke-miterlimit="10" stroke-linecap="round"/>
<path d="M401.701 175.309L409.442 174.169L417.182 173.029" stroke="black" stroke-width="3" stroke-miterlimit="10" stroke-linecap="round"/>
<path d="M384.81 177.958L377.266 180.227L369.722 182.496" stroke="black" stroke-width="3" stroke-miterlimit="10" stroke-linecap="round"/>
<path d="M447.173 199.818C447.37 198.684 447.535 197.447 447.656 196.142C447.777 194.838 447.84 193.465 447.834 192.019C447.83 189.507 447.618 186.999 447.199 184.515C446.857 182.465 446.38 180.434 445.77 178.434C447.089 178.135 448.448 177.994 449.809 178.015C451.662 178.013 453.474 178.503 455.016 179.421C457.892 181.231 459.264 184.668 459.2 188.19C459.137 191.713 457.645 195.326 454.755 197.487C453.558 198.375 452.158 199.02 450.653 199.376C449.518 199.651 448.349 199.8 447.173 199.818Z" fill="#F2B3C1" stroke="black" stroke-width="3" stroke-miterlimit="10" stroke-linecap="round"/>
<path d="M423.913 197.578C423.989 198.967 423.523 200.336 422.595 201.453C421.667 202.57 420.334 203.365 418.824 203.702C417.313 204.04 415.718 203.899 414.311 203.304C412.903 202.709 411.77 201.697 411.105 200.439C410.439 199.182 410.283 197.757 410.661 196.408C411.04 195.059 411.93 193.869 413.181 193.04C414.431 192.212 415.965 191.796 417.52 191.865C419.075 191.933 420.556 192.48 421.71 193.414C422.366 193.944 422.899 194.585 423.277 195.299C423.656 196.014 423.872 196.788 423.913 197.578Z" fill="#FF6406" stroke="#070707" stroke-width="3" stroke-miterlimit="10" stroke-linecap="round"/>
<path d="M386.029 205.621C386.105 207.011 385.64 208.383 384.711 209.501C383.782 210.619 382.448 211.415 380.936 211.753C379.424 212.091 377.827 211.951 376.418 211.355C375.009 210.76 373.875 209.746 373.209 208.487C372.543 207.229 372.386 205.802 372.765 204.452C373.144 203.101 374.035 201.91 375.288 201.081C376.54 200.252 378.075 199.836 379.632 199.905C381.189 199.973 382.671 200.522 383.826 201.457C384.483 201.987 385.016 202.627 385.394 203.342C385.772 204.057 385.988 204.831 386.029 205.621Z" fill="#FF6406" stroke="#070707" stroke-width="3" stroke-miterlimit="10" stroke-linecap="round"/>
<path d="M370.554 211.389C370.11 210.379 369.672 209.313 369.284 208.196C368.897 207.078 368.472 205.927 368.103 204.685C367.308 202.058 366.702 199.388 366.287 196.693C365.939 194.39 365.727 192.073 365.652 189.75C364.488 189.646 363.314 189.678 362.16 189.847C360.662 190.061 359.254 190.625 358.077 191.48C355.473 193.426 354.902 196.908 355.721 200.414C356.54 203.919 358.75 207.458 361.702 209.489C363.185 210.494 364.937 211.135 366.782 211.349C368.032 211.509 369.3 211.523 370.554 211.389Z" fill="#F2B3C1" stroke="black" stroke-width="3" stroke-miterlimit="10" stroke-linecap="round"/>
<path d="M386.531 160.273C386.521 163.749 385.162 167.114 382.685 169.796C380.209 172.477 376.768 174.309 372.949 174.978C369.13 175.648 365.17 175.114 361.742 173.467C358.315 171.821 355.633 169.163 354.153 165.948C352.673 162.733 352.486 159.16 353.626 155.836C354.765 152.512 357.159 149.644 360.401 147.72C363.642 145.796 367.53 144.936 371.402 145.285C375.274 145.635 378.89 147.173 381.635 149.638C383.195 151.035 384.43 152.694 385.27 154.519C386.11 156.344 386.539 158.299 386.531 160.273Z" fill="#040400" stroke="#040400" stroke-width="3" stroke-miterlimit="10"/>
<path d="M416.986 150.08C416.985 154.986 415.08 159.741 411.595 163.534C408.11 167.326 403.261 169.922 397.873 170.879C392.486 171.836 386.894 171.095 382.049 168.781C377.205 166.468 373.409 162.726 371.307 158.193C369.205 153.66 368.928 148.616 370.523 143.921C372.118 139.226 375.486 135.17 380.053 132.444C384.621 129.719 390.105 128.492 395.571 128.973C401.038 129.454 406.148 131.614 410.032 135.083C412.241 137.05 413.993 139.387 415.186 141.961C416.379 144.535 416.991 147.294 416.986 150.08Z" fill="#040400" stroke="#040400" stroke-width="3" stroke-miterlimit="10"/>
<path d="M455.162 150.08C455.169 154.988 453.272 159.746 449.792 163.544C446.313 167.342 441.467 169.945 436.08 170.909C430.693 171.873 425.098 171.14 420.249 168.833C415.4 166.526 411.596 162.789 409.486 158.258C407.375 153.727 407.089 148.682 408.675 143.984C410.262 139.285 413.623 135.224 418.186 132.49C422.749 129.757 428.232 128.522 433.7 128.995C439.169 129.467 444.285 131.619 448.177 135.083C450.391 137.048 452.148 139.384 453.347 141.958C454.546 144.532 455.162 147.292 455.162 150.08Z" fill="#040400" stroke="#040400" stroke-width="3" stroke-miterlimit="10"/>
<path d="M219.126 123.898C216.459 134.873 218.294 145.639 223.425 154.17C228.556 162.7 236.982 168.996 247.485 171.033C257.988 173.069 268.573 170.465 277.203 164.606C285.833 158.747 292.513 149.638 295.18 138.662C297.847 127.687 296.018 116.916 290.881 108.385C285.744 99.8542 277.33 93.5582 266.827 91.522C256.324 89.4857 245.739 92.0892 237.109 97.9484C228.479 103.808 221.799 112.917 219.126 123.898Z" fill="#F2B3C1" stroke="black" stroke-width="3" stroke-miterlimit="10" stroke-linecap="round"/>
<path d="M428.403 168.582C428.815 172.124 429.863 175.583 431.508 178.826C434.124 183.698 438.868 188.094 447.383 186.148C447.383 186.148 447.224 184.918 446.945 183.341C446.668 181.685 446.276 180.046 445.77 178.434C445.77 178.434 446.405 178.304 447.338 178.196C448.532 178.055 449.738 178.019 450.939 178.088C451.375 176.306 451.664 174.498 451.803 172.677C452.182 168.346 451.891 163.989 450.939 159.728L439.674 164.152L428.403 168.582Z" fill="#040400" stroke="#040400" stroke-width="3" stroke-miterlimit="10"/>
<path d="M463.55 344.772L455.397 374.67L447.25 404.567C437.83 402.424 428.681 399.427 419.945 395.622C413.659 392.871 407.625 389.683 401.898 386.087C398 383.655 394.308 380.97 390.849 378.056C385.464 373.522 380.731 368.409 376.758 362.832C375.083 360.377 373.625 357.809 372.396 355.152C370.427 350.858 368.897 345.652 370.631 342.021C370.821 341.593 371.066 341.186 371.361 340.808C371.791 340.24 372.38 339.782 373.069 339.48C374.225 339.049 375.515 339.001 376.707 339.344C377.667 339.577 378.573 339.961 379.381 340.479C381.39 341.887 383.174 343.534 384.683 345.374C386.239 347.2 387.636 349.151 389.001 351.012C390.03 352.506 391.251 353.888 392.64 355.13C394.17 356.4 395.954 357.211 397.802 356.502C398.152 356.361 398.459 356.147 398.698 355.878C398.942 355.608 399.133 355.303 399.263 354.976C400.533 351.743 399.263 347.347 397.656 343.757C396.664 341.557 395.482 339.429 394.119 337.393C391.821 334.276 389.232 331.339 386.379 328.613C383.102 325.38 378.968 321.619 373.482 316.645C371.407 314.872 369.482 312.965 367.722 310.939C366.243 309.078 365.436 307.297 366.059 305.686C366.347 304.977 366.853 304.354 367.519 303.888C368.128 303.451 368.801 303.09 369.519 302.816C368.122 301.695 367.22 300.164 366.979 298.5C366.864 297.832 366.914 297.149 367.124 296.5C367.335 295.85 367.701 295.249 368.199 294.739C369.067 293.988 370.216 293.551 371.424 293.514C372.112 293.468 372.803 293.5 373.482 293.611C372.795 292.39 372.496 291.025 372.618 289.663C372.659 288.668 373.072 287.714 373.79 286.952C374.507 286.191 375.49 285.666 376.58 285.46C377.128 285.341 377.688 285.274 378.251 285.261C378.785 285.253 379.317 285.314 379.832 285.443C380.525 285.629 381.206 285.85 381.87 286.107C382.632 286.39 383.521 286.73 384.512 287.139C385.502 287.547 386.594 288.029 387.776 288.585C388.201 288.194 388.652 287.723 389.128 287.269C389.573 286.826 390.074 286.43 390.62 286.09C392.932 284.751 395.834 285.318 398.596 286.509C401.118 287.713 403.517 289.111 405.765 290.69C409.171 292.899 412.358 295.366 415.29 298.063C416.996 299.622 418.607 301.262 420.116 302.975C428.797 312.827 433.756 318.857 437.509 323.19C440.573 326.901 443.971 330.382 447.669 333.599C449.421 335.113 451.606 336.888 454.254 338.8C457.227 340.942 460.33 342.936 463.55 344.772Z" fill="#F2B3C1" stroke="black" stroke-width="3" stroke-miterlimit="10" stroke-linecap="round"/>
<path d="M369.519 302.822C372.059 304.297 374.714 305.953 377.469 307.825C380.225 309.697 383.058 311.795 385.934 314.064C389.642 317.044 393.163 320.204 396.481 323.531C399.555 326.622 402.196 329.6 404.47 332.362" stroke="black" stroke-width="3" stroke-miterlimit="10" stroke-linecap="round"/>
<path d="M373.475 293.633C376.326 295.204 379.381 297.037 382.562 299.135C385.744 301.234 389.058 303.639 392.405 306.344C396.275 309.471 399.931 312.802 403.352 316.321C406.527 319.566 409.169 322.68 411.417 325.521" stroke="black" stroke-width="3" stroke-miterlimit="10" stroke-linecap="round"/>
<path d="M387.775 288.602C390.798 290.735 393.992 293.14 397.3 295.891C400.609 298.642 403.955 301.671 407.321 305.051C409.645 307.382 411.766 309.685 413.741 311.931C415.715 314.177 417.487 316.373 419.119 318.488" stroke="black" stroke-width="3" stroke-miterlimit="10" stroke-linecap="round"/>
<path d="M537.502 363.365L500.526 354.069L463.556 344.772" stroke="black" stroke-width="3" stroke-miterlimit="10" stroke-linecap="round"/>
<path d="M217.913 133.342C217.913 132.27 217.983 131.13 218.097 129.939C218.211 128.747 218.383 127.471 218.63 126.155C219.058 123.866 219.676 121.608 220.478 119.4C221.141 117.575 221.926 115.787 222.828 114.045C221.674 113.596 220.459 113.283 219.215 113.115C217.527 112.861 215.792 113.058 214.23 113.682C211.296 114.942 209.467 117.891 208.928 121.113C208.388 124.335 209.137 127.829 211.379 130.188C212.323 131.156 213.491 131.93 214.801 132.457C215.795 132.862 216.84 133.159 217.913 133.342Z" fill="#F2B3C1" stroke="black" stroke-width="3" stroke-miterlimit="10" stroke-linecap="round"/>
<path d="M489.648 312.816L495.294 333.27L500.939 353.717" stroke="black" stroke-width="3" stroke-miterlimit="10" stroke-linecap="round"/>
<path d="M224.923 110.506C228.591 112.406 232.691 113.543 236.918 113.83C244.062 114.358 253.505 112.599 262.687 103.433C263.367 107.231 264.888 110.87 267.161 114.136C269.435 117.403 272.415 120.232 275.926 122.457C282.448 126.541 290.328 128.129 297.351 126.462C302.609 125.214 307.295 122.174 310.775 117.988C314.435 113.5 316.567 108.165 316.916 102.622C316.858 96.5258 314.634 90.6033 310.566 85.7082C306.836 81.1654 301.426 77.95 295.294 76.6329C289.76 75.597 284 76.1942 278.879 78.3345C276.089 79.4388 273.486 80.886 271.145 82.6339C267.449 80.7928 263.466 79.4546 259.328 78.6635C252.724 77.3816 244.088 77.1434 235.267 80.9663C228.598 83.8802 223.066 88.5212 219.392 94.2843C215.629 100.171 213.839 106.901 214.236 113.671C214.692 113.502 215.161 113.364 215.64 113.257C217.318 112.873 219.08 112.887 220.751 113.297C221.471 113.473 222.169 113.715 222.834 114.017C222.965 113.756 223.105 113.49 223.253 113.218C223.399 112.951 223.558 112.65 223.723 112.395C223.888 112.14 224.123 111.726 224.32 111.408C224.517 111.091 224.72 110.796 224.923 110.506Z" fill="#ECE7E1" stroke="black" stroke-width="3" stroke-miterlimit="10" stroke-linecap="round"/>
<path d="M287.941 154.555C288.531 153.693 289.122 152.785 289.7 151.821C290.277 150.857 290.849 149.847 291.401 148.787C292.593 146.505 293.616 144.155 294.462 141.753C295.181 139.704 295.774 137.621 296.24 135.514C297.351 135.575 298.449 135.765 299.504 136.081C300.87 136.48 302.097 137.188 303.066 138.135C305.181 140.273 305.124 143.529 303.759 146.614C302.393 149.7 299.72 152.621 296.602 154.101C295.03 154.812 293.282 155.153 291.522 155.094C290.308 155.049 289.105 154.868 287.941 154.555Z" fill="#F2B3C1" stroke="black" stroke-width="3" stroke-miterlimit="10" stroke-linecap="round"/>
<path d="M498.139 237.957C498.539 236.584 498.774 235.121 499.053 233.714C499.252 232.427 499.566 231.156 499.993 229.914C500.774 227.9 501.682 225.444 503.079 223.459C504.476 221.474 506.355 219.971 509.073 219.863C509.073 219.863 510.223 219.823 511.245 221.264C512.267 222.705 513.15 225.631 512.636 231.576C512.288 235.505 511.456 239.387 510.153 243.152C508.846 246.923 507.094 250.558 504.927 253.997L499.282 263.004L493.63 272C493.045 272.933 492.593 273.928 492.284 274.961C491.976 275.995 491.835 277.062 491.865 278.132C491.823 279.612 492.357 281.059 493.376 282.227C494.468 283.361 496.291 284.031 499.231 283.792C497.941 285.382 496.853 287.094 495.986 288.897C494.716 291.665 494.081 294.876 496.799 296.628C497.937 297.434 499.368 297.838 500.818 297.763C503.257 297.627 506.533 296.095 509.918 290.508C509.918 290.508 511.569 293.344 514.401 294.359C517.233 295.375 521.227 294.518 525.926 287.128C526.537 287.902 527.39 288.498 528.378 288.841C529.367 289.184 530.447 289.259 531.482 289.056C535.07 288.324 540.283 284.189 546.78 270.588C547.685 268.697 548.617 266.807 549.574 264.916C550.53 263.025 551.5 261.152 552.482 259.295C555.657 253.283 560.267 242.665 560.953 231.201C561.639 219.738 558.375 207.43 545.713 198.031C542.952 195.967 539.848 194.3 536.512 193.091C533.185 191.887 529.647 191.213 526.059 191.1C520.325 190.917 514.658 192.253 509.772 194.94C504.057 198.06 498.342 203.448 493.408 212.387C491.557 215.812 489.972 219.347 488.664 222.966C486.556 228.836 484.975 235.881 487.083 240.549C487.577 241.655 488.499 242.567 489.68 243.118C490.26 243.394 490.896 243.563 491.551 243.616C492.205 243.668 492.865 243.603 493.49 243.425L493.694 243.362L493.897 243.294C495.043 242.868 496.011 242.132 496.665 241.19C497.342 240.187 497.839 239.096 498.139 237.957Z" fill="#F2B3C1" stroke="black" stroke-width="3" stroke-miterlimit="10" stroke-linecap="round"/>
<path d="M520.503 247.582C518.717 251.405 516.727 255.351 514.534 259.42C512.331 263.481 509.905 267.65 507.238 271.898C505.917 274.004 504.588 276.048 503.25 278.03C501.91 280.009 500.571 281.938 499.231 283.798" stroke="black" stroke-width="3" stroke-miterlimit="10" stroke-linecap="round"/>
<path d="M531.374 252.562C531.374 252.562 527.672 259.885 523.119 268.285C518.566 276.685 513.239 286.18 509.905 290.508" stroke="black" stroke-width="3" stroke-miterlimit="10" stroke-linecap="round"/>
<path d="M541.585 257.225L533.756 272.176L525.926 287.128" stroke="black" stroke-width="3" stroke-miterlimit="10" stroke-linecap="round"/>
<path d="M388.067 96.1673C388.702 107.387 384.892 117.721 378.282 125.401C371.672 133.081 362.191 138.044 351.46 138.52C340.728 138.997 330.752 134.879 323.316 127.834C315.881 120.79 310.959 110.818 310.337 99.6102C309.715 88.4023 313.512 78.0565 320.122 70.3709C326.733 62.6853 336.213 57.7279 346.945 57.2515C357.676 56.775 367.646 60.8929 375.088 67.9376C382.53 74.9822 387.445 84.9423 388.067 96.1673Z" fill="#F2B3C1" stroke="black" stroke-width="3" stroke-miterlimit="10" stroke-linecap="round"/>
<path d="M353.384 97.7839C353.409 98.2699 353.246 98.7487 352.921 99.139C352.595 99.5292 352.129 99.8068 351.601 99.9245C351.072 100.042 350.514 99.9926 350.022 99.7844C349.53 99.5761 349.134 99.222 348.901 98.7822C348.668 98.3424 348.613 97.8442 348.745 97.3722C348.877 96.9003 349.188 96.4838 349.625 96.1936C350.063 95.9035 350.599 95.7575 351.143 95.7807C351.687 95.8038 352.205 95.9946 352.609 96.3206C352.84 96.5069 353.027 96.7321 353.16 96.9832C353.293 97.2344 353.369 97.5065 353.384 97.7839Z" fill="#040400"/>
<path d="M328.079 104.817C328.091 105.095 328.041 105.373 327.932 105.634C327.823 105.895 327.657 106.134 327.444 106.337C327.183 106.595 326.856 106.791 326.49 106.908C326.124 107.026 325.732 107.06 325.347 107.01C324.962 106.959 324.598 106.825 324.286 106.618C323.973 106.411 323.723 106.139 323.557 105.825C323.39 105.512 323.313 105.166 323.332 104.819C323.351 104.472 323.466 104.135 323.666 103.837C323.865 103.54 324.144 103.291 324.478 103.112C324.811 102.934 325.189 102.832 325.577 102.815C325.887 102.8 326.197 102.841 326.49 102.934C326.782 103.027 327.051 103.17 327.281 103.356C327.511 103.542 327.698 103.767 327.831 104.018C327.963 104.269 328.039 104.54 328.054 104.817H328.079Z" fill="#040400"/>
<path d="M339.852 110.427L337.217 109.139L334.588 107.852C334.553 107.835 334.524 107.81 334.503 107.78C334.482 107.751 334.47 107.717 334.467 107.682C334.468 107.647 334.478 107.614 334.497 107.584C334.516 107.555 334.543 107.529 334.575 107.511L337.045 106.377L339.522 105.243L337.82 99.1225L336.144 93.0648" stroke="black" stroke-width="3" stroke-miterlimit="10" stroke-linecap="round"/>
<path d="M352.501 112.004C352.353 113.264 351.815 114.462 350.945 115.464C350.037 116.52 348.847 117.356 347.485 117.897C345.996 118.491 344.356 118.72 342.735 118.56C341.181 118.417 339.708 117.868 338.5 116.984" stroke="black" stroke-width="3" stroke-miterlimit="10" stroke-linecap="round"/>
<path d="M343.821 89.9564L351.022 89.1907L358.223 88.4136" stroke="black" stroke-width="3" stroke-miterlimit="10" stroke-linecap="round"/>
<path d="M329.959 93.1668L323.361 96.0652L316.757 98.9636" stroke="black" stroke-width="3" stroke-miterlimit="10" stroke-linecap="round"/>
<path d="M387.534 105.662C387.718 104.602 387.871 103.467 387.979 102.259C388.087 101.051 388.15 99.7805 388.15 98.4419C388.15 94.2003 387.509 89.9783 386.245 85.8897C387.465 85.6114 388.72 85.4797 389.979 85.4983C391.693 85.4976 393.368 85.9517 394.792 86.8029C397.453 88.4704 398.723 91.6468 398.666 94.9025C398.609 98.1583 397.224 101.499 394.576 103.496C393.464 104.32 392.164 104.918 390.766 105.248C389.712 105.503 388.626 105.642 387.534 105.662Z" fill="#F2B3C1" stroke="black" stroke-width="3" stroke-miterlimit="10" stroke-linecap="round"/>
<path d="M369.259 104.148C369.331 105.434 368.901 106.702 368.043 107.737C367.185 108.771 365.952 109.508 364.554 109.822C363.156 110.135 361.68 110.006 360.377 109.456C359.073 108.906 358.024 107.97 357.407 106.806C356.79 105.643 356.644 104.324 356.994 103.075C357.344 101.826 358.168 100.724 359.325 99.9566C360.483 99.1894 361.902 98.8046 363.342 98.8676C364.782 98.9306 366.152 99.4376 367.22 100.302C367.827 100.791 368.32 101.383 368.67 102.043C369.02 102.703 369.22 103.418 369.259 104.148Z" fill="#FF6406" stroke="#070707" stroke-width="3" stroke-miterlimit="10" stroke-linecap="round"/>
<path d="M331.94 115.895C332.012 117.181 331.582 118.449 330.724 119.484C329.867 120.518 328.633 121.255 327.235 121.569C325.838 121.882 324.361 121.753 323.058 121.203C321.754 120.653 320.705 119.717 320.088 118.553C319.471 117.389 319.325 116.071 319.675 114.822C320.025 113.573 320.849 112.471 322.006 111.703C323.164 110.936 324.584 110.551 326.023 110.614C327.463 110.677 328.834 111.184 329.902 112.049C330.509 112.538 331.001 113.13 331.351 113.79C331.701 114.45 331.901 115.165 331.94 115.895Z" fill="#FF6406" stroke="#070707" stroke-width="3" stroke-miterlimit="10" stroke-linecap="round"/>
<path d="M314.56 116.348C314.137 115.414 313.726 114.431 313.328 113.399C312.934 112.367 312.553 111.283 312.204 110.155C310.816 105.652 310.036 101.017 309.88 96.3489C308.773 96.2507 307.657 96.2812 306.559 96.4396C305.137 96.6328 303.796 97.1527 302.666 97.9484C300.184 99.7408 299.644 102.962 300.425 106.207C301.206 109.451 303.308 112.718 306.14 114.607C307.565 115.532 309.23 116.117 310.979 116.309C312.166 116.455 313.369 116.468 314.56 116.348Z" fill="#F2B3C1" stroke="black" stroke-width="3" stroke-miterlimit="10" stroke-linecap="round"/>
<path d="M309.88 96.3488C309.88 96.3488 316.135 96.0482 323.717 92.265C331.299 88.4817 340.227 81.2158 345.51 67.2796C347.999 71.7266 351.346 75.7472 355.397 79.1569C362.02 84.6644 372.008 89.3212 385.464 85.9066C385.743 85.8385 386.042 85.7761 386.359 85.7251C386.677 85.674 386.994 85.623 387.369 85.5833C387.86 85.5313 388.354 85.5029 388.849 85.4982C389.306 85.4982 389.731 85.4982 390.119 85.5322C390.371 81.4089 390.01 77.2739 389.045 73.2353C387.636 67.3817 384.6 60.5356 378.142 54.9657C369.887 47.8132 358.299 44.6142 346.793 45.1417C335.286 45.6692 323.825 49.9232 315.754 57.6769C307.829 65.2944 305.219 74.4831 304.66 82.0269C304.29 86.8711 304.697 91.7377 305.867 96.4793C306.111 96.4198 306.359 96.3725 306.61 96.3375C306.895 96.2917 307.184 96.2595 307.473 96.241C307.913 96.2129 308.354 96.2129 308.794 96.241C309.158 96.2585 309.521 96.2945 309.88 96.3488Z" fill="#040400" stroke="#040400" stroke-width="3" stroke-miterlimit="10"/>
<path d="M386.283 26.2708C386.283 31.8847 384.104 37.3248 380.117 41.6644C376.13 46.0039 370.582 48.9744 364.418 50.0696C358.254 51.1648 351.855 50.317 346.312 47.6707C340.77 45.0243 336.426 40.7432 334.021 35.5567C331.615 30.3702 331.298 24.5992 333.122 19.2271C334.947 13.8551 338.8 9.2142 344.026 6.09532C349.251 2.97644 355.526 1.57252 361.781 2.12277C368.035 2.67301 373.883 5.14338 378.327 9.11295C380.853 11.3635 382.857 14.038 384.222 16.9825C385.588 19.9271 386.288 23.0837 386.283 26.2708Z" fill="#040400" stroke="#040400" stroke-width="3" stroke-miterlimit="10"/>
<path d="M246.501 130.563C246.37 131.11 246.487 131.681 246.826 132.152C247.165 132.622 247.699 132.954 248.31 133.075C248.768 133.165 249.246 133.131 249.682 132.978C250.118 132.824 250.494 132.559 250.761 132.215C251.029 131.871 251.176 131.464 251.184 131.046C251.193 130.627 251.062 130.216 250.808 129.864C250.554 129.512 250.19 129.235 249.76 129.068C249.33 128.901 248.854 128.852 248.393 128.927C247.932 129.002 247.506 129.197 247.169 129.488C246.832 129.779 246.6 130.153 246.501 130.563Z" fill="#040400"/>
<path d="M275.336 137.868C275.204 138.415 275.321 138.986 275.66 139.456C275.999 139.926 276.534 140.257 277.146 140.375C277.449 140.435 277.762 140.441 278.067 140.392C278.372 140.344 278.664 140.242 278.925 140.092C279.186 139.942 279.411 139.748 279.587 139.52C279.764 139.292 279.888 139.035 279.952 138.764C280.021 138.492 280.029 138.211 279.976 137.937C279.923 137.662 279.809 137.4 279.641 137.165C279.474 136.93 279.256 136.727 279 136.567C278.744 136.408 278.455 136.295 278.15 136.236C277.845 136.177 277.531 136.172 277.224 136.222C276.917 136.272 276.624 136.376 276.362 136.528C276.101 136.68 275.875 136.876 275.699 137.106C275.523 137.336 275.4 137.595 275.336 137.868Z" fill="#040400"/>
<path d="M261.804 141.98L264.484 140.772L267.17 139.57C267.204 139.554 267.233 139.53 267.254 139.501C267.275 139.473 267.288 139.44 267.291 139.405C267.294 139.37 267.287 139.334 267.269 139.302C267.251 139.27 267.223 139.243 267.189 139.224L264.795 137.993L262.369 136.762L264.274 130.755L266.179 124.754" stroke="black" stroke-width="3" stroke-miterlimit="10" stroke-linecap="round"/>
<path d="M248.622 148.429C248.951 149.662 249.659 150.787 250.666 151.679C251.728 152.625 253.038 153.317 254.476 153.693C256.039 154.109 257.698 154.148 259.283 153.807C260.803 153.483 262.184 152.771 263.258 151.759" stroke="black" stroke-width="3" stroke-miterlimit="10" stroke-linecap="round"/>
<path d="M258.445 117.545L251.193 117.228L243.948 116.91" stroke="black" stroke-width="3" stroke-miterlimit="10" stroke-linecap="round"/>
<path d="M277.381 124.091L283.997 126.966L290.608 129.842" stroke="black" stroke-width="3" stroke-miterlimit="10" stroke-linecap="round"/>
<path d="M233.496 139.246C233.189 140.506 233.381 141.821 234.039 142.968C234.696 144.116 235.779 145.024 237.102 145.538C238.425 146.052 239.907 146.14 241.295 145.788C242.682 145.435 243.89 144.664 244.713 143.605C245.535 142.546 245.921 141.265 245.805 139.98C245.688 138.696 245.076 137.487 244.074 136.56C243.071 135.633 241.74 135.045 240.307 134.897C238.873 134.749 237.427 135.049 236.214 135.747C234.825 136.546 233.847 137.804 233.496 139.246Z" fill="#FF6406" stroke="#070707" stroke-width="3" stroke-miterlimit="10" stroke-linecap="round"/>
<path d="M270.434 148.838C270.129 150.094 270.321 151.407 270.978 152.551C271.635 153.695 272.716 154.6 274.036 155.113C275.356 155.625 276.834 155.713 278.219 155.361C279.603 155.009 280.808 154.239 281.629 153.183C282.449 152.126 282.834 150.848 282.719 149.567C282.603 148.285 281.993 147.079 280.993 146.154C279.993 145.229 278.665 144.642 277.236 144.493C275.806 144.344 274.363 144.643 273.152 145.338C272.463 145.733 271.868 146.245 271.402 146.846C270.936 147.446 270.607 148.123 270.434 148.838Z" fill="#FF6406" stroke="#070707" stroke-width="3" stroke-miterlimit="10" stroke-linecap="round"/>
<path d="M285.566 133.07L281.845 132.134L278.13 131.198C277.077 130.934 275.977 130.857 274.891 130.971C273.804 131.085 272.753 131.392 271.799 131.873C271.122 132.209 270.502 132.629 269.957 133.121C269.426 133.61 268.971 134.161 268.605 134.76L264.795 133.711L260.985 132.667C261.188 130.922 260.696 129.169 259.595 127.717C258.494 126.264 256.854 125.205 254.965 124.726L250.19 123.518L245.427 122.315C243.317 121.828 241.076 122.098 239.186 123.068C237.296 124.039 235.906 125.632 235.315 127.506C234.723 129.38 234.978 131.387 236.023 133.096C237.068 134.805 238.821 136.08 240.906 136.649L245.669 137.851L250.425 139.048C250.765 139.133 251.111 139.199 251.46 139.246C252.535 139.39 253.631 139.343 254.686 139.11C255.411 138.95 256.109 138.704 256.762 138.379C257.506 138.007 258.181 137.534 258.762 136.978C259.339 136.427 259.819 135.802 260.185 135.123L263.919 136.15L267.646 137.171C267.49 137.993 267.49 138.833 267.646 139.655C267.811 140.481 268.128 141.276 268.586 142.009C269.122 142.861 269.841 143.61 270.7 144.215C271.557 144.823 272.542 145.27 273.596 145.531L277.317 146.467L281.038 147.403C281.375 147.491 281.719 147.557 282.067 147.601C282.405 147.647 282.747 147.674 283.089 147.681C285.119 147.724 287.096 147.105 288.65 145.939C290.205 144.773 291.23 143.14 291.533 141.348C291.836 139.555 291.397 137.725 290.297 136.201C289.197 134.677 287.513 133.563 285.559 133.07H285.566ZM255.359 136.15C254.728 136.453 254.039 136.646 253.327 136.717C252.611 136.79 251.886 136.738 251.193 136.564L246.437 135.384L241.675 134.187C240.277 133.835 239.093 133.001 238.383 131.87C237.673 130.738 237.496 129.401 237.89 128.152C238.284 126.903 239.217 125.846 240.484 125.212C241.751 124.578 243.249 124.419 244.646 124.771L249.409 125.968L254.165 127.165C254.859 127.337 255.508 127.63 256.076 128.027C256.643 128.424 257.117 128.916 257.471 129.477C257.825 130.037 258.052 130.655 258.138 131.294C258.225 131.933 258.169 132.58 257.975 133.2C257.782 133.82 257.451 134.398 257.003 134.902C256.554 135.411 255.995 135.836 255.359 136.15ZM288.576 141.566C288.185 142.818 287.253 143.879 285.986 144.517C284.719 145.155 283.22 145.318 281.819 144.97L278.13 144.011L274.409 143.075C273.716 142.903 273.069 142.61 272.504 142.213C271.939 141.816 271.469 141.322 271.12 140.761C270.764 140.202 270.537 139.585 270.453 138.946C270.37 138.307 270.429 137.659 270.624 137.04C270.816 136.421 271.144 135.843 271.589 135.338C272.038 134.834 272.593 134.412 273.221 134.096C274.488 133.463 275.983 133.304 277.381 133.654L281.102 134.59L284.823 135.526C285.517 135.699 286.167 135.992 286.734 136.389C287.301 136.787 287.775 137.28 288.129 137.841C288.483 138.402 288.71 139.02 288.796 139.659C288.882 140.298 288.827 140.946 288.633 141.566H288.576Z" fill="#84A1E5" stroke="#070707" stroke-width="3" stroke-miterlimit="10" stroke-linecap="round"/>
<path d="M187.496 340.212C186.885 339.551 186.188 338.957 185.42 338.442C184.287 337.658 182.992 337.08 181.61 336.741C179.05 336.18 176.35 336.447 173.99 337.495C172.488 338.131 171.105 338.969 169.888 339.979L169.564 340.252L169.234 340.524L153.486 353.19L137.719 365.867L137.16 366.292L136.595 366.712C135.406 367.61 134.431 368.711 133.727 369.952C133.022 371.192 132.603 372.545 132.493 373.932C132.352 375.283 132.529 376.644 133.013 377.93C133.497 379.215 134.277 380.396 135.303 381.396C136.329 382.396 137.578 383.192 138.97 383.735C140.361 384.277 141.865 384.553 143.383 384.545C144.941 384.574 146.49 384.324 147.939 383.809C149.387 383.295 150.705 382.527 151.816 381.55L152.337 381.079L152.864 380.62L168.44 367.829L184.01 355.033C185.334 353.92 186.487 352.656 187.439 351.272C188.9 349.134 190.094 346.298 189.224 343.332C189.077 342.841 188.881 342.362 188.64 341.902C188.327 341.304 187.944 340.737 187.496 340.212Z" fill="#ECE7E1" stroke="black" stroke-width="3" stroke-miterlimit="10" stroke-linecap="round"/>
<path d="M254.07 227.486C253.975 226.726 253.898 225.943 253.848 225.127C253.797 224.31 253.771 223.465 253.778 222.591C253.789 220.099 254.044 217.613 254.54 215.161C254.95 213.114 255.521 211.096 256.248 209.12C255.28 208.838 254.274 208.67 253.257 208.621C251.943 208.548 250.63 208.781 249.447 209.296C246.831 210.476 245.135 213.164 244.621 216.102C244.107 219.041 244.773 222.24 246.875 224.423C247.947 225.507 249.311 226.329 250.838 226.811C251.879 227.156 252.965 227.382 254.07 227.486Z" fill="#F2B3C1" stroke="black" stroke-width="3" stroke-miterlimit="10" stroke-linecap="round"/>
<path d="M218.033 355.651L209.817 348.715L201.6 341.772C199.241 340.179 196.464 339.152 193.535 338.788C188.824 338.261 182.74 339.662 177.336 347.393L166.491 364.046L155.638 380.699C154.25 382.989 153.879 385.662 154.597 388.186C154.932 389.453 155.549 390.647 156.411 391.696C157.273 392.745 158.363 393.629 159.616 394.293C160.869 394.958 162.259 395.391 163.703 395.566C165.147 395.74 166.615 395.654 168.021 395.31C169.53 394.972 170.948 394.365 172.189 393.527C173.43 392.689 174.471 391.637 175.247 390.432L182.289 380.79L189.332 371.147L203.683 363.377L218.033 355.651Z" fill="#ECE7E1" stroke="black" stroke-width="3" stroke-miterlimit="10" stroke-linecap="round"/>
<path d="M131.255 290.162C131.255 291.499 130.736 292.794 129.787 293.828C128.838 294.861 127.518 295.569 126.05 295.831C124.582 296.092 123.059 295.891 121.738 295.262C120.418 294.633 119.383 293.615 118.809 292.38C118.234 291.146 118.157 289.772 118.589 288.492C119.022 287.213 119.937 286.107 121.18 285.362C122.423 284.618 123.917 284.281 125.406 284.41C126.896 284.538 128.289 285.124 129.35 286.067C129.955 286.603 130.435 287.241 130.762 287.944C131.089 288.647 131.257 289.401 131.255 290.162Z" fill="#040400" stroke="#040400" stroke-width="3" stroke-miterlimit="10"/>
<path d="M188.449 372.401L191.795 367.563L195.148 362.724" stroke="black" stroke-width="3" stroke-miterlimit="10" stroke-linecap="round"/>
<path d="M468.744 285.279C468.744 284.711 467.112 284.195 464.407 283.793C460.832 283.32 457.226 283.057 453.612 283.004C453.561 279.789 453.185 276.584 452.488 273.43C451.898 271.019 451.123 269.561 450.272 269.561C449.421 269.561 448.64 271.019 448.049 273.43C447.356 276.585 446.98 279.789 446.926 283.004C443.312 283.057 439.706 283.32 436.131 283.793C433.425 284.195 431.793 284.711 431.793 285.279C431.793 285.846 433.425 286.362 436.131 286.765C439.706 287.237 443.312 287.5 446.926 287.553C446.98 290.768 447.356 293.972 448.049 297.127C448.64 299.538 449.421 300.996 450.272 300.996C451.123 300.996 451.898 299.538 452.488 297.127C453.185 293.973 453.561 290.768 453.612 287.553C457.226 287.5 460.832 287.237 464.407 286.765C467.112 286.362 468.744 285.846 468.744 285.279Z" fill="url(#paint0_linear_67_205)" stroke="black" stroke-width="3" stroke-miterlimit="10" stroke-linecap="round"/>
<path d="M121.92 126.638C121.92 125.946 119.926 125.31 116.624 124.823C112.263 124.244 107.863 123.924 103.454 123.864C103.386 119.94 102.927 116.03 102.083 112.18C101.359 109.236 100.413 107.455 99.3775 107.455C98.3424 107.455 97.3899 109.236 96.666 112.18C95.8213 116.03 95.3623 119.94 95.2944 123.864C90.8856 123.924 86.486 124.244 82.1245 124.823C78.8225 125.31 76.8286 125.957 76.8286 126.638C76.8286 127.318 78.8225 127.959 82.1245 128.453C86.4719 129.024 90.8563 129.343 95.25 129.405C95.3174 133.329 95.7764 137.239 96.6216 141.09C97.3455 144.034 98.2916 145.815 99.333 145.815C100.374 145.815 101.314 144.034 102.038 141.09C102.883 137.239 103.342 133.329 103.41 129.405C107.818 129.344 112.218 129.026 116.58 128.453C119.894 127.959 121.92 127.324 121.92 126.638Z" fill="#00AF91" stroke="black" stroke-width="3" stroke-miterlimit="10" stroke-linecap="round"/>
<path d="M483.654 82.8834C477.552 84.0178 473.799 85.1976 471.253 87.4664C468.706 89.7352 467.386 93.093 466.122 98.5438C466.097 98.6654 466.025 98.7753 465.919 98.8545C465.813 98.9336 465.679 98.977 465.541 98.977C465.403 98.977 465.269 98.9336 465.163 98.8545C465.056 98.7753 464.985 98.6654 464.96 98.5438C463.69 93.093 462.369 89.7352 459.829 87.4664C457.289 85.1976 453.536 84.0064 447.428 82.8834C447.291 82.8613 447.168 82.7972 447.08 82.7024C446.991 82.6075 446.943 82.4879 446.943 82.3644C446.943 82.2408 446.991 82.1212 447.08 82.0264C447.168 81.9315 447.291 81.8675 447.428 81.8454C453.536 80.711 457.289 79.5312 459.829 77.2624C462.369 74.9936 463.703 71.6357 464.96 66.1849C464.985 66.0634 465.056 65.9534 465.163 65.8743C465.269 65.7951 465.403 65.7518 465.541 65.7518C465.679 65.7518 465.813 65.7951 465.919 65.8743C466.025 65.9534 466.097 66.0634 466.122 66.1849C467.392 71.6357 468.713 74.9879 471.253 77.2624C473.793 79.5369 477.552 80.7223 483.654 81.8454C483.79 81.8675 483.913 81.9315 484.002 82.0264C484.091 82.1212 484.139 82.2408 484.139 82.3644C484.139 82.4879 484.091 82.6075 484.002 82.7024C483.913 82.7972 483.79 82.8613 483.654 82.8834Z" fill="#00AF91" stroke="black" stroke-width="3" stroke-miterlimit="10" stroke-linecap="round"/>
<path d="M84.69 158.31C81.1721 158.985 78.975 159.717 77.4637 161.067C75.9524 162.417 75.1333 164.379 74.3776 167.522C74.3561 167.615 74.2992 167.699 74.2165 167.759C74.1337 167.819 74.0303 167.852 73.9236 167.852C73.8169 167.852 73.7134 167.819 73.6307 167.759C73.548 167.699 73.4911 167.615 73.4696 167.522C72.7139 164.379 71.8948 162.417 70.3835 161.067C68.8722 159.717 66.6751 158.985 63.1572 158.31C63.0527 158.291 62.9588 158.24 62.8913 158.166C62.8239 158.092 62.7871 158 62.7871 157.905C62.7871 157.809 62.8239 157.717 62.8913 157.643C62.9588 157.569 63.0527 157.518 63.1572 157.499C66.6751 156.824 68.8722 156.092 70.3835 154.743C71.8948 153.393 72.7139 151.43 73.4696 148.288C73.4911 148.194 73.548 148.11 73.6307 148.05C73.7134 147.99 73.8169 147.957 73.9236 147.957C74.0303 147.957 74.1337 147.99 74.2165 148.05C74.2992 148.11 74.3561 148.194 74.3776 148.288C75.1333 151.43 75.9524 153.393 77.4637 154.743C78.975 156.092 81.1721 156.824 84.69 157.499C84.7945 157.518 84.8884 157.569 84.9558 157.643C85.0233 157.717 85.0601 157.809 85.0601 157.905C85.0601 158 85.0233 158.092 84.9558 158.166C84.8884 158.24 84.7945 158.291 84.69 158.31Z" fill="#00AF91" stroke="black" stroke-width="3" stroke-miterlimit="10" stroke-linecap="round"/>
<path d="M468.744 318.324C467.127 318.326 465.56 317.827 464.309 316.912C463.058 315.997 462.201 314.723 461.884 313.306C461.568 311.89 461.811 310.419 462.573 309.145C463.334 307.871 464.567 306.873 466.061 306.32C467.555 305.768 469.217 305.695 470.764 306.115C472.311 306.534 473.648 307.421 474.545 308.622C475.442 309.824 475.845 311.266 475.685 312.703C475.524 314.14 474.811 315.483 473.666 316.503C472.359 317.667 470.59 318.321 468.744 318.324ZM468.744 309.288C468.009 309.287 467.296 309.513 466.727 309.929C466.158 310.345 465.768 310.925 465.624 311.569C465.48 312.213 465.591 312.882 465.938 313.461C466.284 314.041 466.845 314.495 467.525 314.745C468.205 314.996 468.961 315.028 469.664 314.837C470.368 314.645 470.975 314.241 471.382 313.694C471.789 313.147 471.971 312.49 471.896 311.837C471.822 311.183 471.495 310.573 470.973 310.111C470.681 309.849 470.333 309.642 469.951 309.5C469.568 309.359 469.158 309.287 468.744 309.288Z" fill="url(#paint1_linear_67_205)" stroke="black" stroke-width="3" stroke-miterlimit="10" stroke-linecap="round"/>
<path d="M186.461 301.103C186.95 301.285 187.465 301.466 188.017 301.637C188.57 301.807 189.141 301.977 189.744 302.136C190.608 302.357 191.44 302.538 192.227 302.703C193.015 302.867 193.77 302.958 194.469 303.038" fill="#ECE7E1"/>
<path d="M186.461 301.103C186.95 301.285 187.465 301.466 188.017 301.637C188.57 301.807 189.141 301.977 189.744 302.136C190.608 302.357 191.44 302.538 192.227 302.703C193.015 302.867 193.77 302.958 194.469 303.038" stroke="black" stroke-width="3" stroke-miterlimit="10" stroke-linecap="round"/>
<path d="M396.875 270.985C401.022 260.112 404.432 251.184 406.8 244.979L410.502 235.274L414.947 240.299C418.757 244.604 425.742 252.5 438.442 266.861L442.817 233.34L447.186 199.818C446.81 203.544 445.855 207.206 444.348 210.697C441.644 217.191 436.951 222.875 430.803 227.101C427.85 229.127 424.614 230.801 421.177 232.081C415.316 234.297 408.909 235.106 402.59 234.429C392.843 233.351 385.629 228.927 380.752 224.588C377.632 221.835 374.981 218.687 372.885 215.246C376.365 223.402 379.853 231.555 383.35 239.704C386.846 247.853 390.362 255.998 393.897 264.139C394.278 265.012 394.83 266.283 395.376 267.542C395.923 268.801 396.475 270.106 396.875 270.985Z" fill="#DBCAF4" stroke="black" stroke-width="3" stroke-miterlimit="10" stroke-linecap="round"/>
<path d="M476.504 348.034L468.109 381.958L459.715 415.883" fill="#DBCAF4"/>
<path d="M476.504 348.034L468.109 381.958L459.715 415.883" stroke="black" stroke-width="3" stroke-miterlimit="10" stroke-linecap="round"/>
<path d="M261.684 104.426C261.849 104.284 262.014 104.131 262.185 103.966C262.357 103.802 262.515 103.637 262.687 103.456C263.081 103.028 263.446 102.579 263.779 102.112C264.063 101.711 264.321 101.296 264.554 100.869" stroke="#070707" stroke-width="3" stroke-miterlimit="10" stroke-linecap="round"/>
<path d="M101.143 272.567C100.597 271.235 100.184 269.788 99.7776 268.416C99.4375 267.149 98.9853 265.909 98.4251 264.706C97.4408 262.766 96.2724 260.395 94.6722 258.541C93.072 256.686 91.04 255.342 88.3222 255.466C88.3222 255.466 87.1729 255.517 86.3093 257.043C85.4457 258.569 84.8742 261.581 86.0108 267.423C86.7733 271.315 88.0148 275.119 89.7129 278.767C91.4152 282.41 93.5437 285.881 96.0629 289.124L102.635 297.632L109.207 306.14C109.895 307.017 110.452 307.971 110.865 308.976C111.282 309.978 111.534 311.029 111.614 312.096C111.813 313.567 111.436 315.054 110.547 316.304C109.569 317.501 107.836 318.341 104.883 318.358C106.335 319.832 107.6 321.445 108.655 323.168C110.223 325.816 111.195 328.959 108.655 330.933C107.607 331.83 106.226 332.351 104.775 332.396C102.337 332.464 98.914 331.216 94.9516 325.941C94.9516 325.941 93.6054 328.913 90.894 330.15C88.1825 331.386 84.1122 330.882 78.6575 323.911C78.1307 324.733 77.3444 325.397 76.3968 325.822C75.4492 326.247 74.3824 326.413 73.3299 326.299C69.6786 325.873 64.0525 322.198 56.1468 309.203C55.0503 307.388 53.9243 305.586 52.7686 303.798C51.6192 302.011 50.4508 300.224 49.2824 298.449C45.5105 292.726 39.7574 282.567 37.8842 271.223C36.0109 259.879 37.9413 247.338 49.5364 236.913C52.0667 234.632 54.9805 232.718 58.1724 231.241C61.3555 229.76 64.8052 228.791 68.3642 228.377C74.0572 227.702 79.8463 228.549 85.0012 230.81C91.0273 233.43 97.3075 238.314 103.137 246.799C105.343 250.052 107.295 253.437 108.979 256.93C111.697 262.602 114.014 269.476 112.408 274.314C112.034 275.456 111.214 276.441 110.096 277.088C109.55 277.409 108.937 277.631 108.294 277.739C107.651 277.847 106.99 277.84 106.35 277.718L106.14 277.672L105.931 277.616C104.747 277.288 103.708 276.637 102.959 275.755C102.163 274.788 101.55 273.711 101.143 272.567Z" fill="#F2B3C1" stroke="black" stroke-width="3" stroke-miterlimit="10" stroke-linecap="round"/>
<path d="M79.8894 284.031C82.0738 287.684 84.4678 291.455 87.084 295.312C89.7002 299.169 92.564 303.111 95.6628 307.116C97.208 309.097 98.7489 311.018 100.286 312.879C101.822 314.739 103.365 316.543 104.896 318.29" stroke="black" stroke-width="3" stroke-miterlimit="10" stroke-linecap="round"/>
<path d="M69.5959 289.901C69.5959 289.901 74.0409 296.878 79.4575 304.864C84.874 312.85 91.1987 321.84 94.9642 325.851" stroke="black" stroke-width="3" stroke-miterlimit="10" stroke-linecap="round"/>
<path d="M59.925 295.403L69.2976 309.628L78.6702 323.854" stroke="black" stroke-width="3" stroke-miterlimit="10" stroke-linecap="round"/>
<path d="M146.869 155.588C149.295 159.728 151.676 164.135 153.949 168.809C156.223 173.483 158.394 178.452 160.395 183.636C167.023 200.939 171.019 218.96 172.275 237.214C173.253 251.395 172.707 265.627 170.644 279.714" stroke="black" stroke-width="3" stroke-miterlimit="10" stroke-linecap="round"/>
<path d="M204.934 140.131C204.49 140.957 204.151 141.824 203.924 142.718C203.577 144.068 203.504 145.462 203.708 146.836C204.064 149.109 205.157 151.241 206.851 152.967C207.755 153.913 208.805 154.74 209.969 155.423C209.629 156.449 209.458 157.513 209.461 158.582C209.432 160.51 210.029 162.404 211.179 164.034C212.33 165.665 213.985 166.963 215.944 167.771C217.817 168.553 219.885 168.887 221.945 168.741C221.949 169.862 222.15 170.976 222.542 172.042C223.285 174.236 224.879 176.123 227.038 177.362C228.685 178.293 230.578 178.818 232.526 178.883C234.473 178.947 236.405 178.55 238.125 177.731C238.438 178.754 238.845 179.752 239.344 180.715C240.013 182.001 240.844 183.215 241.821 184.333C242.386 184.981 243.002 185.593 243.662 186.165C244.215 186.648 244.798 187.103 245.408 187.527" fill="#F6C34C"/>
<path d="M204.934 140.131C204.49 140.957 204.151 141.824 203.924 142.718C203.577 144.068 203.504 145.462 203.708 146.836C204.064 149.109 205.157 151.241 206.851 152.967C207.755 153.913 208.805 154.74 209.969 155.423C209.629 156.449 209.458 157.513 209.461 158.582C209.432 160.51 210.029 162.404 211.179 164.034C212.33 165.665 213.985 166.963 215.944 167.771C217.817 168.553 219.885 168.887 221.945 168.741C221.949 169.862 222.15 170.976 222.542 172.042C223.285 174.236 224.879 176.123 227.038 177.362C228.685 178.293 230.578 178.818 232.526 178.883C234.473 178.947 236.405 178.55 238.125 177.731C238.438 178.754 238.845 179.752 239.344 180.715C240.013 182.001 240.844 183.215 241.821 184.333C242.386 184.981 243.002 185.593 243.662 186.165C244.215 186.648 244.798 187.103 245.408 187.527" stroke="#070707" stroke-width="3" stroke-miterlimit="10" stroke-linecap="round"/>
<path d="M137.986 338.482L150.959 324.359L163.925 310.235" fill="#F6C34C"/>
<path d="M137.986 338.482L150.959 324.359L163.925 310.235" stroke="#070707" stroke-width="3" stroke-miterlimit="10" stroke-linecap="round"/>
<path d="M247.732 156.728C248.18 157.522 248.833 158.211 249.637 158.735C250.965 159.603 253.054 160.204 256.095 159.127" stroke="black" stroke-width="3" stroke-miterlimit="10" stroke-linecap="round"/>
<path d="M397.123 227.866C397.876 226.601 398.932 225.499 400.215 224.639C401.533 223.749 403.073 223.158 404.703 222.915C406.333 222.672 408.004 222.784 409.575 223.244C411.188 223.703 412.674 224.465 413.931 225.478" stroke="black" stroke-width="3" stroke-miterlimit="10" stroke-linecap="round"/>
<path d="M166.846 383.887C166.109 384.624 165.47 385.435 164.941 386.303C164.119 387.635 163.577 389.09 163.341 390.597C163.208 391.469 163.181 392.351 163.258 393.229C163.318 393.9 163.437 394.565 163.614 395.219" stroke="black" stroke-width="3" stroke-miterlimit="10" stroke-linecap="round"/>
<path d="M159.626 381.578C158.82 382.412 158.154 383.346 157.651 384.352C156.447 386.65 156.033 389.217 156.464 391.725" stroke="black" stroke-width="3" stroke-miterlimit="10" stroke-linecap="round"/>
<path d="M137.458 383.019C137.56 382.471 137.709 381.93 137.903 381.402C138.133 380.758 138.426 380.134 138.779 379.536C139.606 378.13 140.739 376.886 142.113 375.878C143.012 375.212 143.995 374.641 145.04 374.176" stroke="black" stroke-width="3" stroke-miterlimit="10" stroke-linecap="round"/>
<path d="M133.172 378.283C133.365 377.565 133.627 376.863 133.953 376.184C134.404 375.242 134.975 374.349 135.655 373.524C136.424 372.594 137.327 371.758 138.341 371.04C139.046 370.538 139.801 370.094 140.595 369.712" stroke="black" stroke-width="3" stroke-miterlimit="10" stroke-linecap="round"/>
</g>
<defs>
<linearGradient id="paint0_linear_67_205" x1="450.272" y1="269.561" x2="450.272" y2="300.996" gradientUnits="userSpaceOnUse">
<stop offset="0.26" stop-color="#FEC2D9"/>
<stop offset="0.75" stop-color="#A4C2FF"/>
</linearGradient>
<linearGradient id="paint1_linear_67_205" x1="468.744" y1="305.885" x2="468.744" y2="318.324" gradientUnits="userSpaceOnUse">
<stop offset="0.22" stop-color="#FEC2D9"/>
<stop offset="0.75" stop-color="#A4C2FF"/>
</linearGradient>
<clipPath id="clip0_67_205">
<rect width="635" height="461" rx="22" fill="white"/>
</clipPath>
</defs>
</svg>
