<svg width="1920" height="1024" viewBox="0 0 1920 1024" fill="none" xmlns="http://www.w3.org/2000/svg">
<g clip-path="url(#clip0_222_871)">
<rect width="1920" height="1024" fill="white"/>
<g opacity="0.5">
<path d="M336.715 123.891H247V209.985H336.715V123.891Z" fill="white"/>
<path d="M336.715 123.891H291.857V167.497H336.715V123.891Z" fill="#64CEBC"/>
<path d="M291.857 167.497C291.857 155.932 296.583 144.84 304.996 136.663C313.408 128.485 324.818 123.891 336.715 123.891V167.497" fill="#68CFBD"/>
<path d="M336.715 167.497H291.857V209.985H336.715V167.497Z" fill="#ECF9F7"/>
<path d="M692.788 81.7212H604.254V167.816H692.788V81.7212Z" fill="white"/>
<path d="M649.111 81.7212H604.254V125.327H649.111V81.7212Z" fill="#FFC093"/>
<path d="M649.111 81.7212V125.327H604.254L649.111 81.7212Z" fill="#EAF8F6"/>
<path d="M794.435 37.7959V81.4022H749.578L794.435 37.7959Z" fill="#BFEBE3"/>
<path d="M893.165 79.6782H849.488V123.285H893.165V79.6782Z" fill="#7FD7C8"/>
<path d="M983.711 134.84H1027.39L983.711 178.446V134.84Z" fill="#4DC7B2"/>
<path d="M1139.42 123.891H1049.71V209.985H1139.42V123.891Z" fill="white"/>
<path d="M1139.42 123.891H1094.57V167.497H1139.42V123.891Z" fill="#FFAD73"/>
<path d="M1139.42 123.891H1094.57V167.497H1139.42V123.891Z" fill="#FFF9F4"/>
<path d="M336.715 209.985H247V297.197H336.715V209.985Z" fill="white"/>
<path d="M425.249 209.985H336.715V297.197H425.249V209.985Z" fill="#FFEEE1"/>
<path d="M389.295 101.13H477.829V188.342L389.295 101.13Z" fill="#6DD1C0"/>
<path d="M514.963 209.985C538.444 209.985 560.963 219.173 577.566 235.529C594.169 251.884 603.497 274.067 603.497 297.197L514.963 209.985C514.963 233.115 524.291 255.298 540.894 271.653C557.497 288.009 580.016 297.197 603.497 297.197" fill="#9ACDC4"/>
<path d="M1116.92 14.3013C1140.4 14.3013 1162.92 23.4897 1179.53 39.8452C1196.13 56.2008 1205.46 78.3836 1205.46 101.514L1116.92 14.3013C1116.92 37.4315 1126.25 59.6144 1142.85 75.9699C1159.46 92.3254 1181.98 101.514 1205.46 101.514" fill="#9ACDC4"/>
<path d="M772.789 -58.2266C796.27 -58.2266 818.789 -49.0381 835.392 -32.6826C851.996 -16.3271 861.323 5.85581 861.323 28.986L772.789 -58.2266C772.789 -35.0963 782.117 -12.9135 798.72 3.44205C815.324 19.7976 837.843 28.986 861.323 28.986" fill="#9ACDC4"/>
<path d="M781.747 209.985H693.213V297.197H781.747V209.985Z" fill="white"/>
<path d="M781.747 209.985H738.07V253.591H781.747V209.985Z" fill="#CAEEE8"/>
<path d="M750.587 189.683C762.171 189.683 773.28 185.089 781.471 176.911C789.662 168.733 794.264 157.642 794.264 146.077H750.587" fill="#FF852F"/>
<path d="M1227.96 209.985H1139.43V297.197H1227.96V209.985Z" fill="white"/>
<path d="M1183.1 209.985H1139.43V253.591H1183.1V209.985Z" fill="#FFD1B0"/>
<path d="M1183.1 209.985V253.591H1139.43L1183.1 209.985Z" fill="#70D2C1"/>
<path d="M301.496 297.261H247V349.359H301.496V297.261Z" fill="#FFB988"/>
<path d="M484.16 303.39H536.638V353.444L484.16 303.39Z" fill="#D6F2ED"/>
<path d="M1352.8 411.671H1264.27V497.765H1352.8V411.671Z" fill="#F6FCFB"/>
<path d="M1406.56 98.0654H1351.06V152.206H1406.56V98.0654Z" fill="#FF8F3F"/>
<path d="M1317.67 297.198H1227.96V383.292H1317.67V297.198Z" fill="white"/>
<path d="M1574.09 264.573H1518.58V317.692H1574.09V264.573Z" fill="#FFBD8E"/>
<path d="M389.295 417.8H336.817V468.876H389.295V417.8Z" fill="#50C8B3"/>
<path d="M414.526 488.285V555.705H344.892L414.526 488.285Z" fill="#FF852E"/>
<path d="M514.963 383.292H425.248V469.386H514.963V383.292Z" fill="#FFE3CE"/>
<path d="M514.963 383.292H425.248V469.386H514.963V383.292Z" fill="#DAF3EF"/>
<path d="M603.497 383.292H514.963V469.386H603.497V383.292Z" fill="white"/>
<path d="M707.836 370.395C719.898 370.395 729.675 360.884 729.675 349.151C729.675 337.418 719.898 327.907 707.836 327.907C695.775 327.907 685.998 337.418 685.998 349.151C685.998 360.884 695.775 370.395 707.836 370.395Z" fill="#FF9950"/>
<path d="M1071.84 209.488C1083.9 209.488 1093.67 199.977 1093.67 188.244C1093.67 176.511 1083.9 167 1071.84 167C1059.78 167 1050 176.511 1050 188.244C1050 199.977 1059.78 209.488 1071.84 209.488Z" fill="#FF9950"/>
<path d="M558.64 425.78H514.963V469.387H558.64V425.78Z" fill="#E3F6F3"/>
<path d="M536.801 469.387C548.862 469.387 558.64 459.625 558.64 447.583C558.64 435.542 548.862 425.78 536.801 425.78C524.74 425.78 514.963 435.542 514.963 447.583C514.963 459.625 524.74 469.387 536.801 469.387Z" fill="#6CD1BF"/>
<path d="M781.747 383.292H693.213V469.386H781.747V383.292Z" fill="white"/>
<path d="M1584.46 383.292H1495.92V469.386H1584.46V383.292Z" fill="#FFD8BC"/>
<path d="M1651.53 959H1563V1045.09H1651.53V959Z" fill="#FFD8BC"/>
<path d="M1751 792.094C1751 769.261 1760.33 747.362 1776.93 731.217C1793.53 715.071 1816.05 706 1839.53 706V792.094" fill="#54C9B5"/>
<path d="M1485.28 153.227C1485.28 137.243 1491.77 121.913 1503.31 110.611C1514.86 99.3078 1530.52 92.958 1546.84 92.958V153.227" fill="#54C9B5"/>
<path d="M1295.55 372.119C1295.55 349.285 1304.88 327.387 1321.48 311.241C1338.09 295.095 1360.61 286.024 1384.09 286.024V372.119" fill="#54C9B5"/>
<path d="M1795 459C1795 443.352 1800.37 428.345 1809.94 417.281C1819.5 406.216 1832.47 400 1846 400V459" fill="#54C9B5"/>
<path d="M1585.19 58.2265C1585.19 46.5768 1590.08 35.4042 1598.79 27.1667C1607.49 18.9291 1619.3 14.3013 1631.61 14.3013V58.2265" fill="#54C9B5"/>
<path d="M301.392 491.349H211.678V577.444H301.392V491.349Z" fill="#A6E3D8"/>
<path d="M380.109 662.964V749.058H290.395L380.109 662.964Z" fill="#FFDDC4"/>
<path d="M80.7147 707V793.094H-9L80.7147 707Z" fill="#FFDDC4"/>
<path d="M544.437 946.945H455.902V1033.04H544.437V946.945Z" fill="#FFE9DA"/>
<path d="M544.437 946.945H455.902V1033.04H544.437V946.945Z" fill="#FFF6F1"/>
<path d="M871.461 512.993H916.318V555.481L871.461 512.993Z" fill="#FFEADB"/>
<path d="M1235.46 352.086H1280.32V394.575L1235.46 352.086Z" fill="#FFEADB"/>
<path d="M1139.42 469.387H1049.71V555.481H1139.42V469.387Z" fill="#FFF0E5"/>
<path d="M1049.71 469.387C1049.71 492.22 1059.16 514.119 1075.99 530.265C1092.81 546.411 1115.63 555.481 1139.42 555.481V469.387" fill="#FFF6F0"/>
<path d="M1227.96 469.387H1139.43V555.481H1227.96V469.387Z" fill="#66CFBD"/>
<path d="M1227.96 469.387H1139.43V555.481H1227.96V469.387Z" fill="#EDF9F7"/>
<path d="M1406.21 469.387H1317.67V555.481H1406.21V469.387Z" fill="white"/>
<path d="M1362.53 512.993H1317.67V555.481H1362.53V512.993Z" fill="#FFAC71"/>
<path d="M1340.1 555.481C1352.49 555.481 1362.53 545.97 1362.53 534.237C1362.53 522.504 1352.49 512.993 1340.1 512.993C1327.72 512.993 1317.67 522.504 1317.67 534.237C1317.67 545.97 1327.72 555.481 1340.1 555.481Z" fill="#84D8CA"/>
<path d="M1406.21 512.993H1362.53V555.481H1406.21V512.993Z" fill="#FFAC71"/>
<path d="M1406.21 512.993H1362.53V555.481H1406.21V512.993Z" fill="#FFFEFD"/>
<path d="M1495.92 469.387H1406.21V555.481H1495.92V469.387Z" fill="#A3E2D7"/>
<path d="M1406.21 469.387H1495.92L1406.21 555.481V469.387Z" fill="#53C9B4"/>
<path d="M1717 535H1667V577H1717V535Z" fill="#B1E6DD"/>
<path d="M1869 577H1820V632H1869V577Z" fill="#B1E6DD"/>
<path d="M1855.71 12H1766V98.0945H1855.71V12Z" fill="#78D5C5"/>
<path d="M603.497 555.481H514.963V641.575H603.497V555.481Z" fill="white"/>
<path d="M781.747 555.481H693.213V641.575H781.747V555.481Z" fill="white"/>
<path d="M781.747 555.481H738.07V599.087H781.747V555.481Z" fill="#96DED2"/>
<path d="M738.07 555.481H781.747L738.07 599.087V555.481Z" fill="#FFF4ED"/>
<path d="M781.747 599.087H738.07V641.575H781.747V599.087Z" fill="#C6EDE6"/>
<path d="M738.07 599.087L781.747 641.575H738.07V599.087Z" fill="#7CD6C6"/>
<path d="M1102.07 438.18L1145.75 480.668H1102.07V438.18Z" fill="#7CD6C6"/>
<path d="M1846.71 254H1757V340.094H1846.71V254Z" fill="#FFBB8B"/>
<path d="M1696 897C1719.79 897 1742.61 906.071 1759.44 922.217C1776.26 938.362 1785.71 960.261 1785.71 983.094H1696" fill="#00FFD1"/>
<path d="M871.461 641.576H781.746V728.788H871.461V641.576Z" fill="white"/>
<path d="M826.603 641.576H781.746V685.182H826.603V641.576Z" fill="#B9E9E1"/>
<path d="M826.603 641.576V685.182H781.746L826.603 641.576Z" fill="#FF9549"/>
<path d="M826.603 685.182H781.746V728.788H826.603V685.182Z" fill="#FF6B00"/>
<path d="M58.8574 549H14V592.606H58.8574V549Z" fill="#FF6B00"/>
<path d="M781.746 685.182H826.603V728.788L781.746 685.182Z" fill="#FFAA6E"/>
<path d="M1145.75 524.275H1190.6V567.881L1145.75 524.275Z" fill="#FFAA6E"/>
<path d="M567 662H611.857V705.606L567 662Z" fill="#FFAA6E"/>
<path d="M931 501.093H975.857V544.7L931 501.093Z" fill="#FFAA6E"/>
<path d="M871.461 685.182H826.604V728.788H871.461V685.182Z" fill="#72D3C2"/>
<path d="M826.604 685.182L871.461 728.788H826.604V685.182Z" fill="#FFBC8D"/>
<path d="M1674.17 641.576H1584.46V728.788H1674.17V641.576Z" fill="white"/>
<path d="M1674.17 641.576H1629.31V685.182H1674.17V641.576Z" fill="#DBF4EF"/>
<path d="M1629.31 641.576L1674.17 685.182H1629.31V641.576Z" fill="#FFBB8A"/>
<path d="M514.963 728.788H425.248V814.883H514.963V728.788Z" fill="#F5FCFB"/>
<path d="M514.963 728.788H425.248V814.883H514.963V728.788Z" fill="#FFEBDD"/>
<path d="M194.715 916H105V1002.09H194.715V916Z" fill="#FFDDC4"/>
<path d="M500.308 512.801L588.842 598.896H500.308V512.801Z" fill="#96DED2"/>
<path d="M961.176 728.788H871.461V814.883H961.176V728.788Z" fill="white"/>
<path d="M1049.71 728.788H961.176V814.883H1049.71V728.788Z" fill="#8BDBCD"/>
<path d="M961.176 728.788C984.657 728.788 1007.18 737.859 1023.78 754.005C1040.38 770.15 1049.71 792.049 1049.71 814.883L961.176 728.788C961.176 751.622 970.503 773.52 987.107 789.666C1003.71 805.812 1026.23 814.883 1049.71 814.883" fill="#FFA565"/>
<path d="M1317.67 728.788H1227.96V814.883H1317.67V728.788Z" fill="#9CE0D4"/>
<path d="M1378.71 -38H1289V48.0945H1378.71V-38Z" fill="#FFC7A0"/>
<path d="M1495.92 728.788H1406.21V814.883H1495.92V728.788Z" fill="white"/>
<path d="M1462.86 632H1418V674.488H1462.86V632Z" fill="#FF8D3B"/>
<path d="M1502 653.488C1502 642.22 1506.73 631.413 1515.14 623.444C1523.55 615.476 1534.96 611 1546.86 611V653.488" fill="#FFA05C"/>
<path d="M1451.07 771.277H1406.21V814.883H1451.07V771.277Z" fill="#E6F7F4"/>
<path d="M1406.21 814.883C1418.1 814.883 1429.51 810.289 1437.93 802.111C1446.34 793.933 1451.07 782.842 1451.07 771.277H1406.21" fill="#FFB47F"/>
<path d="M1654.86 770H1610V813.606H1654.86V770Z" fill="#52C8B4"/>
<path d="M1610 772C1610 783.565 1614.73 794.657 1623.14 802.834C1631.55 811.012 1642.96 815.606 1654.86 815.606V772" fill="#FFEBDD"/>
<path d="M425.249 814.882H336.715V900.977H425.249V814.882Z" fill="white"/>
<path d="M380.392 814.882H336.715V857.371H380.392V814.882Z" fill="#FFD6B9"/>
<path d="M358.553 857.371C370.614 857.371 380.392 847.859 380.392 836.126C380.392 824.394 370.614 814.882 358.553 814.882C346.492 814.882 336.715 824.394 336.715 836.126C336.715 847.859 346.492 857.371 358.553 857.371Z" fill="#D2F1EC"/>
<path d="M380.392 857.371H336.715V900.977H380.392V857.371Z" fill="#91DCCF"/>
<path d="M358.553 900.977C370.614 900.977 380.392 891.216 380.392 879.174C380.392 867.133 370.614 857.371 358.553 857.371C346.492 857.371 336.715 867.133 336.715 879.174C336.715 891.216 346.492 900.977 358.553 900.977Z" fill="#7BD5C6"/>
<path d="M179.838 793.606C191.899 793.606 201.677 783.845 201.677 771.803C201.677 759.762 191.899 750 179.838 750C167.777 750 158 759.762 158 771.803C158 783.845 167.777 793.606 179.838 793.606Z" fill="#7BD5C6"/>
<path d="M425.248 857.371H380.391V900.977H425.248V857.371Z" fill="#FFBD8F"/>
<path d="M425.248 857.371H380.391V900.977H425.248V857.371Z" fill="#FFA86B"/>
<path d="M693.213 814.882H603.498V900.977H693.213V814.882Z" fill="white"/>
<path d="M693.212 814.882H648.354V857.371H693.212V814.882Z" fill="#97DED2"/>
<path d="M693.212 814.882H648.354V857.371H693.212V814.882Z" fill="#FFF4EC"/>
<path d="M693.213 857.371H648.355V900.977H693.213V857.371Z" fill="#BFEBE3"/>
<path d="M693.213 857.371H648.355V900.977H693.213V857.371Z" fill="#FFB27B"/>
<path d="M849.941 968.397H805.084V1012H849.941V968.397Z" fill="#A9E4DA"/>
<path d="M871.461 814.882H781.746V900.977H871.461V814.882Z" fill="white"/>
<path d="M826.603 814.882H781.746V857.371H826.603V814.882Z" fill="#F8FDFC"/>
<path d="M781.746 857.371C793.643 857.371 805.053 852.894 813.465 844.926C821.877 836.958 826.603 826.151 826.603 814.882H781.746" fill="#6DD1C0"/>
<path d="M694.072 989.434C705.969 989.434 717.379 984.957 725.791 976.989C734.204 969.021 738.93 958.214 738.93 946.945H694.072" fill="#6DD1C0"/>
<path d="M289.385 983.305C301.282 983.305 312.691 978.828 321.104 970.86C329.516 962.892 334.242 952.085 334.242 940.816H289.385" fill="#FBBD91"/>
<path d="M1049.71 814.882H961.176V900.977H1049.71V814.882Z" fill="white"/>
<path d="M1049.71 857.371H1004.85V900.977H1049.71V857.371Z" fill="#FFA361"/>
<path d="M1004.85 857.371C1016.75 857.371 1028.16 861.965 1036.57 870.143C1044.98 878.321 1049.71 889.412 1049.71 900.977H1004.85" fill="#DFF5F1"/>
<path d="M1191.49 972H1138V1024.1H1191.49V972Z" fill="#FF8128"/>
<path d="M1484 946.945H1395.46V1033.04H1484V946.945Z" fill="#FFE3CF"/>
<path d="M1139.43 814.882H1227.96V900.977L1139.43 814.882Z" fill="#FFA361"/>
<path d="M1317.67 814.882H1227.96V900.977H1317.67V814.882Z" fill="white"/>
<path d="M1272.82 814.882H1227.96V857.371H1272.82V814.882Z" fill="#5DCCB9"/>
<path d="M1250.39 857.371C1262.77 857.371 1272.82 847.859 1272.82 836.126C1272.82 824.394 1262.77 814.882 1250.39 814.882C1238 814.882 1227.96 824.394 1227.96 836.126C1227.96 847.859 1238 857.371 1250.39 857.371Z" fill="#74D3C3"/>
<path d="M1317.67 857.371H1272.82V900.977H1317.67V857.371Z" fill="#E0F5F2"/>
<path d="M1317.67 857.371H1272.82V900.977H1317.67V857.371Z" fill="#6BD1BF"/>
<path d="M1584.46 814.882H1495.92V900.977H1584.46V814.882Z" fill="white"/>
<path d="M1540.78 857.371H1495.92V900.977H1540.78V857.371Z" fill="#91DCCF"/>
<path d="M1495.92 857.371H1540.78L1495.92 900.977V857.371Z" fill="#E4F6F3"/>
<path d="M124.538 171.615H69.0322V224.734H124.538V171.615Z" fill="#FFBD8E"/>
<path d="M134.905 290.334H46.3711V376.428H134.905V290.334Z" fill="#FFD8BC"/>
<path d="M151 135.094C151 112.261 160.328 90.3624 176.931 74.2165C193.534 58.0707 216.054 49 239.534 49V135.094" fill="#54C9B5"/>
<path d="M35.7295 60.2695C35.7295 44.285 42.2154 28.9552 53.7603 17.6525C65.3051 6.34981 80.9634 0 97.2903 0V60.2695" fill="#54C9B5"/>
<path d="M-43.3428 376.429H46.3719L-43.3428 462.523V376.429Z" fill="#53C9B4"/>
<path d="M224.62 376.429H134.905V462.523H224.62V376.429Z" fill="#78D5C5"/>
<path d="M179.763 548.618L224.62 592.224H179.763V548.618Z" fill="#FFBB8A"/>
<path d="M0 880H44.8574L0 923.606V880Z" fill="#E4F6F3"/>
</g>
</g>
<defs>
<clipPath id="clip0_222_871">
<rect width="1920" height="1024" fill="white"/>
</clipPath>
</defs>
</svg>
