<svg width="1920" height="1080" viewBox="0 0 1920 1080" fill="none" xmlns="http://www.w3.org/2000/svg">
<g clip-path="url(#clip0_199_499)">
<rect width="1920" height="1080" fill="white"/>
<g opacity="0.5">
<path d="M360.488 173.281H272.665V257.562H360.488V173.281Z" fill="white"/>
<path d="M360.488 173.281H316.577V215.969H360.488V173.281Z" fill="#64CEBC"/>
<path d="M316.577 215.969C316.577 204.648 321.203 193.79 329.438 185.784C337.673 177.779 348.842 173.281 360.488 173.281V215.969" fill="#68CFBD"/>
<path d="M360.488 215.969H316.577V257.562H360.488V215.969Z" fill="#ECF9F7"/>
<path d="M709.055 132H622.388V216.281H709.055V132Z" fill="white"/>
<path d="M666.299 132H622.388V174.688H666.299V132Z" fill="#FFC093"/>
<path d="M666.299 132V174.688H622.388L666.299 132Z" fill="#EAF8F6"/>
<path d="M808.559 89V131.688H764.647L808.559 89Z" fill="#BFEBE3"/>
<path d="M905.207 130H862.451V172.688H905.207V130Z" fill="#7FD7C8"/>
<path d="M993.844 184H1036.6L993.844 226.688V184Z" fill="#4DC7B2"/>
<path d="M1146.27 173.281H1058.45V257.562H1146.27V173.281Z" fill="white"/>
<path d="M1146.27 173.281H1102.36V215.969H1146.27V173.281Z" fill="#FFAD73"/>
<path d="M1146.27 173.281H1102.36V215.969H1146.27V173.281Z" fill="#FFF9F4"/>
<path d="M360.488 257.562H272.665V342.938H360.488V257.562Z" fill="white"/>
<path d="M447.156 257.562H360.488V342.938H447.156V257.562Z" fill="#FFEEE1"/>
<path d="M237.819 226H151.151V311.376H237.819V226Z" fill="#FFEEE1"/>
<path d="M203.242 497H116.574V582.376H203.242V497Z" fill="#FFEEE1"/>
<path d="M411.961 151H498.629V236.376L411.961 151Z" fill="#6DD1C0"/>
<path d="M534.979 257.562C557.965 257.562 580.009 266.557 596.262 282.568C612.516 298.579 621.647 320.295 621.647 342.938L534.979 257.562C534.979 280.205 544.11 301.921 560.363 317.932C576.617 333.943 598.661 342.938 621.647 342.938" fill="#9ACDC4"/>
<path d="M0 108C22.9857 108 45.0299 116.995 61.2833 133.006C77.5366 149.017 86.6677 170.733 86.6677 193.376L0 108C0 130.643 9.13103 152.359 25.3844 168.37C41.6377 184.381 63.682 193.376 86.6677 193.376" fill="#9ACDC4"/>
<path d="M1124.25 66C1147.23 66 1169.28 74.9949 1185.53 91.0059C1201.79 107.017 1210.92 128.733 1210.92 151.376L1124.25 66C1124.25 88.643 1133.38 110.359 1149.63 126.37C1165.89 142.381 1187.93 151.376 1210.92 151.376" fill="#9ACDC4"/>
<path d="M787.37 -5C810.355 -5 832.4 3.9949 848.653 20.0059C864.906 36.017 874.037 57.7326 874.037 80.3756L787.37 -5C787.37 17.643 796.501 39.3586 812.754 55.3697C829.007 71.3807 851.052 80.3756 874.037 80.3756" fill="#9ACDC4"/>
<path d="M796.137 257.562H709.47V342.938H796.137V257.562Z" fill="white"/>
<path d="M796.137 257.562H753.381V300.25H796.137V257.562Z" fill="#CAEEE8"/>
<path d="M765.635 237.688C776.975 237.688 787.85 233.19 795.868 225.185C803.887 217.179 808.391 206.322 808.391 195H765.635" fill="#FF852F"/>
<path d="M1232.94 257.562H1146.28V342.938H1232.94V257.562Z" fill="white"/>
<path d="M1189.03 257.562H1146.28V300.25H1189.03V257.562Z" fill="#FFD1B0"/>
<path d="M1189.03 257.562V300.25H1146.28L1189.03 257.562Z" fill="#70D2C1"/>
<path d="M326.013 343H272.665V394H326.013V343Z" fill="#FFB988"/>
<path d="M504.825 349H556.197V398L504.825 349Z" fill="#D6F2ED"/>
<path d="M1232.94 342.938H1146.28V427.219H1232.94V342.938Z" fill="#F6FCFB"/>
<path d="M1407.78 148H1353.45V201H1407.78V148Z" fill="#FF8F3F"/>
<path d="M1320.77 342.938H1232.94V427.219H1320.77V342.938Z" fill="white"/>
<path d="M1571.78 311H1517.44V363H1571.78V311Z" fill="#FFBD8E"/>
<path d="M411.962 461H360.59V511H411.962V461Z" fill="#50C8B3"/>
<path d="M176.837 744H125.465V794H176.837V744Z" fill="#50C8B3"/>
<path d="M436.659 530V596H368.493L436.659 530Z" fill="#FFE5D2"/>
<path d="M228.209 -5V61H160.042L228.209 -5Z" fill="#FFE5D2"/>
<path d="M534.979 427.219H447.156V511.5H534.979V427.219Z" fill="#FFE3CE"/>
<path d="M534.979 427.219H447.156V511.5H534.979V427.219Z" fill="#DAF3EF"/>
<path d="M621.647 427.219H534.979V511.5H621.647V427.219Z" fill="white"/>
<path d="M577.735 427.219H534.979V468.812H577.735V427.219Z" fill="#FF8936"/>
<path d="M563 461C575.15 461 585 451.374 585 439.5C585 427.626 575.15 418 563 418C550.85 418 541 427.626 541 439.5C541 451.374 550.85 461 563 461Z" fill="#FF9950"/>
<path d="M577.735 468.812H534.979V511.5H577.735V468.812Z" fill="#E3F6F3"/>
<path d="M556.357 511.5C568.164 511.5 577.735 501.944 577.735 490.156C577.735 478.368 568.164 468.812 556.357 468.812C544.55 468.812 534.979 478.368 534.979 490.156C534.979 501.944 544.55 511.5 556.357 511.5Z" fill="#6CD1BF"/>
<path d="M796.137 427.219H709.47V511.5H796.137V427.219Z" fill="white"/>
<path d="M753.381 427.219H709.47V468.812H753.381V427.219Z" fill="#C9EEE8"/>
<path d="M709.47 427.219C721.116 427.219 732.285 431.601 740.52 439.401C748.755 447.201 753.381 457.781 753.381 468.812H709.47" fill="#5CCCB8"/>
<path d="M796.137 427.219H753.381V468.812H796.137V427.219Z" fill="#FFE0CA"/>
<path d="M753.381 468.812C753.381 457.781 757.886 447.201 765.904 439.401C773.923 431.601 784.798 427.219 796.137 427.219V468.812" fill="#FFCBA6"/>
<path d="M971.784 427.219H883.961V511.5H971.784V427.219Z" fill="#FFE5D2"/>
<path d="M883.961 427.219L971.784 511.5H883.961V427.219Z" fill="#52C9B4"/>
<path d="M1581.92 427.219H1495.26V511.5H1581.92V427.219Z" fill="#FFD8BC"/>
<path d="M1496.25 511.5C1496.25 489.147 1505.38 467.71 1521.63 451.904C1537.88 436.098 1559.93 427.219 1582.91 427.219V511.5" fill="#54C9B5"/>
<path d="M1793.07 764.281C1793.07 741.928 1802.2 720.491 1818.45 704.685C1834.71 688.88 1856.75 680 1879.74 680V764.281" fill="#54C9B5"/>
<path d="M1484.84 202C1484.84 186.352 1491.19 171.345 1502.49 160.281C1513.79 149.216 1529.12 143 1545.1 143V202" fill="#54C9B5"/>
<path d="M1299.11 416.281C1299.11 393.928 1308.24 372.491 1324.49 356.685C1340.75 340.88 1362.79 332 1385.78 332V416.281" fill="#54C9B5"/>
<path d="M1582.64 109C1582.64 97.5957 1587.43 86.6585 1595.95 78.5944C1604.48 70.5304 1616.03 66 1628.09 66V109" fill="#54C9B5"/>
<path d="M325.911 533H238.088V617.281H325.911V533Z" fill="#A6E3D8"/>
<path d="M405 700V786H315L405 700Z" fill="#FF8935"/>
<path d="M563.831 979H477.164V1063.28H563.831V979Z" fill="#FFE9DA"/>
<path d="M571 986H482V1072H571V986Z" fill="#FF8B38"/>
<path d="M971.784 511.5H883.961V595.781H971.784V511.5Z" fill="white"/>
<path d="M927.873 554.188H883.961V595.781H927.873V554.188Z" fill="#FF852F"/>
<path d="M883.961 554.188H927.873V595.781L883.961 554.188Z" fill="#FFEADB"/>
<path d="M1146.27 511.5H1058.45V595.781H1146.27V511.5Z" fill="#FFF0E5"/>
<path d="M1058.45 511.5C1058.45 533.853 1067.7 555.29 1084.17 571.096C1100.64 586.901 1122.98 595.781 1146.27 595.781V511.5" fill="#FFF6F0"/>
<path d="M1232.94 511.5H1146.28V595.781H1232.94V511.5Z" fill="#66CFBD"/>
<path d="M1232.94 511.5H1146.28V595.781H1232.94V511.5Z" fill="#EDF9F7"/>
<path d="M1407.43 511.5H1320.77V595.781H1407.43V511.5Z" fill="white"/>
<path d="M1364.68 554.188H1320.77V595.781H1364.68V554.188Z" fill="#FFAC71"/>
<path d="M1342.72 595.781C1354.85 595.781 1364.68 586.47 1364.68 574.985C1364.68 563.499 1354.85 554.188 1342.72 554.188C1330.6 554.188 1320.77 563.499 1320.77 574.985C1320.77 586.47 1330.6 595.781 1342.72 595.781Z" fill="#84D8CA"/>
<path d="M1407.43 554.188H1364.68V595.781H1407.43V554.188Z" fill="#FFAC71"/>
<path d="M1407.43 554.188H1364.68V595.781H1407.43V554.188Z" fill="#FFFEFD"/>
<path d="M1495.26 511.5H1407.43V595.781H1495.26V511.5Z" fill="#A3E2D7"/>
<path d="M1407.43 511.5H1495.26L1407.43 595.781V511.5Z" fill="#53C9B4"/>
<path d="M1669.75 511.5H1581.92V595.781H1669.75V511.5Z" fill="#B1E6DD"/>
<path d="M1864.1 428H1776.27V512.281H1864.1V428Z" fill="#78D5C5"/>
<path d="M621.647 595.781H534.979V680.062H621.647V595.781Z" fill="white"/>
<path d="M796.137 595.781H709.47V680.062H796.137V595.781Z" fill="white"/>
<path d="M796.137 595.781H753.381V638.469H796.137V595.781Z" fill="#96DED2"/>
<path d="M753.381 595.781H796.137L753.381 638.469V595.781Z" fill="#FFF4ED"/>
<path d="M796.137 638.468H753.381V680.062H796.137V638.468Z" fill="#C6EDE6"/>
<path d="M753.381 638.468L796.137 680.062H753.381V638.468Z" fill="#7CD6C6"/>
<path d="M1146.27 595.781H1058.45V680.062H1146.27V595.781Z" fill="#FFBB8B"/>
<path d="M1058.45 595.781C1081.74 595.781 1104.08 604.661 1120.55 620.467C1137.02 636.272 1146.27 657.71 1146.27 680.062H1058.45" fill="#00FFD1"/>
<path d="M883.96 680.062H796.137V765.438H883.96V680.062Z" fill="white"/>
<path d="M840.049 680.062H796.137V722.75H840.049V680.062Z" fill="#B9E9E1"/>
<path d="M840.049 680.062V722.75H796.137L840.049 680.062Z" fill="#FF9549"/>
<path d="M855 722H810V766H855V722Z" fill="#FF6B00"/>
<path d="M796.137 722.75H840.049V765.438L796.137 722.75Z" fill="#FFAA6E"/>
<path d="M883.96 722.75H840.049V765.438H883.96V722.75Z" fill="#72D3C2"/>
<path d="M840.049 722.75L883.96 765.438H840.049V722.75Z" fill="#FFBC8D"/>
<path d="M1669.75 680.062H1581.92V765.438H1669.75V680.062Z" fill="white"/>
<path d="M1669.75 680.062H1625.84V722.75H1669.75V680.062Z" fill="#DBF4EF"/>
<path d="M1625.84 680.062L1669.75 722.75H1625.84V680.062Z" fill="#FFBB8A"/>
<path d="M1700.2 913L1744.12 955.688H1700.2V913Z" fill="#FFBB8A"/>
<path d="M534.979 765.438H447.156V849.719H534.979V765.438Z" fill="#F5FCFB"/>
<path d="M534.979 765.438H447.156V849.719H534.979V765.438Z" fill="#FFE5D2"/>
<path d="M621.647 765.438H534.979V849.719H621.647V765.438Z" fill="#FFE5D2"/>
<path d="M534.979 765.438L621.647 849.719H534.979V765.438Z" fill="#96DED2"/>
<path d="M971.784 765.438H883.961V849.719H971.784V765.438Z" fill="white"/>
<path d="M1058.45 765.438H971.784V849.719H1058.45V765.438Z" fill="#8BDBCD"/>
<path d="M991 766C1014.6 766 1037.24 775.166 1053.93 791.482C1070.62 807.797 1080 829.926 1080 853L991 766C991 789.074 1000.38 811.203 1017.07 827.518C1033.76 843.834 1056.4 853 1080 853" fill="#FFA565"/>
<path d="M1320.77 765.438H1232.94V849.719H1320.77V765.438Z" fill="#9CE0D4"/>
<path d="M1350 766H1259V853H1350V766Z" fill="#FFC7A0"/>
<path d="M1495.26 765.438H1407.43V849.719H1495.26V765.438Z" fill="white"/>
<path d="M1495.26 765.438H1451.35V807.031H1495.26V765.438Z" fill="#FF8D3B"/>
<path d="M1451.35 807.031C1451.35 796 1455.97 785.421 1464.21 777.62C1472.44 769.82 1483.61 765.438 1495.26 765.438V807.031" fill="#FFA05C"/>
<path d="M1836.54 902.593C1836.54 891.562 1841.16 880.983 1849.4 873.182C1857.63 865.382 1868.8 861 1880.45 861V902.593" fill="#FFA05C"/>
<path d="M1451.35 807.031H1407.43V849.719H1451.35V807.031Z" fill="#E6F7F4"/>
<path d="M1439 853C1450.93 853 1462.38 848.364 1470.82 840.113C1479.26 831.861 1484 820.67 1484 809H1439" fill="#FFB47F"/>
<path d="M1495.26 807.031H1451.35V849.719H1495.26V807.031Z" fill="#52C8B4"/>
<path d="M1451.35 807.031C1451.35 818.353 1455.97 829.211 1464.21 837.216C1472.44 845.222 1483.61 849.719 1495.26 849.719V807.031" fill="#E0F5F2"/>
<path d="M447.156 849.718H360.488V933.999H447.156V849.718Z" fill="white"/>
<path d="M403.244 849.718H360.488V891.312H403.244V849.718Z" fill="#FFD6B9"/>
<path d="M381.866 891.312C393.673 891.312 403.244 882.001 403.244 870.515C403.244 859.029 393.673 849.718 381.866 849.718C370.06 849.718 360.488 859.029 360.488 870.515C360.488 882.001 370.06 891.312 381.866 891.312Z" fill="#D2F1EC"/>
<path d="M403.244 891.312H360.488V934H403.244V891.312Z" fill="#91DCCF"/>
<path d="M381.866 934C393.673 934 403.244 924.444 403.244 912.656C403.244 900.868 393.673 891.312 381.866 891.312C370.06 891.312 360.488 900.868 360.488 912.656C360.488 924.444 370.06 934 381.866 934Z" fill="#7BD5C6"/>
<path d="M104.363 978.688C116.17 978.688 125.741 969.132 125.741 957.344C125.741 945.556 116.17 936 104.363 936C92.5561 936 82.9849 945.556 82.9849 957.344C82.9849 969.132 92.5561 978.688 104.363 978.688Z" fill="#7BD5C6"/>
<path d="M447.156 891.312H403.244V934H447.156V891.312Z" fill="#FFBD8F"/>
<path d="M451 896H406V939H451V896Z" fill="#FFA86B"/>
<path d="M709.47 849.718H621.647V933.999H709.47V849.718Z" fill="white"/>
<path d="M709.47 849.718H665.559V891.312H709.47V849.718Z" fill="#97DED2"/>
<path d="M709.47 849.718H665.559V891.312H709.47V849.718Z" fill="#FFF4EC"/>
<path d="M709.47 891.312H665.559V934H709.47V891.312Z" fill="#BFEBE3"/>
<path d="M721 896H676V939H721V896Z" fill="#FFB27B"/>
<path d="M862.895 1000H818.983V1042.69H862.895V1000Z" fill="#A9E4DA"/>
<path d="M883.96 849.718H796.137V933.999H883.96V849.718Z" fill="white"/>
<path d="M840.049 849.718H796.137V891.312H840.049V849.718Z" fill="#F8FDFC"/>
<path d="M796.137 891.312C807.783 891.312 818.952 886.929 827.187 879.129C835.422 871.329 840.049 860.749 840.049 849.718H796.137" fill="#6DD1C0"/>
<path d="M710.312 1020.59C721.958 1020.59 733.127 1016.21 741.362 1008.41C749.597 1000.61 754.224 990.031 754.224 979H710.312" fill="#6DD1C0"/>
<path d="M314.158 1014.59C325.804 1014.59 336.973 1010.21 345.208 1002.41C353.443 994.611 358.069 984.031 358.069 973H314.158" fill="#FBBD91"/>
<path d="M1058.45 849.718H971.784V933.999H1058.45V849.718Z" fill="white"/>
<path d="M1058.45 891.312H1014.54V934H1058.45V891.312Z" fill="#FFA361"/>
<path d="M1014.54 891.312C1026.19 891.313 1037.36 895.81 1045.59 903.815C1053.83 911.821 1058.45 922.679 1058.45 934H1014.54" fill="#DFF5F1"/>
<path d="M1299.11 979H1246.75V1030H1299.11V979Z" fill="#FF8128"/>
<path d="M1483.58 979H1396.91V1063.28H1483.58V979Z" fill="#FF8128"/>
<path d="M1170 853H1259V939L1170 853Z" fill="#FFA361"/>
<path d="M1320.77 849.718H1232.94V933.999H1320.77V849.718Z" fill="white"/>
<path d="M1276.85 849.718H1232.94V891.312H1276.85V849.718Z" fill="#5DCCB9"/>
<path d="M1254.9 891.312C1267.02 891.312 1276.85 882.001 1276.85 870.515C1276.85 859.029 1267.02 849.718 1254.9 849.718C1242.77 849.718 1232.94 859.029 1232.94 870.515C1232.94 882.001 1242.77 891.312 1254.9 891.312Z" fill="#74D3C3"/>
<path d="M1320.77 891.312H1276.85V934H1320.77V891.312Z" fill="#E0F5F2"/>
<path d="M1320.77 891.312H1276.85V934H1320.77V891.312Z" fill="#6BD1BF"/>
<path d="M1581.92 849.718H1495.26V933.999H1581.92V849.718Z" fill="white"/>
<path d="M1539.17 891.312H1495.26V934H1539.17V891.312Z" fill="#91DCCF"/>
<path d="M1495.26 891.312H1539.17L1495.26 934V891.312Z" fill="#E4F6F3"/>
</g>
</g>
<defs>
<clipPath id="clip0_199_499">
<rect width="1920" height="1080" fill="white"/>
</clipPath>
</defs>
</svg>
