<svg id="visual" viewBox="0 0 960 540" width="960" height="540" xmlns="http://www.w3.org/2000/svg" xmlns:xlink="http://www.w3.org/1999/xlink" version="1.1"><path d="M0 267L17.8 271.7C35.7 276.3 71.3 285.7 106.8 296.8C142.3 308 177.7 321 213.2 329.2C248.7 337.3 284.3 340.7 320 331.5C355.7 322.3 391.3 300.7 426.8 295C462.3 289.3 497.7 299.7 533.2 291.7C568.7 283.7 604.3 257.3 640 255.8C675.7 254.3 711.3 277.7 746.8 296.7C782.3 315.7 817.7 330.3 853.2 329C888.7 327.7 924.3 310.3 942.2 301.7L960 293L960 541L942.2 541C924.3 541 888.7 541 853.2 541C817.7 541 782.3 541 746.8 541C711.3 541 675.7 541 640 541C604.3 541 568.7 541 533.2 541C497.7 541 462.3 541 426.8 541C391.3 541 355.7 541 320 541C284.3 541 248.7 541 213.2 541C177.7 541 142.3 541 106.8 541C71.3 541 35.7 541 17.8 541L0 541Z" fill="#00af91"></path><path d="M0 385L17.8 373C35.7 361 71.3 337 106.8 328.2C142.3 319.3 177.7 325.7 213.2 323C248.7 320.3 284.3 308.7 320 307.8C355.7 307 391.3 317 426.8 321.3C462.3 325.7 497.7 324.3 533.2 327.8C568.7 331.3 604.3 339.7 640 339.3C675.7 339 711.3 330 746.8 326.2C782.3 322.3 817.7 323.7 853.2 333.2C888.7 342.7 924.3 360.3 942.2 369.2L960 378L960 541L942.2 541C924.3 541 888.7 541 853.2 541C817.7 541 782.3 541 746.8 541C711.3 541 675.7 541 640 541C604.3 541 568.7 541 533.2 541C497.7 541 462.3 541 426.8 541C391.3 541 355.7 541 320 541C284.3 541 248.7 541 213.2 541C177.7 541 142.3 541 106.8 541C71.3 541 35.7 541 17.8 541L0 541Z" fill="#00a186"></path><path d="M0 380L17.8 386.8C35.7 393.7 71.3 407.3 106.8 415.5C142.3 423.7 177.7 426.3 213.2 414.7C248.7 403 284.3 377 320 371C355.7 365 391.3 379 426.8 391.5C462.3 404 497.7 415 533.2 411.5C568.7 408 604.3 390 640 386.3C675.7 382.7 711.3 393.3 746.8 390.5C782.3 387.7 817.7 371.3 853.2 364.2C888.7 357 924.3 359 942.2 360L960 361L960 541L942.2 541C924.3 541 888.7 541 853.2 541C817.7 541 782.3 541 746.8 541C711.3 541 675.7 541 640 541C604.3 541 568.7 541 533.2 541C497.7 541 462.3 541 426.8 541C391.3 541 355.7 541 320 541C284.3 541 248.7 541 213.2 541C177.7 541 142.3 541 106.8 541C71.3 541 35.7 541 17.8 541L0 541Z" fill="#00947b"></path><path d="M0 394L17.8 399.8C35.7 405.7 71.3 417.3 106.8 427.7C142.3 438 177.7 447 213.2 441.5C248.7 436 284.3 416 320 418C355.7 420 391.3 444 426.8 455.8C462.3 467.7 497.7 467.3 533.2 463.7C568.7 460 604.3 453 640 444.3C675.7 435.7 711.3 425.3 746.8 426.5C782.3 427.7 817.7 440.3 853.2 447.2C888.7 454 924.3 455 942.2 455.5L960 456L960 541L942.2 541C924.3 541 888.7 541 853.2 541C817.7 541 782.3 541 746.8 541C711.3 541 675.7 541 640 541C604.3 541 568.7 541 533.2 541C497.7 541 462.3 541 426.8 541C391.3 541 355.7 541 320 541C284.3 541 248.7 541 213.2 541C177.7 541 142.3 541 106.8 541C71.3 541 35.7 541 17.8 541L0 541Z" fill="#008670"></path><path d="M0 462L17.8 466C35.7 470 71.3 478 106.8 479.3C142.3 480.7 177.7 475.3 213.2 476.8C248.7 478.3 284.3 486.7 320 492.8C355.7 499 391.3 503 426.8 495C462.3 487 497.7 467 533.2 458.5C568.7 450 604.3 453 640 460.2C675.7 467.3 711.3 478.7 746.8 480.7C782.3 482.7 817.7 475.3 853.2 474.2C888.7 473 924.3 478 942.2 480.5L960 483L960 541L942.2 541C924.3 541 888.7 541 853.2 541C817.7 541 782.3 541 746.8 541C711.3 541 675.7 541 640 541C604.3 541 568.7 541 533.2 541C497.7 541 462.3 541 426.8 541C391.3 541 355.7 541 320 541C284.3 541 248.7 541 213.2 541C177.7 541 142.3 541 106.8 541C71.3 541 35.7 541 17.8 541L0 541Z" fill="#007965"></path></svg>