<svg id="visual" viewBox="0 0 960 540" width="960" height="540" xmlns="http://www.w3.org/2000/svg" xmlns:xlink="http://www.w3.org/1999/xlink" version="1.1"><path d="M0 273L17.8 276.3C35.7 279.7 71.3 286.3 106.8 292.8C142.3 299.3 177.7 305.7 213.2 298.2C248.7 290.7 284.3 269.3 320 266C355.7 262.7 391.3 277.3 426.8 283.3C462.3 289.3 497.7 286.7 533.2 279C568.7 271.3 604.3 258.7 640 268C675.7 277.3 711.3 308.7 746.8 322.2C782.3 335.7 817.7 331.3 853.2 328.3C888.7 325.3 924.3 323.7 942.2 322.8L960 322L960 541L942.2 541C924.3 541 888.7 541 853.2 541C817.7 541 782.3 541 746.8 541C711.3 541 675.7 541 640 541C604.3 541 568.7 541 533.2 541C497.7 541 462.3 541 426.8 541C391.3 541 355.7 541 320 541C284.3 541 248.7 541 213.2 541C177.7 541 142.3 541 106.8 541C71.3 541 35.7 541 17.8 541L0 541Z" fill="#ffcc29"></path><path d="M0 291L17.8 296.8C35.7 302.7 71.3 314.3 106.8 312C142.3 309.7 177.7 293.3 213.2 284.5C248.7 275.7 284.3 274.3 320 286.7C355.7 299 391.3 325 426.8 324.5C462.3 324 497.7 297 533.2 289.7C568.7 282.3 604.3 294.7 640 298.2C675.7 301.7 711.3 296.3 746.8 295.3C782.3 294.3 817.7 297.7 853.2 305.5C888.7 313.3 924.3 325.7 942.2 331.8L960 338L960 541L942.2 541C924.3 541 888.7 541 853.2 541C817.7 541 782.3 541 746.8 541C711.3 541 675.7 541 640 541C604.3 541 568.7 541 533.2 541C497.7 541 462.3 541 426.8 541C391.3 541 355.7 541 320 541C284.3 541 248.7 541 213.2 541C177.7 541 142.3 541 106.8 541C71.3 541 35.7 541 17.8 541L0 541Z" fill="#ffbd28"></path><path d="M0 405L17.8 395.2C35.7 385.3 71.3 365.7 106.8 352.5C142.3 339.3 177.7 332.7 213.2 336.2C248.7 339.7 284.3 353.3 320 354.3C355.7 355.3 391.3 343.7 426.8 341.8C462.3 340 497.7 348 533.2 353.8C568.7 359.7 604.3 363.3 640 364.5C675.7 365.7 711.3 364.3 746.8 365.3C782.3 366.3 817.7 369.7 853.2 372.3C888.7 375 924.3 377 942.2 378L960 379L960 541L942.2 541C924.3 541 888.7 541 853.2 541C817.7 541 782.3 541 746.8 541C711.3 541 675.7 541 640 541C604.3 541 568.7 541 533.2 541C497.7 541 462.3 541 426.8 541C391.3 541 355.7 541 320 541C284.3 541 248.7 541 213.2 541C177.7 541 142.3 541 106.8 541C71.3 541 35.7 541 17.8 541L0 541Z" fill="#ffaf2a"></path><path d="M0 398L17.8 405.5C35.7 413 71.3 428 106.8 425.7C142.3 423.3 177.7 403.7 213.2 403.5C248.7 403.3 284.3 422.7 320 424.7C355.7 426.7 391.3 411.3 426.8 405.3C462.3 399.3 497.7 402.7 533.2 405.3C568.7 408 604.3 410 640 415.3C675.7 420.7 711.3 429.3 746.8 425C782.3 420.7 817.7 403.3 853.2 391.8C888.7 380.3 924.3 374.7 942.2 371.8L960 369L960 541L942.2 541C924.3 541 888.7 541 853.2 541C817.7 541 782.3 541 746.8 541C711.3 541 675.7 541 640 541C604.3 541 568.7 541 533.2 541C497.7 541 462.3 541 426.8 541C391.3 541 355.7 541 320 541C284.3 541 248.7 541 213.2 541C177.7 541 142.3 541 106.8 541C71.3 541 35.7 541 17.8 541L0 541Z" fill="#fda12d"></path><path d="M0 477L17.8 473.2C35.7 469.3 71.3 461.7 106.8 457C142.3 452.3 177.7 450.7 213.2 444.2C248.7 437.7 284.3 426.3 320 426.8C355.7 427.3 391.3 439.7 426.8 448.5C462.3 457.3 497.7 462.7 533.2 459.2C568.7 455.7 604.3 443.3 640 435.3C675.7 427.3 711.3 423.7 746.8 431.3C782.3 439 817.7 458 853.2 467.3C888.7 476.7 924.3 476.3 942.2 476.2L960 476L960 541L942.2 541C924.3 541 888.7 541 853.2 541C817.7 541 782.3 541 746.8 541C711.3 541 675.7 541 640 541C604.3 541 568.7 541 533.2 541C497.7 541 462.3 541 426.8 541C391.3 541 355.7 541 320 541C284.3 541 248.7 541 213.2 541C177.7 541 142.3 541 106.8 541C71.3 541 35.7 541 17.8 541L0 541Z" fill="#f99330"></path><path d="M0 471L17.8 469C35.7 467 71.3 463 106.8 467.2C142.3 471.3 177.7 483.7 213.2 489.5C248.7 495.3 284.3 494.7 320 490.2C355.7 485.7 391.3 477.3 426.8 473.5C462.3 469.7 497.7 470.3 533.2 473.7C568.7 477 604.3 483 640 486.8C675.7 490.7 711.3 492.3 746.8 493.7C782.3 495 817.7 496 853.2 498C888.7 500 924.3 503 942.2 504.5L960 506L960 541L942.2 541C924.3 541 888.7 541 853.2 541C817.7 541 782.3 541 746.8 541C711.3 541 675.7 541 640 541C604.3 541 568.7 541 533.2 541C497.7 541 462.3 541 426.8 541C391.3 541 355.7 541 320 541C284.3 541 248.7 541 213.2 541C177.7 541 142.3 541 106.8 541C71.3 541 35.7 541 17.8 541L0 541Z" fill="#f58634"></path></svg>